<?xml version="1.0" encoding="utf-8"?>
<!-- Generator: Adobe Illustrator 28.1.0, SVG Export Plug-In . SVG Version: 6.00 Build 0)  -->
<svg version="1.1" id="Layer_1" xmlns="http://www.w3.org/2000/svg" xmlns:xlink="http://www.w3.org/1999/xlink" x="0px" y="0px"
	 viewBox="0 0 4529.9 404.7" style="enable-background:new 0 0 4529.9 404.7;" xml:space="preserve">
<style type="text/css">
	.st0{fill:#FFFFFF;}
	.st1{fill:#E03533;}
</style>
<path class="st0" d="M410.4,111.4c0.9-35.7-15.8-69.8-50.1-84.5c-12.7-5.4-30-8.2-43.7-10.6c-52.3-9.1-105.1-5.4-157.8-4.1
	c-32.2,3.1-59.1,3.1-87.7,12.2c-24.4,9-50.5,19.7-58.4,46.2C8,85.7,7.6,101.1,7.4,117c-0.8,46.9,10.5,73.5,56.1,82.7
	c45.9,9.2,106.2,11.2,152.7,12.7c17.2,0.5,34.5,1.6,51.5,4.3c3.7,0.6,8.1,3,11.5,6c3.1,2.8,5,6.7,5.7,10.9
	c3.2,18.6-3,31.5-21.3,34.6c-38.1,4-71,4.7-107,0.4c-14-2.3-25-8.9-26.5-24.6c-0.3-2.8-0.6-6.1-0.7-9.2c-40.7,0-78.6-0.8-120-0.8
	c-0.3,13.7,0.4,24.7,2.7,35.8c6.4,31,24.7,52.5,54.4,61.6c19.1,5.9,39.3,9.3,59.3,11c56.3,4.8,112.6,3.3,168.8-1.8
	c28-2.5,55.5-7.4,80.9-20.8c21.3-11.3,34.4-28.1,35.8-52.6c0.9-16.1,1.5-32.3,0.4-48.3c-2.4-34.3-16.3-53.8-49.4-61.5
	c-31.2-7.3-62.2-8.1-94.2-11.2c-34.7-3.4-75.2-2.5-110.2-6.1c-17.3-1.3-25.6-12.6-23.9-29.4c1.3-13,7.9-21.3,25.8-23.7
	c24.4-2.2,51.2-3.7,78.3-2.3c26.7,1,51.5,2.9,51.8,32.1l0.2,4.1l120.3,0.8L410.4,111.4z"/>
<path class="st0" d="M1713.2,104.1c0-10.7-0.8-21.3-3.7-31.6c-4.7-17-15.7-28.5-30.6-36.8c-17.6-9.8-36.6-15.5-56.3-18.7
	c-29.1-4.7-58.5-5.8-87.9-6.4c-8.6-0.2-17.2-0.4-25.8-0.6v0c-8.6,0.2-17.2,0.4-25.8,0.6c-29.4,0.6-58.7,1.7-87.9,6.4
	c-19.8,3.2-38.7,8.9-56.3,18.7c-14.9,8.3-25.8,19.8-30.6,36.8c-2.9,10.3-3.7,20.9-3.7,31.6c0,48.1-0.1,96.1,0.1,144.2
	c0,8.1,0.6,16.2,1.7,24.2c2.6,19.2,11.8,34.1,28.3,44.2c12.9,7.8,26.6,13.6,41.1,17.2c30.1,7.5,60.9,9,91.8,10
	c13.7,0.4,27.5,0.6,41.3,0.8v0c13.8-0.2,27.5-0.4,41.3-0.8c30.8-1,61.6-2.5,91.8-10c14.6-3.6,28.3-9.4,41.1-17.2
	c16.5-10,25.7-25,28.3-44.2c1.1-8,1.7-16.2,1.7-24.2C1713.3,200.2,1713.2,152.2,1713.2,104.1z M1589.1,220.1c0,6.9-0.6,14-2.2,20.7
	c-4.5,19.4-20.1,31.8-39.8,33.1c-12.7,0.8-25.4,1.5-38.1,1.7v0c-12.7-0.2-25.4-0.8-38.1-1.7c-19.7-1.3-35.3-13.7-39.8-33.1
	c-1.5-6.7-2.1-13.8-2.2-20.7c-0.1-23.6,0.3-47.2,0.5-70.8c0.1-8.2-0.3-16.5,0.1-24.7c1.1-23.5,15.8-39.5,38.7-41.9
	c13.6-1.5,27.2-2.1,40.8-2.2v0c13.6,0.1,27.2,0.7,40.8,2.2c22.9,2.5,37.5,18.4,38.7,41.9c0.4,8.2,0,16.4,0.1,24.7
	C1588.7,172.9,1589.1,196.5,1589.1,220.1z"/>
<g>
	<g>
		<rect x="4466.7" y="263.9" class="st1" width="57.3" height="57.3"/>
		<rect x="4466.7" y="338.1" class="st1" width="57.3" height="57.3"/>
	</g>
</g>
<path class="st0" d="M3182.7,119.6c0.1-0.7,0.2-1.3,0.2-1.9c-0.4-15.7-2.5-31-8.5-45.6c-10.2-24.6-27.6-41.2-53.2-48.3
	c-29.3-8.2-59.4-11.8-89.7-12.3c-25.4-0.4-50.8,0.5-76.3,1c-29.3,0.6-58.7,1.7-87.7,6.4c-19.7,3.1-38.6,8.8-56.2,18.5
	c-14.9,8.2-25.8,19.7-30.5,36.5c-2.9,10.2-3.7,20.7-3.7,31.3c0,47.7-0.1,95.3,0.1,143c0,8,0.6,16.1,1.7,24
	c2.6,19,11.8,33.9,28.2,43.8c12.9,7.7,26.5,13.5,41.1,17.1c30.1,7.4,60.8,9,91.6,10c21.9,0.7,43.8,0.6,65.7,1.4
	c37.5,1.3,74.5-2.1,111-10.8c14.7-3.5,28-9.8,38.9-20.7c20.8-20.8,26.9-47.1,27.6-75.4c-39.2,0-78.3,0-117.5,0
	c-0.1,1.2-0.2,2-0.2,2.8c-1.1,17.7-9.9,28.4-27.1,31.7c-8.4,1.6-17,2.1-25.5,2.6c-23.3,1.3-46.5,0.4-69.7-1.1
	c-19.7-1.3-35.2-13.5-39.7-32.8c-1.5-6.6-2.1-13.7-2.2-20.5c-0.1-23.4,0.3-46.8,0.5-70.2c0.1-8.2-0.3-16.3,0.1-24.5
	c1.1-23.4,15.8-39.1,38.6-41.6c23.5-2.5,47-2.6,70.6-1.7c8.9,0.3,17.8,1,26.5,2.5c15.5,2.7,24.7,11.8,27.2,25.7
	c0.5,2.9,0.7,5.9,1.1,9.1C3104.7,119.6,3143.6,119.6,3182.7,119.6z"/>
<g>
	<path class="st0" d="M3807.3,277.8l-17.7-0.2c-23.3-2.3-30.4-1.8-43.2-12.5c-15.1-12.6-12.4-51.8-12.4-51.8v-26V10h-124.7v218.7
		c0,0,0.3,35.4,0.5,36s-0.4,26.2,12.6,41.2c13,15,35.7,23.5,35.7,23.5s26.2,9.8,60.2,12.7c22.3,1.9,53.3,2.4,72,2.7l16,0.2
		c18.7-0.3,49.6-0.9,72-2.7c34-2.8,60.2-12.7,60.2-12.7s22.6-8.5,35.7-23.5c13-15,12.5-40.6,12.6-41.2s0.5-36,0.5-36V10.1h-122.8
		v177.4v26c0,0,3.9,40.8-11.2,53.4C3840.6,277.5,3833.4,277.4,3807.3,277.8z"/>
</g>
<path class="st0" d="M3379.1,272.8c-19.8-1.3-35.4-13.6-39.9-32.9c-1.6-6.7-2.2-13.7-2.2-20.6c-0.1-23.5,0.3-47,0.5-70.5l-0.3-16.8
	V10h-124.8v144.6h0c0,30.9,0,61.8,0.1,92.7c0,8.1,0.6,16.2,1.7,24.1c2.6,19.1,11.8,34,28.4,44c12.9,7.8,26.7,13.6,41.3,17.2
	c30.3,7.5,61.2,9,92.1,10c22,0.7,44.1,0.6,66.1,1.4c5.6,0.2,87.5,0.3,140.4,0.3v-69.8C3505.4,274.2,3391.4,273.6,3379.1,272.8z"/>
<path class="st0" d="M1214.9,233.8c4.8-1.5,9.6-3.3,14.3-5.6c26.5-12.8,41.3-38.9,45.9-76.5c1.1-9,0.7-17.5,0.8-26.5
	c-0.1-9,0.3-18.7-0.8-27.7c-4.6-37.6-19.4-63.7-45.9-76.5c-16.6-8.1-33.7-10.9-51.3-10.8c-58.2,0.3-116.4-0.1-174.5-0.1
	c-40.9,0-81.8,0-122.7,0c-1.4,0-2.9-0.1-4.3,0c0,32.7,0,65.5,0.1,98.2V345h122.7V239.1c4.1,0,0.2,0,4.3,0c28.8,0,57.7-0.1,86.5-0.2
	l59.5,106.2l128.5-0.4L1214.9,233.8z"/>
<path class="st0" d="M2145.8,107c0-8-0.6-16.1-1.7-24.1c-2.6-19.1-11.8-34-28.3-43.9c-12.9-7.8-26.6-13.6-41.2-17.2
	c-30.2-7.5-61.1-9-91.9-10c-21-0.7-99.4-0.6-119.1-1.3v0h-122.6v334h122.6l0,0c15.8-0.2,87.8-0.7,103.6-1c29.4-0.6,58.8-1.7,88-6.4
	c19.8-3.1,38.7-8.8,56.4-18.6c14.9-8.2,25.9-19.7,30.6-36.6c2.9-10.3,3.7-20.8,3.7-31.4C2145.9,202.6,2145.9,154.8,2145.8,107z
	 M2020.9,230c-1.2,23.4-15.8,39.3-38.7,41.7c-20,2.1-94.5,2.5-118.7,2V79.9c18.7-0.6,96.1,0.2,116,1.5c19.8,1.3,35.3,13.6,39.8,32.9
	c1.5,6.7,2.2,13.7,2.2,20.6c0.1,23.5-0.3,47-0.5,70.5C2020.9,213.6,2021.3,221.8,2020.9,230z"/>
<path class="st0" d="M809,10.3c-10.1,0.4-20.2,0.5-30.3,0.7H506.4c-10.1-0.2-20.2-0.3-30.3-0.7c-2.2-0.1-16.2-0.1-35.6-0.2v70.3
	c49,0.3,91,0.7,98.1,1.2c19.7,1.3,35.2,13.6,39.7,33c1.5,6.7,2.1,13.7,2.2,20.6c0.1,23.5-0.3,47.1-0.5,70.6l0.3,16.9v122.1h0.2
	h123.9h0.2V222.7l0.3-16.9c-0.2-23.5-0.6-47.1-0.5-70.6c0-6.9,0.6-13.9,2.2-20.6c4.5-19.4,20-31.7,39.7-33
	c7.2-0.5,50.1-0.9,99.8-1.2V10.1C826,10.2,811.3,10.2,809,10.3z"/>
<path class="st0" d="M2500.1,345.1h132.5L2489.6,10h-204.1l-142.2,335.1h132l22.3-53.4h179.7L2500.1,345.1z M2326.6,223.7
	l60.9-143.4l60.9,143.4H2326.6z"/>
<path class="st0" d="M4387.5,188.2c-13.3-7.1-28.6-8.5-43.5-10.8c14.9-2.3,30.3-3.7,43.5-10.8c16.9-9.1,27.9-25.6,30.2-44.9
	c1.9-16.3,1.5-31.2,0.5-47.7c-1.7-28.1-19.6-47.1-46.3-56.5c-16.8-6-34-8-51.8-8c-58.7,0.2-117.5-0.1-176.2-0.1
	c-41.3,0-82.6,0-123.8,0c-1.4,0-2.8-0.1-4.3,0c0,56,0,112,0,167.9c0,0.1,0,0.2,0,0.2c0,55.8,0,111.7,0,167.6
	c1.5,0.1,2.9,0.2,4.3,0.2c41.3,0,82.6,0,123.8,0c58.7,0,117.5-0.3,176.2-0.1c17.8,0.1,35-2,51.8-8c26.7-9.5,44.6-28.4,46.3-56.5
	c1-16.5,1.4-31.4-0.5-47.7C4415.4,213.8,4404.4,197.3,4387.5,188.2z"/>
</svg>
