<svg width="434" height="345" viewBox="0 0 434 345" fill="none" xmlns="http://www.w3.org/2000/svg">
<rect x="20.6172" y="31.3477" width="392.516" height="30.2849" fill="black"/>
<path d="M191.455 42.0111C193.387 42.0111 194.389 43.065 194.534 44.4702L194.544 44.5735H193.118L193.097 44.4702C192.922 43.592 192.384 43.0753 191.434 43.0753C190.287 43.0753 189.512 44.0569 189.512 45.6791C189.512 47.4563 190.328 48.3656 191.413 48.3656C192.343 48.3656 192.88 47.8076 193.066 46.919L193.087 46.8157H194.503L194.492 46.919C194.337 48.4379 193.18 49.4298 191.351 49.4298C189.367 49.4298 188.004 48.0349 188.004 45.7618C188.004 43.4266 189.481 42.0111 191.455 42.0111ZM201.991 42.1557V49.2852H200.576V46.3611H197.238V49.2852H195.813V42.1557H197.238V45.2245H200.576V42.1557H201.991ZM208.728 48.1589V49.2852H203.582V42.1557H208.624V43.2716H205.008V45.1522H208.366V46.2784H205.008V48.1589H208.728ZM213.007 42.0111C214.94 42.0111 215.942 43.065 216.087 44.4702L216.097 44.5735H214.671L214.65 44.4702C214.475 43.592 213.937 43.0753 212.987 43.0753C211.84 43.0753 211.065 44.0569 211.065 45.6791C211.065 47.4563 211.881 48.3656 212.966 48.3656C213.896 48.3656 214.433 47.8076 214.619 46.919L214.64 46.8157H216.056L216.045 46.919C215.89 48.4379 214.733 49.4298 212.904 49.4298C210.92 49.4298 209.556 48.0349 209.556 45.7618C209.556 43.4266 211.034 42.0111 213.007 42.0111ZM220.414 45.5655L223.42 49.2852H221.581L219.38 46.4024L218.791 47.043V49.2852H217.365V42.1557H218.791V45.5965L221.87 42.1557H223.565L220.414 45.5655ZM229.564 48.0969V49.2852L224.419 49.2852L224.419 42.1557H225.844L225.844 48.0969H229.564ZM232.08 49.2852H230.654L230.654 42.1557H232.08L232.08 49.2852ZM236.038 42.0111C237.742 42.0111 238.517 42.9823 238.672 44.2532H237.215C237.133 43.53 236.73 43.0753 235.986 43.0753C235.418 43.0753 234.984 43.344 234.984 43.9226C234.984 44.5219 235.366 44.8215 236.503 45.0902C238.073 45.4518 238.776 46.1751 238.776 47.322C238.776 48.6652 237.546 49.4298 236.141 49.4298C234.436 49.4298 233.32 48.6755 233.186 47.1773H234.643C234.798 47.9626 235.397 48.3656 236.12 48.3656C236.771 48.3656 237.288 48.0143 237.288 47.4666C237.288 46.8674 236.916 46.516 235.862 46.2681C234.405 45.9168 233.485 45.4105 233.485 44.0982C233.485 42.786 234.674 42.0111 236.038 42.0111ZM245.537 43.2716H243.119V49.2852H241.694V43.2716H239.276V42.1557H245.537V43.2716Z" fill="#FFFAF2"/>
<path d="M107.18 87H104.689V93.2305H103.563V87H101.073V86.1011H107.18V87ZM109.614 87.5993C111.453 87.5993 112.394 88.8805 112.394 90.482C112.394 92.0836 111.453 93.3751 109.614 93.3751C107.765 93.3751 106.835 92.0836 106.835 90.482C106.835 88.8805 107.765 87.5993 109.614 87.5993ZM109.614 92.5485C110.606 92.5485 111.185 91.7219 111.185 90.482C111.185 89.2421 110.606 88.4259 109.614 88.4259C108.612 88.4259 108.033 89.2421 108.033 90.482C108.033 91.7219 108.612 92.5485 109.614 92.5485ZM116.379 87.5993C117.95 87.5993 118.849 88.7875 118.849 90.389C118.849 92.4039 117.609 93.3751 116.193 93.3751C115.738 93.3751 115.17 93.2511 114.891 93.0342L114.53 92.4865V95.2556H113.393V87.7439H114.53V88.6015L114.943 88.0126C115.253 87.7542 115.821 87.5993 116.379 87.5993ZM116.059 92.5485C116.968 92.5485 117.65 91.8562 117.65 90.4924C117.65 89.3041 117.102 88.4259 116.11 88.4259C115.263 88.4259 114.53 88.9632 114.53 90.4304V90.7093C114.53 92.0526 115.335 92.5485 116.059 92.5485ZM120.429 85.8324C120.811 85.8324 121.101 86.1114 121.101 86.4834C121.101 86.8657 120.811 87.1446 120.429 87.1446C120.047 87.1446 119.768 86.8657 119.768 86.4834C119.768 86.1114 120.047 85.8324 120.429 85.8324ZM120.997 93.2305H119.861V87.7439H120.997L120.997 93.2305ZM124.696 87.5993C126.081 87.5993 126.959 88.4362 127.093 89.6451H125.946C125.781 88.8082 125.337 88.4259 124.665 88.4259C123.87 88.4259 123.239 89.0561 123.239 90.4304C123.239 91.9182 123.859 92.5485 124.624 92.5485C125.275 92.5485 125.74 92.1559 125.905 91.412H127.062C126.804 92.7242 125.853 93.3751 124.562 93.3751C123.126 93.3751 122.041 92.4659 122.041 90.513C122.041 88.6428 123.26 87.5993 124.696 87.5993Z" fill="black"/>
<path d="M243.057 84.765C244.916 84.765 245.888 85.7982 246.032 87.2035L246.043 87.3068H244.916L244.896 87.2035C244.7 86.2425 244.111 85.6329 243.036 85.6329C241.713 85.6329 240.876 86.7695 240.876 88.4537C240.876 90.2205 241.724 91.3158 242.984 91.3158C244.059 91.3158 244.648 90.6855 244.844 89.7246L244.865 89.6213H245.991L245.981 89.7246C245.836 91.1195 244.792 92.1837 242.933 92.1837C240.897 92.1837 239.647 90.6752 239.647 88.5054C239.647 86.2632 241.052 84.765 243.057 84.765ZM251.953 86.5525V92.0391H250.827V91.0988L250.444 91.7808C250.01 92.0907 249.608 92.1837 249.06 92.1837C247.923 92.1837 247.262 91.5431 247.138 90.7888C247.097 90.5099 247.086 90.2619 247.086 89.8176V86.5525H248.213V89.5903C248.213 89.7659 248.223 90.0656 248.254 90.3445C248.337 90.9438 248.729 91.3365 249.432 91.3365C250.227 91.3365 250.827 90.7268 250.827 89.1356V86.5525H251.953ZM255.854 86.4182C256.009 86.4182 256.122 86.4389 256.236 86.4802V87.3688C255.192 87.2965 254.541 87.8337 254.541 89.1873V92.0391H253.405V86.5525H254.541V87.4824L255.006 86.7282C255.254 86.5318 255.575 86.4182 255.854 86.4182ZM259.496 86.4182C259.651 86.4182 259.765 86.4389 259.879 86.4802V87.3688C258.835 87.2965 258.184 87.8337 258.184 89.1873V92.0391H257.047V86.5525H258.184V87.4824L258.649 86.7282C258.897 86.5318 259.217 86.4182 259.496 86.4182ZM265.321 89.1563C265.321 89.2596 265.321 89.4146 265.301 89.6109H261.364C261.457 90.9232 262.056 91.3571 262.8 91.3571C263.461 91.3571 263.978 90.9542 264.092 90.2619H265.239C265.001 91.5638 263.957 92.1837 262.759 92.1837C261.292 92.1837 260.186 91.2538 260.186 89.3113C260.186 87.5754 261.292 86.4079 262.872 86.4079C264.464 86.4079 265.321 87.6064 265.321 89.1563ZM262.831 87.2345C262.056 87.2345 261.498 87.7614 261.374 88.8153H264.154C264.071 87.8027 263.627 87.2345 262.831 87.2345ZM271.247 87.9784C271.268 88.2574 271.278 88.5054 271.278 88.9496V92.0391H270.142V89.0736C270.142 88.8153 270.142 88.5777 270.121 88.2987C270.069 87.6788 269.739 87.2448 268.964 87.2448C268.178 87.2448 267.538 87.8647 267.538 89.5799V92.0391H266.401V86.5525H267.538V87.4618L267.91 86.8315C268.344 86.5008 268.747 86.4079 269.294 86.4079C270.472 86.4079 271.144 87.0175 271.247 87.9784ZM274.021 87.3894V90.2619C274.021 90.4479 274.021 90.5718 274.031 90.7165C274.073 91.2538 274.279 91.3675 275.023 91.2951V92.0804C274.734 92.1217 274.465 92.1424 274.186 92.1424C273.329 92.1424 272.957 91.8221 272.905 91.0988C272.895 90.9128 272.895 90.6752 272.895 90.3652V87.3894H272.12V86.5938H272.895V85.2816H274.021V86.5938H275.095V87.3894H274.021Z" fill="black"/>
<path d="M307.374 90.1999C307.457 91.0988 307.581 91.6464 307.87 92.0391H306.62C306.434 91.5741 306.341 91.1298 306.258 90.3445C306.165 89.5903 305.886 89.115 305.235 89.0736C305.059 89.0633 304.884 89.0633 304.708 89.0633H303.603V92.0391H302.466V84.9096H304.925C305.307 84.9096 305.566 84.9096 305.907 84.951C306.94 85.0853 307.715 85.6329 307.715 86.8522C307.715 87.7821 307.147 88.3297 306.392 88.557C307.033 88.836 307.302 89.4559 307.374 90.1999ZM303.603 88.185H304.791C305.08 88.185 305.256 88.185 305.431 88.1644C306.051 88.1024 306.516 87.7511 306.516 86.9968C306.516 86.2425 306.134 85.9326 305.524 85.8499C305.338 85.8189 305.152 85.8086 304.863 85.8086H303.603V88.185ZM313.478 89.1563C313.478 89.2596 313.478 89.4146 313.457 89.6109H309.521C309.614 90.9232 310.213 91.3571 310.957 91.3571C311.618 91.3571 312.135 90.9542 312.248 90.2619H313.395C313.158 91.5638 312.114 92.1837 310.916 92.1837C309.448 92.1837 308.343 91.2538 308.343 89.3113C308.343 87.5754 309.448 86.4079 311.029 86.4079C312.62 86.4079 313.478 87.6064 313.478 89.1563ZM310.988 87.2345C310.213 87.2345 309.655 87.7614 309.531 88.8153H312.31C312.228 87.8027 311.783 87.2345 310.988 87.2345ZM319.373 86.5525L317.275 92.0391H315.953L313.855 86.5525H315.106L316.645 91.2021L318.164 86.5525H319.373ZM320.686 84.641C321.068 84.641 321.358 84.92 321.358 85.2919C321.358 85.6742 321.068 85.9532 320.686 85.9532C320.304 85.9532 320.025 85.6742 320.025 85.2919C320.025 84.92 320.304 84.641 320.686 84.641ZM321.254 92.0391H320.118V86.5525H321.254V92.0391ZM324.478 86.4079C325.738 86.4079 326.441 87.1208 326.565 88.123H325.408C325.294 87.5444 324.953 87.2035 324.395 87.2035C323.858 87.2035 323.6 87.5031 323.6 87.9164C323.6 88.4124 324.002 88.619 324.819 88.836C326.017 89.146 326.648 89.6213 326.648 90.5925C326.648 91.6568 325.707 92.1837 324.509 92.1837C323.29 92.1837 322.391 91.6361 322.236 90.3962H323.383C323.517 91.0988 323.982 91.3778 324.55 91.3778C325.077 91.3778 325.501 91.1505 325.501 90.6752C325.501 90.1999 325.129 89.9416 324.199 89.6936C323.197 89.4353 322.453 89.0116 322.453 88.0507C322.453 87.0278 323.259 86.4079 324.478 86.4079ZM332.347 89.1563C332.347 89.2596 332.347 89.4146 332.326 89.6109H328.39C328.483 90.9232 329.082 91.3571 329.826 91.3571C330.487 91.3571 331.004 90.9542 331.117 90.2619H332.264C332.027 91.5638 330.983 92.1837 329.784 92.1837C328.317 92.1837 327.212 91.2538 327.212 89.3113C327.212 87.5754 328.317 86.4079 329.898 86.4079C331.489 86.4079 332.347 87.6064 332.347 89.1563ZM329.857 87.2345C329.082 87.2345 328.524 87.7614 328.4 88.8153H331.179C331.097 87.8027 330.652 87.2345 329.857 87.2345ZM338.469 84.4447V92.0391H337.333V91.1711L336.919 91.7704C336.609 92.0184 336.041 92.1837 335.483 92.1837C333.912 92.1837 333.014 90.9955 333.014 89.3836C333.014 87.3791 334.253 86.4079 335.669 86.4079C336.124 86.4079 336.692 86.5318 336.971 86.7488L337.333 87.2965V84.4447H338.469ZM335.741 91.3571C336.599 91.3571 337.333 90.8198 337.333 89.3526V89.0633C337.333 87.7304 336.527 87.2345 335.793 87.2345C334.894 87.2345 334.212 87.9267 334.212 89.2906C334.212 90.4789 334.76 91.3571 335.741 91.3571Z" fill="black"/>
<path d="M370.704 85.8086V88.0197H374V88.9187H370.704V92.0391H369.568V84.9096H374.393V85.8086H370.704ZM375.851 84.641C376.233 84.641 376.522 84.92 376.522 85.2919C376.522 85.6742 376.233 85.9532 375.851 85.9532C375.468 85.9532 375.189 85.6742 375.189 85.2919C375.189 84.92 375.468 84.641 375.851 84.641ZM376.419 92.0391H375.282V86.5525H376.419V92.0391ZM382.722 87.9784C382.742 88.2574 382.753 88.5054 382.753 88.9496V92.0391H381.616V89.0736C381.616 88.8153 381.616 88.5777 381.595 88.2987C381.544 87.6788 381.213 87.2448 380.438 87.2448C379.653 87.2448 379.012 87.8647 379.012 89.5799V92.0391H377.876V86.5525H379.012V87.4618L379.384 86.8315C379.818 86.5008 380.221 86.4079 380.769 86.4079C381.947 86.4079 382.618 87.0175 382.722 87.9784ZM387.303 92.0391L387.2 91.2435L386.921 91.8324C386.549 92.0907 386.074 92.1837 385.557 92.1837C384.586 92.1837 383.79 91.6258 383.79 90.6028C383.79 89.3836 384.762 88.7223 386.839 88.7223H387.19V88.588C387.19 88.3814 387.19 88.1954 387.169 87.9887C387.138 87.5444 386.859 87.2345 386.208 87.2345C385.547 87.2345 385.206 87.6064 385.144 88.2884H384.007C384.08 87.0898 384.979 86.4079 386.229 86.4079C387.644 86.4079 388.202 87.0071 388.295 87.9371C388.316 88.1644 388.326 88.4537 388.326 88.712V90.6442C388.326 91.0575 388.347 91.4294 388.43 92.0391H387.303ZM385.971 91.3571C386.684 91.3571 387.19 90.8715 387.19 89.9829V89.4766C385.857 89.3733 384.989 89.6729 384.989 90.5099C384.989 91.0885 385.371 91.3571 385.971 91.3571ZM390.867 84.4447V90.3652C390.867 90.5512 390.867 90.7165 390.878 90.8818C390.898 91.1918 391.043 91.2951 391.529 91.2538V92.0494C391.301 92.0804 391.043 92.1011 390.785 92.1011C390.185 92.1011 389.782 91.8841 389.741 91.1815C389.731 90.9748 389.731 90.7268 389.731 90.3962V84.4447H390.867Z" fill="black"/>
<rect x="20.9141" y="71.4336" width="391.922" height="264.25" stroke="black" stroke-width="0.593821"/>
<rect x="232.016" y="130.512" width="14.2517" height="14.2517" fill="#FFE3C5"/>
<rect x="232.016" y="163.77" width="14.2517" height="14.2517" fill="#FFE3C5"/>
<rect x="232.016" y="197.023" width="14.2517" height="14.2517" fill="#FFE3C5"/>
<rect x="232.016" y="230.281" width="14.2517" height="14.2517" fill="#FFE3C5"/>
<rect x="232.016" y="263.535" width="14.2517" height="14.2517" fill="#FFE3C5"/>
<rect x="232.016" y="299.758" width="14.2517" height="14.2517" fill="#FFE3C5"/>
<rect x="294.359" y="130.512" width="14.2517" height="14.2517" fill="#FFE3C5"/>
<rect x="294.359" y="163.77" width="14.2517" height="14.2517" fill="#FFE3C5"/>
<rect x="294.359" y="197.023" width="14.2517" height="14.2517" fill="#FFE3C5"/>
<rect x="294.359" y="230.281" width="14.2517" height="14.2517" fill="#FFE3C5"/>
<rect x="294.961" y="265.906" width="14.2517" height="14.2517" fill="#FFE3C5"/>
<rect x="294.961" y="299.758" width="14.2517" height="14.2517" fill="#FFE3C5"/>
<rect x="356.102" y="130.512" width="14.2517" height="14.2517" fill="#FFE3C5"/>
<rect x="356.102" y="163.77" width="14.2517" height="14.2517" fill="#FFE3C5"/>
<rect x="356.102" y="197.023" width="14.2517" height="14.2517" fill="#FFE3C5"/>
<rect x="356.102" y="230.281" width="14.2517" height="14.2517" fill="#FFE3C5"/>
<rect x="356.102" y="265.906" width="14.2517" height="14.2517" fill="#FFE3C5"/>
<rect x="356.102" y="299.758" width="14.2517" height="14.2517" fill="#FFE3C5"/>
<rect x="250.414" y="130.512" width="14.2517" height="14.2517" fill="#FDCA94" fill-opacity="0.58"/>
<rect x="250.414" y="164.363" width="14.2517" height="14.2517" fill="#FDCA94" fill-opacity="0.58"/>
<rect x="250.414" y="197.617" width="14.2517" height="14.2517" fill="#FDCA94" fill-opacity="0.58"/>
<rect x="250.414" y="230.875" width="14.2517" height="14.2517" fill="#FDCA94" fill-opacity="0.58"/>
<rect x="250.414" y="265.906" width="14.2517" height="14.2517" fill="#FDCA94" fill-opacity="0.58"/>
<rect x="250.414" y="299.758" width="14.2517" height="14.2517" fill="#FDCA94" fill-opacity="0.58"/>
<rect x="313.367" y="130.512" width="14.2517" height="14.2517" fill="#FDCA94" fill-opacity="0.58"/>
<rect x="313.367" y="164.363" width="14.2517" height="14.2517" fill="#FDCA94" fill-opacity="0.58"/>
<rect x="313.367" y="197.617" width="14.2517" height="14.2517" fill="#FDCA94" fill-opacity="0.58"/>
<rect x="313.367" y="230.871" width="14.2517" height="14.2517" fill="#FDCA94" fill-opacity="0.58"/>
<rect x="313.367" y="265.906" width="14.2517" height="14.2517" fill="#FDCA94" fill-opacity="0.58"/>
<rect x="313.367" y="299.758" width="14.2517" height="14.2517" fill="#FDCA94" fill-opacity="0.58"/>
<rect x="374.531" y="130.512" width="14.2517" height="14.2517" fill="#FDCA94" fill-opacity="0.58"/>
<rect x="374.531" y="164.363" width="14.2517" height="14.2517" fill="#FDCA94" fill-opacity="0.58"/>
<rect x="374.531" y="197.617" width="14.2517" height="14.2517" fill="#FDCA94" fill-opacity="0.58"/>
<rect x="374.531" y="230.871" width="14.2517" height="14.2517" fill="#FDCA94" fill-opacity="0.58"/>
<rect x="374.531" y="265.906" width="14.2517" height="14.2517" fill="#FDCA94" fill-opacity="0.58"/>
<rect x="374.531" y="299.758" width="14.2517" height="14.2517" fill="#FDCA94" fill-opacity="0.58"/>
<rect x="268.844" y="130.512" width="14.2517" height="14.2517" fill="black"/>
<rect x="268.844" y="164.363" width="14.2517" height="14.2517" fill="black"/>
<rect x="268.844" y="197.617" width="14.2517" height="14.2517" fill="black"/>
<rect x="268.844" y="230.871" width="14.2517" height="14.2517" fill="black"/>
<rect x="268.844" y="265.906" width="14.2517" height="14.2517" fill="black"/>
<rect x="268.844" y="299.758" width="14.2517" height="14.2517" fill="black"/>
<rect x="331.773" y="130.512" width="14.2517" height="14.2517" fill="black"/>
<rect x="331.773" y="164.363" width="14.2517" height="14.2517" fill="black"/>
<rect x="331.773" y="197.617" width="14.2517" height="14.2517" fill="black"/>
<rect x="331.773" y="230.871" width="14.2517" height="14.2517" fill="black"/>
<rect x="331.773" y="265.906" width="14.2517" height="14.2517" fill="black"/>
<rect x="331.773" y="299.758" width="14.2517" height="14.2517" fill="black"/>
<rect x="392.938" y="130.512" width="14.2517" height="14.2517" fill="black"/>
<rect x="392.938" y="164.363" width="14.2517" height="14.2517" fill="black"/>
<rect x="392.938" y="197.617" width="14.2517" height="14.2517" fill="black"/>
<rect x="392.938" y="230.871" width="14.2517" height="14.2517" fill="black"/>
<rect x="392.938" y="265.906" width="14.2517" height="14.2517" fill="black"/>
<rect x="392.938" y="299.758" width="14.2517" height="14.2517" fill="black"/>
<line x1="20.6172" y1="107.062" x2="413.133" y2="107.062" stroke="black" stroke-width="0.593821"/>
<line x1="20.6172" y1="137.344" x2="219.547" y2="137.344" stroke="black" stroke-width="0.593821"/>
<line x1="20.6172" y1="171.191" x2="219.547" y2="171.191" stroke="black" stroke-width="0.593821"/>
<line x1="20.6172" y1="205.039" x2="219.547" y2="205.039" stroke="black" stroke-width="0.593821"/>
<line x1="20.6172" y1="238.891" x2="219.547" y2="238.891" stroke="black" stroke-width="0.593821"/>
<line x1="20.6172" y1="272.734" x2="219.547" y2="272.734" stroke="black" stroke-width="0.593821"/>
<line x1="20.6172" y1="306.586" x2="219.547" y2="306.586" stroke="black" stroke-width="0.593821"/>
<path d="M433.317 344.885V0.46875H0.421875V344.885" stroke="black" stroke-width="0.593821"/>
<path d="M247.02 335.813C246.927 335.72 246.776 335.72 246.684 335.813L245.172 337.324C245.079 337.417 245.079 337.567 245.172 337.66C245.265 337.753 245.415 337.753 245.508 337.66L246.852 336.316L248.195 337.66C248.288 337.753 248.438 337.753 248.531 337.66C248.624 337.567 248.624 337.417 248.531 337.324L247.02 335.813ZM246.614 338.95C246.614 339.081 246.72 339.187 246.852 339.187C246.983 339.187 247.089 339.081 247.089 338.95H246.614ZM246.614 335.98V338.95H247.089V335.98H246.614Z" fill="#FFFAF2"/>
</svg>
