<svg width="434" height="343" viewBox="0 0 434 343" fill="none" xmlns="http://www.w3.org/2000/svg">
<rect x="20.6172" y="17.0938" width="392.516" height="30.2849" fill="black"/>
<rect x="20.6172" y="93.1055" width="392.516" height="30.2849" fill="#FFE3C5"/>
<rect x="20.6172" y="192.867" width="392.516" height="30.2849" fill="#FFE3C5"/>
<rect x="20.6172" y="312.219" width="392.516" height="30.2849" fill="#FFE3C5"/>
<path d="M44.6538 28.4917L44.6538 35.6211H43.228V32.325C43.228 31.5811 43.228 30.6305 43.2486 29.8866C43.073 30.6305 42.8147 31.5811 42.5873 32.3147L41.5851 35.6211H40.0352L39.0123 32.3044C38.7953 31.5811 38.537 30.6305 38.3717 29.8969C38.3923 30.6408 38.3923 31.5811 38.3923 32.325V35.6211H36.9665L36.9665 28.4917H39.2189L40.8308 34.3089L42.4427 28.4917H44.6538ZM50.9614 32.759C50.9614 32.8933 50.9614 33.0586 50.9408 33.2446H47.0351C47.1281 34.4019 47.6447 34.7635 48.306 34.7635C48.9156 34.7635 49.3599 34.4225 49.4529 33.8336H50.8788C50.5998 35.1148 49.5665 35.7657 48.275 35.7657C46.7664 35.7657 45.5989 34.8255 45.5989 32.8933C45.5989 31.2091 46.7044 29.9796 48.3886 29.9796C50.0728 29.9796 50.9614 31.2608 50.9614 32.759ZM48.3266 30.9818C47.6654 30.9818 47.2004 31.4054 47.0764 32.3147H49.4942C49.4012 31.4468 49.0086 30.9818 48.3266 30.9818ZM57.0692 31.5191C57.1002 31.7981 57.1105 32.0771 57.1105 32.5213L57.1105 35.6211H55.6847L55.6847 32.7177C55.6847 32.4903 55.6847 32.232 55.664 31.9531C55.6227 31.3744 55.3024 30.9818 54.6101 30.9818C53.9178 30.9818 53.3702 31.5811 53.3702 33.1103L53.3702 35.6211H51.9443V30.1242H53.3702V31.0128L53.7938 30.3619C54.1864 30.0829 54.5894 29.9796 55.1164 29.9796C56.2839 29.9796 56.9556 30.5582 57.0692 31.5191ZM60.0666 31.1058L60.0666 33.6476C60.0666 33.8336 60.0666 33.9886 60.0769 34.1332C60.1183 34.6705 60.3146 34.7945 61.1102 34.7325V35.6624C60.7899 35.7141 60.4902 35.7348 60.1699 35.7348C59.1057 35.7348 58.7234 35.3834 58.6614 34.6085C58.6407 34.3605 58.6407 34.1229 58.6407 33.8129L58.6407 31.1058H57.8348V30.1655H58.6407V28.812H60.0666V30.1655H61.2032V31.1058H60.0666ZM64.4841 29.9796C66.313 29.9796 67.3359 31.1988 67.3359 32.8727C67.3359 34.5362 66.313 35.7657 64.4841 35.7657C62.6553 35.7657 61.6324 34.5362 61.6324 32.8727C61.6324 31.1988 62.6553 29.9796 64.4841 29.9796ZM64.4841 34.7635C65.3417 34.7635 65.8584 34.0506 65.8584 32.8727C65.8584 31.6844 65.3417 30.9818 64.4841 30.9818C63.6265 30.9818 63.1099 31.6844 63.1099 32.8727C63.1099 34.0506 63.6265 34.7635 64.4841 34.7635ZM71.0705 29.9899C71.2359 29.9899 71.3495 30.0002 71.4735 30.0312V31.1781C70.2853 31.0955 69.6963 31.6224 69.6963 33.1V35.6211H68.2704V30.1242H69.6963V31.1265L70.1303 30.3619C70.3989 30.1139 70.7606 29.9899 71.0705 29.9899ZM76.1667 29.9796C77.4789 29.9796 78.2229 30.7132 78.3469 31.7154L76.921 31.7154C76.828 31.2091 76.549 30.9198 76.0737 30.9198C75.6501 30.9198 75.4228 31.1678 75.4228 31.5088C75.4228 31.9221 75.7637 32.139 76.673 32.3664C77.7992 32.6557 78.4605 33.1103 78.4605 34.1229C78.4605 35.2285 77.4583 35.7657 76.1977 35.7657C74.8648 35.7657 73.9246 35.1871 73.7696 33.9472H75.1955C75.3091 34.5465 75.7224 34.8255 76.2184 34.8255C76.673 34.8255 77.0243 34.6292 77.0243 34.2262C77.0243 33.8026 76.6627 33.5649 75.7121 33.3273C74.6892 33.069 73.9866 32.6247 73.9866 31.6741C73.9866 30.6202 74.8545 29.9796 76.1667 29.9796ZM84.3301 32.759C84.3301 32.8933 84.3301 33.0586 84.3094 33.2446H80.4038C80.4968 34.4019 81.0134 34.7635 81.6747 34.7635C82.2843 34.7635 82.7286 34.4225 82.8216 33.8336H84.2474C83.9685 35.1148 82.9352 35.7657 81.6437 35.7657C80.1351 35.7657 78.9675 34.8255 78.9675 32.8933C78.9675 31.2091 80.0731 29.9796 81.7573 29.9796C83.4415 29.9796 84.3301 31.2608 84.3301 32.759ZM81.6953 30.9818C81.034 30.9818 80.5691 31.4054 80.4451 32.3147H82.8629C82.7699 31.4468 82.3773 30.9818 81.6953 30.9818ZM87.2762 29.9796C88.5884 29.9796 89.3323 30.7132 89.4563 31.7154H88.0304C87.9374 31.2091 87.6585 30.9198 87.1832 30.9198C86.7595 30.9198 86.5322 31.1678 86.5322 31.5088C86.5322 31.9221 86.8732 32.139 87.7824 32.3664C88.9087 32.6557 89.57 33.1103 89.57 34.1229C89.57 35.2285 88.5677 35.7657 87.3072 35.7657C85.9743 35.7657 85.034 35.1871 84.879 33.9472H86.3049C86.4186 34.5465 86.8319 34.8255 87.3278 34.8255C87.7824 34.8255 88.1338 34.6292 88.1338 34.2262C88.1338 33.8026 87.7721 33.5649 86.8215 33.3273C85.7986 33.069 85.096 32.6247 85.096 31.6741C85.096 30.6202 85.9639 29.9796 87.2762 29.9796ZM92.4121 29.9796C93.7244 29.9796 94.4683 30.7132 94.5923 31.7154H93.1664C93.0734 31.2091 92.7944 30.9198 92.3191 30.9198C91.8955 30.9198 91.6682 31.1678 91.6682 31.5088C91.6682 31.9221 92.0092 32.139 92.9184 32.3664C94.0447 32.6557 94.7059 33.1103 94.7059 34.1229C94.7059 35.2285 93.7037 35.7657 92.4431 35.7657C91.1102 35.7657 90.17 35.1871 90.015 33.9472H91.4409C91.5545 34.5465 91.9678 34.8255 92.4638 34.8255C92.9184 34.8255 93.2697 34.6292 93.2697 34.2262C93.2697 33.8026 92.9081 33.5649 91.9575 33.3273C90.9346 33.069 90.232 32.6247 90.232 31.6741C90.232 30.6202 91.0999 29.9796 92.4121 29.9796ZM96.2979 28.0784C96.7628 28.0784 97.0831 28.3884 97.0831 28.8326C97.0831 29.2873 96.7628 29.5869 96.2979 29.5869C95.8329 29.5869 95.5126 29.2873 95.5126 28.8326C95.5126 28.3884 95.8329 28.0784 96.2979 28.0784ZM97.0108 35.6211H95.5849V30.1242H97.0108V35.6211ZM100.809 29.9796C102.638 29.9796 103.661 31.1988 103.661 32.8727C103.661 34.5362 102.638 35.7657 100.809 35.7657C98.9804 35.7657 97.9575 34.5362 97.9575 32.8727C97.9575 31.1988 98.9804 29.9796 100.809 29.9796ZM100.809 34.7635C101.667 34.7635 102.184 34.0506 102.184 32.8727C102.184 31.6844 101.667 30.9818 100.809 30.9818C99.9517 30.9818 99.4351 31.6844 99.4351 32.8727C99.4351 34.0506 99.9517 34.7635 100.809 34.7635ZM109.721 31.5191C109.751 31.7981 109.762 32.0771 109.762 32.5213V35.6211H108.336V32.7177C108.336 32.4903 108.336 32.232 108.315 31.9531C108.274 31.3744 107.954 30.9818 107.261 30.9818C106.569 30.9818 106.021 31.5811 106.021 33.1103V35.6211H104.596V30.1242H106.021V31.0128L106.445 30.3619C106.838 30.0829 107.241 29.9796 107.768 29.9796C108.935 29.9796 109.607 30.5582 109.721 31.5191ZM114.612 29.4216C114.592 29.5663 114.592 29.7522 114.592 29.8969V30.1655H115.718V31.1058H114.592V35.6211H113.166V31.1058H112.577V30.1655H113.166V29.9382C113.166 29.7522 113.166 29.4939 113.186 29.3079C113.269 28.378 113.879 27.8304 115.18 27.8304C115.408 27.8304 115.625 27.8614 115.811 27.9027V28.8946C115.139 28.7707 114.664 28.9566 114.612 29.4216ZM121.503 32.759C121.503 32.8933 121.503 33.0586 121.482 33.2446H117.576C117.669 34.4019 118.186 34.7635 118.847 34.7635C119.457 34.7635 119.901 34.4225 119.994 33.8336H121.42C121.141 35.1148 120.108 35.7657 118.816 35.7657C117.308 35.7657 116.14 34.8255 116.14 32.8933C116.14 31.2091 117.246 29.9796 118.93 29.9796C120.614 29.9796 121.503 31.2608 121.503 32.759ZM118.868 30.9818C118.207 30.9818 117.742 31.4054 117.618 32.3147H120.036C119.943 31.4468 119.55 30.9818 118.868 30.9818ZM127.476 32.759C127.476 32.8933 127.476 33.0586 127.456 33.2446L123.55 33.2446C123.643 34.4019 124.16 34.7635 124.821 34.7635C125.43 34.7635 125.875 34.4225 125.968 33.8336L127.394 33.8336C127.115 35.1148 126.081 35.7657 124.79 35.7657C123.281 35.7657 122.114 34.8255 122.114 32.8933C122.114 31.2091 123.219 29.9796 124.904 29.9796C126.588 29.9796 127.476 31.2608 127.476 32.759ZM124.842 30.9818C124.18 30.9818 123.715 31.4054 123.591 32.3147H126.009C125.916 31.4468 125.523 30.9818 124.842 30.9818ZM133.801 28.0267V35.6211H132.375V34.7738L131.962 35.3834C131.652 35.6211 131.094 35.7657 130.536 35.7657C128.996 35.7657 128.087 34.5982 128.087 32.976C128.087 30.9818 129.306 29.9796 130.722 29.9796C131.177 29.9796 131.735 30.0932 132.014 30.2895L132.375 30.8578V28.0267H133.801ZM130.949 34.7635C131.735 34.7635 132.375 34.2779 132.375 32.9346V32.666C132.375 31.4261 131.662 30.9818 131.001 30.9818C130.174 30.9818 129.565 31.6121 129.565 32.883C129.565 34.0092 130.102 34.7635 130.949 34.7635ZM138.384 29.9796C139.923 29.9796 140.833 31.1471 140.833 32.7693C140.833 34.7532 139.613 35.7657 138.198 35.7657C137.743 35.7657 137.185 35.6521 136.906 35.4558L136.545 34.8875V35.6211H135.119V28.0267H136.545V30.9611L136.958 30.3619C137.268 30.1139 137.826 29.9796 138.384 29.9796ZM137.919 34.7635C138.746 34.7635 139.355 34.1332 139.355 32.8623C139.355 31.7361 138.818 30.9818 137.971 30.9818C137.185 30.9818 136.545 31.4674 136.545 32.8107V33.069C136.545 34.3192 137.258 34.7635 137.919 34.7635ZM144.951 35.6211L144.848 34.8152L144.579 35.4041C144.197 35.6624 143.732 35.7657 143.215 35.7657C142.265 35.7657 141.448 35.2078 141.448 34.1642C141.448 32.9553 142.482 32.2734 144.476 32.2734H144.827V32.1597C144.827 31.9944 144.827 31.8291 144.806 31.6431C144.765 31.2608 144.517 30.9818 143.959 30.9818C143.391 30.9818 143.081 31.3124 143.039 31.9117L141.655 31.9221C141.696 30.6822 142.698 29.9796 144.011 29.9796C145.55 29.9796 146.129 30.6512 146.212 31.6018C146.232 31.8601 146.243 32.1494 146.243 32.449V34.2262C146.243 34.6395 146.263 35.0115 146.346 35.6211H144.951ZM143.763 34.7635C144.341 34.7635 144.827 34.3605 144.827 33.5959V33.1516C143.69 33.069 142.926 33.3273 142.926 34.0506C142.926 34.5362 143.256 34.7635 143.763 34.7635ZM149.937 29.9796C151.425 29.9796 152.344 30.8888 152.447 32.108H151.042C150.908 31.3124 150.495 30.9818 149.906 30.9818C149.182 30.9818 148.666 31.5708 148.666 32.821C148.666 34.1849 149.182 34.7635 149.895 34.7635C150.453 34.7635 150.867 34.4122 151.011 33.7199H152.437C152.199 35.0735 151.187 35.7657 149.813 35.7657C148.314 35.7657 147.188 34.8152 147.188 32.914C147.188 31.0335 148.428 29.9796 149.937 29.9796ZM155.233 33.4513L154.778 33.9472V35.6211H153.352V28.0267H154.778V32.635L156.989 30.1242H158.704L156.266 32.6763L158.735 35.6211H156.937L155.233 33.4513ZM162.975 29.4216C162.954 29.5663 162.954 29.7522 162.954 29.8969V30.1655H164.081V31.1058H162.954V35.6211H161.529V31.1058H160.94V30.1655H161.529V29.9382C161.529 29.7522 161.529 29.4939 161.549 29.3079C161.632 28.378 162.242 27.8304 163.543 27.8304C163.771 27.8304 163.988 27.8614 164.174 27.9027V28.8946C163.502 28.7707 163.027 28.9566 162.975 29.4216ZM167.355 29.9796C169.184 29.9796 170.207 31.1988 170.207 32.8727C170.207 34.5362 169.184 35.7657 167.355 35.7657C165.526 35.7657 164.503 34.5362 164.503 32.8727C164.503 31.1988 165.526 29.9796 167.355 29.9796ZM167.355 34.7635C168.213 34.7635 168.729 34.0506 168.729 32.8727C168.729 31.6844 168.213 30.9818 167.355 30.9818C166.497 30.9818 165.981 31.6844 165.981 32.8727C165.981 34.0506 166.497 34.7635 167.355 34.7635ZM173.941 29.9899C174.107 29.9899 174.22 30.0002 174.344 30.0312V31.1781C173.156 31.0955 172.567 31.6224 172.567 33.1V35.6211H171.141V30.1242H172.567V31.1265L173.001 30.3619C173.27 30.1139 173.631 29.9899 173.941 29.9899ZM183.229 31.3434C183.27 31.6224 183.281 31.9014 183.281 32.3457V35.6211H181.855V32.759C181.855 32.4387 181.844 32.139 181.813 31.8601C181.741 31.2918 181.431 30.9818 180.884 30.9818C180.243 30.9818 179.881 31.5294 179.881 32.8003V35.6211H178.466V32.759C178.466 32.4387 178.455 32.139 178.424 31.8601C178.352 31.2918 178.032 30.9818 177.484 30.9818C176.844 30.9818 176.492 31.5294 176.492 32.8003V35.6211H175.066V30.1242H176.492V30.9611L176.895 30.2999C177.205 30.0829 177.567 29.9796 178.063 29.9796C178.962 29.9796 179.53 30.4239 179.747 31.0231L180.284 30.2999C180.594 30.0829 180.966 29.9796 181.462 29.9796C182.506 29.9796 183.105 30.5892 183.229 31.3434Z" fill="#FFFAF2"/>
<path d="M43.0984 108.201C43.5324 108.305 43.9044 108.511 44.328 108.863L43.6151 109.782C42.9331 109.348 42.6025 109.245 42.1788 109.245C41.8895 109.245 41.7139 109.276 41.4246 109.338C41.1973 109.39 40.9596 109.41 40.691 109.41C38.4901 109.41 37.1676 107.933 37.1676 105.701C37.1676 103.459 38.4901 101.981 40.691 101.981C42.8814 101.981 44.2143 103.459 44.2143 105.701C44.2143 106.703 43.8424 107.623 43.0984 108.201ZM38.6555 105.701C38.6555 107.364 39.4201 108.346 40.691 108.346C41.9515 108.346 42.7161 107.364 42.7161 105.701C42.7161 104.027 41.9515 103.056 40.691 103.056C39.4201 103.056 38.6555 104.027 38.6555 105.701ZM49.315 102.136L49.315 109.266H47.8891L47.8891 103.634L45.8122 104.781V103.438L47.4654 102.457C47.8477 102.24 48.2197 102.136 48.6123 102.136H49.315ZM51.3401 101.206H52.1151C53.045 102.333 53.5719 103.841 53.5719 105.649C53.5719 107.447 53.045 108.966 52.1151 110.092H51.3401C52.1977 108.78 52.6627 107.313 52.6627 105.649C52.6627 103.986 52.1977 102.519 51.3401 101.206ZM66.9901 102.136L65.0993 109.266H63.2084L61.9892 103.335L60.708 109.266H58.8068L57.0193 102.136H58.5588L59.7574 108.17L61.018 102.24H63.0225L64.2417 108.191L65.5229 102.136H66.9901ZM72.7278 105.164C72.7588 105.443 72.7691 105.722 72.7691 106.166V109.266H71.3433V106.362C71.3433 106.135 71.3433 105.877 71.3226 105.598C71.2813 105.019 70.961 104.626 70.2687 104.626C69.5764 104.637 69.0288 105.226 69.0288 106.755V109.266H67.6029V101.62H69.0288V104.657L69.4524 104.006C69.845 103.727 70.248 103.624 70.775 103.624C71.9425 103.624 72.6142 104.203 72.7278 105.164ZM77.2131 109.266L77.1098 108.46L76.8411 109.049C76.4588 109.307 75.9938 109.41 75.4772 109.41C74.5266 109.41 73.7104 108.852 73.7104 107.809C73.7104 106.6 74.7436 105.918 76.7378 105.918H77.0891V105.804C77.0891 105.639 77.0891 105.474 77.0684 105.288C77.0271 104.905 76.7791 104.626 76.2212 104.626C75.6529 104.626 75.3429 104.957 75.3016 105.556L73.917 105.567C73.9583 104.327 74.9606 103.624 76.2728 103.624C77.8124 103.624 78.391 104.296 78.4736 105.246C78.4943 105.505 78.5046 105.794 78.5046 106.094V107.871C78.5046 108.284 78.5253 108.656 78.608 109.266H77.2131ZM76.0248 108.408C76.6035 108.408 77.0891 108.005 77.0891 107.24V106.796C75.9525 106.714 75.1879 106.972 75.1879 107.695C75.1879 108.181 75.5185 108.408 76.0248 108.408ZM81.5271 104.75V107.292C81.5271 107.478 81.5271 107.633 81.5375 107.778C81.5788 108.315 81.7751 108.439 82.5707 108.377V109.307C82.2504 109.359 81.9508 109.379 81.6305 109.379C80.5662 109.379 80.1839 109.028 80.1219 108.253C80.1012 108.005 80.1012 107.767 80.1012 107.457V104.75H79.2953V103.81H80.1012V102.457H81.5271V103.81H82.6637V104.75H81.5271ZM88.7564 109.266L88.6531 108.46L88.3844 109.049C88.0021 109.307 87.5372 109.41 87.0205 109.41C86.07 109.41 85.2537 108.852 85.2537 107.809C85.2537 106.6 86.2869 105.918 88.2811 105.918H88.6324V105.804C88.6324 105.639 88.6324 105.474 88.6118 105.288C88.5704 104.905 88.3224 104.626 87.7645 104.626C87.1962 104.626 86.8862 104.957 86.8449 105.556L85.4603 105.567C85.5017 104.327 86.5039 103.624 87.8161 103.624C89.3557 103.624 89.9343 104.296 90.017 105.246C90.0376 105.505 90.048 105.794 90.048 106.094V107.871C90.048 108.284 90.0686 108.656 90.1513 109.266H88.7564ZM87.5682 108.408C88.1468 108.408 88.6324 108.005 88.6324 107.24V106.796C87.4958 106.714 86.7312 106.972 86.7312 107.695C86.7312 108.181 87.0619 108.408 87.5682 108.408ZM94.1657 103.634C94.331 103.634 94.4447 103.645 94.5687 103.676V104.823C93.3804 104.74 92.7915 105.267 92.7915 106.744V109.266H91.3656V103.769H92.7915V104.771L93.2254 104.006C93.4941 103.758 93.8557 103.634 94.1657 103.634ZM100.231 106.404C100.231 106.538 100.231 106.703 100.21 106.889H96.3045C96.3975 108.046 96.9141 108.408 97.5754 108.408C98.185 108.408 98.6293 108.067 98.7223 107.478H100.148C99.8692 108.759 98.836 109.41 97.5444 109.41C96.0359 109.41 94.8683 108.47 94.8683 106.538C94.8683 104.854 95.9739 103.624 97.6581 103.624C99.3423 103.624 100.231 104.905 100.231 106.404ZM97.5961 104.626C96.9348 104.626 96.4698 105.05 96.3459 105.959H98.7637C98.6707 105.091 98.278 104.626 97.5961 104.626ZM104.406 109.266L104.303 108.46L104.035 109.049C103.652 109.307 103.187 109.41 102.671 109.41C101.72 109.41 100.904 108.852 100.904 107.809C100.904 106.6 101.937 105.918 103.931 105.918H104.283V105.804C104.283 105.639 104.283 105.474 104.262 105.288C104.221 104.905 103.973 104.626 103.415 104.626C102.846 104.626 102.536 104.957 102.495 105.556L101.11 105.567C101.152 104.327 102.154 103.624 103.466 103.624C105.006 103.624 105.584 104.296 105.667 105.246C105.688 105.505 105.698 105.794 105.698 106.094V107.871C105.698 108.284 105.719 108.656 105.801 109.266H104.406ZM103.218 108.408C103.797 108.408 104.283 108.005 104.283 107.24V106.796C103.146 106.714 102.381 106.972 102.381 107.695C102.381 108.181 102.712 108.408 103.218 108.408ZM108.979 103.624C110.291 103.624 111.035 104.358 111.159 105.36L109.733 105.36C109.64 104.854 109.361 104.564 108.886 104.564C108.462 104.564 108.235 104.812 108.235 105.153C108.235 105.567 108.576 105.784 109.485 106.011C110.611 106.3 111.273 106.755 111.273 107.767C111.273 108.873 110.27 109.41 109.01 109.41C107.677 109.41 106.737 108.832 106.582 107.592H108.008C108.121 108.191 108.535 108.47 109.031 108.47C109.485 108.47 109.836 108.274 109.836 107.871C109.836 107.447 109.475 107.209 108.524 106.972C107.501 106.714 106.799 106.269 106.799 105.319C106.799 104.265 107.667 103.624 108.979 103.624ZM119.367 103.769L117.156 109.472C116.577 110.96 115.978 111.435 114.862 111.435C114.604 111.435 114.428 111.425 114.222 111.394V110.413C114.366 110.433 114.501 110.433 114.645 110.433C115.131 110.433 115.451 110.247 115.679 109.7L115.751 109.524L113.509 103.769H115.1L116.464 108.181L117.807 103.769H119.367ZM122.3 103.624C124.129 103.624 125.152 104.843 125.152 106.517C125.152 108.181 124.129 109.41 122.3 109.41C120.471 109.41 119.448 108.181 119.448 106.517C119.448 104.843 120.471 103.624 122.3 103.624ZM122.3 108.408C123.158 108.408 123.674 107.695 123.674 106.517C123.674 105.329 123.158 104.626 122.3 104.626C121.443 104.626 120.926 105.329 120.926 106.517C120.926 107.695 121.443 108.408 122.3 108.408ZM131.16 103.769V109.266H129.734V108.336L129.31 109.038C128.907 109.307 128.515 109.41 127.988 109.41C126.851 109.41 126.169 108.77 126.045 108.015C126.004 107.736 125.993 107.457 125.993 107.013V103.769H127.419V106.714C127.419 106.889 127.43 107.189 127.461 107.468C127.533 108.036 127.864 108.398 128.525 108.398C129.238 108.398 129.734 107.809 129.734 106.569V103.769H131.16ZM136.186 104.75V107.292C136.186 107.478 136.186 107.633 136.197 107.778C136.238 108.315 136.434 108.439 137.23 108.377V109.307C136.91 109.359 136.61 109.379 136.29 109.379C135.225 109.379 134.843 109.028 134.781 108.253C134.761 108.005 134.761 107.767 134.761 107.457V104.75H133.955V103.81H134.761V102.457H136.186V103.81H137.323V104.75H136.186ZM143.34 105.164C143.371 105.443 143.381 105.722 143.381 106.166V109.266H141.955V106.362C141.955 106.135 141.955 105.877 141.935 105.598C141.893 105.019 141.573 104.626 140.881 104.626C140.188 104.637 139.641 105.226 139.641 106.755V109.266H138.215V101.62H139.641V104.657L140.064 104.006C140.457 103.727 140.86 103.624 141.387 103.624C142.555 103.624 143.226 104.203 143.34 105.164ZM145.345 101.723C145.81 101.723 146.131 102.033 146.131 102.477C146.131 102.932 145.81 103.231 145.345 103.231C144.88 103.231 144.56 102.932 144.56 102.477C144.56 102.033 144.88 101.723 145.345 101.723ZM146.058 109.266H144.632V103.769H146.058V109.266ZM152.502 105.164C152.533 105.443 152.543 105.722 152.543 106.166V109.266H151.117V106.362C151.117 106.135 151.117 105.877 151.097 105.598C151.055 105.019 150.735 104.626 150.043 104.626C149.35 104.626 148.803 105.226 148.803 106.755V109.266H147.377V103.769H148.803V104.657L149.226 104.006C149.619 103.727 150.022 103.624 150.549 103.624C151.717 103.624 152.388 104.203 152.502 105.164ZM155.675 107.096L155.22 107.592V109.266H153.794V101.671H155.22V106.28L157.431 103.769H159.147L156.708 106.321L159.178 109.266H157.38L155.675 107.096ZM164.203 103.624C165.691 103.624 166.61 104.533 166.714 105.753H165.308C165.174 104.957 164.761 104.626 164.172 104.626C163.449 104.626 162.932 105.215 162.932 106.466C162.932 107.829 163.449 108.408 164.161 108.408C164.719 108.408 165.133 108.057 165.277 107.364H166.703C166.466 108.718 165.453 109.41 164.079 109.41C162.581 109.41 161.454 108.46 161.454 106.559C161.454 104.678 162.694 103.624 164.203 103.624ZM170.811 109.266L170.708 108.46L170.439 109.049C170.057 109.307 169.592 109.41 169.075 109.41C168.124 109.41 167.308 108.852 167.308 107.809C167.308 106.6 168.341 105.918 170.336 105.918H170.687V105.804C170.687 105.639 170.687 105.474 170.666 105.288C170.625 104.905 170.377 104.626 169.819 104.626C169.251 104.626 168.941 104.957 168.899 105.556L167.515 105.567C167.556 104.327 168.558 103.624 169.871 103.624C171.41 103.624 171.989 104.296 172.071 105.246C172.092 105.505 172.102 105.794 172.102 106.094V107.871C172.102 108.284 172.123 108.656 172.206 109.266H170.811ZM169.623 108.408C170.201 108.408 170.687 108.005 170.687 107.24V106.796C169.55 106.714 168.786 106.972 168.786 107.695C168.786 108.181 169.116 108.408 169.623 108.408ZM178.545 105.164C178.576 105.443 178.586 105.722 178.586 106.166V109.266H177.16V106.362C177.16 106.135 177.16 105.877 177.14 105.598C177.098 105.019 176.778 104.626 176.086 104.626C175.394 104.626 174.846 105.226 174.846 106.755V109.266H173.42V103.769H174.846V104.657L175.27 104.006C175.662 103.727 176.065 103.624 176.592 103.624C177.76 103.624 178.431 104.203 178.545 105.164ZM185.179 101.671V109.266H183.754V108.418L183.34 109.028C183.03 109.266 182.472 109.41 181.914 109.41C180.375 109.41 179.466 108.243 179.466 106.621C179.466 104.626 180.685 103.624 182.1 103.624C182.555 103.624 183.113 103.738 183.392 103.934L183.754 104.502V101.671H185.179ZM182.328 108.408C183.113 108.408 183.754 107.922 183.754 106.579V106.311C183.754 105.071 183.041 104.626 182.379 104.626C181.553 104.626 180.943 105.257 180.943 106.528C180.943 107.654 181.48 108.408 182.328 108.408ZM187.21 101.723C187.675 101.723 187.995 102.033 187.995 102.477C187.995 102.932 187.675 103.231 187.21 103.231C186.745 103.231 186.425 102.932 186.425 102.477C186.425 102.033 186.745 101.723 187.21 101.723ZM187.923 109.266H186.497V103.769H187.923V109.266ZM194.584 101.671V109.266H193.158V108.418L192.744 109.028C192.434 109.266 191.876 109.41 191.319 109.41C189.779 109.41 188.87 108.243 188.87 106.621C188.87 104.626 190.089 103.624 191.505 103.624C191.959 103.624 192.517 103.738 192.796 103.934L193.158 104.502V101.671H194.584ZM191.732 108.408C192.517 108.408 193.158 107.922 193.158 106.579V106.311C193.158 105.071 192.445 104.626 191.783 104.626C190.957 104.626 190.347 105.257 190.347 106.528C190.347 107.654 190.885 108.408 191.732 108.408ZM199.094 109.266L198.991 108.46L198.722 109.049C198.34 109.307 197.875 109.41 197.358 109.41C196.408 109.41 195.591 108.852 195.591 107.809C195.591 106.6 196.625 105.918 198.619 105.918H198.97V105.804C198.97 105.639 198.97 105.474 198.949 105.288C198.908 104.905 198.66 104.626 198.102 104.626C197.534 104.626 197.224 104.957 197.183 105.556L195.798 105.567C195.839 104.327 196.842 103.624 198.154 103.624C199.693 103.624 200.272 104.296 200.355 105.246C200.375 105.505 200.386 105.794 200.386 106.094V107.871C200.386 108.284 200.406 108.656 200.489 109.266H199.094ZM197.906 108.408C198.484 108.408 198.97 108.005 198.97 107.24V106.796C197.833 106.714 197.069 106.972 197.069 107.695C197.069 108.181 197.4 108.408 197.906 108.408ZM203.408 104.75V107.292C203.408 107.478 203.408 107.633 203.418 107.778C203.46 108.315 203.656 108.439 204.452 108.377V109.307C204.131 109.359 203.832 109.379 203.511 109.379C202.447 109.379 202.065 109.028 202.003 108.253C201.982 108.005 201.982 107.767 201.982 107.457V104.75H201.176V103.81H201.982V102.457H203.408V103.81H204.545V104.75H203.408ZM210.336 106.404C210.336 106.538 210.336 106.703 210.316 106.889H206.41C206.503 108.046 207.02 108.408 207.681 108.408C208.291 108.408 208.735 108.067 208.828 107.478H210.254C209.975 108.759 208.942 109.41 207.65 109.41C206.141 109.41 204.974 108.47 204.974 106.538C204.974 104.854 206.079 103.624 207.764 103.624C209.448 103.624 210.336 104.905 210.336 106.404ZM207.702 104.626C207.04 104.626 206.575 105.05 206.451 105.959H208.869C208.776 105.091 208.384 104.626 207.702 104.626ZM215.29 103.624C216.603 103.624 217.347 104.358 217.471 105.36H216.045C215.952 104.854 215.673 104.564 215.197 104.564C214.774 104.564 214.547 104.812 214.547 105.153C214.547 105.567 214.888 105.784 215.797 106.011C216.923 106.3 217.584 106.755 217.584 107.767C217.584 108.873 216.582 109.41 215.321 109.41C213.989 109.41 213.048 108.832 212.893 107.592H214.319C214.433 108.191 214.846 108.47 215.342 108.47C215.797 108.47 216.148 108.274 216.148 107.871C216.148 107.447 215.786 107.209 214.836 106.972C213.813 106.714 213.11 106.269 213.11 105.319C213.11 104.265 213.978 103.624 215.29 103.624ZM223.588 105.164C223.619 105.443 223.63 105.722 223.63 106.166V109.266H222.204V106.362C222.204 106.135 222.204 105.877 222.183 105.598C222.142 105.019 221.821 104.626 221.129 104.626C220.437 104.637 219.889 105.226 219.889 106.755V109.266H218.463V101.62H219.889V104.657L220.313 104.006C220.705 103.727 221.108 103.624 221.635 103.624C222.803 103.624 223.475 104.203 223.588 105.164ZM227.361 103.624C229.189 103.624 230.212 104.843 230.212 106.517C230.212 108.181 229.189 109.41 227.361 109.41C225.532 109.41 224.509 108.181 224.509 106.517C224.509 104.843 225.532 103.624 227.361 103.624ZM227.361 108.408C228.218 108.408 228.735 107.695 228.735 106.517C228.735 105.329 228.218 104.626 227.361 104.626C226.503 104.626 225.986 105.329 225.986 106.517C225.986 107.695 226.503 108.408 227.361 108.408ZM236.22 103.769V109.266H234.794V108.336L234.371 109.038C233.968 109.307 233.575 109.41 233.048 109.41C231.911 109.41 231.229 108.77 231.105 108.015C231.064 107.736 231.054 107.457 231.054 107.013V103.769H232.48V106.714C232.48 106.889 232.49 107.189 232.521 107.468C232.593 108.036 232.924 108.398 233.585 108.398C234.298 108.398 234.794 107.809 234.794 106.569V103.769H236.22ZM238.919 101.671V107.468C238.919 107.685 238.919 107.829 238.929 107.974C238.96 108.253 239.084 108.346 239.569 108.315V109.297C239.29 109.328 239.012 109.338 238.691 109.338C237.989 109.338 237.544 109.08 237.513 108.367C237.493 108.119 237.493 107.86 237.493 107.499V101.671H238.919ZM245.762 101.671V109.266H244.336V108.418L243.923 109.028C243.613 109.266 243.055 109.41 242.497 109.41C240.957 109.41 240.048 108.243 240.048 106.621C240.048 104.626 241.267 103.624 242.683 103.624C243.137 103.624 243.695 103.738 243.974 103.934L244.336 104.502V101.671H245.762ZM242.91 108.408C243.695 108.408 244.336 107.922 244.336 106.579V106.311C244.336 105.071 243.623 104.626 242.962 104.626C242.135 104.626 241.525 105.257 241.525 106.528C241.525 107.654 242.063 108.408 242.91 108.408ZM250.679 103.066C250.658 103.211 250.658 103.397 250.658 103.541V103.81H251.784V104.75H250.658V109.266H249.232V104.75H248.643V103.81H249.232V103.583C249.232 103.397 249.232 103.138 249.253 102.952C249.335 102.023 249.945 101.475 251.247 101.475C251.474 101.475 251.691 101.506 251.877 101.547V102.539C251.206 102.415 250.73 102.601 250.679 103.066ZM255.058 103.624C256.887 103.624 257.91 104.843 257.91 106.517C257.91 108.181 256.887 109.41 255.058 109.41C253.23 109.41 252.207 108.181 252.207 106.517C252.207 104.843 253.23 103.624 255.058 103.624ZM255.058 108.408C255.916 108.408 256.433 107.695 256.433 106.517C256.433 105.329 255.916 104.626 255.058 104.626C254.201 104.626 253.684 105.329 253.684 106.517C253.684 107.695 254.201 108.408 255.058 108.408ZM261.221 103.624C262.709 103.624 263.629 104.533 263.732 105.753H262.327C262.192 104.957 261.779 104.626 261.19 104.626C260.467 104.626 259.95 105.215 259.95 106.466C259.95 107.829 260.467 108.408 261.18 108.408C261.738 108.408 262.151 108.057 262.296 107.364H263.722C263.484 108.718 262.471 109.41 261.097 109.41C259.599 109.41 258.473 108.46 258.473 106.559C258.473 104.678 259.713 103.624 261.221 103.624ZM269.71 103.769V109.266H268.284V108.336L267.86 109.038C267.457 109.307 267.065 109.41 266.538 109.41C265.401 109.41 264.719 108.77 264.595 108.015C264.554 107.736 264.544 107.457 264.544 107.013V103.769H265.969V106.714C265.969 106.889 265.98 107.189 266.011 107.468C266.083 108.036 266.414 108.398 267.075 108.398C267.788 108.398 268.284 107.809 268.284 106.569V103.769H269.71ZM272.987 103.624C274.299 103.624 275.043 104.358 275.167 105.36H273.741C273.648 104.854 273.369 104.564 272.894 104.564C272.47 104.564 272.243 104.812 272.243 105.153C272.243 105.567 272.584 105.784 273.493 106.011C274.619 106.3 275.281 106.755 275.281 107.767C275.281 108.873 274.278 109.41 273.018 109.41C271.685 109.41 270.745 108.832 270.59 107.592H272.016C272.129 108.191 272.543 108.47 273.039 108.47C273.493 108.47 273.845 108.274 273.845 107.871C273.845 107.447 273.483 107.209 272.532 106.972C271.509 106.714 270.807 106.269 270.807 105.319C270.807 104.265 271.675 103.624 272.987 103.624ZM280.647 103.624C282.476 103.624 283.499 104.843 283.499 106.517C283.499 108.181 282.476 109.41 280.647 109.41C278.819 109.41 277.796 108.181 277.796 106.517C277.796 104.843 278.819 103.624 280.647 103.624ZM280.647 108.408C281.505 108.408 282.022 107.695 282.022 106.517C282.022 105.329 281.505 104.626 280.647 104.626C279.79 104.626 279.273 105.329 279.273 106.517C279.273 107.695 279.79 108.408 280.647 108.408ZM289.559 105.164C289.59 105.443 289.6 105.722 289.6 106.166V109.266H288.174V106.362C288.174 106.135 288.174 105.877 288.153 105.598C288.112 105.019 287.792 104.626 287.1 104.626C286.407 104.626 285.86 105.226 285.86 106.755V109.266H284.434V103.769H285.86V104.657L286.283 104.006C286.676 103.727 287.079 103.624 287.606 103.624C288.773 103.624 289.445 104.203 289.559 105.164ZM293.093 101.992C294.592 101.992 295.449 102.756 295.449 103.934C295.449 104.719 295.098 105.267 294.364 105.928C293.796 106.445 293.61 106.703 293.569 107.23H292.339C292.38 106.497 292.577 106.125 293.083 105.567C293.713 104.864 293.941 104.502 293.941 104.027C293.941 103.417 293.61 103.056 293 103.056C292.401 103.056 292.019 103.459 291.977 104.275H290.531C290.572 102.859 291.564 101.992 293.093 101.992ZM292.959 107.798C293.434 107.798 293.775 108.129 293.775 108.604C293.775 109.08 293.434 109.41 292.959 109.41C292.494 109.41 292.153 109.08 292.153 108.604C292.153 108.129 292.494 107.798 292.959 107.798Z" fill="black"/>
<path d="M43.0984 209.143C43.5324 209.246 43.9044 209.453 44.328 209.804L43.6151 210.724C42.9331 210.29 42.6025 210.186 42.1788 210.186C41.8895 210.186 41.7139 210.217 41.4246 210.279C41.1973 210.331 40.9596 210.352 40.691 210.352C38.4901 210.352 37.1676 208.874 37.1676 206.642C37.1676 204.4 38.4901 202.923 40.691 202.923C42.8814 202.923 44.2143 204.4 44.2143 206.642C44.2143 207.645 43.8424 208.564 43.0984 209.143ZM38.6555 206.642C38.6555 208.306 39.4201 209.287 40.691 209.287C41.9515 209.287 42.7161 208.306 42.7161 206.642C42.7161 204.968 41.9515 203.997 40.691 203.997C39.4201 203.997 38.6555 204.968 38.6555 206.642ZM47.3311 209.081H50.3482V210.207H45.151V209.535L47.5481 207.19C48.509 206.25 48.8913 205.743 48.8913 205.061C48.8913 204.431 48.5297 203.987 47.8684 203.987C47.1555 203.987 46.8145 204.431 46.7215 205.289L46.7112 205.392H45.2956L45.306 205.289C45.4506 203.76 46.4012 202.923 48.0027 202.923C49.5733 202.923 50.3999 203.76 50.3999 204.979C50.3999 205.878 49.9556 206.518 48.6537 207.789L47.3311 209.081ZM51.3401 202.148H52.1151C53.045 203.274 53.5719 204.782 53.5719 206.591C53.5719 208.389 53.045 209.907 52.1151 211.034H51.3401C52.1977 209.721 52.6627 208.254 52.6627 206.591C52.6627 204.927 52.1977 203.46 51.3401 202.148ZM60.0364 202.933C61.7412 202.933 62.5162 203.904 62.6711 205.175H61.2143C61.1316 204.452 60.7286 203.997 59.9847 203.997C59.4164 203.997 58.9825 204.266 58.9825 204.844C58.9825 205.444 59.3648 205.743 60.5013 206.012C62.0719 206.374 62.7745 207.097 62.7745 208.244C62.7745 209.587 61.5449 210.352 60.1397 210.352C58.4348 210.352 57.3189 209.597 57.1846 208.099H58.6415C58.7965 208.884 59.3958 209.287 60.119 209.287C60.77 209.287 61.2866 208.936 61.2866 208.389C61.2866 207.789 60.9146 207.438 59.8607 207.19C58.4038 206.839 57.4842 206.332 57.4842 205.02C57.4842 203.708 58.6725 202.933 60.0364 202.933ZM68.7611 204.71V210.207H67.3352V209.277L66.9116 209.98C66.5086 210.248 66.116 210.352 65.589 210.352C64.4525 210.352 63.7705 209.711 63.6465 208.957C63.6052 208.678 63.5949 208.399 63.5949 207.955V204.71H65.0207V207.655C65.0207 207.831 65.0311 208.13 65.0621 208.409C65.1344 208.977 65.465 209.339 66.1263 209.339C66.8393 209.339 67.3352 208.75 67.3352 207.51V204.71H68.7611ZM75.4169 204.71V208.833C75.4169 209.174 75.4169 209.597 75.4066 209.897C75.3446 211.612 74.2287 212.439 72.4928 212.439C70.881 212.439 69.982 211.767 69.858 210.558L69.8477 210.455H71.2323L71.2426 210.548C71.3046 211.054 71.7799 211.375 72.5135 211.375C73.3918 211.375 73.929 210.93 73.9807 210.052C73.991 209.845 73.991 209.618 73.991 209.38V209.246L73.5777 209.856C73.2678 210.093 72.7718 210.238 72.2138 210.238C70.664 210.238 69.7031 209.132 69.7031 207.521C69.7031 205.526 70.9223 204.565 72.3378 204.565C72.7925 204.565 73.3504 204.679 73.6294 204.875L73.991 205.444V204.71H75.4169ZM72.5652 209.236C73.3504 209.236 73.991 208.75 73.991 207.407V207.252C73.991 206.012 73.2781 205.568 72.6168 205.568C71.7902 205.568 71.1806 206.136 71.1806 207.397C71.1806 208.523 71.7179 209.236 72.5652 209.236ZM82.0765 204.71V208.833C82.0765 209.174 82.0765 209.597 82.0662 209.897C82.0042 211.612 80.8883 212.439 79.1524 212.439C77.5406 212.439 76.6416 211.767 76.5177 210.558L76.5073 210.455H77.8919L77.9022 210.548C77.9642 211.054 78.4395 211.375 79.1731 211.375C80.0514 211.375 80.5887 210.93 80.6403 210.052C80.6506 209.845 80.6506 209.618 80.6506 209.38V209.246L80.2373 209.856C79.9274 210.093 79.4314 210.238 78.8735 210.238C77.3236 210.238 76.3627 209.132 76.3627 207.521C76.3627 205.526 77.5819 204.565 78.9974 204.565C79.4521 204.565 80.01 204.679 80.289 204.875L80.6506 205.444V204.71H82.0765ZM79.2248 209.236C80.01 209.236 80.6506 208.75 80.6506 207.407V207.252C80.6506 206.012 79.9377 205.568 79.2764 205.568C78.4498 205.568 77.8402 206.136 77.8402 207.397C77.8402 208.523 78.3775 209.236 79.2248 209.236ZM88.3848 207.345C88.3848 207.479 88.3848 207.645 88.3642 207.831H84.4585C84.5515 208.988 85.0681 209.349 85.7294 209.349C86.339 209.349 86.7833 209.008 86.8763 208.42H88.3022C88.0232 209.701 86.99 210.352 85.6984 210.352C84.1898 210.352 83.0223 209.411 83.0223 207.479C83.0223 205.795 84.1279 204.565 85.812 204.565C87.4962 204.565 88.3848 205.847 88.3848 207.345ZM85.7501 205.568C85.0888 205.568 84.6238 205.991 84.4998 206.901H86.9176C86.8246 206.033 86.432 205.568 85.7501 205.568ZM91.3309 204.565C92.6431 204.565 93.3871 205.299 93.511 206.301H92.0852C91.9922 205.795 91.7132 205.506 91.2379 205.506C90.8143 205.506 90.5869 205.754 90.5869 206.095C90.5869 206.508 90.9279 206.725 91.8372 206.952C92.9634 207.242 93.6247 207.696 93.6247 208.709C93.6247 209.814 92.6224 210.352 91.3619 210.352C90.029 210.352 89.0887 209.773 88.9337 208.533H90.3596C90.4733 209.132 90.8866 209.411 91.3825 209.411C91.8372 209.411 92.1885 209.215 92.1885 208.812C92.1885 208.389 91.8268 208.151 90.8763 207.913C89.8533 207.655 89.1507 207.211 89.1507 206.26C89.1507 205.206 90.0187 204.565 91.3309 204.565ZM96.2085 205.692V208.234C96.2085 208.42 96.2085 208.574 96.2189 208.719C96.2602 209.256 96.4565 209.38 97.2521 209.318V210.248C96.9318 210.3 96.6322 210.321 96.3119 210.321C95.2476 210.321 94.8653 209.969 94.8033 209.194C94.7827 208.946 94.7827 208.709 94.7827 208.399V205.692H93.9767V204.751H94.7827V203.398H96.2085V204.751H97.3451V205.692H96.2085ZM98.95 202.664C99.415 202.664 99.7353 202.974 99.7353 203.419C99.7353 203.873 99.415 204.173 98.95 204.173C98.4851 204.173 98.1648 203.873 98.1648 203.419C98.1648 202.974 98.4851 202.664 98.95 202.664ZM99.663 210.207H98.2371V204.71H99.663V210.207ZM103.461 204.565C105.29 204.565 106.313 205.785 106.313 207.459C106.313 209.122 105.29 210.352 103.461 210.352C101.633 210.352 100.61 209.122 100.61 207.459C100.61 205.785 101.633 204.565 103.461 204.565ZM103.461 209.349C104.319 209.349 104.836 208.636 104.836 207.459C104.836 206.27 104.319 205.568 103.461 205.568C102.604 205.568 102.087 206.27 102.087 207.459C102.087 208.636 102.604 209.349 103.461 209.349ZM112.373 206.105C112.404 206.384 112.414 206.663 112.414 207.107V210.207H110.988V207.304C110.988 207.076 110.988 206.818 110.967 206.539C110.926 205.96 110.606 205.568 109.914 205.568C109.221 205.568 108.674 206.167 108.674 207.696V210.207H107.248V204.71H108.674V205.599L109.097 204.948C109.49 204.669 109.893 204.565 110.42 204.565C111.587 204.565 112.259 205.144 112.373 206.105ZM115.628 204.565C116.941 204.565 117.685 205.299 117.809 206.301H116.383C116.29 205.795 116.011 205.506 115.535 205.506C115.112 205.506 114.884 205.754 114.884 206.095C114.884 206.508 115.225 206.725 116.135 206.952C117.261 207.242 117.922 207.696 117.922 208.709C117.922 209.814 116.92 210.352 115.659 210.352C114.326 210.352 113.386 209.773 113.231 208.533H114.657C114.771 209.132 115.184 209.411 115.68 209.411C116.135 209.411 116.486 209.215 116.486 208.812C116.486 208.389 116.124 208.151 115.174 207.913C114.151 207.655 113.448 207.211 113.448 206.26C113.448 205.206 114.316 204.565 115.628 204.565ZM122.4 204.008C122.38 204.152 122.38 204.338 122.38 204.483V204.751H123.506V205.692H122.38V210.207H120.954V205.692H120.365V204.751H120.954V204.524C120.954 204.338 120.954 204.08 120.974 203.894C121.057 202.964 121.667 202.416 122.969 202.416C123.196 202.416 123.413 202.447 123.599 202.489V203.481C122.927 203.357 122.452 203.543 122.4 204.008ZM126.78 204.565C128.609 204.565 129.632 205.785 129.632 207.459C129.632 209.122 128.609 210.352 126.78 210.352C124.951 210.352 123.928 209.122 123.928 207.459C123.928 205.785 124.951 204.565 126.78 204.565ZM126.78 209.349C127.638 209.349 128.154 208.636 128.154 207.459C128.154 206.27 127.638 205.568 126.78 205.568C125.923 205.568 125.406 206.27 125.406 207.459C125.406 208.636 125.923 209.349 126.78 209.349ZM133.367 204.576C133.532 204.576 133.646 204.586 133.77 204.617V205.764C132.581 205.681 131.992 206.208 131.992 207.686V210.207H130.566V204.71H131.992V205.712L132.426 204.948C132.695 204.7 133.057 204.576 133.367 204.576ZM138.876 204.565C140.364 204.565 141.284 205.475 141.387 206.694H139.982C139.847 205.898 139.434 205.568 138.845 205.568C138.122 205.568 137.605 206.157 137.605 207.407C137.605 208.771 138.122 209.349 138.835 209.349C139.393 209.349 139.806 208.998 139.951 208.306H141.377C141.139 209.659 140.126 210.352 138.752 210.352C137.254 210.352 136.128 209.401 136.128 207.5C136.128 205.619 137.368 204.565 138.876 204.565ZM145.484 210.207L145.381 209.401L145.112 209.99C144.73 210.248 144.265 210.352 143.748 210.352C142.798 210.352 141.981 209.794 141.981 208.75C141.981 207.541 143.015 206.859 145.009 206.859H145.36V206.746C145.36 206.58 145.36 206.415 145.34 206.229C145.298 205.847 145.05 205.568 144.492 205.568C143.924 205.568 143.614 205.898 143.573 206.498L142.188 206.508C142.229 205.268 143.232 204.565 144.544 204.565C146.083 204.565 146.662 205.237 146.745 206.188C146.765 206.446 146.776 206.735 146.776 207.035V208.812C146.776 209.225 146.796 209.597 146.879 210.207H145.484ZM144.296 209.349C144.875 209.349 145.36 208.946 145.36 208.182V207.738C144.224 207.655 143.459 207.913 143.459 208.636C143.459 209.122 143.79 209.349 144.296 209.349ZM153.218 206.105C153.249 206.384 153.26 206.663 153.26 207.107V210.207H151.834V207.304C151.834 207.076 151.834 206.818 151.813 206.539C151.772 205.96 151.451 205.568 150.759 205.568C150.067 205.568 149.519 206.167 149.519 207.696V210.207H148.093V204.71H149.519V205.599L149.943 204.948C150.336 204.669 150.738 204.565 151.265 204.565C152.433 204.565 153.105 205.144 153.218 206.105ZM159.853 202.613V210.207H158.427V209.36L158.014 209.969C157.704 210.207 157.146 210.352 156.588 210.352C155.048 210.352 154.139 209.184 154.139 207.562C154.139 205.568 155.358 204.565 156.774 204.565C157.228 204.565 157.786 204.679 158.065 204.875L158.427 205.444V202.613H159.853ZM157.001 209.349C157.786 209.349 158.427 208.864 158.427 207.521V207.252C158.427 206.012 157.714 205.568 157.053 205.568C156.226 205.568 155.616 206.198 155.616 207.469C155.616 208.595 156.154 209.349 157.001 209.349ZM161.883 202.664C162.348 202.664 162.669 202.974 162.669 203.419C162.669 203.873 162.348 204.173 161.883 204.173C161.418 204.173 161.098 203.873 161.098 203.419C161.098 202.974 161.418 202.664 161.883 202.664ZM162.596 210.207H161.17V204.71H162.596V210.207ZM169.257 202.613V210.207H167.831V209.36L167.418 209.969C167.108 210.207 166.55 210.352 165.992 210.352C164.452 210.352 163.543 209.184 163.543 207.562C163.543 205.568 164.762 204.565 166.178 204.565C166.632 204.565 167.19 204.679 167.469 204.875L167.831 205.444V202.613H169.257ZM166.405 209.349C167.19 209.349 167.831 208.864 167.831 207.521V207.252C167.831 206.012 167.118 205.568 166.457 205.568C165.63 205.568 165.021 206.198 165.021 207.469C165.021 208.595 165.558 209.349 166.405 209.349ZM173.767 210.207L173.664 209.401L173.395 209.99C173.013 210.248 172.548 210.352 172.031 210.352C171.081 210.352 170.265 209.794 170.265 208.75C170.265 207.541 171.298 206.859 173.292 206.859H173.643V206.746C173.643 206.58 173.643 206.415 173.623 206.229C173.581 205.847 173.333 205.568 172.775 205.568C172.207 205.568 171.897 205.898 171.856 206.498L170.471 206.508C170.513 205.268 171.515 204.565 172.827 204.565C174.367 204.565 174.945 205.237 175.028 206.188C175.049 206.446 175.059 206.735 175.059 207.035V208.812C175.059 209.225 175.08 209.597 175.162 210.207H173.767ZM172.579 209.349C173.158 209.349 173.643 208.946 173.643 208.182V207.738C172.507 207.655 171.742 207.913 171.742 208.636C171.742 209.122 172.073 209.349 172.579 209.349ZM178.081 205.692V208.234C178.081 208.42 178.081 208.574 178.092 208.719C178.133 209.256 178.329 209.38 179.125 209.318V210.248C178.805 210.3 178.505 210.321 178.185 210.321C177.12 210.321 176.738 209.969 176.676 209.194C176.656 208.946 176.656 208.709 176.656 208.399V205.692H175.85V204.751H176.656V203.398H178.081V204.751H179.218V205.692H178.081ZM185.01 207.345C185.01 207.479 185.01 207.645 184.989 207.831H181.083C181.176 208.988 181.693 209.349 182.354 209.349C182.964 209.349 183.408 209.008 183.501 208.42H184.927C184.648 209.701 183.615 210.352 182.323 210.352C180.815 210.352 179.647 209.411 179.647 207.479C179.647 205.795 180.753 204.565 182.437 204.565C184.121 204.565 185.01 205.847 185.01 207.345ZM182.375 205.568C181.714 205.568 181.249 205.991 181.125 206.901H183.543C183.45 206.033 183.057 205.568 182.375 205.568ZM189.705 205.692V208.234C189.705 208.42 189.705 208.574 189.716 208.719C189.757 209.256 189.953 209.38 190.749 209.318V210.248C190.429 210.3 190.129 210.321 189.809 210.321C188.745 210.321 188.362 209.969 188.3 209.194C188.28 208.946 188.28 208.709 188.28 208.399V205.692H187.474V204.751H188.28V203.398H189.705V204.751H190.842V205.692H189.705ZM194.123 204.565C195.952 204.565 196.975 205.785 196.975 207.459C196.975 209.122 195.952 210.352 194.123 210.352C192.294 210.352 191.271 209.122 191.271 207.459C191.271 205.785 192.294 204.565 194.123 204.565ZM194.123 209.349C194.981 209.349 195.497 208.636 195.497 207.459C195.497 206.27 194.981 205.568 194.123 205.568C193.265 205.568 192.749 206.27 192.749 207.459C192.749 208.636 193.265 209.349 194.123 209.349ZM200.63 202.664C201.095 202.664 201.415 202.974 201.415 203.419C201.415 203.873 201.095 204.173 200.63 204.173C200.165 204.173 199.845 203.873 199.845 203.419C199.845 202.974 200.165 202.664 200.63 202.664ZM201.343 210.207H199.917V204.71H201.343V210.207ZM210.824 205.929C210.866 206.208 210.876 206.487 210.876 206.932V210.207H209.45V207.345C209.45 207.025 209.44 206.725 209.409 206.446C209.337 205.878 209.027 205.568 208.479 205.568C207.838 205.568 207.477 206.115 207.477 207.386V210.207H206.061V207.345C206.061 207.025 206.051 206.725 206.02 206.446C205.948 205.878 205.627 205.568 205.08 205.568C204.439 205.568 204.088 206.115 204.088 207.386V210.207H202.662V204.71H204.088V205.547L204.491 204.886C204.801 204.669 205.162 204.565 205.658 204.565C206.557 204.565 207.125 205.01 207.342 205.609L207.88 204.886C208.19 204.669 208.562 204.565 209.058 204.565C210.101 204.565 210.701 205.175 210.824 205.929ZM215.392 204.565C216.931 204.565 217.84 205.733 217.84 207.355C217.84 209.339 216.621 210.352 215.206 210.352C214.751 210.352 214.193 210.238 213.914 210.042L213.552 209.473V212.232H212.127V204.71H213.552V205.547L213.966 204.948C214.276 204.7 214.834 204.565 215.392 204.565ZM214.927 209.349C215.753 209.349 216.363 208.719 216.363 207.448C216.363 206.322 215.826 205.568 214.978 205.568C214.193 205.568 213.552 206.053 213.552 207.397V207.655C213.552 208.905 214.265 209.349 214.927 209.349ZM221.566 204.576C221.731 204.576 221.845 204.586 221.969 204.617V205.764C220.781 205.681 220.192 206.208 220.192 207.686V210.207H218.766V204.71H220.192V205.712L220.626 204.948C220.894 204.7 221.256 204.576 221.566 204.576ZM225.12 204.565C226.949 204.565 227.972 205.785 227.972 207.459C227.972 209.122 226.949 210.352 225.12 210.352C223.292 210.352 222.269 209.122 222.269 207.459C222.269 205.785 223.292 204.565 225.12 204.565ZM225.12 209.349C225.978 209.349 226.495 208.636 226.495 207.459C226.495 206.27 225.978 205.568 225.12 205.568C224.263 205.568 223.746 206.27 223.746 207.459C223.746 208.636 224.263 209.349 225.12 209.349ZM234.114 204.71L231.986 210.207H230.395L228.256 204.71H229.837L231.221 209.132L232.575 204.71H234.114ZM239.568 207.345C239.568 207.479 239.568 207.645 239.547 207.831H235.642C235.735 208.988 236.251 209.349 236.913 209.349C237.522 209.349 237.967 209.008 238.06 208.42H239.485C239.206 209.701 238.173 210.352 236.882 210.352C235.373 210.352 234.206 209.411 234.206 207.479C234.206 205.795 235.311 204.565 236.995 204.565C238.68 204.565 239.568 205.847 239.568 207.345ZM236.933 205.568C236.272 205.568 235.807 205.991 235.683 206.901H238.101C238.008 206.033 237.615 205.568 236.933 205.568ZM245.039 204.565C246.868 204.565 247.891 205.785 247.891 207.459C247.891 209.122 246.868 210.352 245.039 210.352C243.21 210.352 242.187 209.122 242.187 207.459C242.187 205.785 243.21 204.565 245.039 204.565ZM245.039 209.349C245.896 209.349 246.413 208.636 246.413 207.459C246.413 206.27 245.896 205.568 245.039 205.568C244.181 205.568 243.665 206.27 243.665 207.459C243.665 208.636 244.181 209.349 245.039 209.349ZM253.95 206.105C253.981 206.384 253.991 206.663 253.991 207.107V210.207H252.565V207.304C252.565 207.076 252.565 206.818 252.545 206.539C252.503 205.96 252.183 205.568 251.491 205.568C250.799 205.568 250.251 206.167 250.251 207.696V210.207H248.825V204.71H250.251V205.599L250.675 204.948C251.067 204.669 251.47 204.565 251.997 204.565C253.165 204.565 253.836 205.144 253.95 206.105ZM265.196 204.71L263.45 210.207H261.838L260.908 206.022L259.968 210.207H258.346L256.6 204.71H258.191L259.162 209.019L260.061 204.731H261.776L262.706 209.008L263.667 204.71H265.196ZM270.828 207.345C270.828 207.479 270.828 207.645 270.807 207.831H266.902C266.995 208.988 267.511 209.349 268.172 209.349C268.782 209.349 269.226 209.008 269.319 208.42H270.745C270.466 209.701 269.433 210.352 268.141 210.352C266.633 210.352 265.465 209.411 265.465 207.479C265.465 205.795 266.571 204.565 268.255 204.565C269.939 204.565 270.828 205.847 270.828 207.345ZM268.193 205.568C267.532 205.568 267.067 205.991 266.943 206.901H269.361C269.268 206.033 268.875 205.568 268.193 205.568ZM275.004 210.207L274.9 209.401L274.632 209.99C274.249 210.248 273.784 210.352 273.268 210.352C272.317 210.352 271.501 209.794 271.501 208.75C271.501 207.541 272.534 206.859 274.528 206.859H274.88V206.746C274.88 206.58 274.88 206.415 274.859 206.229C274.818 205.847 274.57 205.568 274.012 205.568C273.443 205.568 273.133 205.898 273.092 206.498L271.707 206.508C271.749 205.268 272.751 204.565 274.063 204.565C275.603 204.565 276.181 205.237 276.264 206.188C276.285 206.446 276.295 206.735 276.295 207.035V208.812C276.295 209.225 276.316 209.597 276.398 210.207H275.004ZM273.815 209.349C274.394 209.349 274.88 208.946 274.88 208.182V207.738C273.743 207.655 272.978 207.913 272.978 208.636C272.978 209.122 273.309 209.349 273.815 209.349ZM279.493 208.037L279.039 208.533V210.207H277.613V202.613H279.039V207.221L281.25 204.71H282.965L280.527 207.262L282.996 210.207H281.198L279.493 208.037ZM288.436 207.345C288.436 207.479 288.436 207.645 288.415 207.831H284.509C284.602 208.988 285.119 209.349 285.78 209.349C286.39 209.349 286.834 209.008 286.927 208.42H288.353C288.074 209.701 287.041 210.352 285.749 210.352C284.241 210.352 283.073 209.411 283.073 207.479C283.073 205.795 284.179 204.565 285.863 204.565C287.547 204.565 288.436 205.847 288.436 207.345ZM285.801 205.568C285.139 205.568 284.675 205.991 284.551 206.901H286.968C286.875 206.033 286.483 205.568 285.801 205.568ZM292.219 204.576C292.384 204.576 292.497 204.586 292.621 204.617V205.764C291.433 205.681 290.844 206.208 290.844 207.686V210.207H289.418V204.71H290.844V205.712L291.278 204.948C291.547 204.7 291.909 204.576 292.219 204.576ZM298.544 210.207L298.441 209.401L298.172 209.99C297.79 210.248 297.325 210.352 296.808 210.352C295.858 210.352 295.042 209.794 295.042 208.75C295.042 207.541 296.075 206.859 298.069 206.859H298.42V206.746C298.42 206.58 298.42 206.415 298.4 206.229C298.358 205.847 298.11 205.568 297.552 205.568C296.984 205.568 296.674 205.898 296.633 206.498L295.248 206.508C295.29 205.268 296.292 204.565 297.604 204.565C299.144 204.565 299.722 205.237 299.805 206.188C299.825 206.446 299.836 206.735 299.836 207.035V208.812C299.836 209.225 299.856 209.597 299.939 210.207H298.544ZM297.356 209.349C297.935 209.349 298.42 208.946 298.42 208.182V207.738C297.284 207.655 296.519 207.913 296.519 208.636C296.519 209.122 296.85 209.349 297.356 209.349ZM303.954 204.576C304.119 204.576 304.233 204.586 304.357 204.617V205.764C303.168 205.681 302.579 206.208 302.579 207.686V210.207H301.153V204.71H302.579V205.712L303.013 204.948C303.282 204.7 303.644 204.576 303.954 204.576ZM310.019 207.345C310.019 207.479 310.019 207.645 309.998 207.831L306.092 207.831C306.185 208.988 306.702 209.349 307.363 209.349C307.973 209.349 308.417 209.008 308.51 208.42H309.936C309.657 209.701 308.624 210.352 307.332 210.352C305.824 210.352 304.656 209.411 304.656 207.479C304.656 205.795 305.762 204.565 307.446 204.565C309.13 204.565 310.019 205.847 310.019 207.345ZM307.384 205.568C306.723 205.568 306.258 205.991 306.134 206.901H308.552C308.459 206.033 308.066 205.568 307.384 205.568ZM314.194 210.207L314.091 209.401L313.822 209.99C313.44 210.248 312.975 210.352 312.458 210.352C311.508 210.352 310.692 209.794 310.692 208.75C310.692 207.541 311.725 206.859 313.719 206.859H314.07V206.746C314.07 206.58 314.07 206.415 314.05 206.229C314.008 205.847 313.76 205.568 313.202 205.568C312.634 205.568 312.324 205.898 312.283 206.498L310.898 206.508C310.94 205.268 311.942 204.565 313.254 204.565C314.794 204.565 315.372 205.237 315.455 206.188C315.476 206.446 315.486 206.735 315.486 207.035V208.812C315.486 209.225 315.507 209.597 315.589 210.207H314.194ZM313.006 209.349C313.585 209.349 314.07 208.946 314.07 208.182V207.738C312.934 207.655 312.169 207.913 312.169 208.636C312.169 209.122 312.5 209.349 313.006 209.349ZM318.767 204.565C320.079 204.565 320.823 205.299 320.947 206.301H319.521C319.428 205.795 319.149 205.506 318.674 205.506C318.25 205.506 318.023 205.754 318.023 206.095C318.023 206.508 318.364 206.725 319.273 206.952C320.399 207.242 321.061 207.696 321.061 208.709C321.061 209.814 320.058 210.352 318.798 210.352C317.465 210.352 316.525 209.773 316.37 208.533H317.795C317.909 209.132 318.322 209.411 318.818 209.411C319.273 209.411 319.624 209.215 319.624 208.812C319.624 208.389 319.263 208.151 318.312 207.913C317.289 207.655 316.587 207.211 316.587 206.26C316.587 205.206 317.454 204.565 318.767 204.565Z" fill="black"/>
<path d="M45.1064 329.697C45.5404 329.801 45.9123 330.007 46.336 330.359L45.623 331.278C44.9411 330.844 44.6104 330.741 44.1868 330.741C43.8975 330.741 43.7219 330.772 43.4325 330.834C43.2052 330.886 42.9676 330.906 42.6989 330.906C40.4981 330.906 39.1756 329.429 39.1756 327.197C39.1756 324.955 40.4981 323.477 42.6989 323.477C44.8894 323.477 46.2223 324.955 46.2223 327.197C46.2223 328.199 45.8503 329.119 45.1064 329.697ZM40.6634 327.197C40.6634 328.861 41.428 329.842 42.6989 329.842C43.9595 329.842 44.7241 328.861 44.7241 327.197C44.7241 325.523 43.9595 324.552 42.6989 324.552C41.428 324.552 40.6634 325.523 40.6634 327.197ZM50.9923 326.99C51.9532 327.207 52.4802 327.776 52.4802 328.706C52.4802 330.049 51.3229 330.906 49.7214 330.906C48.1095 330.906 47.1073 330.152 46.9523 328.675L46.942 328.571H48.3678L48.3885 328.675C48.4918 329.398 48.9878 329.842 49.7111 329.842C50.4653 329.842 50.9716 329.408 50.9716 328.757C50.9716 328.044 50.486 327.662 49.5561 327.641H49.3184L49.3184 326.649L49.5561 326.639C50.3103 326.608 50.8063 326.184 50.8063 325.513C50.8063 324.934 50.424 324.552 49.7937 324.552C49.1531 324.552 48.7605 325.007 48.6881 325.678L48.6778 325.781H47.2623L47.2726 325.678C47.3966 324.438 48.2852 323.488 49.9487 323.488C51.4986 323.488 52.3148 324.304 52.3148 325.347C52.3148 326.174 51.8499 326.763 50.9923 326.99ZM53.3481 322.702H54.123C55.053 323.829 55.5799 325.337 55.5799 327.145C55.5799 328.943 55.053 330.462 54.123 331.588H53.3481C54.2057 330.276 54.6707 328.809 54.6707 327.145C54.6707 325.482 54.2057 324.015 53.3481 322.702ZM64.8444 328.964C64.9374 329.832 65.0718 330.359 65.3611 330.762H63.8009C63.6252 330.276 63.5219 329.842 63.4496 329.171C63.3566 328.406 63.0673 327.941 62.4886 327.9C62.2923 327.889 62.1167 327.889 61.9307 327.889H61.1041L61.1041 330.762H59.6782L59.6782 323.632H62.282C62.6953 323.632 62.9639 323.643 63.3152 323.684C64.3485 323.808 65.1854 324.345 65.1854 325.575C65.1854 326.494 64.6378 327.073 63.7905 327.311C64.4931 327.579 64.7618 328.168 64.8444 328.964ZM61.1041 326.825H62.0857C62.3336 326.825 62.5093 326.825 62.6643 326.815C63.2326 326.763 63.6872 326.484 63.6872 325.792C63.6872 325.1 63.3049 324.852 62.7469 324.779C62.5816 324.759 62.406 324.748 62.1477 324.748H61.1041V326.825ZM71.1607 327.9C71.1607 328.034 71.1607 328.199 71.14 328.385H67.2343C67.3273 329.542 67.8439 329.904 68.5052 329.904C69.1148 329.904 69.5591 329.563 69.6521 328.974H71.078C70.799 330.255 69.7658 330.906 68.4742 330.906C66.9657 330.906 65.7981 329.966 65.7981 328.034C65.7981 326.35 66.9037 325.12 68.5879 325.12C70.2721 325.12 71.1607 326.401 71.1607 327.9ZM68.5259 326.122C67.8646 326.122 67.3996 326.546 67.2756 327.455H69.6934C69.6005 326.587 69.2078 326.122 68.5259 326.122ZM74.52 325.12C76.0079 325.12 76.9275 326.029 77.0308 327.249H75.6256C75.4913 326.453 75.078 326.122 74.489 326.122C73.7657 326.122 73.2491 326.711 73.2491 327.962C73.2491 329.326 73.7657 329.904 74.4787 329.904C75.0366 329.904 75.4499 329.553 75.5946 328.861H77.0205C76.7828 330.214 75.7702 330.906 74.396 330.906C72.8978 330.906 71.7716 329.956 71.7716 328.055C71.7716 326.174 73.0115 325.12 74.52 325.12ZM80.4152 325.12C82.244 325.12 83.2669 326.339 83.2669 328.013C83.2669 329.677 82.244 330.906 80.4152 330.906C78.5863 330.906 77.5634 329.677 77.5634 328.013C77.5634 326.339 78.5863 325.12 80.4152 325.12ZM80.4152 329.904C81.2728 329.904 81.7894 329.191 81.7894 328.013C81.7894 326.825 81.2728 326.122 80.4152 326.122C79.5576 326.122 79.041 326.825 79.041 328.013C79.041 329.191 79.5576 329.904 80.4152 329.904ZM92.3641 326.484C92.4055 326.763 92.4158 327.042 92.4158 327.486V330.762H90.9899V327.9C90.9899 327.579 90.9796 327.28 90.9486 327.001C90.8763 326.432 90.5663 326.122 90.0187 326.122C89.378 326.122 89.0164 326.67 89.0164 327.941V330.762H87.6009V327.9C87.6009 327.579 87.5905 327.28 87.5595 327.001C87.4872 326.432 87.1669 326.122 86.6193 326.122C85.9787 326.122 85.6274 326.67 85.6274 327.941V330.762H84.2015V325.265H85.6274V326.102L86.0303 325.44C86.3403 325.224 86.7019 325.12 87.1979 325.12C88.0968 325.12 88.6651 325.564 88.8821 326.164L89.4194 325.44C89.7294 325.224 90.1013 325.12 90.5973 325.12C91.6409 325.12 92.2401 325.73 92.3641 326.484ZM101.829 326.484C101.87 326.763 101.881 327.042 101.881 327.486V330.762H100.455V327.9C100.455 327.579 100.444 327.28 100.413 327.001C100.341 326.432 100.031 326.122 99.4834 326.122C98.8428 326.122 98.4811 326.67 98.4811 327.941V330.762H97.0656V327.9C97.0656 327.579 97.0552 327.28 97.0242 327.001C96.9519 326.432 96.6316 326.122 96.084 326.122C95.4434 326.122 95.0921 326.67 95.0921 327.941V330.762H93.6662V325.265H95.0921V326.102L95.495 325.44C95.805 325.224 96.1667 325.12 96.6626 325.12C97.5615 325.12 98.1298 325.564 98.3468 326.164L98.8841 325.44C99.1941 325.224 99.566 325.12 100.062 325.12C101.106 325.12 101.705 325.73 101.829 326.484ZM108.122 327.9C108.122 328.034 108.122 328.199 108.101 328.385H104.195C104.288 329.542 104.805 329.904 105.466 329.904C106.076 329.904 106.52 329.563 106.613 328.974H108.039C107.76 330.255 106.727 330.906 105.435 330.906C103.927 330.906 102.759 329.966 102.759 328.034C102.759 326.35 103.865 325.12 105.549 325.12C107.233 325.12 108.122 326.401 108.122 327.9ZM105.487 326.122C104.825 326.122 104.36 326.546 104.236 327.455H106.654C106.561 326.587 106.169 326.122 105.487 326.122ZM114.229 326.66C114.26 326.939 114.271 327.218 114.271 327.662V330.762H112.845V327.858C112.845 327.631 112.845 327.373 112.824 327.094C112.783 326.515 112.462 326.122 111.77 326.122C111.078 326.122 110.53 326.722 110.53 328.251V330.762H109.104V325.265H110.53V326.153L110.954 325.502C111.347 325.224 111.75 325.12 112.276 325.12C113.444 325.12 114.116 325.699 114.229 326.66ZM120.864 323.167V330.762H119.438V329.914L119.025 330.524C118.715 330.762 118.157 330.906 117.599 330.906C116.059 330.906 115.15 329.739 115.15 328.117C115.15 326.122 116.369 325.12 117.785 325.12C118.239 325.12 118.797 325.234 119.076 325.43L119.438 325.998V323.167H120.864ZM118.012 329.904C118.797 329.904 119.438 329.418 119.438 328.075V327.807C119.438 326.567 118.725 326.122 118.064 326.122C117.237 326.122 116.627 326.753 116.627 328.024C116.627 329.15 117.165 329.904 118.012 329.904ZM127.172 327.9C127.172 328.034 127.172 328.199 127.151 328.385H123.246C123.339 329.542 123.855 329.904 124.517 329.904C125.126 329.904 125.57 329.563 125.663 328.974H127.089C126.81 330.255 125.777 330.906 124.486 330.906C122.977 330.906 121.809 329.966 121.809 328.034C121.809 326.35 122.915 325.12 124.599 325.12C126.283 325.12 127.172 326.401 127.172 327.9ZM124.537 326.122C123.876 326.122 123.411 326.546 123.287 327.455H125.705C125.612 326.587 125.219 326.122 124.537 326.122ZM133.497 323.167V330.762H132.071V329.914L131.658 330.524C131.348 330.762 130.79 330.906 130.232 330.906C128.692 330.906 127.783 329.739 127.783 328.117C127.783 326.122 129.002 325.12 130.418 325.12C130.872 325.12 131.43 325.234 131.709 325.43L132.071 325.998V323.167H133.497ZM130.645 329.904C131.43 329.904 132.071 329.418 132.071 328.075V327.807C132.071 326.567 131.358 326.122 130.697 326.122C129.87 326.122 129.26 326.753 129.26 328.024C129.26 329.15 129.798 329.904 130.645 329.904ZM139.623 325.131C139.788 325.131 139.902 325.141 140.026 325.172V326.319C138.837 326.236 138.248 326.763 138.248 328.241V330.762H136.822V325.265H138.248V326.267L138.682 325.502C138.951 325.255 139.313 325.131 139.623 325.131ZM145.688 327.9C145.688 328.034 145.688 328.199 145.667 328.385H141.761C141.854 329.542 142.371 329.904 143.032 329.904C143.642 329.904 144.086 329.563 144.179 328.974H145.605C145.326 330.255 144.293 330.906 143.001 330.906C141.493 330.906 140.325 329.966 140.325 328.034C140.325 326.35 141.431 325.12 143.115 325.12C144.799 325.12 145.688 326.401 145.688 327.9ZM143.053 326.122C142.392 326.122 141.927 326.546 141.803 327.455H144.221C144.128 326.587 143.735 326.122 143.053 326.122ZM148.634 325.12C149.946 325.12 150.69 325.854 150.814 326.856H149.388C149.295 326.35 149.016 326.06 148.541 326.06C148.117 326.06 147.89 326.308 147.89 326.649C147.89 327.063 148.231 327.28 149.14 327.507C150.266 327.796 150.928 328.251 150.928 329.264C150.928 330.369 149.925 330.906 148.665 330.906C147.332 330.906 146.392 330.328 146.237 329.088H147.663C147.776 329.687 148.19 329.966 148.685 329.966C149.14 329.966 149.491 329.77 149.491 329.367C149.491 328.943 149.13 328.706 148.179 328.468C147.156 328.21 146.454 327.765 146.454 326.815C146.454 325.761 147.322 325.12 148.634 325.12ZM154.286 325.12C156.115 325.12 157.138 326.339 157.138 328.013C157.138 329.677 156.115 330.906 154.286 330.906C152.458 330.906 151.435 329.677 151.435 328.013C151.435 326.339 152.458 325.12 154.286 325.12ZM154.286 329.904C155.144 329.904 155.661 329.191 155.661 328.013C155.661 326.825 155.144 326.122 154.286 326.122C153.429 326.122 152.912 326.825 152.912 328.013C152.912 329.191 153.429 329.904 154.286 329.904ZM163.146 325.265V330.762H161.72V329.832L161.296 330.534C160.893 330.803 160.501 330.906 159.974 330.906C158.837 330.906 158.155 330.266 158.031 329.511C157.99 329.233 157.98 328.954 157.98 328.509V325.265H159.406V328.21C159.406 328.385 159.416 328.685 159.447 328.964C159.519 329.532 159.85 329.894 160.511 329.894C161.224 329.894 161.72 329.305 161.72 328.065V325.265H163.146ZM167.26 325.131C167.425 325.131 167.539 325.141 167.663 325.172V326.319C166.475 326.236 165.886 326.763 165.886 328.241V330.762H164.46V325.265H165.886V326.267L166.32 325.502C166.588 325.255 166.95 325.131 167.26 325.131ZM170.711 325.12C172.199 325.12 173.118 326.029 173.222 327.249H171.817C171.682 326.453 171.269 326.122 170.68 326.122C169.957 326.122 169.44 326.711 169.44 327.962C169.44 329.326 169.957 329.904 170.67 329.904C171.228 329.904 171.641 329.553 171.786 328.861H173.211C172.974 330.214 171.961 330.906 170.587 330.906C169.089 330.906 167.963 329.956 167.963 328.055C167.963 326.174 169.202 325.12 170.711 325.12ZM179.117 327.9C179.117 328.034 179.117 328.199 179.096 328.385H175.191C175.284 329.542 175.8 329.904 176.462 329.904C177.071 329.904 177.515 329.563 177.608 328.974H179.034C178.755 330.255 177.722 330.906 176.431 330.906C174.922 330.906 173.754 329.966 173.754 328.034C173.754 326.35 174.86 325.12 176.544 325.12C178.228 325.12 179.117 326.401 179.117 327.9ZM176.482 326.122C175.821 326.122 175.356 326.546 175.232 327.455H177.65C177.557 326.587 177.164 326.122 176.482 326.122ZM182.063 325.12C183.375 325.12 184.119 325.854 184.243 326.856H182.817C182.724 326.35 182.445 326.06 181.97 326.06C181.546 326.06 181.319 326.308 181.319 326.649C181.319 327.063 181.66 327.28 182.569 327.507C183.696 327.796 184.357 328.251 184.357 329.264C184.357 330.369 183.355 330.906 182.094 330.906C180.761 330.906 179.821 330.328 179.666 329.088H181.092C181.205 329.687 181.619 329.966 182.115 329.966C182.569 329.966 182.921 329.77 182.921 329.367C182.921 328.943 182.559 328.706 181.608 328.468C180.586 328.21 179.883 327.765 179.883 326.815C179.883 325.761 180.751 325.12 182.063 325.12ZM188.835 324.562C188.814 324.707 188.814 324.893 188.814 325.038V325.306H189.941V326.246H188.814V330.762H187.388V326.246H186.8V325.306H187.388V325.079C187.388 324.893 187.388 324.635 187.409 324.449C187.492 323.519 188.101 322.971 189.403 322.971C189.631 322.971 189.848 323.002 190.034 323.043V324.035C189.362 323.911 188.887 324.097 188.835 324.562ZM193.215 325.12C195.044 325.12 196.067 326.339 196.067 328.013C196.067 329.677 195.044 330.906 193.215 330.906C191.386 330.906 190.363 329.677 190.363 328.013C190.363 326.339 191.386 325.12 193.215 325.12ZM193.215 329.904C194.072 329.904 194.589 329.191 194.589 328.013C194.589 326.825 194.072 326.122 193.215 326.122C192.357 326.122 191.841 326.825 191.841 328.013C191.841 329.191 192.357 329.904 193.215 329.904ZM199.801 325.131C199.967 325.131 200.08 325.141 200.204 325.172V326.319C199.016 326.236 198.427 326.763 198.427 328.241V330.762H197.001V325.265H198.427V326.267L198.861 325.502C199.13 325.255 199.491 325.131 199.801 325.131ZM205.311 325.12C206.799 325.12 207.718 326.029 207.822 327.249H206.416C206.282 326.453 205.869 326.122 205.28 326.122C204.556 326.122 204.04 326.711 204.04 327.962C204.04 329.326 204.556 329.904 205.269 329.904C205.827 329.904 206.241 329.553 206.385 328.861H207.811C207.574 330.214 206.561 330.906 205.187 330.906C203.689 330.906 202.562 329.956 202.562 328.055C202.562 326.174 203.802 325.12 205.311 325.12ZM211.919 330.762L211.816 329.956L211.547 330.545C211.165 330.803 210.7 330.906 210.183 330.906C209.232 330.906 208.416 330.348 208.416 329.305C208.416 328.096 209.449 327.414 211.444 327.414H211.795V327.3C211.795 327.135 211.795 326.97 211.774 326.784C211.733 326.401 211.485 326.122 210.927 326.122C210.359 326.122 210.049 326.453 210.007 327.052L208.623 327.063C208.664 325.823 209.666 325.12 210.979 325.12C212.518 325.12 213.097 325.792 213.179 326.742C213.2 327.001 213.21 327.29 213.21 327.59V329.367C213.21 329.78 213.231 330.152 213.314 330.762H211.919ZM210.731 329.904C211.309 329.904 211.795 329.501 211.795 328.737V328.292C210.658 328.21 209.894 328.468 209.894 329.191C209.894 329.677 210.224 329.904 210.731 329.904ZM219.653 326.66C219.684 326.939 219.694 327.218 219.694 327.662V330.762H218.268V327.858C218.268 327.631 218.268 327.373 218.248 327.094C218.206 326.515 217.886 326.122 217.194 326.122C216.502 326.122 215.954 326.722 215.954 328.251V330.762H214.528V325.265H215.954V326.153L216.378 325.502C216.77 325.224 217.173 325.12 217.7 325.12C218.868 325.12 219.539 325.699 219.653 326.66ZM226.287 323.167V330.762H224.862V329.914L224.448 330.524C224.138 330.762 223.58 330.906 223.022 330.906C221.483 330.906 220.574 329.739 220.574 328.117C220.574 326.122 221.793 325.12 223.208 325.12C223.663 325.12 224.221 325.234 224.5 325.43L224.862 325.998V323.167H226.287ZM223.436 329.904C224.221 329.904 224.862 329.418 224.862 328.075V327.807C224.862 326.567 224.149 326.122 223.487 326.122C222.661 326.122 222.051 326.753 222.051 328.024C222.051 329.15 222.588 329.904 223.436 329.904ZM228.318 323.219C228.783 323.219 229.103 323.529 229.103 323.973C229.103 324.428 228.783 324.728 228.318 324.728C227.853 324.728 227.533 324.428 227.533 323.973C227.533 323.529 227.853 323.219 228.318 323.219ZM229.031 330.762H227.605V325.265H229.031V330.762ZM235.692 323.167V330.762H234.266V329.914L233.852 330.524C233.542 330.762 232.984 330.906 232.427 330.906C230.887 330.906 229.978 329.739 229.978 328.117C229.978 326.122 231.197 325.12 232.612 325.12C233.067 325.12 233.625 325.234 233.904 325.43L234.266 325.998V323.167H235.692ZM232.84 329.904C233.625 329.904 234.266 329.418 234.266 328.075V327.807C234.266 326.567 233.553 326.122 232.891 326.122C232.065 326.122 231.455 326.753 231.455 328.024C231.455 329.15 231.993 329.904 232.84 329.904ZM240.202 330.762L240.099 329.956L239.83 330.545C239.448 330.803 238.983 330.906 238.466 330.906C237.516 330.906 236.699 330.348 236.699 329.305C236.699 328.096 237.733 327.414 239.727 327.414H240.078V327.3C240.078 327.135 240.078 326.97 240.057 326.784C240.016 326.401 239.768 326.122 239.21 326.122C238.642 326.122 238.332 326.453 238.291 327.052L236.906 327.063C236.947 325.823 237.95 325.12 239.262 325.12C240.801 325.12 241.38 325.792 241.463 326.742C241.483 327.001 241.494 327.29 241.494 327.59V329.367C241.494 329.78 241.514 330.152 241.597 330.762H240.202ZM239.014 329.904C239.592 329.904 240.078 329.501 240.078 328.737V328.292C238.941 328.21 238.177 328.468 238.177 329.191C238.177 329.677 238.507 329.904 239.014 329.904ZM244.516 326.246V328.788C244.516 328.974 244.516 329.129 244.526 329.274C244.568 329.811 244.764 329.935 245.56 329.873V330.803C245.239 330.855 244.94 330.875 244.619 330.875C243.555 330.875 243.173 330.524 243.111 329.749C243.09 329.501 243.09 329.264 243.09 328.954V326.246H242.284V325.306H243.09V323.953H244.516V325.306H245.653V326.246H244.516ZM251.444 327.9C251.444 328.034 251.444 328.199 251.424 328.385H247.518C247.611 329.542 248.128 329.904 248.789 329.904C249.399 329.904 249.843 329.563 249.936 328.974H251.362C251.083 330.255 250.05 330.906 248.758 330.906C247.249 330.906 246.082 329.966 246.082 328.034C246.082 326.35 247.187 325.12 248.872 325.12C250.556 325.12 251.444 326.401 251.444 327.9ZM248.81 326.122C248.148 326.122 247.683 326.546 247.559 327.455H249.977C249.884 326.587 249.492 326.122 248.81 326.122Z" fill="black"/>
<path d="M50.3617 71.2534L50.3617 78.3828H48.5019V75.3864C48.5019 74.7664 48.5019 73.8469 48.5226 73.1236C48.3986 73.8469 48.1919 74.7561 48.0266 75.3864L47.2413 78.3828H45.3298L44.5342 75.3864C44.3689 74.7664 44.1623 73.8469 44.0486 73.1236C44.0693 73.8469 44.0693 74.7664 44.0693 75.3864V78.3828H42.2094L42.2094 71.2534H45.1128L46.3217 76.5746L47.5306 71.2534H50.3617ZM56.88 75.5517C56.88 75.717 56.8697 75.903 56.849 76.089H53.0053C53.0983 77.0086 53.5013 77.2669 54.0282 77.2669C54.5552 77.2669 54.8755 76.9983 54.9478 76.5746H56.7767C56.4564 77.8249 55.4231 78.5275 54.0076 78.5275C52.4267 78.5275 51.1661 77.5872 51.1661 75.6447C51.1661 74.0328 52.2717 72.7206 54.1109 72.7206C55.9501 72.7206 56.88 74.1258 56.88 75.5517ZM54.0179 73.9812C53.5323 73.9812 53.1913 74.2705 53.0673 74.9524H54.9375C54.8342 74.3015 54.5139 73.9812 54.0179 73.9812ZM63.2302 74.2188C63.2715 74.4978 63.2819 74.8181 63.2819 75.2624L63.2819 78.3828H61.422L61.422 75.5724C61.422 75.3967 61.422 75.0971 61.4014 74.8181C61.36 74.2911 61.0707 73.9812 60.5128 73.9812C59.9445 73.9812 59.5415 74.5288 59.5415 75.779L59.5415 78.3828H57.6817V72.8653H59.5415V73.7229L60.0375 73.0409C60.3784 72.8343 60.7711 72.7206 61.2774 72.7206C62.4139 72.7206 63.0856 73.2579 63.2302 74.2188ZM66.563 74.0638V76.0993C66.563 76.2853 66.563 76.492 66.5733 76.6366C66.6147 77.1946 66.7903 77.3186 67.6686 77.2772V78.4345C67.3069 78.4965 66.966 78.5275 66.5733 78.5275C65.1991 78.5275 64.7858 78.1038 64.7238 77.2566C64.7032 76.9363 64.7032 76.678 64.7032 76.368V74.0638H63.8249V72.9066H64.7032V71.4807H66.563V72.9066H67.7822V74.0638H66.563ZM71.0631 72.7206C72.8713 72.7206 74.0286 73.8469 74.0286 75.624C74.0286 77.3909 72.8713 78.5275 71.0631 78.5275C69.2549 78.5275 68.0977 77.3909 68.0977 75.624C68.0977 73.8469 69.2549 72.7206 71.0631 72.7206ZM71.0631 77.2669C71.7244 77.2669 72.1274 76.7193 72.1274 75.624C72.1274 74.5185 71.7244 73.9812 71.0631 73.9812C70.4018 73.9812 69.9989 74.5185 69.9989 75.624C69.9989 76.7193 70.4018 77.2669 71.0631 77.2669ZM78.1726 72.7206C78.3483 72.7206 78.4619 72.7309 78.5962 72.7516V74.2705C77.2014 74.1775 76.6951 74.6941 76.6951 76.3576V78.3828H74.8352V72.8653H76.6951V73.9812L77.0877 73.2062C77.3873 72.8756 77.8213 72.7206 78.1726 72.7206Z" fill="black"/>
<path d="M288.112 70.7049C289.766 70.8909 291.129 71.9035 291.129 74.1353C291.129 76.3671 289.766 77.5657 288.112 77.7516C287.751 77.793 287.585 77.793 287.203 77.793H284.506V70.6636H287.203C287.585 70.6636 287.751 70.6636 288.112 70.7049ZM287.616 76.3258C288.546 76.2431 289.187 75.4372 289.187 74.1663C289.187 72.8954 288.546 72.2134 287.616 72.1308C287.379 72.1101 287.213 72.1101 286.945 72.1101H286.366V76.3464H286.945C287.213 76.3464 287.379 76.3464 287.616 76.3258ZM295.211 77.793L295.087 76.987L294.86 77.5657C294.467 77.8136 294.002 77.9376 293.496 77.9376C292.587 77.9376 291.729 77.3693 291.729 76.3051C291.729 75.1272 292.845 74.4039 294.715 74.4039H295.066V74.3213C295.066 74.2076 295.066 74.0939 295.046 73.9183C295.015 73.6393 294.787 73.3913 294.384 73.3913C293.95 73.3913 293.702 73.6703 293.671 74.1456L291.915 74.1559C291.925 72.8644 293.072 72.1308 294.467 72.1308C296.213 72.1308 296.813 72.9057 296.895 73.908C296.916 74.1869 296.926 74.5072 296.926 74.8482V76.3981C296.926 76.8114 296.947 77.1834 297.03 77.793H295.211ZM294.26 76.6771C294.632 76.6771 295.066 76.3981 295.066 75.8195V75.4578C294.229 75.3958 293.63 75.6128 293.63 76.1604C293.63 76.4911 293.888 76.6771 294.26 76.6771ZM300.273 73.474V75.5095C300.273 75.6955 300.273 75.9021 300.283 76.0468C300.325 76.6047 300.5 76.7287 301.379 76.6874V77.8446C301.017 77.9066 300.676 77.9376 300.283 77.9376C298.909 77.9376 298.496 77.514 298.434 76.6667C298.413 76.3464 298.413 76.0881 298.413 75.7781V73.474H297.535V72.3167H298.413V70.8909H300.273V72.3167H301.492V73.474H300.273ZM307.522 74.9619C307.522 75.1272 307.511 75.3132 307.491 75.4992H303.647C303.74 76.4187 304.143 76.6771 304.67 76.6771C305.197 76.6771 305.517 76.4084 305.589 75.9848H307.418C307.098 77.235 306.065 77.9376 304.649 77.9376C303.068 77.9376 301.808 76.9974 301.808 75.0549C301.808 73.443 302.913 72.1308 304.752 72.1308C306.592 72.1308 307.522 73.536 307.522 74.9619ZM304.659 73.3913C304.174 73.3913 303.833 73.6806 303.709 74.3626H305.579C305.476 73.7116 305.155 73.3913 304.659 73.3913Z" fill="black"/>
<rect x="20.9141" y="57.1758" width="391.922" height="285.034" stroke="black" stroke-width="0.593821"/>
<line x1="20.6172" y1="92.8086" x2="413.133" y2="92.8086" stroke="black" stroke-width="0.593821"/>
<line x1="20.6172" y1="192.57" x2="413.133" y2="192.57" stroke="black" stroke-width="0.593821"/>
<line x1="20.6172" y1="311.922" x2="413.133" y2="311.922" stroke="black" stroke-width="0.593821"/>
<line x1="105.234" y1="93.1055" x2="105.234" y2="57.4762" stroke="black" stroke-width="0.593821"/>
<line x1="266.148" y1="92.5156" x2="266.148" y2="56.8864" stroke="black" stroke-width="0.593821"/>
<line x1="327.32" y1="92.5156" x2="327.32" y2="56.8864" stroke="black" stroke-width="0.593821"/>
<path d="M433.317 342.51V0.46875H0.421875V342.51" stroke="black" stroke-width="0.593821"/>
</svg>
