<svg width="434" height="345" viewBox="0 0 434 345" fill="none" xmlns="http://www.w3.org/2000/svg">
<rect x="20.6172" y="17.0938" width="392.516" height="30.2849" fill="black"/>
<path d="M43.9011 34.4446V35.6328H38.7555L38.7555 28.5034H40.1814L40.1814 34.4446H43.9011ZM47.9154 35.6328L47.8121 34.8269L47.5435 35.4158C47.1612 35.6741 46.6962 35.7775 46.1796 35.7775C45.229 35.7775 44.4127 35.2195 44.4127 34.1759C44.4127 32.967 45.446 32.2851 47.4401 32.2851H47.7915V32.1714C47.7915 32.0061 47.7915 31.8408 47.7708 31.6548C47.7295 31.2725 47.4815 30.9935 46.9235 30.9935C46.3552 30.9935 46.0453 31.3242 46.0039 31.9234L44.6194 31.9338C44.6607 30.6939 45.663 29.9913 46.9752 29.9913C48.5147 29.9913 49.0933 30.6629 49.176 31.6135C49.1967 31.8718 49.207 32.1611 49.207 32.4607V34.2379C49.207 34.6512 49.2277 35.0232 49.3103 35.6328H47.9154ZM46.7272 34.7752C47.3058 34.7752 47.7915 34.3722 47.7915 33.6076V33.1633C46.6549 33.0807 45.8903 33.339 45.8903 34.0623C45.8903 34.5479 46.2209 34.7752 46.7272 34.7752ZM52.4878 29.9913C53.8 29.9913 54.544 30.7249 54.668 31.7271H53.2421C53.1491 31.2208 52.8701 30.9315 52.3948 30.9315C51.9712 30.9315 51.7439 31.1795 51.7439 31.5205C51.7439 31.9338 52.0848 32.1508 52.9941 32.3781C54.1203 32.6674 54.7816 33.122 54.7816 34.1346C54.7816 35.2402 53.7794 35.7775 52.5188 35.7775C51.1859 35.7775 50.2457 35.1988 50.0907 33.9589H51.5166C51.6302 34.5582 52.0435 34.8372 52.5395 34.8372C52.9941 34.8372 53.3454 34.6409 53.3454 34.2379C53.3454 33.8143 52.9838 33.5766 52.0332 33.339C51.0103 33.0807 50.3077 32.6364 50.3077 31.6858C50.3077 30.6319 51.1756 29.9913 52.4878 29.9913ZM57.3655 31.1175L57.3655 33.6593C57.3655 33.8453 57.3655 34.0003 57.3758 34.1449C57.4171 34.6822 57.6134 34.8062 58.4091 34.7442V35.6741C58.0887 35.7258 57.7891 35.7465 57.4688 35.7465C56.4045 35.7465 56.0222 35.3952 55.9603 34.6202C55.9396 34.3722 55.9396 34.1346 55.9396 33.8246L55.9396 31.1175H55.1337V30.1773H55.9396V28.8237H57.3655V30.1773L58.502 30.1773V31.1175L57.3655 31.1175ZM64.3364 30.8489C65.8346 30.8489 66.7026 31.7995 66.7026 33.2667C66.7026 34.8992 65.3903 35.7775 63.9955 35.7775C62.4043 35.7775 61.495 35.1162 61.3503 33.68L61.34 33.5766H62.7659L62.7762 33.68C62.8795 34.3103 63.2412 34.7132 63.9231 34.7132C64.7187 34.7132 65.1837 34.1553 65.1837 33.3183C65.1837 32.4814 64.7291 31.9131 63.9541 31.9131C63.3962 31.9131 63.0345 32.1508 62.7866 32.7191H61.464L61.9703 28.5034H66.4133V29.6193H63.1379L62.8692 31.6135L63.2205 31.1278C63.5512 30.9315 63.9231 30.8489 64.3364 30.8489ZM77.8238 28.5034V35.6328H76.3979V32.3367C76.3979 31.5928 76.3979 30.6422 76.4186 29.8983C76.2429 30.6422 75.9846 31.5928 75.7573 32.3264L74.755 35.6328H73.2052L72.1823 32.3161C71.9653 31.5928 71.707 30.6422 71.5416 29.9086C71.5623 30.6526 71.5623 31.5928 71.5623 32.3367V35.6328H70.1364L70.1364 28.5034H72.3889L74.0008 34.3206L75.6126 28.5034H77.8238ZM81.6206 29.9913C83.4494 29.9913 84.4723 31.2105 84.4723 32.8844C84.4723 34.5479 83.4494 35.7775 81.6206 35.7775C79.7917 35.7775 78.7688 34.5479 78.7688 32.8844C78.7688 31.2105 79.7917 29.9913 81.6206 29.9913ZM81.6206 34.7752C82.4782 34.7752 82.9948 34.0623 82.9948 32.8844C82.9948 31.6961 82.4782 30.9935 81.6206 30.9935C80.763 30.9935 80.2464 31.6961 80.2464 32.8844C80.2464 34.0623 80.763 34.7752 81.6206 34.7752ZM90.5318 31.5308C90.5628 31.8098 90.5731 32.0888 90.5731 32.5331V35.6328H89.1472V32.7294C89.1472 32.5021 89.1472 32.2438 89.1266 31.9648C89.0852 31.3862 88.7649 30.9935 88.0727 30.9935C87.3804 30.9935 86.8328 31.5928 86.8328 33.122V35.6328H85.4069V30.1359H86.8328V31.0245L87.2564 30.3736C87.649 30.0946 88.052 29.9913 88.5789 29.9913C89.7465 29.9913 90.4181 30.5699 90.5318 31.5308ZM93.5292 31.1175V33.6593C93.5292 33.8453 93.5292 34.0003 93.5395 34.1449C93.5808 34.6822 93.7772 34.8062 94.5728 34.7442V35.6741C94.2525 35.7258 93.9528 35.7465 93.6325 35.7465C92.5683 35.7465 92.186 35.3952 92.124 34.6202C92.1033 34.3722 92.1033 34.1346 92.1033 33.8246V31.1175H91.2974V30.1773H92.1033V28.8237H93.5292V30.1773H94.6658V31.1175H93.5292ZM100.683 31.5308C100.714 31.8098 100.724 32.0888 100.724 32.5331V35.6328H99.2981V32.7294C99.2981 32.5021 99.2981 32.2438 99.2774 31.9648C99.2361 31.3862 98.9158 30.9935 98.2235 30.9935C97.5312 31.0039 96.9836 31.5928 96.9836 33.122V35.6328H95.5577L95.5577 27.9868H96.9836V31.0245L97.4073 30.3736C97.7999 30.0946 98.2029 29.9913 98.7298 29.9913C99.8974 29.9913 100.569 30.5699 100.683 31.5308ZM103.938 29.9913C105.251 29.9913 105.995 30.7249 106.119 31.7271H104.693C104.6 31.2208 104.321 30.9315 103.845 30.9315C103.422 30.9315 103.194 31.1795 103.194 31.5205C103.194 31.9338 103.535 32.1508 104.445 32.3781C105.571 32.6674 106.232 33.122 106.232 34.1346C106.232 35.2402 105.23 35.7775 103.969 35.7775C102.636 35.7775 101.696 35.1988 101.541 33.9589H102.967C103.081 34.5582 103.494 34.8372 103.99 34.8372C104.445 34.8372 104.796 34.6409 104.796 34.2379C104.796 33.8143 104.434 33.5766 103.484 33.339C102.461 33.0807 101.758 32.6364 101.758 31.6858C101.758 30.6319 102.626 29.9913 103.938 29.9913ZM110.824 31.1175V33.6593C110.824 33.8453 110.824 34.0003 110.834 34.1449C110.876 34.6822 111.072 34.8062 111.868 34.7442V35.6741C111.547 35.7258 111.248 35.7465 110.927 35.7465C109.863 35.7465 109.481 35.3952 109.419 34.6202C109.398 34.3722 109.398 34.1346 109.398 33.8246V31.1175H108.592V30.1773H109.398V28.8237H110.824V30.1773H111.961V31.1175H110.824ZM115.653 30.0016C115.818 30.0016 115.932 30.0119 116.056 30.0429V31.1898C114.867 31.1072 114.278 31.6341 114.278 33.1117V35.6328H112.853V30.1359H114.278V31.1382L114.712 30.3736C114.981 30.1256 115.343 30.0016 115.653 30.0016ZM121.718 32.7707C121.718 32.905 121.718 33.0704 121.697 33.2563H117.791C117.884 34.4136 118.401 34.7752 119.062 34.7752C119.672 34.7752 120.116 34.4342 120.209 33.8453H121.635C121.356 35.1265 120.323 35.7775 119.031 35.7775C117.523 35.7775 116.355 34.8372 116.355 32.905C116.355 31.2208 117.461 29.9913 119.145 29.9913C120.829 29.9913 121.718 31.2725 121.718 32.7707ZM119.083 30.9935C118.422 30.9935 117.957 31.4172 117.833 32.3264H120.251C120.158 31.4585 119.765 30.9935 119.083 30.9935ZM127.826 31.5308C127.857 31.8098 127.867 32.0888 127.867 32.5331V35.6328H126.441V32.7294C126.441 32.5021 126.441 32.2438 126.42 31.9648C126.379 31.3862 126.059 30.9935 125.366 30.9935C124.674 30.9935 124.127 31.5928 124.127 33.122V35.6328H122.701V30.1359L124.127 30.1359V31.0245L124.55 30.3736C124.943 30.0946 125.346 29.9913 125.873 29.9913C127.04 29.9913 127.712 30.5699 127.826 31.5308ZM134.46 28.0384V35.6328H133.034V34.7855L132.621 35.3952C132.311 35.6328 131.753 35.7775 131.195 35.7775C129.655 35.7775 128.746 34.6099 128.746 32.9877C128.746 30.9935 129.965 29.9913 131.381 29.9913C131.836 29.9913 132.394 30.1049 132.673 30.3012L133.034 30.8695V28.0384H134.46ZM131.608 34.7752C132.394 34.7752 133.034 34.2896 133.034 32.9464V32.6777C133.034 31.4378 132.321 30.9935 131.66 30.9935C130.833 30.9935 130.224 31.6238 130.224 32.8947C130.224 34.0209 130.761 34.7752 131.608 34.7752ZM137.741 29.9913C139.053 29.9913 139.797 30.7249 139.921 31.7271H138.495C138.402 31.2208 138.123 30.9315 137.648 30.9315C137.224 30.9315 136.997 31.1795 136.997 31.5205C136.997 31.9338 137.338 32.1508 138.247 32.3781C139.373 32.6674 140.035 33.122 140.035 34.1346C140.035 35.2402 139.032 35.7775 137.772 35.7775C136.439 35.7775 135.499 35.1988 135.344 33.9589H136.77C136.883 34.5582 137.297 34.8372 137.793 34.8372C138.247 34.8372 138.599 34.6409 138.599 34.2379C138.599 33.8143 138.237 33.5766 137.286 33.339C136.263 33.0807 135.561 32.6364 135.561 31.6858C135.561 30.6319 136.429 29.9913 137.741 29.9913Z" fill="#FFFAF2"/>
<path d="M433.317 344.885V0.46875H0.421875V344.885" stroke="black" stroke-width="0.593821"/>
<path d="M77.293 291.448H75.2562L74.6326 293.344H73.66L75.7217 287.607H76.9022L78.9058 293.344H77.9165L77.293 291.448ZM75.4972 290.725H77.0519L76.2953 288.364L75.4972 290.725ZM83.3473 288.929V293.344H82.4411V292.587L82.1335 293.136C81.7843 293.385 81.4601 293.46 81.0195 293.46C80.105 293.46 79.5729 292.945 79.4732 292.338C79.4399 292.113 79.4316 291.914 79.4316 291.556V288.929H80.3378V291.373C80.3378 291.515 80.3461 291.756 80.371 291.98C80.4375 292.463 80.7535 292.778 81.3188 292.778C81.9589 292.778 82.4411 292.288 82.4411 291.008V288.929H83.3473ZM88.5724 288.929V292.246C88.5724 292.521 88.5724 292.862 88.5641 293.103C88.5142 294.441 87.6829 295.115 86.3527 295.115C85.0808 295.115 84.4074 294.582 84.3159 293.635L84.3076 293.552H85.2055L85.2138 293.626C85.272 294.1 85.6793 294.425 86.361 294.425C87.1591 294.425 87.6164 293.992 87.6496 293.202C87.6579 293.011 87.6579 292.853 87.6579 292.695V292.604L87.3254 293.086C87.076 293.286 86.6437 293.419 86.1948 293.419C84.9228 293.419 84.1829 292.487 84.1829 291.191C84.1829 289.578 85.1805 288.813 86.3195 288.813C86.6853 288.813 87.1425 288.913 87.367 289.087L87.6579 289.528V288.929H88.5724ZM86.3777 292.753C87.0677 292.753 87.6579 292.321 87.6579 291.141V290.949C87.6579 289.877 87.0095 289.478 86.4192 289.478C85.696 289.478 85.1473 290.01 85.1473 291.107C85.1473 292.063 85.5879 292.753 86.3777 292.753ZM93.593 288.929V293.344H92.6868V292.587L92.3792 293.136C92.0301 293.385 91.7058 293.46 91.2652 293.46C90.3507 293.46 89.8187 292.945 89.7189 292.338C89.6857 292.113 89.6773 291.914 89.6773 291.556L89.6773 288.929H90.5835L90.5835 291.373C90.5835 291.515 90.5918 291.756 90.6168 291.98C90.6833 292.463 90.9992 292.778 91.5645 292.778C92.2046 292.778 92.6868 292.288 92.6868 291.008V288.929H93.593ZM96.1828 288.813C97.197 288.813 97.7623 289.387 97.8621 290.193H96.931C96.8395 289.727 96.5652 289.453 96.1163 289.453C95.684 289.453 95.4761 289.694 95.4761 290.027C95.4761 290.426 95.8004 290.592 96.4571 290.767C97.4215 291.016 97.9286 291.398 97.9286 292.18C97.9286 293.036 97.1721 293.46 96.2077 293.46C95.2267 293.46 94.5035 293.02 94.3788 292.022H95.3016C95.4096 292.587 95.7837 292.812 96.241 292.812C96.665 292.812 97.0058 292.629 97.0058 292.246C97.0058 291.864 96.7065 291.656 95.9583 291.457C95.1519 291.249 94.5533 290.908 94.5533 290.135C94.5533 289.312 95.2018 288.813 96.1828 288.813ZM99.804 289.603L99.804 291.914C99.804 292.063 99.804 292.163 99.8123 292.28C99.8456 292.712 100.012 292.803 100.61 292.745V293.377C100.378 293.41 100.162 293.427 99.937 293.427C99.247 293.427 98.9477 293.169 98.9062 292.587C98.8979 292.438 98.8979 292.246 98.8979 291.997L98.8979 289.603H98.2743V288.963H98.8979V287.907H99.804V288.963H100.669V289.603H99.804Z" fill="black"/>
<path d="M52.8284 267.653C53.7191 267.653 54.1941 268.229 54.1941 269.037C54.1941 269.951 53.4697 270.462 52.6858 270.462C51.8248 270.462 51.326 270.07 51.2429 269.274L51.2369 269.215H51.8901L51.8961 269.274C51.9792 269.696 52.2108 269.963 52.668 269.963C53.1728 269.963 53.4875 269.625 53.4875 269.067C53.4875 268.514 53.1906 268.152 52.6858 268.152C52.3355 268.152 52.092 268.301 51.9139 268.681H51.3022L51.5932 266.282H54.0219V266.798H52.1217L51.9554 268.099L52.187 267.82C52.3771 267.707 52.5849 267.653 52.8284 267.653ZM56.2463 266.198C57.3924 266.198 57.7784 267.089 57.7784 268.33C57.7784 269.559 57.3924 270.462 56.2463 270.462C55.1062 270.462 54.7142 269.559 54.7142 268.33C54.7142 267.089 55.1062 266.198 56.2463 266.198ZM56.2463 269.963C56.8342 269.963 57.0717 269.381 57.0717 268.33C57.0717 267.267 56.8342 266.697 56.2463 266.697C55.6644 266.697 55.4209 267.267 55.4209 268.33C55.4209 269.381 55.6644 269.963 56.2463 269.963Z" fill="black"/>
<path d="M53.4637 243.117V247.215H52.8105V243.8L51.6526 244.465V243.824L52.5552 243.272C52.7452 243.159 52.9174 243.117 53.1015 243.117H53.4637ZM56.2463 243.034C57.3924 243.034 57.7784 243.925 57.7784 245.166C57.7784 246.395 57.3924 247.298 56.2463 247.298C55.1062 247.298 54.7142 246.395 54.7142 245.166C54.7142 243.925 55.1062 243.034 56.2463 243.034ZM56.2463 246.799C56.8342 246.799 57.0717 246.217 57.0717 245.166C57.0717 244.103 56.8342 243.533 56.2463 243.533C55.6644 243.533 55.4209 244.103 55.4209 245.166C55.4209 246.217 55.6644 246.799 56.2463 246.799ZM59.8127 243.034C60.9588 243.034 61.3448 243.925 61.3448 245.166C61.3448 246.395 60.9588 247.298 59.8127 247.298C58.6726 247.298 58.2807 246.395 58.2807 245.166C58.2807 243.925 58.6726 243.034 59.8127 243.034ZM59.8127 246.799C60.4006 246.799 60.6381 246.217 60.6381 245.166C60.6381 244.103 60.4006 243.533 59.8127 243.533C59.2308 243.533 58.9873 244.103 58.9873 245.166C58.9873 246.217 59.2308 246.799 59.8127 246.799Z" fill="black"/>
<path d="M53.4637 219.957V224.055H52.8105V220.64L51.6526 221.305V220.664L52.5552 220.112C52.7452 219.999 52.9174 219.957 53.1015 219.957H53.4637ZM56.3948 221.329C57.2855 221.329 57.7606 221.905 57.7606 222.713C57.7606 223.627 57.0361 224.138 56.2522 224.138C55.3912 224.138 54.8924 223.746 54.8093 222.95L54.8033 222.891H55.4565L55.4625 222.95C55.5456 223.372 55.7772 223.639 56.2344 223.639C56.7392 223.639 57.0539 223.301 57.0539 222.742C57.0539 222.19 56.757 221.828 56.2522 221.828C55.9019 221.828 55.6584 221.976 55.4803 222.356H54.8686L55.1596 219.957H57.5883V220.474H55.6881L55.5218 221.774L55.7534 221.495C55.9435 221.382 56.1513 221.329 56.3948 221.329ZM59.8127 219.874C60.9588 219.874 61.3448 220.765 61.3448 222.006C61.3448 223.235 60.9588 224.138 59.8127 224.138C58.6726 224.138 58.2807 223.235 58.2807 222.006C58.2807 220.765 58.6726 219.874 59.8127 219.874ZM59.8127 223.639C60.4006 223.639 60.6381 223.057 60.6381 222.006C60.6381 220.943 60.4006 220.373 59.8127 220.373C59.2308 220.373 58.9873 220.943 58.9873 222.006C58.9873 223.057 59.2308 223.639 59.8127 223.639Z" fill="black"/>
<path d="M52.2286 200.372H54.111V200.895H51.2547V200.562L52.6858 199.119C53.2025 198.608 53.4281 198.311 53.4281 197.919C53.4281 197.522 53.2025 197.207 52.7571 197.207C52.288 197.207 52.0564 197.504 52.0029 198.044L51.997 198.104H51.3438L51.3497 198.044C51.4329 197.177 51.9614 196.708 52.8284 196.708C53.6953 196.708 54.1348 197.213 54.1348 197.86C54.1348 198.4 53.8497 198.781 53.1312 199.481L52.2286 200.372ZM56.2463 196.714C57.3924 196.714 57.7784 197.605 57.7784 198.846C57.7784 200.075 57.3924 200.978 56.2463 200.978C55.1062 200.978 54.7142 200.075 54.7142 198.846C54.7142 197.605 55.1062 196.714 56.2463 196.714ZM56.2463 200.479C56.8342 200.479 57.0717 199.897 57.0717 198.846C57.0717 197.783 56.8342 197.213 56.2463 197.213C55.6644 197.213 55.4209 197.783 55.4209 198.846C55.4209 199.897 55.6644 200.479 56.2463 200.479ZM59.8127 196.714C60.9588 196.714 61.3448 197.605 61.3448 198.846C61.3448 200.075 60.9588 200.978 59.8127 200.978C58.6726 200.978 58.2807 200.075 58.2807 198.846C58.2807 197.605 58.6726 196.714 59.8127 196.714ZM59.8127 200.479C60.4006 200.479 60.6381 199.897 60.6381 198.846C60.6381 197.783 60.4006 197.213 59.8127 197.213C59.2308 197.213 58.9873 197.783 58.9873 198.846C58.9873 199.897 59.2308 200.479 59.8127 200.479Z" fill="black"/>
<path d="M131.908 287.491C133.18 287.491 133.804 288.239 133.92 289.237H132.972C132.906 288.58 132.524 288.189 131.858 288.189C131.318 288.189 130.894 288.439 130.894 288.979C130.894 289.536 131.235 289.794 132.124 290.002C133.388 290.293 133.987 290.833 133.987 291.789C133.987 292.828 133.064 293.46 131.95 293.46C130.636 293.46 129.797 292.837 129.68 291.681H130.628C130.778 292.388 131.276 292.762 131.95 292.762C132.548 292.762 133.022 292.438 133.022 291.914C133.022 291.315 132.673 291.008 131.742 290.792C130.653 290.534 129.93 290.126 129.93 289.129C129.93 288.115 130.836 287.491 131.908 287.491ZM138.598 291.024C138.598 291.107 138.598 291.232 138.582 291.39H135.414C135.489 292.446 135.971 292.795 136.57 292.795C137.102 292.795 137.518 292.471 137.609 291.914H138.532C138.341 292.961 137.501 293.46 136.537 293.46C135.356 293.46 134.467 292.712 134.467 291.149C134.467 289.752 135.356 288.813 136.628 288.813C137.908 288.813 138.598 289.777 138.598 291.024ZM136.595 289.478C135.971 289.478 135.522 289.902 135.423 290.75H137.659C137.592 289.935 137.235 289.478 136.595 289.478ZM141.87 288.813C143.134 288.813 143.857 289.769 143.857 291.058C143.857 292.679 142.859 293.46 141.72 293.46C141.355 293.46 140.897 293.36 140.673 293.186L140.382 292.745V294.973H139.467V288.929H140.382V289.619L140.714 289.145C140.964 288.938 141.421 288.813 141.87 288.813ZM141.612 292.795C142.344 292.795 142.893 292.238 142.893 291.141C142.893 290.185 142.452 289.478 141.654 289.478C140.972 289.478 140.382 289.91 140.382 291.091V291.315C140.382 292.396 141.03 292.795 141.612 292.795ZM145.76 289.603V291.914C145.76 292.063 145.76 292.163 145.769 292.28C145.802 292.712 145.968 292.803 146.567 292.745V293.377C146.334 293.41 146.118 293.427 145.893 293.427C145.203 293.427 144.904 293.169 144.863 292.587C144.854 292.438 144.854 292.246 144.854 291.997V289.603H144.231V288.963H144.854V287.907H145.76V288.963H146.625V289.603H145.76ZM151.158 291.024C151.158 291.107 151.158 291.232 151.141 291.39H147.974C148.049 292.446 148.531 292.795 149.129 292.795C149.662 292.795 150.077 292.471 150.169 291.914H151.091C150.9 292.961 150.061 293.46 149.096 293.46C147.916 293.46 147.026 292.712 147.026 291.149C147.026 289.752 147.916 288.813 149.188 288.813C150.468 288.813 151.158 289.777 151.158 291.024ZM149.154 289.478C148.531 289.478 148.082 289.902 147.982 290.75H150.219C150.152 289.935 149.795 289.478 149.154 289.478ZM158.212 289.894C158.245 290.118 158.254 290.318 158.254 290.675V293.344H157.339V291.008C157.339 290.675 157.331 290.434 157.306 290.21C157.248 289.736 156.957 289.486 156.483 289.486C155.951 289.486 155.593 289.927 155.593 291.124V293.344H154.687V291.008C154.687 290.675 154.679 290.434 154.654 290.21C154.587 289.736 154.305 289.486 153.831 289.486C153.291 289.486 152.941 289.927 152.941 291.124V293.344H152.027V288.929H152.941V289.586L153.241 289.071C153.473 288.888 153.781 288.813 154.18 288.813C154.878 288.813 155.319 289.162 155.485 289.653L155.893 289.071C156.134 288.888 156.441 288.813 156.832 288.813C157.647 288.813 158.112 289.287 158.212 289.894ZM161.769 288.813C163.032 288.813 163.756 289.769 163.756 291.058C163.756 292.679 162.758 293.46 161.619 293.46C161.253 293.46 160.796 293.36 160.572 293.186L160.281 292.745V293.344H159.366V287.233H160.281V289.619L160.613 289.145C160.863 288.938 161.32 288.813 161.769 288.813ZM161.511 292.795C162.243 292.795 162.791 292.238 162.791 291.141C162.791 290.185 162.351 289.478 161.553 289.478C160.871 289.478 160.281 289.91 160.281 291.091V291.315C160.281 292.396 160.929 292.795 161.511 292.795ZM168.369 291.024C168.369 291.107 168.369 291.232 168.353 291.39H165.185C165.26 292.446 165.742 292.795 166.341 292.795C166.873 292.795 167.289 292.471 167.38 291.914H168.303C168.112 292.961 167.272 293.46 166.308 293.46C165.127 293.46 164.238 292.712 164.238 291.149C164.238 289.752 165.127 288.813 166.399 288.813C167.679 288.813 168.369 289.777 168.369 291.024ZM166.366 289.478C165.742 289.478 165.293 289.902 165.194 290.75H167.43C167.364 289.935 167.006 289.478 166.366 289.478ZM171.209 288.821C171.333 288.821 171.425 288.838 171.516 288.871V289.586C170.677 289.528 170.153 289.96 170.153 291.049V293.344H169.238V288.929H170.153V289.677L170.527 289.071C170.727 288.913 170.984 288.821 171.209 288.821Z" fill="black"/>
<path d="M209.652 287.491C211.406 287.491 212.412 288.697 212.412 290.476C212.412 292.246 211.406 293.46 209.652 293.46C207.89 293.46 206.884 292.246 206.884 290.476C206.884 288.697 207.89 287.491 209.652 287.491ZM209.652 292.762C210.766 292.762 211.431 291.897 211.431 290.476C211.431 289.046 210.766 288.189 209.652 288.189C208.53 288.189 207.865 289.046 207.865 290.476C207.865 291.897 208.53 292.762 209.652 292.762ZM215.089 288.813C216.203 288.813 216.91 289.486 217.018 290.459H216.095C215.962 289.786 215.605 289.478 215.064 289.478C214.424 289.478 213.917 289.985 213.917 291.091C213.917 292.288 214.416 292.795 215.031 292.795C215.555 292.795 215.929 292.479 216.062 291.881H216.993C216.785 292.936 216.02 293.46 214.981 293.46C213.826 293.46 212.953 292.729 212.953 291.157C212.953 289.653 213.934 288.813 215.089 288.813ZM218.896 289.603V291.914C218.896 292.063 218.896 292.163 218.905 292.28C218.938 292.712 219.104 292.803 219.703 292.745V293.377C219.47 293.41 219.254 293.427 219.029 293.427C218.339 293.427 218.04 293.169 217.999 292.587C217.99 292.438 217.99 292.246 217.99 291.997V289.603H217.367V288.963H217.99V287.907H218.896V288.963H219.761V289.603H218.896ZM222.398 288.813C223.878 288.813 224.635 289.844 224.635 291.132C224.635 292.421 223.878 293.46 222.398 293.46C220.91 293.46 220.162 292.421 220.162 291.132C220.162 289.844 220.91 288.813 222.398 288.813ZM222.398 292.795C223.197 292.795 223.662 292.13 223.662 291.132C223.662 290.135 223.197 289.478 222.398 289.478C221.592 289.478 221.127 290.135 221.127 291.132C221.127 292.13 221.592 292.795 222.398 292.795ZM227.842 288.813C229.105 288.813 229.828 289.769 229.828 291.058C229.828 292.679 228.831 293.46 227.692 293.46C227.326 293.46 226.869 293.36 226.644 293.186L226.353 292.745V293.344H225.439V287.233H226.353V289.619L226.686 289.145C226.935 288.938 227.393 288.813 227.842 288.813ZM227.584 292.795C228.315 292.795 228.864 292.238 228.864 291.141C228.864 290.185 228.423 289.478 227.625 289.478C226.944 289.478 226.353 289.91 226.353 291.091V291.315C226.353 292.396 227.002 292.795 227.584 292.795ZM234.442 291.024C234.442 291.107 234.442 291.232 234.426 291.39H231.258C231.333 292.446 231.815 292.795 232.414 292.795C232.946 292.795 233.362 292.471 233.453 291.914H234.376C234.185 292.961 233.345 293.46 232.381 293.46C231.2 293.46 230.31 292.712 230.31 291.149C230.31 289.752 231.2 288.813 232.472 288.813C233.752 288.813 234.442 289.777 234.442 291.024ZM232.439 289.478C231.815 289.478 231.366 289.902 231.267 290.75H233.503C233.436 289.935 233.079 289.478 232.439 289.478ZM237.282 288.821C237.406 288.821 237.498 288.838 237.589 288.871V289.586C236.749 289.528 236.226 289.96 236.226 291.049V293.344H235.311V288.929H236.226V289.677L236.6 289.071C236.799 288.913 237.057 288.821 237.282 288.821Z" fill="black"/>
<path d="M271.974 293.344H270.66L268.116 288.613C268.141 289.27 268.15 290.01 268.15 290.6V293.344H267.235V287.607H268.524L271.093 292.371C271.076 291.723 271.068 290.958 271.068 290.368V287.607H271.965L271.974 293.344ZM275.052 288.813C276.532 288.813 277.289 289.844 277.289 291.132C277.289 292.421 276.532 293.46 275.052 293.46C273.564 293.46 272.816 292.421 272.816 291.132C272.816 289.844 273.564 288.813 275.052 288.813ZM275.052 292.795C275.85 292.795 276.316 292.13 276.316 291.132C276.316 290.135 275.85 289.478 275.052 289.478C274.246 289.478 273.78 290.135 273.78 291.132C273.78 292.13 274.246 292.795 275.052 292.795ZM281.967 288.929L280.279 293.344H279.215L277.527 288.929H278.533L279.772 292.67L280.994 288.929H281.967ZM286.26 291.024C286.26 291.107 286.26 291.232 286.243 291.39H283.076C283.151 292.446 283.633 292.795 284.231 292.795C284.763 292.795 285.179 292.471 285.271 291.914H286.193C286.002 292.961 285.163 293.46 284.198 293.46C283.018 293.46 282.128 292.712 282.128 291.149C282.128 289.752 283.018 288.813 284.29 288.813C285.57 288.813 286.26 289.777 286.26 291.024ZM284.256 289.478C283.633 289.478 283.184 289.902 283.084 290.75H285.32C285.254 289.935 284.896 289.478 284.256 289.478ZM293.314 289.894C293.347 290.118 293.356 290.318 293.356 290.675V293.344H292.441V291.008C292.441 290.675 292.433 290.434 292.408 290.21C292.35 289.736 292.059 289.486 291.585 289.486C291.053 289.486 290.695 289.927 290.695 291.124V293.344H289.789V291.008C289.789 290.675 289.781 290.434 289.756 290.21C289.689 289.736 289.407 289.486 288.933 289.486C288.392 289.486 288.043 289.927 288.043 291.124V293.344H287.129V288.929H288.043V289.586L288.343 289.071C288.575 288.888 288.883 288.813 289.282 288.813C289.98 288.813 290.421 289.162 290.587 289.653L290.995 289.071C291.236 288.888 291.543 288.813 291.934 288.813C292.749 288.813 293.214 289.287 293.314 289.894ZM296.871 288.813C298.134 288.813 298.858 289.769 298.858 291.058C298.858 292.679 297.86 293.46 296.721 293.46C296.355 293.46 295.898 293.36 295.674 293.186L295.383 292.745V293.344H294.468V287.233H295.383V289.619L295.715 289.145C295.965 288.938 296.422 288.813 296.871 288.813ZM296.613 292.795C297.345 292.795 297.893 292.238 297.893 291.141C297.893 290.185 297.453 289.478 296.655 289.478C295.973 289.478 295.383 289.91 295.383 291.091V291.315C295.383 292.396 296.031 292.795 296.613 292.795ZM303.471 291.024C303.471 291.107 303.471 291.232 303.455 291.39H300.287C300.362 292.446 300.844 292.795 301.443 292.795C301.975 292.795 302.391 292.471 302.482 291.914H303.405C303.214 292.961 302.374 293.46 301.41 293.46C300.229 293.46 299.34 292.712 299.34 291.149C299.34 289.752 300.229 288.813 301.501 288.813C302.781 288.813 303.471 289.777 303.471 291.024ZM301.468 289.478C300.844 289.478 300.395 289.902 300.296 290.75H302.532C302.465 289.935 302.108 289.478 301.468 289.478ZM306.311 288.821C306.435 288.821 306.527 288.838 306.618 288.871V289.586C305.779 289.528 305.255 289.96 305.255 291.049V293.344H304.34V288.929H305.255V289.677L305.629 289.071C305.828 288.913 306.086 288.821 306.311 288.821Z" fill="black"/>
<path d="M341.086 287.641C342.416 287.799 343.397 288.672 343.397 290.409C343.397 292.122 342.383 293.144 341.053 293.31C340.762 293.344 340.629 293.344 340.321 293.344H338.501V287.607H340.355C340.662 287.607 340.795 287.607 341.086 287.641ZM340.895 292.579C341.818 292.446 342.416 291.681 342.416 290.409C342.416 289.204 341.843 288.505 340.928 288.372C340.745 288.339 340.546 288.331 340.271 288.331H339.415V292.612H340.238C340.521 292.612 340.712 292.612 340.895 292.579ZM348.059 291.024C348.059 291.107 348.059 291.232 348.043 291.39H344.875C344.95 292.446 345.432 292.795 346.031 292.795C346.563 292.795 346.978 292.471 347.07 291.914H347.993C347.801 292.961 346.962 293.46 345.997 293.46C344.817 293.46 343.927 292.712 343.927 291.149C343.927 289.752 344.817 288.813 346.089 288.813C347.369 288.813 348.059 289.777 348.059 291.024ZM346.056 289.478C345.432 289.478 344.983 289.902 344.883 290.75L347.12 290.75C347.053 289.935 346.696 289.478 346.056 289.478ZM350.732 288.813C351.846 288.813 352.553 289.486 352.661 290.459H351.738C351.605 289.786 351.248 289.478 350.707 289.478C350.067 289.478 349.56 289.985 349.56 291.091C349.56 292.288 350.059 292.795 350.674 292.795C351.198 292.795 351.572 292.479 351.705 291.881H352.636C352.428 292.936 351.663 293.46 350.624 293.46C349.468 293.46 348.596 292.729 348.596 291.157C348.596 289.653 349.577 288.813 350.732 288.813ZM357.249 291.024C357.249 291.107 357.249 291.232 357.233 291.39H354.065C354.14 292.446 354.622 292.795 355.221 292.795C355.753 292.795 356.169 292.471 356.26 291.914H357.183C356.992 292.961 356.152 293.46 355.188 293.46C354.007 293.46 353.118 292.712 353.118 291.149C353.118 289.752 354.007 288.813 355.279 288.813C356.559 288.813 357.249 289.777 357.249 291.024ZM355.246 289.478C354.622 289.478 354.173 289.902 354.074 290.75H356.31C356.244 289.935 355.886 289.478 355.246 289.478ZM364.304 289.894C364.337 290.118 364.345 290.318 364.345 290.675V293.344H363.431V291.008C363.431 290.675 363.422 290.434 363.397 290.21C363.339 289.736 363.048 289.486 362.574 289.486C362.042 289.486 361.685 289.927 361.685 291.124V293.344H360.779V291.008C360.779 290.675 360.77 290.434 360.745 290.21C360.679 289.736 360.396 289.486 359.922 289.486C359.382 289.486 359.033 289.927 359.033 291.124V293.344H358.118V288.929H359.033V289.586L359.332 289.071C359.565 288.888 359.873 288.813 360.272 288.813C360.97 288.813 361.411 289.162 361.577 289.653L361.984 289.071C362.225 288.888 362.533 288.813 362.924 288.813C363.738 288.813 364.204 289.287 364.304 289.894ZM367.86 288.813C369.124 288.813 369.847 289.769 369.847 291.058C369.847 292.679 368.85 293.46 367.711 293.46C367.345 293.46 366.888 293.36 366.663 293.186L366.372 292.745V293.344H365.458V287.233H366.372V289.619L366.705 289.145C366.954 288.938 367.411 288.813 367.86 288.813ZM367.603 292.795C368.334 292.795 368.883 292.238 368.883 291.141C368.883 290.185 368.442 289.478 367.644 289.478C366.962 289.478 366.372 289.91 366.372 291.091V291.315C366.372 292.396 367.021 292.795 367.603 292.795ZM374.461 291.024C374.461 291.107 374.461 291.232 374.444 291.39H371.277C371.352 292.446 371.834 292.795 372.433 292.795C372.965 292.795 373.38 292.471 373.472 291.914H374.395C374.203 292.961 373.364 293.46 372.399 293.46C371.219 293.46 370.329 292.712 370.329 291.149C370.329 289.752 371.219 288.813 372.491 288.813C373.771 288.813 374.461 289.777 374.461 291.024ZM372.457 289.478C371.834 289.478 371.385 289.902 371.285 290.75H373.522C373.455 289.935 373.098 289.478 372.457 289.478ZM377.3 288.821C377.425 288.821 377.516 288.838 377.608 288.871V289.586C376.768 289.528 376.244 289.96 376.244 291.049V293.344H375.33V288.929H376.244V289.677L376.619 289.071C376.818 288.913 377.076 288.821 377.3 288.821Z" fill="black"/>
<rect x="75.2422" y="229.09" width="6.53203" height="53.4439" fill="#FFE3C5"/>
<rect x="136.406" y="208.902" width="6.53203" height="73.6338" fill="#FFE3C5"/>
<rect x="211.234" y="205.336" width="6.53203" height="77.1967" fill="#FFE3C5"/>
<rect x="275.961" y="239.781" width="6.53203" height="42.7551" fill="#FFE3C5"/>
<rect x="344.828" y="203.559" width="6.53203" height="78.9782" fill="#FFE3C5"/>
<rect x="142.453" y="229.152" width="6.53203" height="53.4439" transform="rotate(-1.02255 142.453 229.152)" fill="#FED9AC"/>
<rect x="81.7734" y="198.809" width="6.53203" height="83.7288" fill="#FED9AC"/>
<rect x="149.469" y="257.594" width="6.53203" height="24.3467" fill="black"/>
<rect x="217.766" y="198.809" width="6.53203" height="83.7288" fill="#FED9AC"/>
<rect x="282.492" y="222.559" width="6.53203" height="59.9759" fill="#FED9AC"/>
<rect x="351.375" y="218.988" width="6.53203" height="63.5389" fill="#FED9AC"/>
<rect x="88.3125" y="222.559" width="6.53203" height="59.3821" fill="black"/>
<rect x="224.289" y="213.055" width="6.53203" height="68.8832" fill="black"/>
<rect x="289.023" y="205.336" width="6.53203" height="76.6029" fill="black"/>
<rect x="357.898" y="222.559" width="6.53203" height="59.3821" fill="black"/>
<line x1="67.2265" y1="282.531" x2="67.2265" y2="182.175" stroke="black" stroke-width="0.593821"/>
<line x1="66.9375" y1="282.234" x2="382.85" y2="282.234" stroke="black" stroke-width="0.593821"/>
<path d="M262.289 120.422C262.289 121.406 263.086 122.203 264.07 122.203C265.054 122.203 265.852 121.406 265.852 120.422L262.289 120.422ZM265.33 73.438C264.634 72.7423 263.506 72.7423 262.811 73.438L251.473 84.7751C250.778 85.4708 250.778 86.5988 251.473 87.2945C252.169 87.9902 253.297 87.9902 253.993 87.2945L264.07 77.217L274.148 87.2945C274.843 87.9902 275.971 87.9902 276.667 87.2945C277.363 86.5988 277.363 85.4708 276.667 84.7751L265.33 73.438ZM265.852 120.422L265.852 74.6977L262.289 74.6977L262.289 120.422L265.852 120.422Z" fill="black"/>
<path d="M301.422 82.7688C303.418 82.7688 305.136 82.949 306.577 83.3092C308.018 83.6418 309.14 84.293 309.944 85.2629C310.747 86.2328 311.149 87.6322 311.149 89.4612C311.149 90.542 311.011 91.5534 310.733 92.4956C310.484 93.4101 310.013 94.3662 309.32 95.3638C308.655 96.3614 307.685 97.5392 306.41 98.897L298.887 106.67C299.58 106.559 300.272 106.49 300.965 106.462C301.686 106.407 302.406 106.379 303.127 106.379H311.98V111.949H291.446V108.541C291.446 108.042 291.515 107.585 291.654 107.169C291.793 106.726 292.014 106.324 292.319 105.964L299.469 98.3151C301.159 96.5692 302.448 95.0174 303.334 93.6595C304.249 92.3017 304.692 91.1239 304.665 90.1263C304.637 89.5166 304.471 89.0732 304.166 88.7961C303.889 88.519 303.459 88.3389 302.877 88.2558C302.295 88.1726 301.575 88.1311 300.716 88.1311C299.746 88.1311 298.831 88.1449 297.972 88.1726C297.141 88.1726 296.24 88.2003 295.27 88.2558C294.328 88.3112 293.22 88.3943 291.945 88.5052L291.696 83.7665C293.053 83.4616 294.273 83.2399 295.354 83.1014C296.462 82.9628 297.501 82.8797 298.471 82.852C299.469 82.7966 300.452 82.7688 301.422 82.7688ZM325.077 82.6857C327.349 82.6857 329.164 82.8935 330.522 83.3092C331.907 83.6972 332.905 84.3761 333.515 85.346C334.152 86.3159 334.471 87.66 334.471 89.3781C334.471 90.7082 334.346 91.886 334.097 92.9113C333.847 93.9089 333.404 94.7264 332.767 95.3638C332.129 96.0012 331.215 96.4168 330.023 96.6108V96.7771C331.991 97.0819 333.348 97.8301 334.097 99.0217C334.845 100.213 335.233 101.862 335.261 103.968C335.288 105.964 334.983 107.598 334.346 108.873C333.709 110.12 332.656 111.049 331.187 111.658C329.746 112.24 327.806 112.531 325.367 112.531C323.705 112.531 322.028 112.448 320.338 112.282C318.647 112.143 317.012 111.963 315.433 111.741L315.682 107.086C316.791 107.169 317.775 107.238 318.634 107.294C319.52 107.321 320.366 107.349 321.169 107.377C321.973 107.405 322.79 107.418 323.622 107.418C324.98 107.418 326.046 107.308 326.822 107.086C327.598 106.836 328.153 106.407 328.485 105.797C328.818 105.16 328.984 104.273 328.984 103.137C328.984 102.25 328.859 101.516 328.61 100.934C328.388 100.324 327.959 99.8669 327.321 99.5621C326.684 99.2296 325.755 99.0772 324.536 99.1049L319.091 99.1464V94.9481H324.536C325.451 94.9481 326.171 94.8511 326.698 94.6571C327.224 94.4355 327.612 94.1583 327.862 93.8258C328.139 93.4655 328.319 93.0499 328.402 92.5788C328.485 92.1077 328.527 91.595 328.527 91.0408C328.499 90.1263 328.346 89.4335 328.069 88.9624C327.82 88.4913 327.363 88.1726 326.698 88.0063C326.06 87.8401 325.16 87.7569 323.996 87.7569C322.555 87.7569 321.155 87.7847 319.797 87.8401C318.467 87.8678 317.29 87.8955 316.264 87.9232L315.973 83.4755C317.525 83.1984 319.049 83.0044 320.546 82.8935C322.07 82.755 323.58 82.6857 325.077 82.6857ZM345.876 82.6857C347.65 82.6857 349.063 82.9628 350.116 83.5171C351.169 84.0436 351.917 84.9304 352.361 86.1774C352.804 87.4244 353.026 89.1148 353.026 91.2486C353.026 93.3547 352.804 95.0313 352.361 96.2783C351.917 97.5253 351.169 98.4259 350.116 98.9802C349.063 99.5344 347.65 99.8115 345.876 99.8115C344.13 99.8115 342.731 99.5344 341.678 98.9802C340.653 98.4259 339.904 97.5253 339.433 96.2783C338.99 95.0313 338.768 93.3547 338.768 91.2486C338.768 89.1148 338.99 87.4244 339.433 86.1774C339.904 84.9304 340.653 84.0436 341.678 83.5171C342.731 82.9628 344.13 82.6857 345.876 82.6857ZM345.876 86.0942C345.211 86.0942 344.698 86.2328 344.338 86.5099C343.978 86.787 343.715 87.2997 343.548 88.0479C343.41 88.7684 343.341 89.8353 343.341 91.2486C343.341 92.6619 343.41 93.7427 343.548 94.4909C343.715 95.2114 343.978 95.7102 344.338 95.9873C344.698 96.2644 345.211 96.403 345.876 96.403C346.569 96.403 347.095 96.2644 347.456 95.9873C347.816 95.7102 348.065 95.2114 348.204 94.4909C348.37 93.7427 348.453 92.6619 348.453 91.2486C348.453 89.8353 348.37 88.7684 348.204 88.0479C348.065 87.2997 347.816 86.787 347.456 86.5099C347.095 86.2328 346.569 86.0942 345.876 86.0942ZM366.701 83.2677L349.534 111.949H345.668L362.836 83.2677H366.701ZM366.535 95.3638C368.309 95.3638 369.708 95.6409 370.734 96.1951C371.787 96.7217 372.535 97.6084 372.978 98.8555C373.422 100.075 373.643 101.751 373.643 103.885C373.643 105.991 373.422 107.682 372.978 108.956C372.535 110.203 371.787 111.104 370.734 111.658C369.708 112.185 368.309 112.448 366.535 112.448C364.789 112.448 363.39 112.185 362.337 111.658C361.312 111.104 360.563 110.203 360.092 108.956C359.649 107.682 359.427 105.991 359.427 103.885C359.427 101.751 359.649 100.075 360.092 98.8555C360.563 97.6084 361.312 96.7217 362.337 96.1951C363.39 95.6409 364.789 95.3638 366.535 95.3638ZM366.494 98.7723C365.829 98.7723 365.302 98.9109 364.914 99.188C364.554 99.4374 364.304 99.9362 364.166 100.684C364.027 101.405 363.958 102.472 363.958 103.885C363.958 105.298 364.027 106.379 364.166 107.127C364.304 107.876 364.554 108.388 364.914 108.665C365.302 108.915 365.829 109.039 366.494 109.039C367.186 109.039 367.713 108.915 368.073 108.665C368.433 108.388 368.697 107.876 368.863 107.127C369.029 106.379 369.112 105.298 369.112 103.885C369.112 102.472 369.029 101.405 368.863 100.684C368.697 99.9362 368.433 99.4374 368.073 99.188C367.713 98.9109 367.186 98.7723 366.494 98.7723Z" fill="black"/>
<rect x="246.852" y="156.645" width="7.12585" height="7.12585" fill="#FFE3C5"/>
<rect x="300.891" y="156.645" width="7.12585" height="7.12585" fill="#FED9AC"/>
<rect x="357.898" y="156.645" width="7.12585" height="7.12585" fill="black"/>
<g filter="url(#filter0_f_0_394)">
<rect x="35.4453" y="62.8164" width="156.769" height="3.56293" fill="#D9D9D9" fill-opacity="0.56"/>
</g>
<g filter="url(#filter1_f_0_394)">
<rect x="35.4453" y="73.5078" width="156.769" height="3.56293" fill="#D9D9D9" fill-opacity="0.56"/>
</g>
<g filter="url(#filter2_f_0_394)">
<rect x="35.4453" y="84.793" width="156.769" height="3.56293" fill="#D9D9D9" fill-opacity="0.56"/>
</g>
<g filter="url(#filter3_f_0_394)">
<rect x="35.4453" y="97.8555" width="156.769" height="3.56293" fill="#D9D9D9" fill-opacity="0.56"/>
</g>
<g filter="url(#filter4_f_0_394)">
<rect x="35.4453" y="107.953" width="156.769" height="3.56293" fill="#D9D9D9" fill-opacity="0.56"/>
</g>
<g filter="url(#filter5_f_0_394)">
<rect x="35.4453" y="118.047" width="156.769" height="3.56293" fill="#D9D9D9" fill-opacity="0.56"/>
</g>
<g filter="url(#filter6_f_0_394)">
<rect x="35.4453" y="129.922" width="156.769" height="3.56293" fill="#D9D9D9" fill-opacity="0.56"/>
</g>
<g filter="url(#filter7_f_0_394)">
<rect x="35.4453" y="141.203" width="156.769" height="3.56293" fill="#D9D9D9" fill-opacity="0.56"/>
</g>
<g filter="url(#filter8_f_0_394)">
<rect x="35.4453" y="152.488" width="80.1658" height="3.56293" fill="#D9D9D9" fill-opacity="0.56"/>
</g>
<g filter="url(#filter9_f_0_394)">
<rect x="257.531" y="158.43" width="33.8478" height="3.56293" fill="#D9D9D9" fill-opacity="0.56"/>
</g>
<g filter="url(#filter10_f_0_394)">
<rect x="312.773" y="159.016" width="33.8478" height="3.56293" fill="#D9D9D9" fill-opacity="0.56"/>
</g>
<g filter="url(#filter11_f_0_394)">
<rect x="372.75" y="158.43" width="33.8478" height="3.56293" fill="#D9D9D9" fill-opacity="0.56"/>
</g>
<defs>
<filter id="filter0_f_0_394" x="33.07" y="60.4411" width="161.519" height="8.31356" filterUnits="userSpaceOnUse" color-interpolation-filters="sRGB">
<feFlood flood-opacity="0" result="BackgroundImageFix"/>
<feBlend mode="normal" in="SourceGraphic" in2="BackgroundImageFix" result="shape"/>
<feGaussianBlur stdDeviation="1.18764" result="effect1_foregroundBlur_0_394"/>
</filter>
<filter id="filter1_f_0_394" x="33.07" y="71.1325" width="161.519" height="8.31356" filterUnits="userSpaceOnUse" color-interpolation-filters="sRGB">
<feFlood flood-opacity="0" result="BackgroundImageFix"/>
<feBlend mode="normal" in="SourceGraphic" in2="BackgroundImageFix" result="shape"/>
<feGaussianBlur stdDeviation="1.18764" result="effect1_foregroundBlur_0_394"/>
</filter>
<filter id="filter2_f_0_394" x="33.07" y="82.4177" width="161.519" height="8.31356" filterUnits="userSpaceOnUse" color-interpolation-filters="sRGB">
<feFlood flood-opacity="0" result="BackgroundImageFix"/>
<feBlend mode="normal" in="SourceGraphic" in2="BackgroundImageFix" result="shape"/>
<feGaussianBlur stdDeviation="1.18764" result="effect1_foregroundBlur_0_394"/>
</filter>
<filter id="filter3_f_0_394" x="33.07" y="95.4802" width="161.519" height="8.31356" filterUnits="userSpaceOnUse" color-interpolation-filters="sRGB">
<feFlood flood-opacity="0" result="BackgroundImageFix"/>
<feBlend mode="normal" in="SourceGraphic" in2="BackgroundImageFix" result="shape"/>
<feGaussianBlur stdDeviation="1.18764" result="effect1_foregroundBlur_0_394"/>
</filter>
<filter id="filter4_f_0_394" x="33.07" y="105.578" width="161.519" height="8.31356" filterUnits="userSpaceOnUse" color-interpolation-filters="sRGB">
<feFlood flood-opacity="0" result="BackgroundImageFix"/>
<feBlend mode="normal" in="SourceGraphic" in2="BackgroundImageFix" result="shape"/>
<feGaussianBlur stdDeviation="1.18764" result="effect1_foregroundBlur_0_394"/>
</filter>
<filter id="filter5_f_0_394" x="33.07" y="115.672" width="161.519" height="8.31356" filterUnits="userSpaceOnUse" color-interpolation-filters="sRGB">
<feFlood flood-opacity="0" result="BackgroundImageFix"/>
<feBlend mode="normal" in="SourceGraphic" in2="BackgroundImageFix" result="shape"/>
<feGaussianBlur stdDeviation="1.18764" result="effect1_foregroundBlur_0_394"/>
</filter>
<filter id="filter6_f_0_394" x="33.07" y="127.547" width="161.519" height="8.31356" filterUnits="userSpaceOnUse" color-interpolation-filters="sRGB">
<feFlood flood-opacity="0" result="BackgroundImageFix"/>
<feBlend mode="normal" in="SourceGraphic" in2="BackgroundImageFix" result="shape"/>
<feGaussianBlur stdDeviation="1.18764" result="effect1_foregroundBlur_0_394"/>
</filter>
<filter id="filter7_f_0_394" x="33.07" y="138.828" width="161.519" height="8.31356" filterUnits="userSpaceOnUse" color-interpolation-filters="sRGB">
<feFlood flood-opacity="0" result="BackgroundImageFix"/>
<feBlend mode="normal" in="SourceGraphic" in2="BackgroundImageFix" result="shape"/>
<feGaussianBlur stdDeviation="1.18764" result="effect1_foregroundBlur_0_394"/>
</filter>
<filter id="filter8_f_0_394" x="33.07" y="150.113" width="84.9165" height="8.31356" filterUnits="userSpaceOnUse" color-interpolation-filters="sRGB">
<feFlood flood-opacity="0" result="BackgroundImageFix"/>
<feBlend mode="normal" in="SourceGraphic" in2="BackgroundImageFix" result="shape"/>
<feGaussianBlur stdDeviation="1.18764" result="effect1_foregroundBlur_0_394"/>
</filter>
<filter id="filter9_f_0_394" x="255.156" y="156.054" width="38.5983" height="8.31356" filterUnits="userSpaceOnUse" color-interpolation-filters="sRGB">
<feFlood flood-opacity="0" result="BackgroundImageFix"/>
<feBlend mode="normal" in="SourceGraphic" in2="BackgroundImageFix" result="shape"/>
<feGaussianBlur stdDeviation="1.18764" result="effect1_foregroundBlur_0_394"/>
</filter>
<filter id="filter10_f_0_394" x="310.398" y="156.64" width="38.5983" height="8.31356" filterUnits="userSpaceOnUse" color-interpolation-filters="sRGB">
<feFlood flood-opacity="0" result="BackgroundImageFix"/>
<feBlend mode="normal" in="SourceGraphic" in2="BackgroundImageFix" result="shape"/>
<feGaussianBlur stdDeviation="1.18764" result="effect1_foregroundBlur_0_394"/>
</filter>
<filter id="filter11_f_0_394" x="370.375" y="156.054" width="38.5983" height="8.31356" filterUnits="userSpaceOnUse" color-interpolation-filters="sRGB">
<feFlood flood-opacity="0" result="BackgroundImageFix"/>
<feBlend mode="normal" in="SourceGraphic" in2="BackgroundImageFix" result="shape"/>
<feGaussianBlur stdDeviation="1.18764" result="effect1_foregroundBlur_0_394"/>
</filter>
</defs>
</svg>
