<svg width="176" height="231" viewBox="0 0 176 231" fill="none" xmlns="http://www.w3.org/2000/svg">
<path d="M66.0882 61.9734C66.8204 63.0851 67.0311 64.6514 66.7994 64.9088C66.9295 64.9688 67.0601 65.0353 67.208 65.1461C68.5751 67.5947 69.1134 68.6654 69.1169 69.2679C69.1327 69.8628 68.6638 69.9652 68.1725 70.3908C68.1429 70.3542 68.121 70.3301 68.0914 70.2935C68.1344 72.2423 66.4291 70.6704 65.7015 68.7588C64.8218 68.3882 65.5764 68.5411 64.4846 71.1127C65.2863 71.8444 65.7543 72.9347 65.5948 73.8996C66.0303 74.0034 66.5997 74.2783 67.3544 74.785C67.5549 74.6157 67.8513 74.49 68.3452 74.5163C68.0007 74.1223 67.581 73.6238 66.5828 72.3992C68.2285 72.3384 68.542 70.2059 70.7713 73.4723C70.5224 74.0392 72.0582 75.6203 71.6072 76.4812C71.9164 77.6255 71.7288 78.4292 71.0364 77.0387C70.9652 76.9077 71.0563 76.9713 70.7661 77.2341C70.2328 76.6414 70.0124 78.9291 69.8728 79.8267C67.2693 78.8164 68.5913 79.7161 68.2327 81.0796C68.1893 81.2475 67.9176 83.6185 68.2857 83.9841C68.4036 83.2065 67.8478 83.2188 68.6509 82.6922C68.9719 82.479 68.669 81.2619 69.2821 81.5131C69.943 81.786 70.0978 82.8202 70.496 83.5107C70.8806 84.1958 72.2647 85.2012 71.5093 85.6054C71.731 85.7356 71.9605 85.8781 72.2131 86.0578C72.2138 87.8335 72.2027 87.8543 70.7771 86.4727C70.3863 87.2756 70.2046 88.4261 70.0475 89.4171C70.4561 90.0083 70.5911 90.1924 70.9083 90.5037C70.9497 89.5366 70.9976 88.5688 71.5241 88.946C71.2434 88.2512 71.114 87.562 71.4205 87.8285C72.6287 88.9157 72.1141 87.5348 73.3099 87.2864C73.2241 86.8553 73.218 86.4365 73.3337 86.0588C70.2235 82.7626 70.8672 83.6269 71.7425 83.1723C70.285 81.4463 70.1486 79.7618 70.6081 79.0639C71.0546 78.3672 71.9998 78.6662 72.7332 80.8524C73.5078 81.2918 73.79 81.8619 74.156 82.6995C74.5279 83.5301 74.9451 84.6382 76.0884 86.0853C75.8879 86.6084 76.6689 86.9751 75.6808 87.7678C76.4491 89.977 76.2638 90.7346 75.7403 90.6718C76.3337 91.4883 76.7103 92.0169 76.6139 93.9459C77.426 93.8706 77.9813 93.8519 78.2616 95.3921C79.4007 95.4503 79.0395 95.3003 77.0578 91.4539C78.5366 91.8542 79.3734 94.0243 79.3985 94.8608C80.2392 95.9427 80.6175 95.711 81.8204 97.1657C82.3059 97.7367 83.1245 99.9936 80.5946 98.1508C82.5 102.66 80.1906 101.498 78.9097 99.4145C78.8391 99.9256 78.7338 100.486 78.6426 101.058C79.0592 101.452 79.285 102.191 79.6351 102.715C79.9235 103.141 81.4988 104.371 80.9222 104.654C80.6648 104.776 80.4644 105.017 80.3025 105.321C80.7059 105.997 80.7222 105.183 81.1965 104.786C80.5363 102.612 80.7636 102.519 81.4898 101.941C83.9337 101.937 82.4637 104.458 83.0493 104.555C84.4235 107.009 83.3601 106.99 81.3576 107.372C83.5895 112.434 80.6936 111.379 79.5117 110.151C79.3559 110.873 79.0464 110.928 78.247 109.515C77.9659 110.229 75.9456 109.571 76.6597 107.165C76.1615 107.094 75.6789 106.765 75.37 105.765C74.6998 103.625 76.3934 104.929 77.2207 105.37C75.467 100.52 76.5572 106.343 74.7238 102.823C73.7101 103.127 73.0468 101.911 73.5051 100.492C72.915 100.488 72.3137 100.222 71.9808 99.0344C71.9339 98.8815 70.5166 98.5083 71.2513 96.3957C69.8602 94.467 70.8349 96.0739 70.8898 92.7072C70.6318 92.469 70.3406 92.1552 70.006 91.7275C68.443 92.7505 67.3238 91.5633 68.206 89.3453C68.0268 88.8966 67.8215 88.3783 67.6053 87.7431C65.9294 87.7608 66.7441 86.4403 65.5252 86.6515C65.6168 86.014 65.9797 85.1219 66.0853 85.0597C65.3963 84.9073 65.0596 83.9621 65.3927 82.8893C63.7228 81.6287 63.9604 81.9998 64.4998 79.4073C64.4266 79.3944 64.0246 79.2285 64.0604 79.1203C63.7852 78.8379 63.7938 79.7086 62.9567 79.0195C61.7658 78.0487 62.4863 76.9137 62.9965 75.7721C62.8297 75.6696 62.6516 75.5158 62.4521 75.2722C62.1413 74.8881 61.7273 75.3 61.041 75.3898C61.4538 73.2677 62.6056 73.5345 63.4558 74.2945C63.5805 72.6709 63.4558 74.2945 61.7814 71.7827C61.1693 72.1081 60.1285 72.1193 60.0735 70.7483C59.3347 69.9191 60.5933 69.075 59.9166 68.2072C59.6181 67.8155 59.19 68.2156 58.5019 68.286C59.0135 65.9581 60.3472 66.5618 61.1948 67.5055C62.4635 67.3355 62.0637 66.4159 63.5535 67.0772C64.9385 65.5465 64.9569 62.6353 66.4294 64.8054C66.6155 64.8341 66.6022 65.3268 65.4703 62.306C64.8777 62.5575 64.2662 62.5356 63.9185 61.3293C62.7601 57.3149 67.4574 61.1912 66.0947 61.9728L66.0882 61.9734ZM77.0054 96.8977C77.9458 96.5092 78.1357 97.3565 77.9313 96.3532C76.9861 96.9716 76.481 96.3304 77.0054 96.8977ZM76.5372 99.6933C75.9593 101.942 76.7441 101.43 77.3525 102.409C78.4033 100.313 77.6269 101.552 76.5372 99.6933ZM72.5818 90.1061C72.955 90.7399 72.9994 92.4199 72.9537 93.9772C72.9145 95.5338 72.7363 97.0051 72.5459 97.2128C72.9121 98.1946 72.4467 97.91 73.8162 98.6874C72.5779 94.9425 74.6308 98.3564 74.0223 95.962C73.9503 95.6803 74.2501 95.5214 74.4277 95.387C74.5256 95.3124 74.0783 94.2333 74.4771 94.5765C74.641 94.7185 74.6872 93.4495 75.5234 94.6236L75.5634 94.5609C74.524 91.6888 74.7096 90.4397 74.6297 90.0015C74.5621 89.5556 74.3052 89.894 72.5811 90.0996L72.5818 90.1061ZM73.1477 82.4261C73.196 82.6641 73.18 82.6328 73.2461 82.6397C73.2135 82.5707 73.1803 82.4951 73.1477 82.4261ZM63.1762 75.8734C63.2385 75.9791 63.2338 75.9992 63.2507 75.8993C63.2241 75.8953 63.2034 75.884 63.1762 75.8734ZM66.3057 79.0237C66.739 75.8512 66.9447 79.9801 68.2968 77.2467C66.9755 77.343 66.5981 77.7253 66.0333 76.0149C65.8119 76.4548 65.5576 76.6094 65.3183 76.5726C65.2725 77.4222 65.1949 78.2813 65.0234 78.8345C65.4137 78.7328 65.9729 78.6154 66.2985 79.0178L66.3057 79.0237ZM63.7389 71.6929C63.866 71.0848 63.9901 71.4337 63.2577 71.1674C63.3891 71.3125 63.5495 71.4877 63.7389 71.6929Z" fill="black"/>
<path d="M61.2285 63.6754C62.15 64.9923 62.2355 64.9255 62.2344 62.9335C61.8479 63.2183 61.5595 63.4285 61.2285 63.6754Z" fill="black"/>
<path d="M34.3964 117.59C34.7815 117.927 34.6751 117.839 34.7345 117.702C34.4943 117.515 34.5747 117.534 34.3964 117.59Z" fill="black"/>
<path d="M48.3712 124.007C47.8487 123.531 47.9414 123.47 47.8495 123.964C48.4288 124.487 48.3041 124.485 48.3712 124.007Z" fill="black"/>
<path d="M111.445 142.433C111.134 141.623 110.948 142.164 110.883 142.315C111.134 142.547 111.704 143.11 111.445 142.433Z" fill="black"/>
<path d="M6.58475 42.6858C6.57942 42.3456 6.25085 42.6185 6.01962 42.8103C6.20588 42.911 6.6012 43.641 6.58475 42.6858Z" fill="black"/>
<path d="M127.406 155.783L127.478 155.776C127.478 155.776 127.448 155.739 127.406 155.783Z" fill="black"/>
<path d="M84.3071 103.147C83.8525 102.625 83.9611 102.596 83.7735 103.046C84.2814 103.647 84.1562 103.639 84.3071 103.147Z" fill="black"/>
<path d="M28.5366 94.3657C28.3967 94.0576 28.4612 94.1172 28.3846 94.2815L28.5366 94.3657Z" fill="black"/>
<path d="M86.7188 125.25L86.6368 125.002C86.4833 125.042 86.4909 124.983 86.7188 125.25Z" fill="black"/>
<path d="M97.4844 179.84C97.0019 179.937 97.2241 180.637 97.4844 179.84V179.84Z" fill="black"/>
<path d="M101.384 176.53C101.469 176.515 101.463 176.522 101.384 176.53V176.53Z" fill="black"/>
<path d="M101.106 176.51C101.171 176.641 101.119 176.574 101.383 176.53C101.325 176.535 101.232 176.531 101.106 176.51Z" fill="black"/>
<path d="M55.0686 34.7384C55.0728 34.7839 55.077 34.8294 55.0877 34.8743C55.1385 34.8565 55.1349 34.8174 55.0686 34.7384Z" fill="black"/>
<path d="M85.7197 113.514C86.777 114.458 86.1781 114.219 87.2348 113.813C85.9031 111.675 88.6097 111.89 88.7928 113.583C88.9985 113.61 88.5737 112.28 89.2077 113.04C90.2982 114.341 90.6176 113.899 92.0173 115.355C92.315 115.668 92.8074 116.527 92.6178 116.885C92.523 117.064 92.2649 117.108 91.734 116.895C91.1902 116.683 90.3977 116.193 89.2572 115.27C89.1404 114.717 88.8079 114.735 88.8934 115.658C89.7058 116.434 89.1878 119.47 89.1738 119.884C87.8573 119.397 90.9771 122.797 88.5578 122.995C88.9055 123.212 89.2002 123.493 88.9614 124.098C90.7278 123.784 90.5915 124.222 90.4315 122.92C90.3194 121.993 91.6316 124.768 91.4696 122.666C88.0185 115.339 92.9777 120.98 94.5999 122.009C93.9541 124.939 92.9653 122.331 93.2614 125.737C94.22 124.626 95.9035 126.246 95.3068 124.191C95.0109 123.898 95.024 123.969 95.2277 123.904C94.5993 121.649 95.4409 123.235 96.565 123.839C96.4408 123.772 97.424 124.198 98.376 125.067C98.8701 125.519 99.8013 127.294 98.0035 126.563C99.0639 128.528 96.1131 124.831 96.5172 127.211C97.196 127.535 97.8548 127.644 98.581 128.056C99.2947 128.474 100.112 129.165 101.122 130.651C100.718 131.173 100.89 131.046 101.176 131.17C101.763 131.424 102.664 132.657 101.559 132.471C104.318 134.378 103.787 132.114 104.178 133.362C104.971 133.865 106.221 135.466 106.566 136.227C106.418 137.172 105.223 135.52 104.107 135.001C103.725 135.128 102.91 134.463 102.411 134.031C102.147 135.071 101.714 133.931 102.781 135.969C102.434 138.661 101.554 137.577 101.572 137.706C104.642 141.347 102.677 137.82 103.708 137.77C104.079 135.475 104.124 137.384 107.045 138.843C107.042 138.883 107.038 138.91 107.034 138.943C107.805 139.337 107.41 139.458 108.35 138.788C109.494 140.523 110.348 141.604 110.837 142.43C111.333 143.256 111.489 143.811 111.379 144.385C111.379 144.385 112.066 144.656 112.095 144.686C111.837 142.043 114.753 145.37 115.385 146.53C115.352 146.953 115.063 146.875 114.652 146.618C114.248 146.354 113.74 145.896 113.228 145.603C114.329 146.661 114.331 147.034 114.231 147.227C114.124 147.42 113.902 147.434 114.598 147.724C114.521 149.159 114.096 148.255 116.221 151.38C116.352 151.244 116.428 151.001 116.374 150.554C116.243 149.57 116.834 149.364 117.363 148.929C117.489 149.081 119.286 149.943 120.31 151.801C120.285 152.17 120.075 152.17 119.765 152.002C120.3 152.752 120.635 153.258 120.727 153.754C122.05 154.667 121.524 154.86 122.367 154.127C123.716 155.679 124.624 156.702 125.188 157.489C125.315 157.307 125.552 157.311 125.838 157.429C125.913 157.461 125.988 157.5 126.064 157.539L126.182 157.613L126.21 157.63C125.345 158.543 124.474 159.469 123.596 160.389L123.584 160.403C123.584 160.403 123.567 160.431 123.572 160.411C123.573 160.352 123.572 160.411 123.585 160.409C123.585 160.409 123.57 160.391 123.549 160.38C126.302 162.503 119.801 157.484 120.471 157.998L120.484 157.99L120.495 157.976L120.525 157.947L120.579 157.89L120.687 157.782C120.825 157.644 120.952 157.528 121.062 157.439C121.367 157.411 121.434 157.568 121.379 157.822C121.351 157.949 121.294 158.105 121.217 158.27L121.157 158.393L121.123 158.455L121.107 158.49C121.919 159.122 122.731 159.755 123.55 160.386C123.564 160.398 123.572 160.411 123.579 160.416C123.579 160.423 123.562 160.379 123.57 160.391C123.571 160.404 123.572 160.411 123.571 160.404C123.57 160.391 123.569 160.385 123.579 160.416L123.557 160.399C125.329 161.768 121.137 158.533 121.567 158.866L121.58 158.859L121.609 158.817L121.666 158.733C121.823 158.508 121.991 158.277 122.167 158.051C122.856 157.148 123.607 156.338 123.931 156.445C123.943 156.359 123.953 156.253 123.973 156.114C124.518 155.847 124.427 155.784 124.348 156.348C123.852 156.721 124.436 156.3 123.897 157.916C124.716 157.343 125.04 157.798 125.295 158.285C125.89 156.788 128.079 156.225 127.624 155.494C127.226 156.147 126.166 156.802 125.991 156.89C125.341 158.006 124.954 158.002 125.042 156.978C124.167 156.437 126.013 155.433 124.917 155.771C123.956 156.07 123.662 155.52 123.149 155.07C127.016 150.767 127.268 150.311 129.567 151.146C129.593 150.79 129.685 150.296 129.851 149.678C129.01 149.586 127.942 150.084 131.886 145.335C132.821 145.176 132.598 145.878 132.335 146.65C134.82 143.982 134.697 144.059 134.868 144.069C134.335 143.194 131.619 145.281 136.232 139.696C136.248 139.655 136.258 139.622 136.274 139.581C138.808 137.236 138.68 136.979 138.864 138.686C139.089 139.34 138.528 140.427 140.04 138.079C139.673 137.864 139.277 137.697 139.226 137.355C139.203 137.18 139.268 136.958 139.463 136.664C139.561 136.518 139.696 136.348 139.868 136.155C139.981 136.026 140.099 135.891 140.224 135.755C140.559 135.409 140.983 135.101 141.474 134.885C142.45 134.454 143.632 134.41 144.72 134.912C145.83 135.438 146.326 136.257 146.53 136.763L146.704 137.159C146.606 137.66 146.057 137.534 146.544 138.4C146.549 138.458 146.548 138.511 146.547 138.576C147.561 138.554 147.247 135.097 149.582 142.338C149.025 143.674 148.554 141.844 146.815 140.832C148.887 146 148.671 141.558 150.392 144.006C151.722 151.347 148.836 147.505 151.162 152.735C150.359 150.005 152.362 151.189 150.71 149.337C151.896 147.569 152.941 149.301 152.764 150.785C152.809 150.846 152.859 150.894 152.905 150.968C153.777 155.783 154.089 154.404 151.384 153.219C153.739 158.263 154.115 155.463 154.149 159.575C153.324 157.817 154.15 159.588 153.357 159.943C154.091 161.074 153.892 161.683 153.381 161.9C154.112 162.927 154.462 163.379 154.828 164.151C154.916 163.966 155.051 163.934 155.229 164.023C155.018 163.374 154.996 162.707 155.119 162.191C154.524 161.788 154.557 161.149 155.172 161.99C155.317 161.57 155.581 161.31 155.918 161.338C154.807 160.248 155.818 158.994 156.051 161.365C158.813 162.177 157.104 166.712 156.653 165.811C156.656 165.981 157.222 166.643 158.196 169.16C159.551 167.383 160.674 170.091 159.909 171.531C159.953 171.651 159.995 171.818 160.027 172.025C160.514 169.784 164.696 180.89 164.03 182.544C165.361 182.559 164.626 184.802 164.761 186.33C164.964 188.736 168.064 194.038 165.144 190.469C165.094 190.775 164.99 190.994 164.822 191.095C165.129 191.571 165.249 191.946 165.302 192.452C165.727 192.8 166.052 193.123 166.297 193.428C166.536 193.321 166.938 193.493 167.39 193.91C167.841 193.692 167.01 191.999 167.576 191.75C167.311 191.08 166.94 190.328 166.397 189.559C163.695 185.786 164.668 179.536 168.648 192.988C169.32 194.302 170.256 196.764 171.446 200.906C170.903 201.625 170.834 200.95 170.441 199.682C170.693 200.839 169.692 199.87 169.843 200.793C170.079 201 170.321 201.279 170.569 201.623C171.245 201.279 172.79 204.17 173.947 207.175L174.157 207.739L174.261 208.017L174.38 208.386C174.439 208.597 174.504 208.801 174.537 209.014C174.894 210.75 174.461 212.579 173.529 213.911C172.606 215.255 171.159 216.188 169.693 216.494C169.327 216.581 168.971 216.62 168.619 216.64L168.508 216.65L168.475 216.64L168.416 216.646L168.297 216.63C168.138 216.619 167.979 216.601 167.834 216.588C166.65 216.469 165.892 216.205 165.962 215.766C165.551 215.856 165.099 215.924 164.61 215.956C164.408 216.46 162.521 217.166 160.655 216.48C159.141 216.83 157.881 216.81 158.948 215.452C158.604 215.131 158.528 215.301 157.853 215.023C157.369 215.31 156.915 215.51 156.489 215.648C158.682 216.617 154.571 218.283 151.796 216.063C148.692 217.851 145.448 217.064 144.998 217.302C140.727 219.586 137.852 213.522 136.914 215.699C138.273 216.15 133.913 220.021 129.417 217.115C129.035 218.009 125.834 219.111 123.586 218.252C123.763 218.321 121.754 219.555 119.985 218.009C119.167 218.157 120.363 217.836 118.51 216.58C118.896 217.147 118.204 217.244 117.572 217.145C117.465 220.012 109.919 219.335 109.98 218.019C108.36 216.8 112.252 216.937 110.854 215.71C110.527 216.284 109.764 216.466 107.919 216.853C107.23 217.265 108.45 217.42 109.633 218.3C110.836 219.198 107.456 220.9 105.532 218.241C102.789 220.54 100.261 220.479 98.8771 219.408C97.6355 219.799 96.1822 219.743 96.1117 218.983C94.7343 219.111 93.8598 219.009 93.0501 218.756C92.9723 218.907 92.8598 219.036 92.7265 219.153L92.1545 219.134C91.5722 219.214 90.8254 219.146 90.0953 218.833C89.3664 218.534 88.702 218.012 88.229 217.433C87.257 216.279 87.1041 214.982 87.0619 214.881C86.9219 214.501 86.8208 214.117 86.7992 213.602C86.7711 213.086 86.8272 212.419 87.1465 211.551C87.2318 211.34 87.3353 211.114 87.4577 210.88C87.5007 210.778 87.5095 210.731 87.5412 210.649C87.5995 210.5 87.6683 210.323 87.7489 210.132C87.916 209.743 88.1331 209.258 88.4303 208.647C88.4724 208.748 88.5063 208.83 88.5413 208.925C88.5987 208.343 88.5516 208.754 91.3874 206.545C91.2481 205.254 91.0518 205.187 92.3985 202.395C92.5445 202.768 92.4996 202.778 92.5408 202.375C95.4482 200.231 95.7044 200.096 95.8728 199.792C96.5416 198.525 97.0867 197.76 97.6563 197.189C98.2058 195.199 96.7314 196.613 98.7749 192.361C98.8171 192.462 98.8515 192.55 98.8859 192.639C98.944 192.063 100.394 191.372 101.903 190.125C101.096 189.407 101.777 187.633 104.84 186.183C104.756 185.981 104.713 185.801 104.692 185.646C105.294 185.99 105.806 186.283 106.27 186.548C106.277 186.548 106.29 186.553 106.27 186.548C106.251 186.55 106.257 186.55 106.257 186.55C106.264 186.549 106.288 186.534 106.264 186.549C105.938 186.992 105.653 187.385 105.391 187.737C105.312 187.666 105.246 187.593 105.2 187.519C104.996 187.223 104.999 186.902 105.006 186.561C104.417 186.419 103.957 186.199 103.593 185.945C103.605 186.501 102.864 186.419 100.439 184.723C99.7547 185.54 98.5182 184.783 97.6874 183.668C97.2054 183.699 94.0951 180.967 94.5826 180.076C94.3479 179.947 93.0243 182.141 91.0141 177.845C89.9727 178.203 89.0016 177.271 87.2258 175.221C87.7306 174.375 87.6729 174.531 87.7577 173.324C85.2939 171.134 85.7699 171.037 85.4024 172.022C86.9281 173.918 88.035 175.185 86.236 175.077C85.2675 174.243 84.62 173.549 84.1612 172.982C82.4718 172.713 81.2293 169.276 81.2826 168.649C80.2789 168.637 82.7041 170.411 80.4908 170.216C77.6347 167.611 78.2978 168.473 76.4352 166.123C77.131 165.076 78.4599 163.93 75.8614 163.68C76.2572 165.334 74.9912 165.32 74.6224 163.886C73.1163 164.393 72.1791 162.199 71.5356 162.115C66.5834 157.115 69.5064 155.776 67.2497 155.395C67.1443 155.602 67.1233 156.082 66.2975 155.444C65.0841 155.786 64.6678 155.89 62.358 152.533C63.3411 151.262 63.0533 152.187 62.358 148.857C61.6211 148.047 62.5568 151.709 60.3174 149.747C59.9879 150.151 59.2847 149.705 59.1546 148.584C58.0932 147.385 58.5404 143.018 57.2266 145.742C56.7438 145.622 55.6907 144.724 54.6639 143.686C53.6495 142.639 52.6432 141.468 52.1997 140.854C51.2089 141.83 51.444 138.781 49.5037 136.936C49.0877 136.549 48.8212 136.147 48.6314 135.726C48.2809 135.975 47.5896 135.587 46.0051 133.479C45.8354 133.062 45.7769 132.36 45.7219 131.697C45.5234 131.676 45.3225 131.629 45.1031 131.525C45.3043 133.059 44.3378 132.035 43.2675 130.384C42.1788 128.749 41.1042 126.417 40.9229 125.451C40.7805 125.399 40.6291 125.321 40.467 125.199C40.7613 127.242 39.2081 125.473 38.1721 123.557C37.1726 121.611 36.7254 119.543 39.0219 121.06C38.2117 119.248 36.7239 122.072 36.2972 119.307C34.3831 118.24 35.9226 115.902 35.9608 115.82C35.7357 115.441 35.5202 115.166 35.3113 114.962C35.1871 115.249 34.9372 115.24 34.6016 114.517C34.2227 114.388 35.8892 119.077 33.4702 115.461C33.5939 116.937 33.4417 117.698 31.2841 113.58C30.139 111.405 30.46 110.91 30.7562 110.712C31.0524 110.515 31.3167 110.608 30.1522 109.569C29.875 109.477 29.5978 109.385 29.2812 109.08C27.8275 106.476 29.7944 107.617 27.434 106.401C27.5147 105.928 27.6229 104.339 27.0717 104.331C27.1389 104.914 26.9234 105.629 26.0672 104.168C25.6309 103.986 25.7231 103.99 25.6933 103.528C22.6838 98.3483 24.2025 98.9677 23.3154 98.0932C23.2465 100.249 20.5204 94.663 19.9381 91.7026C16.987 88.4966 19.5507 91.4829 17.68 86.2174C17.6935 86.1506 17.7255 86.2132 17.6076 86.0013C17.6683 86.9393 18.0266 88.1184 17.1542 87.8257C16.6141 86.7356 16.2109 85.9211 15.8884 85.2695C15.5978 84.6084 15.3943 84.1095 15.2488 83.6709C14.9513 82.7942 14.8721 82.1528 14.7068 80.8641C13.2814 79.2007 13.1903 79.137 13.2405 78.8309C13.2657 78.6779 13.3309 78.4622 13.2768 77.9495C13.2422 77.435 13.1073 76.6154 12.7398 75.2667C12.782 75.0859 12.8857 74.9321 13.0308 74.8007C11.9103 71.1956 13.1925 73.3637 11.5832 70.99C11.0949 71.4481 10.8409 71.7469 10.6922 71.5575C10.5501 71.3675 10.4816 70.6989 10.473 69.1926C8.67913 65.9579 11.041 65.3523 9.64179 63.4768C8.72612 64.1318 8.30421 64.7411 8.09652 64.5506C7.90183 64.359 7.87647 63.3783 7.96177 60.8345C7.74117 60.3634 7.58797 59.9124 7.54943 59.4966C6.85027 58.3163 6.22745 56.5458 6.15724 54.5864C5.76253 53.8628 5.47537 53.1687 5.39278 52.5604C4.6459 53.1276 4.38124 53.4536 4.34616 52.6508C4.32831 52.2462 4.3761 51.5602 4.44687 50.4855C4.48255 49.9514 4.52871 49.3182 4.5776 48.5731C4.62001 47.8287 4.67224 46.9785 4.77743 45.9924C3.21639 43.149 1.09396 40.1872 3.61679 39.0556C6.20217 37.892 5.75391 43.3069 6.22381 43.781C7.90384 45.4339 7.18757 46.6144 7.77521 47.8639C8.48512 49.4429 8.50035 50.3851 8.23417 51.1896C8.90278 52.4644 8.92542 54.9 9.28448 55.1681C10.4216 56.1243 10.6162 56.9516 10.7481 57.7388C13.0238 59.4544 12.161 61.3168 11.9712 62.5205C12.9268 63.4279 12.6308 63.7699 13.0898 63.7732C13.9417 63.7729 14.4093 65.2826 14.4577 66.2283C14.4721 66.3842 14.274 66.9334 14.2358 67.7233C14.3197 68.0628 14.3539 68.3611 14.3473 68.6435C16.2066 69.7555 16.4805 71.0145 16.3939 72.1299C19.5334 74.6108 18.1473 73.8677 18.8789 76.0344C19.4168 77.5245 19.9808 77.813 20.5179 78.5168C20.7867 78.872 21.0581 79.3252 21.3129 80.0945C21.5866 80.8554 21.7864 81.9509 22.0958 83.5211C24.0137 84.7719 23.2635 85.0904 23.877 86.6194C24.4045 87.9269 24.9533 88.2627 25.5121 88.9186C26.0963 89.5656 26.6841 90.5334 27.3131 93.1487C27.9249 94.3764 28.4732 94.7777 29.0207 95.3823C29.5806 95.9791 30.1338 96.7862 30.7382 98.8533C31.7325 99.541 32.2045 100.179 31.7641 101.012C32.4979 101.436 32.2966 101.173 32.6604 102.129C34.1766 103.004 33.6529 103.504 34.3387 104.823C34.5936 105.311 35.5553 106.283 36.4409 107.355C37.3579 108.41 38.2046 109.557 38.1702 110.458C39.4619 114.001 38.3466 112.361 40.4666 114.589C41.6257 114.934 42.7517 115.983 42.1734 117.026C43.4821 118.137 42.4877 118.013 44.1466 118.731C45.213 120.833 44.3294 119.572 45.5193 120.674C46.9873 122.019 47.1812 122.768 46.8541 123.198C47.1985 123.52 47.3532 123.774 47.5849 124.224C48.3418 124.967 47.6994 124.469 48.2814 125.516C49.0527 125.425 51.193 126.459 50.6177 127.816C50.7038 127.756 50.706 127.991 50.5629 127.932C50.2786 128.47 50.0853 128.082 51.6101 129.474C52.257 129.171 55.3618 131.773 53.8953 132.637C56.9612 134.607 54.4337 133.072 57.4496 135.492C59.3592 137.005 59.3186 137.769 58.6943 138.175C59.1771 138.647 58.6736 138.163 65.0815 143.598C64.7074 144.511 64.8612 143.625 66.0312 145.148C66.6062 145.272 68.2507 146.541 68.4748 147.333C70.2814 148.725 70.8965 149.14 71.7134 150.742C73.6396 152.293 73.3971 151.798 72.924 152.845C76.4276 154.8 76.2388 154.602 75.908 154.921C79.0487 157.133 79.3871 157.39 80.2452 158.942C80.7799 159.338 81.1249 159.666 81.3416 159.954C84.5336 162.083 84.8117 162.326 85.7644 163.908C86.2919 164.226 87.181 164.911 88.9091 166.022C88.8839 166.103 88.8639 166.17 88.8386 166.251C88.9905 166.263 89.2458 166.685 89.3117 166.83C91.0115 167.636 89.9197 167.239 89.9278 168.175C90.9188 167.697 93.2183 170.236 96.1534 171.078C97.79 173.18 98.6017 174.232 99.0926 174.861C101.959 176.024 100.943 175.594 100.803 176.348C101.278 176.664 100.975 176.43 100.944 177.167C101.387 178.259 102.301 179.079 102.296 179.23C103.131 179.474 102.784 178.7 103.436 178.456C102.401 177.753 104.852 177.964 105.455 178.105C105.895 178.615 106.711 179.64 107.566 180.596C107.991 181.081 108.42 181.539 108.81 181.923C108.91 182.018 109.004 182.108 109.09 182.191C109.091 182.204 109.303 182.362 109.416 182.456C109.55 182.562 109.666 182.682 109.781 182.789C110.23 183.246 110.541 183.708 110.754 184.088C110.55 183.38 110.354 182.893 110.877 183.159C110.682 182.542 110.644 182.27 110.933 182.348C111.209 182.427 111.815 182.882 112.377 183.925C112.91 184.943 113.371 186.663 112.733 188.688C112.576 189.188 112.347 189.687 112.051 190.167C111.999 190.244 111.947 190.321 111.896 190.404C111.849 190.468 111.803 190.537 111.758 190.607C111.573 190.88 111.357 191.168 111.123 191.472C109.731 191.437 110.124 191.296 109.449 191.929C109.277 194.317 108.975 193.886 107.774 193.729C106.844 195.283 107.52 194.663 106.522 194.71C106.856 195.347 106.375 196.165 105.728 196.539C105.842 196.922 105.857 197.366 105.761 197.88C107.805 197.382 105.087 201.494 104.479 201.511C103.093 202.825 102.238 203.632 101.684 204.162C103.112 203.734 102.779 205.161 100.792 207.763C99.0721 207.726 99.9803 207.203 99.7898 206.703C99.9249 206.605 99.8558 206.638 99.8603 206.827C100.088 206.105 100.13 206.128 99.7898 206.703C99.9556 206.583 99.5206 206.485 99.3589 206.579C99.7315 207.842 98.6837 210.606 98.1586 209.606C98.1883 210.069 98.0898 210.773 97.7509 211.925C97.1708 211.887 96.6809 211.834 96.2496 211.775C96.1257 212.206 95.7891 212.604 95.3848 212.838C95.5857 213.521 95.5063 214.079 95.3382 214.527C95.2541 214.751 95.1481 214.951 95.0398 215.125C94.982 215.209 94.9307 215.292 94.8789 215.369C94.8559 215.404 94.8265 215.439 94.8035 215.474L94.7687 215.523L94.8088 215.461C94.976 215.144 95.0357 214.869 95.0272 214.706C95.0121 214.544 94.9736 214.482 94.9087 214.488C94.7852 214.5 94.56 214.756 94.259 214.902C93.849 215.215 93.8975 214.608 93.7376 214.367C93.593 214.079 93.3634 213.865 92.9965 213.866C92.6556 214.147 92.7995 214.356 93.134 214.43C93.3012 214.467 93.5245 214.472 93.7321 214.237C93.9083 214.017 94.1029 213.501 93.5235 212.906C93.1786 212.932 92.9555 213.07 92.837 213.206L92.3969 213.194C94.3216 214.588 92.0956 213.831 96.2096 212.9C96.7446 211.461 96.7688 213.064 98.5364 212.481C98.8957 211.904 99.7941 211.84 100.451 212.14C100.973 211.475 101.957 210.991 103.589 210.859C105.78 209.889 105.853 210.472 106.563 211.409C108.171 213.56 108.369 208.345 112.083 211.723C112.336 211.621 112.622 211.529 112.968 211.438C113.337 211.679 112.961 211.504 114.229 211.406C114.408 210.721 115.182 210.086 117.199 209.722C118.562 209.937 118.535 212.121 119.833 210.992C119.249 210.063 121.066 209.521 122.763 209.875C124.917 208.856 125.092 209.403 125.831 210.383C126.382 210.811 129.247 207.288 130.42 209.978C131.659 210.754 130.881 210.708 131.98 210.613C130.278 209.716 133.425 208.395 135.749 209.641C136.224 209.04 138.682 207.836 139.399 208.936C141.868 207.573 141.537 208.738 142.126 208.873C142.736 208.528 143.55 208.472 144.801 209.457C145.356 209.288 145.864 209.044 146.326 208.798C145.373 208.624 146.304 208.204 146.95 208.459C147.704 208.041 148.331 207.734 148.856 207.954C150.404 207.332 151.525 207.333 151.031 208.441C151.587 208.363 152.243 208.577 152.862 208.828C152.739 208.06 154.397 207.644 155.936 207.98C156.984 206.709 159.407 208.038 159.262 208.091C159.723 208.402 162.436 205.221 163.626 208.237C164.208 207.658 163.941 207.604 166.24 208.368C166.255 208.104 166.548 207.802 166.967 207.521C167.177 207.377 167.42 207.243 167.677 207.121L167.872 207.03L167.973 206.988C167.973 206.988 168.006 206.985 167.985 206.981L167.926 206.973L167.807 206.964C167.505 206.953 167.16 206.985 166.841 207.08C166.19 207.265 165.604 207.66 165.222 208.134C164.827 208.604 164.616 209.154 164.554 209.618C164.493 210.089 164.56 210.463 164.676 210.656C164.786 210.849 164.926 210.875 165.083 210.736C165.137 210.888 165.208 211.026 165.271 211.131C165.333 211.237 165.425 211.386 165.414 211.262C165.436 211.142 165.459 211.042 165.484 210.954C165.533 210.779 165.594 210.656 165.652 210.513C164.726 210.199 165.209 209.689 164.442 209.76C163.54 206.174 164.747 207.956 164.811 207.157C162.717 207.829 161.24 203.484 165.739 201.475C165.977 202.134 166.188 202.645 166.398 203.078C168.064 204.293 167.65 204.915 168.097 204.29C167.545 204.204 167.255 203.837 167.203 202.637C166.328 201.892 166.601 200.884 167.207 201.411C167.232 200.832 167.281 200.152 167.354 199.32C166.977 199.001 167.002 198.848 167.115 200.273C166.76 200.05 165.821 199.468 165.694 199.716C166.21 200.265 165.268 203.183 163.736 200.376C163.517 200.337 163.295 200.279 163.079 200.214C164.487 205.713 158.343 198.536 160.575 198.644C161.417 198.684 161.647 198.479 160.406 198.588C160.005 197.004 160.235 196.203 161.094 196.185C161.119 196.241 161.129 196.286 161.154 196.336C161.687 195.73 161.842 194.359 162.66 194.768C163.3 194.466 163.166 194.361 163.417 195.026C164.047 195.105 163.742 195.061 164.153 193.699C162.213 194.403 162.553 191.357 162.008 192.194C162.391 193.705 160.82 194.854 160.211 194.012C157.802 195.173 157.977 191.618 157.886 191.626C157.486 190.043 157.715 189.241 158.574 189.223C158.974 190.28 158.93 188.817 160.586 189.502C160.567 188.947 160.779 188.547 161.013 188.178C158.659 187.734 159.984 191.215 156.378 186.242C156.505 185.843 156.147 183.537 156.67 182.604C156.351 182.201 156.535 182.282 156.277 182.68C153.24 180.733 153.701 180.625 154.688 180.383C153.097 178.348 153.994 179.746 155.493 176.626C154.996 176.632 153.918 176.673 153.36 175.46C150.542 173.611 151.337 173.643 152.432 173.358C151.626 171.381 153.001 173.777 150.493 168.629C150.347 168.328 150.235 168.037 150.142 167.744C149.825 167.361 149.46 166.89 149.001 166.251C149.728 163.989 150.377 166.884 148.503 162.431C146.312 160.996 146.31 160.695 146.934 160.499C145.251 158.532 146.007 154.95 143.974 151.606C143.974 151.259 144.008 150.981 144.063 150.726C143.463 149.491 143.633 149.272 143.394 149.805C141.192 148.103 141.337 141.825 140.875 142.844C139.964 142.135 139.565 141.091 139.294 139.858L139.544 140.431C139.925 141.149 140.616 141.819 141.409 142.178C142.203 142.544 143.077 142.64 143.926 142.463C144.775 142.292 145.606 141.783 146.142 141.13L146.242 141.01L146.288 140.946L146.252 140.982L146.18 141.048L146.035 141.179C145.649 141.536 145.244 141.908 144.855 142.305C144.07 143.105 143.316 144.013 142.753 145.147C141.676 145.836 141.012 145.741 140.232 145.806C140.107 148.282 138.437 148.574 140.429 148.285C140.152 151.233 136.251 152.42 134.364 156.239C133.807 156.592 133.752 157.272 133.123 156.773C131.022 157.23 132.312 156.363 132.2 158.058C132.185 159.029 131.431 160.442 129.915 161.618C129.66 160.777 129.243 160.442 128.787 160.327C129.718 161.04 129.099 162.211 128.251 162.893C128.23 163.085 128.154 163.328 128.046 163.58C128.019 163.642 127.986 163.71 127.959 163.772C127.959 163.772 127.919 163.834 127.878 163.891L127.762 164.046C127.68 164.152 127.597 164.251 127.502 164.352C127.133 164.753 126.681 165.109 126.169 165.386C125.522 165.833 124.67 166.18 123.662 166.261C122.66 166.34 121.473 166.123 120.402 165.455C120.131 165.29 119.878 165.098 119.635 164.884C119.478 164.741 119.485 164.747 119.449 164.711L119.355 164.622C119.232 164.496 119.108 164.363 118.989 164.21C118.746 163.918 118.512 163.586 118.281 163.208C120.409 162.84 119.542 161.826 118.89 160.596C117.543 161.264 116.795 162.166 115.322 160.35C115.401 160.205 115.451 160.18 115.281 160.327C115.163 160.115 115.074 159.933 115 159.77C113.916 159.392 113.213 158.514 115.281 158.414C114.344 157.786 115.313 157.631 115.458 158.417C116.671 158.495 118.802 159.712 116.728 157.421C115.849 158.256 114.935 156.88 114.453 158.045C114.2 158.632 112.255 157.371 111.64 156.038C110.666 155.86 109.342 155 108.301 153.104C108.45 153.09 109.445 152.933 109.215 152.646C108.455 153.07 105.06 150.023 106.995 148.704C111.424 152.435 108.879 149.584 110.807 150.021C111.089 150.382 111.507 149.871 111.579 149.727C111.064 149.617 111.151 148.292 111.66 149.333C111.661 148.848 111.483 148.478 111.359 148.057C111.023 148.887 110.338 148.564 110.041 146.986C109.323 148.219 108.012 149.986 105.527 147.988C104.463 147.398 105.251 147.987 105.149 145.474C105.133 145.089 105.555 145.036 105.599 144.672C105.017 144.47 104.662 144.169 104.486 143.825C103.493 144.363 103.469 144.306 103.546 144.43C104.071 145.292 103.998 145.849 103.515 145.94C103.026 146.038 102.194 145.617 101.232 144.494L101.218 144.482C101.158 144.33 100.283 143.52 100.011 141.927C99.38 142.26 96.6701 139.818 97.5123 138.371C96.6195 137.647 95.8651 135.941 96.5718 135.719C96.8647 135.626 97.4462 135.113 97.131 134.258C96.9643 134.155 96.7945 134.02 96.6353 133.858C95.4426 134.847 95.4537 133.483 94.73 133.805C94.2686 134.13 93.0285 132.98 92.8263 131.931C92.644 131.024 93.0159 131.573 91.7199 130.598C92.2466 127.797 92.0662 130.376 89.7941 127.284C88.8556 127.057 87.2649 124.458 88.8623 124.16C88.3083 123.909 88.423 123.945 88.2707 123.009C87.3555 122.89 86.4566 122.03 85.7216 120.958C85.9097 118.745 86.564 119.301 86.5897 117.811C86.2622 117.671 85.9984 117.512 85.7932 117.347C85.7159 118.069 85.696 118.844 85.6658 119.508C85.6481 120.165 85.6254 120.698 85.4983 120.952C85.257 121.46 84.5978 120.853 83.0623 117.718C82.422 117.81 81.7336 117.665 81.2499 116.405C80.4528 114.31 82.2295 115.522 83.085 115.914C81.6828 112.663 83.3877 115.008 83.0024 113.609C83.2065 113.76 83.3131 113.921 83.0554 113.191C82.9129 112.785 83.4729 112.746 83.5111 112.31C81.5272 109.853 84.2368 107.131 86.3432 110.698C86.4167 111.844 87.1468 113.782 85.7564 113.557L85.7197 113.514ZM168.309 214.283C168.438 214.265 168.56 214.24 168.67 214.224C168.806 214.205 168.933 214.166 169.048 214.13C169.284 214.062 169.466 213.979 169.623 213.906C169.93 213.753 170.096 213.626 170.179 213.54C170.347 213.374 170.205 213.393 170.007 213.379C169.809 213.364 169.559 213.283 169.488 213.014C169.392 212.748 169.533 212.289 169.481 211.593C169.292 211.82 169.055 212.012 168.78 212.156C168.512 212.305 168.184 212.375 168.021 212.449C167.629 212.61 167.299 212.798 167.088 212.988C166.664 213.368 166.706 213.75 167.661 213.872C168.079 213.925 168.276 214.077 168.295 214.278L168.309 214.283ZM142.711 211.152C142.455 211.929 140.841 211.2 142.514 213.195C142.937 213.588 142.592 214.328 142.738 214.485C145.588 213.486 143.885 213.926 142.711 211.152ZM132.334 213.942C132.261 213.857 132.289 213.874 132.261 214.001C132.285 213.979 132.303 213.964 132.334 213.942ZM122.301 213.443C122.802 213.967 122.448 213.96 122.848 214.035C122.736 213.462 122.478 213.512 122.301 213.443ZM125.101 213.95C124.934 214.418 125.047 214.86 125.261 215.253C126.29 214.548 125.662 214.704 125.101 213.95ZM164.695 212.272C165.34 211.878 165.875 212.202 164.899 211.644C164.642 211.838 164.583 212.053 164.695 212.272ZM167.651 209.023C167.465 209.001 167.563 208.992 167.714 209.214C167.688 209.144 167.67 209.087 167.651 209.023ZM161.242 211.714C162.816 213.141 161.294 213.118 162.376 213.555C164.405 212.253 162.335 212.406 162.121 211.155C161.915 211.337 161.655 211.499 161.236 211.715L161.242 211.714ZM165.792 195.762C166.006 196.09 165.974 196.171 166.04 195.674C165.942 195.683 165.86 195.717 165.792 195.762ZM153.735 210.47C154.537 210.422 153.844 210.441 156.107 212.164C156.585 212.297 155.731 211.708 156.158 210.941C156.411 210.491 156.378 210.92 155.943 210.037C153.703 209.628 154.144 209.299 153.735 210.47ZM134.687 211.469C135.718 211.426 137.599 215.098 135.717 211.479C134.72 211.329 134.799 211.262 134.687 211.469ZM119.586 212.849C120.411 212.629 121.14 212.725 121.69 212.995C121.491 212.686 121.49 212.326 121.182 212.04C118.293 213.041 117.551 214.303 119.585 212.843L119.586 212.849ZM44.5634 124.288C43.4932 124.053 43.6427 124.111 43.6225 124.388C43.7127 124.583 46.5229 127.966 44.5634 124.288ZM103.38 199.902C103.286 199.885 103.193 199.867 103.107 199.856C103.177 199.915 103.271 199.932 103.38 199.902ZM72.6534 156.146L72.595 156.224C72.9002 156.405 72.8571 156.435 72.6534 156.146ZM72.8538 159.581C72.7687 159.228 72.7857 158.847 72.9221 158.48C72.7833 158.467 72.6219 158.423 72.516 158.341C72.0919 158.007 72.1889 158.063 71.8708 159.58C72.1208 159.308 72.3624 159.299 72.8538 159.581ZM75.0937 161.123C77.0302 162.503 76.5117 162.283 75.8211 160.911C75.5761 161.026 75.3269 161.095 75.0937 161.123ZM81.7059 166.853C82.389 167.295 82.8485 167.586 83.3127 167.858C83.5386 166.972 83.8836 167.3 83.3704 167.066C82.3879 167.708 81.9895 166.873 81.7059 166.853ZM93.2088 174.869C92.9984 174.791 92.7702 174.733 92.5291 174.677C91.417 175.475 91.0161 174.26 90.7207 174.609C91.1732 174.894 91.468 175.247 93.2088 174.869ZM96.5191 180.749C96.9094 180.647 98.1208 181.557 99.1359 181.692C98.4311 179.955 100.092 180.345 99.1328 179.89C98.9996 180.433 98.5782 180.269 97.46 179.659C97.4886 179.826 97.6796 179.907 96.401 179.757C96.2547 180.583 96.2776 180.476 96.5191 180.749ZM97.8956 208.89C97.7713 208.397 97.6587 207.89 97.3057 207.687C96.8977 208.799 97.5145 208.526 97.8956 208.89ZM33.2784 104.483C33.2388 104.48 33.2455 104.623 33.2367 104.67C33.3963 104.695 33.3638 104.698 33.2784 104.483ZM28.4004 96.6782C28.4172 97.4958 28.4475 97.611 28.9532 97.2692C28.7277 97.028 28.5531 96.841 28.4004 96.6782ZM23.4881 87.8678C23.3449 88.0187 23.3666 87.9707 23.6026 88.1127C23.5623 88.0312 23.5297 87.9622 23.4881 87.8678ZM22.7719 86.3614C22.9663 86.409 22.9285 86.4256 22.8608 86.1894C22.6669 86.1484 22.7047 86.1318 22.7719 86.3614ZM19.2368 79.3302C19.8887 80.4952 19.5742 80.7078 20.2033 80.3546C19.2566 79.1186 19.2822 78.9001 19.2368 79.3302ZM21.1717 91.4376C21.0038 91.0403 21.0861 91.1506 20.8507 91.0151C21.0958 91.6084 21.0289 91.5229 21.1717 91.4376ZM37.3906 114.278C37.2537 114.003 37.2631 113.962 36.3533 113.903C36.5508 114.055 36.8996 114.212 37.3906 114.278ZM59.2954 144.377C59.4665 143.607 59.4402 143.747 58.6721 143.026C58.5611 143.737 58.5123 143.847 59.2954 144.377ZM83.6837 169.527C83.512 169.301 82.5354 168.945 82.3794 168.888C82.7809 169.119 83.238 169.385 83.6837 169.527ZM102.042 193.113L102.22 192.979C102.335 192.66 102.372 192.643 102.042 193.113ZM118.73 216.127C118.668 215.955 118.713 215.945 118.241 216.159C118.345 216.143 118.494 216.129 118.73 216.127ZM146.933 213.65C146.774 213.704 146.09 213.951 145.771 214.406C146.199 214.216 146.629 213.973 146.933 213.65ZM157.084 213.869C157.299 213.069 157.382 213.402 156.57 213.196C156.932 212.933 157.004 212.933 156.407 212.923C156.294 213.47 157.025 214.078 157.084 213.862L157.084 213.869ZM172.127 206.348C172.28 207.998 172.325 208.269 172.609 208.577C172.646 208.554 172.863 208.986 172.999 209.393C173.144 209.825 173.27 210.409 173.225 211.187C173.165 211.959 172.93 212.957 172.132 213.968C171.733 214.47 171.19 214.973 170.453 215.362C170.084 215.554 169.68 215.716 169.232 215.829C169.008 215.89 168.782 215.924 168.549 215.958C168.387 215.973 168.427 215.983 168.381 215.987L168.285 216.009C168.356 216.002 168.364 216.015 168.501 216.009C168.735 215.987 168.969 215.965 169.215 215.929C169.704 215.838 170.208 215.687 170.697 215.445C171.681 214.967 172.575 214.15 173.15 213.074C173.727 212.012 173.98 210.639 173.681 209.323C173.618 208.995 173.502 208.671 173.384 208.387L173.238 208.152C173.139 207.997 173.032 207.837 172.919 207.683C172.25 206.749 172.155 206.227 172.12 206.342L172.127 206.348ZM169.095 196.819C169.541 198.167 169.713 197.902 170.226 199.126C169.985 198.44 169.637 197.647 169.095 196.819ZM96.0324 133.01C95.9909 132.915 95.9927 132.935 95.9833 132.975C95.9975 132.987 96.0182 132.998 96.0324 133.01ZM114.013 152.372C114.787 153.158 115.251 153.567 115.536 153.751C115.293 153.524 115.084 153.111 115.022 152.796C114.666 150.935 113.93 151.481 113.548 149.905C113.469 150.318 113.708 151.063 114.013 152.372ZM112.925 154.989C113.073 155.099 113.131 155.16 113.068 154.405C113.01 153.782 114.116 153.98 112.916 152.414C112.476 152.684 112.054 152.946 111.632 153.202C111.921 153.915 112.676 154.206 112.925 154.989ZM120.531 159.919C121.15 160.655 121.068 160.688 121.258 160.835C122.069 160.248 122.784 161.316 121.177 159.669C120.129 158.757 120.07 158.048 120.527 157.888C121.034 157.704 119.847 157.132 120.983 156.804C120.069 156.561 120.099 155.746 119.367 157.327C120.779 160.61 119.17 159.724 120.531 159.919ZM124.826 161.71C124.741 162.071 124.203 162.279 124.541 162.175C124.905 161.716 124.906 161.801 124.826 161.71ZM144.006 141.492C145.056 142.921 144.861 142.723 145.058 142.522C145.292 142.284 144.019 141.419 144.006 141.492ZM160.436 180.741C161.303 181.972 161.335 182.46 161.241 181.302C160.657 180.157 160.398 179.487 160.436 180.741ZM158.742 182.55C159.255 183.773 159.541 184.238 160.035 183.563C159.474 182.954 159.06 182.651 158.742 182.55ZM156.58 174.212C156.867 173.071 156.943 173.32 156.731 173.149C155.43 173.04 155.137 172.288 156.58 174.212ZM136.418 151.324C136.54 151.155 136.614 151.102 136.166 150.934C136.263 151.063 136.347 151.193 136.418 151.324ZM140.561 143.489C137.442 145.685 137.96 141.869 137.667 145.212C139.525 143.696 138.733 145.401 140.561 143.489ZM147.91 151.72C148.197 152.84 148.305 153.439 148.452 153.681C148.326 152.461 149.626 153.061 147.91 151.72ZM129.327 155.205C130.021 154.983 129.827 155.29 129.633 154.397C129.508 154.683 129.403 154.955 129.327 155.205ZM143.908 147.078C144.091 147.074 144.463 146.987 144.518 146.726C144.144 144.749 144.541 145.774 143.096 145.312C143.836 147.15 143.497 147.096 143.909 147.084L143.908 147.078ZM147.634 160.271C147.768 160.232 147.765 160.272 147.683 160.096C147.669 160.156 147.649 160.217 147.634 160.271ZM153.942 172.117C153.986 171.955 154.084 171.389 153.889 171.545C153.907 171.74 153.925 171.935 153.942 172.117ZM162.578 190.988C162.679 190.953 162.684 190.998 162.578 190.844C162.463 190.881 162.454 190.855 162.578 190.988ZM163.743 182.558C163.676 182.472 163.66 182.448 163.723 182.56L163.743 182.558ZM158.415 169.756C159.259 172.083 158.985 171.597 158.576 171.281C158.653 171.975 158.597 172.57 158.367 172.847C160.708 175.061 160.643 175.558 160.673 176.512C160.879 177.037 161.017 177.614 161.08 178.152C161.447 178.715 161.85 179.457 162.242 180.299C162.822 179.557 163.537 180.264 162.263 177.767C161.607 181.216 160.824 176.308 160.674 175.818C161.322 175.463 160.132 174.846 159.99 172.539C159.289 171.831 159.322 171.415 159.566 171.215C159.019 170.545 158.646 170.062 158.415 169.762L158.415 169.756ZM155.601 168.313C155.805 168.117 156.009 167.98 156.2 167.917C155.677 166.871 155.491 166.488 155.601 168.313ZM132.088 148.442C132.862 147.171 132.492 147.913 132.107 147.372C132.005 147.827 132.06 147.783 132.088 148.442ZM112.073 144.734L112.079 144.733L112.079 144.727L112.072 144.727L112.073 144.734ZM100.589 137.908C100.88 138.792 99.7086 139.019 99.0881 138.899C100.578 140.196 100.43 140.584 100.427 139.634C100.426 139.051 101.362 139.252 100.589 137.908ZM97.0371 129.922C97.245 130.892 97.3766 130.828 96.2956 130.194C95.9093 130.551 95.7574 131.174 95.4569 131.608C95.9561 132.257 95.7453 132.316 95.8381 132.045C96.1914 131.049 96.169 130.736 96.6932 130.878C97.0289 130.965 97.5046 131.36 97.9318 132.08C97.9801 132.036 99.5005 130.906 99.572 130.899C98.733 130.473 97.8116 129.935 97.0377 129.929L97.0371 129.922ZM85.6552 113.455C85.3931 112.889 85.4165 112.789 85.3741 113.179C85.4404 113.258 85.5404 113.347 85.6552 113.455Z" fill="black"/>
<path d="M60.0387 41.6367C60.4287 42.0264 60.8392 42.6371 61.2004 43.4948C59.952 44.0234 60.0623 43.941 60.0547 44.3546C60.8686 45.5701 60.2837 44.9166 59.6553 46.9735C61.1493 47.6803 59.3518 48.0828 59.2721 50.7572C59.2478 51.4148 59.0064 51.85 58.752 52.2864C58.7819 52.821 58.785 53.2794 58.7633 53.6811C60.7008 54.2945 60.3775 55.5432 61.1186 54.3475C61.244 54.1458 61.532 54.6368 59.8312 52.265C59.9039 52.2714 62.2692 51.9146 62.2801 51.7497C59.7867 50.4409 60.683 49.8598 60.2657 47.7622C60.2818 47.5117 60.2916 48.0416 60.8166 48.2616C61.9141 47.8716 62.5693 48.9314 62.9218 50.1175C63.2872 51.3025 63.3698 52.6185 63.272 52.7652C64.7915 55.868 66.1396 59.878 64.2589 58.6762C63.556 60.3534 63.7823 59.7557 63.3216 61.784C62.2668 61.292 61.7358 60.6531 61.5463 62.073C61.4332 62.9026 61.1335 62.7797 60.691 61.7526C60.1261 65.6974 60.5558 63.8293 60.6096 66.1768C59.6042 65.228 59.7377 67.8696 58.0302 64.011C56.5988 62.7086 58.5481 60.621 58.0512 60.5622C58.3835 60.0465 58.7022 61.2226 58.9403 59.5492C57.6443 58.6471 57.556 56.7746 58.1641 56.2661C57.5883 55.9918 57.2155 54.6569 57.5918 53.9798C57.5949 53.7305 57.509 53.5811 56.7619 52.3791C55.0233 51.0135 55.7053 47.8376 57.2186 49.388C57.4358 49.6103 57.5996 49.6803 57.7372 49.6807C57.304 47.5518 57.4213 51.0795 56.3258 47.6032C55.5227 47.7759 56.5047 47.9077 54.8902 51.5566C52.849 49.4719 52.9958 50.2774 53.93 47.419C53.9045 47.3558 53.8926 47.2979 53.8742 47.2406C53.5267 47.5219 53.2483 47.0627 53.8325 47.0741C53.637 46.0962 54.2134 46.6588 54.3944 45.4297C55.0167 46.2763 54.5783 45.8583 56.0426 46.1026C56.0038 44.907 55.5666 45.2096 56.018 44.9188C56.0229 44.689 55.9282 44.5863 55.8696 44.1658C55.7318 43.1039 56.4464 41.6223 57.1815 42.7664C57.8941 43.8799 58.4443 40.9784 59.2586 41.1389C59.0134 38.4225 61.0897 40.6742 60.031 41.6242L60.0387 41.6367ZM57.5116 46.3989C57.8253 46.0356 57.727 46.2479 57.5005 45.784C57.4953 45.8697 57.465 46.3901 57.5116 46.3989ZM58.3602 48.9087C58.6572 48.1538 58.7743 48.215 58.1956 47.9803C58.2523 48.3092 58.3054 48.5992 58.3602 48.9087ZM62.0253 55.2923C60.7905 57.5954 61.8934 57.5456 60.84 59.4715C60.9178 59.746 60.9626 60.0171 60.9613 60.2859C62.1693 59.25 62.5272 57.5261 63.0534 57.1235C62.9005 56.8166 62.7504 56.47 62.6221 56.0757C62.3752 55.7447 62.1816 55.494 62.0318 55.2917L62.0253 55.2923ZM59.3119 55.2161C59.1231 55.7251 58.9157 56.0326 58.7211 56.1948C59.376 56.4028 59.7772 57.4796 60.2791 56.3191C60.0821 56.1735 59.7861 55.8078 59.3184 55.2155L59.3119 55.2161Z" fill="black"/>
<path d="M55.7484 133.1C55.2017 132.646 55.2879 132.586 55.2226 133.083C55.8255 133.578 55.702 133.589 55.7484 133.1Z" fill="black"/>
<path d="M128.857 150.465C128.929 149.901 129.027 149.964 128.481 150.231C128.419 150.905 128.318 150.875 128.857 150.465Z" fill="black"/>
<path d="M9.55781 54.0617C9.53949 53.7226 9.21924 54.0144 9.0022 54.218C9.18726 54.3057 9.64513 55.0037 9.55781 54.0617Z" fill="black"/>
<path d="M79.0896 92.7069C78.6467 92.1713 78.7619 92.141 78.5542 92.5862C79.0509 93.2085 78.9185 93.1946 79.0896 92.7069Z" fill="black"/>
<path d="M34.5048 104.421C34.3459 104.122 34.4169 104.18 34.3475 104.351L34.5048 104.421Z" fill="black"/>
<path d="M104.597 135.754C104.735 135.696 104.756 135.772 104.498 135.541L104.597 135.754Z" fill="black"/>
<path d="M80.3907 114.919L80.3152 114.67C80.1611 114.704 80.1687 114.645 80.3907 114.919Z" fill="black"/>
<path d="M53.5033 41.5285L53.3532 41.4638C53.5304 41.8209 53.5389 41.9119 53.5033 41.5285Z" fill="black"/>
<path d="M52.5638 27.3629C52.3962 26.828 52.4465 26.8758 52.3282 27.0833C52.4279 27.3821 52.364 27.329 52.5638 27.3629Z" fill="black"/>
<path d="M53.5899 27.4971C53.5941 27.5426 53.5984 27.5882 53.6026 27.6336C53.6539 27.6223 53.6497 27.5768 53.5899 27.4971Z" fill="black"/>
<path d="M52.9229 24.4987C53.0683 25.573 52.9387 26.7907 53.6602 27.5757C53.2553 27.0956 54.6691 28.4914 55.5486 27.0927C55.9203 26.5078 56.2049 24.7712 55.5693 24.7711C55.6621 24.7822 55.7548 24.7932 55.8464 24.7913C55.8099 24.5391 55.7855 24.1351 55.7281 24.0814C53.9019 22.2652 54.796 23.4274 53.7971 24.1032C53.5263 24.2921 53.0846 23.7695 52.9229 24.4987Z" fill="black"/>
<path d="M85.567 108.954C86.6846 109.912 87.4659 110.423 87.9985 110.655C88.5247 110.888 88.7834 110.851 88.8847 110.671C89.0879 110.318 88.6267 109.444 88.3349 109.124C87.3417 108.023 86.8968 107.959 86.3152 107.482C86.3142 107.26 86.221 106.96 86.0698 106.673C85.4517 105.518 84.7311 105.945 84.0708 106.033C85.5527 107.881 85.1518 106.666 85.567 108.954Z" fill="black"/>
<path d="M93.1239 118.339C92.4314 117.23 91.7404 117.694 91.0902 117.819C93.5992 120.568 93.7311 119.305 93.1239 118.339Z" fill="black"/>
<path d="M57.754 34.9745C58.2802 34.5719 59.0347 34.2988 58.6279 33.3733C58.1551 32.3031 57.2561 32.3602 57.754 34.9745Z" fill="black"/>
<path d="M166.552 207.691C166.68 207.646 166.661 207.654 166.552 207.691V207.691Z" fill="black"/>
<path d="M165.95 207.792C166.142 207.807 166.41 207.736 166.557 207.69C166.029 206.874 164.063 207.652 165.95 207.792Z" fill="black"/>
<path d="M105.549 137.553C105.843 137.755 106.127 137.847 106.544 138.038C105.57 135.946 104.968 137.155 105.549 137.553Z" fill="black"/>
<path d="M60.5366 138.607C59.9782 138.167 60.0637 138.1 60.012 138.603C60.6267 139.084 60.5032 139.095 60.5366 138.607Z" fill="black"/>
<path d="M99.8937 127.567C99.6707 126.716 99.4318 127.249 99.347 127.395C99.5672 127.65 100.077 128.271 99.8937 127.567Z" fill="black"/>
<path d="M52.135 20.4697C51.6296 19.6122 51.7851 19.6634 51.5248 20.4607C52.0334 21.141 51.9041 21.1595 52.135 20.4697Z" fill="black"/>
<path d="M148.967 140.167C149.28 140.001 148.627 139.255 148.742 139.579L148.967 140.167Z" fill="black"/>
<path d="M38.4696 110.534C38.3043 110.235 38.3753 110.294 38.3124 110.464L38.4696 110.534Z" fill="black"/>
<path d="M96.5179 138.509C96.748 138.658 96.7707 138.833 96.7833 138.261C96.271 138.178 96.42 138.23 96.5179 138.509Z" fill="black"/>
<path d="M58.0532 60.5755C57.1409 60.4896 57.6703 61.1811 58.0532 60.5755V60.5755Z" fill="black"/>
<path d="M107.182 195.094C107.189 195.173 107.203 195.178 107.182 195.094V195.094Z" fill="black"/>
<path d="M107.176 194.813C107.045 194.89 107.112 194.832 107.176 195.095C107.17 195.036 107.162 194.945 107.176 194.813Z" fill="black"/>
<path d="M119.586 212.85C119.691 212.774 119.667 212.796 119.586 212.85V212.85Z" fill="black"/>
<path d="M51.2649 13.9448C50.7914 14.0673 46.0294 11.4025 47.4424 15.0526C48.1396 16.7769 50.6115 12.1967 50.7586 17.8841C50.227 17.5926 50.6875 17.4713 48.8343 18.4032C50.1386 21.3753 50.1003 21.1037 50.0208 21.5894C49.7819 23.1121 50.3736 23.6995 50.8597 22.6518C51.3458 21.6042 51.7216 18.9416 51.272 13.9506L51.2649 13.9448Z" fill="black"/>
<path d="M51.2632 13.8073C51.2674 13.8528 51.2717 13.8983 51.2759 13.9438C51.3279 13.939 51.3301 13.8928 51.2632 13.8073Z" fill="black"/>
<path d="M120.02 158.564C120.057 158.541 120.088 158.519 120.119 158.496C119.928 158.278 119.879 158.243 120.02 158.564Z" fill="black"/>
<path d="M51.7021 10.4443C51.4158 10.6084 51.0173 10.0556 50.8018 10.7702C50.8628 11.8523 50.6534 13.0578 51.3265 13.8866C50.9458 13.3845 52.2817 14.8596 53.2393 13.5258C53.6459 12.9639 54.0458 11.2689 53.4196 11.2287C53.5129 11.2462 53.5992 11.258 53.6979 11.2619C53.6815 11.0144 53.6837 10.6144 53.6328 10.5602C51.9512 8.67809 52.7478 9.84934 51.7021 10.4443Z" fill="black"/>
<path d="M56.4819 30.6886C57.3007 31.3925 57.116 31.1672 57.2492 31.9675C57.1517 31.9765 57.059 31.9654 56.9733 31.9602C57.6071 31.9408 57.3757 33.6857 57.0182 34.2824C56.6612 34.8856 57.8437 35.1298 58.5429 34.9667C59.8638 37.341 59.6995 38.6078 59.0438 38.6031C58.4069 38.59 57.2639 37.2871 56.8649 34.467C56.5242 34.8917 56.0579 35.7999 55.7802 36.7627C55.522 37.7237 55.4529 38.7459 55.8983 39.3795C55.7974 39.7755 55.7858 39.9338 55.7095 39.8885C55.9666 44.9235 54.3245 45.0233 54.4856 42.5903C54.519 42.1023 54.5826 42.365 53.0541 39.5186C54.4816 38.6589 52.0701 39.2953 52.2148 36.6149C51.8866 36.7501 51.5977 36.7441 51.3819 36.3251C50.3125 34.1897 51.9136 34.6376 51.6936 34.173C53.0357 34.7957 52.3147 33.9451 51.6828 32.7128C51.7138 32.9065 51.66 33.1735 51.5981 33.9198C50.6556 32.8014 50.8047 33.2791 51.0987 31.784C51.6465 32.6047 51.1999 32.2398 53.2595 31.0594C52.6792 26.2837 50.6145 30.5904 49.8425 28.9778C48.2936 25.6287 53.216 27.4791 53.2995 27.6024C53.9891 27.7613 54.1374 33.1077 54.0131 34.6657C55.2205 34.9666 55.0571 35.0408 55.1883 34.76C54.4298 34.424 54.4391 32.6866 54.3004 31.7559C54.4421 31.0219 54.8955 31.5303 55.1657 31.3349C56.1304 30.6426 55.563 30.1775 55.4383 29.4682C55.0409 27.2312 56.2412 27.5263 57.0603 28.3743C57.8859 29.2217 58.3373 30.6281 56.4618 30.684L56.4819 30.6886ZM53.94 36.0683C53.9891 36.103 54.0394 36.1508 54.0873 36.1726C54.0376 36.1314 53.9944 36.0895 53.94 36.0683Z" fill="black"/>
<path d="M57.3467 55.0116C57.3639 55.0559 57.3876 55.0996 57.4042 55.1374C57.4169 54.992 57.3956 54.9743 57.3467 55.0116Z" fill="black"/>
<path d="M57.02 54.4392C57.048 53.2571 57.1142 53.6179 56.3433 52.654C56.1013 54.7799 54.9579 51.5636 54.0935 54.8218C54.7846 54.784 55.2282 54.4087 55.5148 54.8146C56.3445 55.9893 57.7982 55.5532 57.02 54.4392Z" fill="black"/>
<path d="M119.66 212.797C119.59 212.816 119.527 212.842 119.463 212.861C119.516 212.869 119.58 212.85 119.66 212.797Z" fill="black"/>
<path d="M153.675 176.159C152.816 176.177 152.586 176.978 152.987 178.562C154.017 178.466 154.247 177.665 153.675 176.159Z" fill="black"/>
<path d="M150.613 149.418C150.642 149.383 150.659 149.348 150.688 149.313C150.608 149.222 150.613 149.281 150.613 149.418Z" fill="black"/>
<path d="M54.9832 21.5033C55.5254 21.1319 56.2965 20.8967 55.9404 19.9533C55.5379 18.8635 54.6276 18.8692 54.9832 21.5033Z" fill="black"/>
<path d="M104.307 148.383C103.993 149.028 105.39 149.468 105.969 149.703C105.538 148.944 104.818 147.326 104.307 148.383Z" fill="black"/>
<path d="M162.184 202.1C162.086 201.97 162.116 202 162.184 202.1V202.1Z" fill="black"/>
<path d="M162.462 202.65C162.419 202.464 162.279 202.228 162.189 202.099C161.556 202.839 162.869 204.493 162.462 202.65Z" fill="black"/>
<path d="M150.614 149.326C150.492 149.285 150.493 149.219 150.616 149.418L150.608 149.327L150.614 149.326Z" fill="black"/>
<path d="M133.784 142.793C133.473 142.619 133.194 143.569 133.411 143.3L133.784 142.793Z" fill="black"/>
<path d="M86.1429 172.752C85.9206 172.334 86.0046 172.391 85.7802 172.445C85.8947 172.69 85.7959 172.614 86.1429 172.752Z" fill="black"/>
<path d="M46.5274 121.603C46.3438 121.319 46.4141 121.371 46.3648 121.546L46.5274 121.603Z" fill="black"/>
<path d="M88.2164 127.031C88.4412 127.193 88.4574 127.369 88.496 126.795C87.9872 126.678 88.1373 126.743 88.2164 127.031Z" fill="black"/>
<path d="M70.251 95.7279L70.2009 95.4704C70.045 95.4848 70.0531 95.4317 70.251 95.7279Z" fill="black"/>
<path d="M51.6951 21.8015C51.6052 22.1047 51.5867 21.9754 51.7597 22.287C51.8611 21.8254 51.8838 21.9282 51.6951 21.8015Z" fill="black"/>
<path d="M49.1334 20.4534L48.9886 20.3751C49.1405 20.7411 49.1365 20.8397 49.1334 20.4534Z" fill="black"/>
<path d="M76.8237 18.0637C77.1903 18.2722 76.9345 18.6236 76.6399 18.6967C76.7451 18.7001 76.8508 18.7099 76.9572 18.7263C78.1586 19.6699 77.4792 19.6215 76.2781 19.8836C76.258 19.8789 76.2444 19.8736 76.2308 19.8683C75.6633 20.3206 74.5516 20.0632 74.4558 19.6658C73.7457 19.6399 74.4061 19.6246 72.5813 20.2983C73.1103 20.4197 73.2093 20.6399 72.7596 20.8781C73.1394 20.8757 73.5938 20.8991 74.1185 20.975C74.3623 20.9196 74.6789 20.8706 75.129 20.8485C74.9387 20.7744 74.714 20.6838 74.1501 20.4674C75.7053 20.3495 76.6915 19.819 77.7394 20.4493C77.3208 20.5995 78.2311 20.8755 77.519 21.1119C77.4244 21.3631 76.9846 21.5677 76.8004 21.2768C76.7785 21.2526 76.8382 21.2602 76.4851 21.3388C76.1866 21.2289 75.2163 21.7906 74.7973 22.0064C72.6935 21.9327 73.6555 22.0598 72.8362 22.411C72.7352 22.4531 71.6493 23.0386 71.8585 23.1044C72.2404 22.9117 71.7259 22.9464 72.6537 22.7752C73.0269 22.7013 73.1723 22.4322 73.6526 22.4532C74.166 22.4777 73.9455 22.7144 74.0698 22.8536C74.1876 22.9934 75.1065 23.1506 74.2679 23.2939C74.4268 23.3119 74.5864 23.3365 74.7589 23.3598C74.091 23.7887 74.0786 23.7964 73.2889 23.5485C72.6407 23.7658 72.0386 24.0576 71.5174 24.3024C71.6659 24.4197 71.7221 24.4604 71.8977 24.5162C72.3019 24.2822 72.7055 24.0416 73.0453 24.1019C73.051 23.9506 73.1936 23.7933 73.368 23.8361C74.0607 24.0274 74.1175 23.7207 75.2981 23.5917C75.3806 23.4923 75.5352 23.3927 75.7749 23.2919C74.0807 22.6888 74.3587 22.8595 75.3331 22.6971C73.851 22.0482 77.2703 21.1153 77.0647 22.078C78.1826 22.1906 77.306 22.5602 78.2829 23.1315C77.9027 23.2716 78.4835 23.316 77.2812 23.5651C77.1562 24.055 76.6964 24.2549 76.2451 24.264C76.4893 24.4248 76.6177 24.5375 75.7579 25.0169C76.5245 24.9458 77.0331 24.9183 76.6734 25.2793C77.6781 25.232 77.4075 25.2113 77.1532 24.3764C78.3212 24.3926 78.2222 24.8801 77.9136 25.0857C78.2353 25.3049 78.6865 25.2238 79.1726 25.5195C79.3672 25.6391 79.1401 26.1581 77.6615 25.8299C77.4548 26.8517 75.886 26.6825 75.6218 26.2352C75.339 26.3663 75.012 26.5145 74.6844 26.6563C74.8884 26.7357 74.7729 26.9036 74.8682 27.0127C74.9487 27.1036 75.8281 27.3301 75.195 27.4281C74.9174 27.4735 74.6352 27.5389 74.3612 27.6233C74.4212 27.775 74.7953 27.5699 75.3864 27.4431C75.7199 26.9403 75.9591 26.9051 76.8467 26.7246C79.0233 26.5949 76.664 27.2984 77.1159 27.2959C77.2261 27.8492 76.2999 27.8958 74.365 28.0882C74.0599 29.2502 71.9843 29.128 71.496 28.8784C71.0349 29.0653 70.7367 29.0995 70.6676 28.7783C70.0955 28.9689 68.6221 28.9089 70.3187 28.2667C69.9064 28.2721 69.6133 28.2207 69.7624 27.9906C70.0704 27.4968 71.029 27.729 71.5791 27.796C72.0663 26.6892 70.5825 28.0719 70.4322 27.2995C69.3957 27.4283 69.332 27.1655 70.3262 26.7916C69.7916 26.8215 69.3562 26.7897 69.5276 26.5183C69.5506 26.4834 68.4092 26.4712 69.9235 25.9115C69.4153 25.5195 69.7149 25.8522 71.0349 25.0353C70.8872 24.9965 70.7435 24.9312 70.5986 24.8529C68.7821 25.1917 68.211 24.9693 69.8475 24.3852C69.8515 24.2865 69.8673 24.1736 69.8936 24.0336C68.3372 24.1385 69.5552 23.7767 68.3545 23.9011C68.6673 23.741 69.3143 23.5107 69.4301 23.4868C68.8411 23.4956 68.8744 23.2893 69.5562 23.0098C68.4571 22.8168 68.5293 22.8888 69.9046 22.2436C69.8396 22.2496 69.5236 22.2331 69.5932 22.207C69.4313 22.1564 69.1552 22.359 68.5949 22.2537C67.8078 22.1038 68.8594 21.7835 69.7095 21.4819C69.5901 21.4668 69.4702 21.4451 69.3614 21.4028C69.1912 21.3334 68.6721 21.4601 68.0035 21.5286C69.0559 21.0052 70.0507 20.9916 70.6192 21.1158C71.2453 20.7301 70.6192 21.1158 69.8279 20.6387C69.1505 20.7539 68.1677 20.8254 68.5446 20.5087C68.112 20.3653 69.5404 20.0821 69.1526 19.928C68.9824 19.8586 68.4627 19.9789 67.7935 20.0409C68.9527 19.4682 70.0451 19.5177 70.5712 19.6787C71.8239 19.5494 71.7155 19.3694 72.926 19.421C74.6803 18.9766 75.5481 18.2999 76.3126 18.7008C76.4757 18.6923 76.3229 18.8113 76.1339 18.1867C75.4943 18.2853 74.9402 18.3169 74.9368 18.0682C74.9247 17.2305 78.3579 17.7904 76.8243 18.0702L76.8237 18.0637ZM74.9575 25.7136C75.9662 25.5676 75.8005 25.7599 76.0151 25.5303C74.9131 25.7308 74.7115 25.6053 74.9575 25.7136ZM73.4109 26.4205C71.9452 27.0085 72.8664 26.8379 72.9909 27.0492C74.8182 26.4735 73.5989 26.8224 73.4109 26.4205ZM73.5886 24.3071C73.7834 24.5708 71.3129 25.9138 70.8004 26.0399C70.7423 26.2616 70.4368 26.2178 71.358 26.329C71.7316 25.4818 72.2243 26.2028 72.6322 25.6539C72.6787 25.5906 73.0142 25.5333 73.2268 25.4939C73.3425 25.4701 73.3663 25.232 73.5944 25.2895C73.6884 25.3135 74.2361 25.0006 74.5206 25.2429L74.5779 25.2245C75.0405 23.9234 76.9027 24.0065 73.5821 24.3077L73.5886 24.3071ZM76.9129 22.4197C76.8722 22.4759 76.8716 22.4694 76.9301 22.464L76.9129 22.4197ZM69.8749 21.4993C69.8749 21.4993 69.8903 21.5241 69.9399 21.4933L69.8749 21.4993ZM71.7468 22.0401C73.2081 21.2625 72.0194 22.2245 74.1927 21.4923C72.9251 21.6032 72.4504 21.7128 72.4952 21.3482C72.1457 21.4658 71.8557 21.5189 71.6466 21.5252C71.3179 21.726 70.9638 21.9357 70.6232 22.0787C71.0184 22.029 71.5824 21.9636 71.7533 22.0395L71.7468 22.0401ZM71.7074 20.4842C72.0143 20.3312 72.0215 20.4092 71.4172 20.3931C71.4982 20.4184 71.5927 20.449 71.7074 20.4842Z" fill="black"/>
<path d="M71.7267 18.7914C72.2145 19.0345 72.3172 19.0119 72.8906 18.5525C72.4406 18.6466 72.1064 18.7169 71.7267 18.7914Z" fill="black"/>
<path d="M99.94 100.965C99.7929 100.932 99.8331 100.942 99.728 101.01C99.8273 101.021 99.7765 101.039 99.94 100.965Z" fill="black"/>
<path d="M92.0331 101.874C92.2105 101.95 92.116 101.991 92.4169 101.773C92.2195 101.693 92.3151 101.665 92.0331 101.874Z" fill="black"/>
<path d="M81.0623 36.2549C81.3237 36.0341 80.8466 36.1898 80.6996 36.2296C80.7511 36.2903 80.8429 36.4325 81.0623 36.2549Z" fill="black"/>
<path d="M103.023 117.507C102.999 117.601 103.297 117.357 103.504 117.181C103.359 117.246 103.083 117.233 103.023 117.507Z" fill="black"/>
<path d="M78.5508 42.8635L78.5061 42.8808C78.5061 42.8808 78.552 42.8766 78.5508 42.8635Z" fill="black"/>
<path d="M78.8841 26.8767C78.6972 26.7695 78.8077 26.7593 78.4452 26.8781C78.6469 27.0036 78.5358 27.0073 78.8841 26.8767Z" fill="black"/>
<path d="M95.5671 108.395C95.5737 108.467 95.5475 108.469 95.6641 108.373L95.5671 108.395Z" fill="black"/>
<path d="M70.5476 32.3938L70.6017 32.3359C70.451 32.3499 70.4825 32.3338 70.5476 32.3938Z" fill="black"/>
<path d="M90.9994 85.9945C91.7219 85.6588 91.3661 85.9211 90.9994 85.9945V85.9945Z" fill="black"/>
<path d="M86.4186 87.5523C86.4729 87.5014 86.4558 87.5291 86.2627 87.5667C86.3017 87.5631 86.3537 87.5583 86.4186 87.5523Z" fill="black"/>
<path d="M72.6428 12.7366L72.6452 12.7628C72.6911 12.7585 72.6964 12.7448 72.6428 12.7366Z" fill="black"/>
<path d="M75.4155 29.4321C75.879 29.625 75.476 29.5903 76.5828 29.4419C76.4461 28.9565 78.6814 28.8935 78.0388 29.3135C78.2024 29.3114 78.4612 28.9925 78.6534 29.1582C78.9812 29.4424 79.4678 29.3187 79.9882 29.6308C80.2164 29.7604 79.8815 30.4598 77.6319 29.7312C77.7893 29.5921 77.4964 29.6127 77.1376 29.8426C77.4994 29.9991 75.5367 30.8101 75.3106 30.9162C74.4385 30.8398 75.3868 31.5972 73.2314 31.7446C73.4188 31.7862 73.5294 31.848 73.0204 32.0131C74.6772 31.8596 74.3413 31.9825 74.8547 31.6531C75.2193 31.4162 74.947 32.0836 75.8605 31.5468C76.6017 29.7874 77.9839 31.0551 78.848 31.2568C76.8172 32.0413 77.3276 31.3977 75.7909 32.2806C77.1762 31.9556 77.7215 32.3244 78.3025 31.8053C78.2114 31.7417 78.1866 31.7571 78.3874 31.732C79.0551 31.1589 78.9205 31.5449 79.5351 31.6714C79.4683 31.6579 80.0586 31.7343 80.3981 31.9322C80.5714 32.0341 80.415 32.4679 79.3018 32.3352C79.1496 32.8146 78.6365 31.9447 77.7231 32.5536C78.5144 32.6769 79.6785 32.5821 79.655 33.3182C79.0397 33.467 79.2458 33.4282 79.4124 33.4586C79.7451 33.5129 79.7929 33.8165 79.0043 33.7914C80.1847 34.2258 81.0149 33.6377 80.638 33.9545C81.0345 34.0619 81.0595 34.4724 80.8944 34.6712C80.2303 34.9293 80.2437 34.5087 79.6628 34.3922C79.2866 34.4336 78.9903 34.2775 78.8307 34.1809C78.0378 34.4641 78.3191 34.176 78.0518 34.6856C76.1999 35.4208 76.1416 35.1445 76.0796 35.183C76.3801 36.0922 76.886 35.1869 77.7348 35.1541C79.3677 34.5309 78.2881 35.0438 79.7537 35.3732C79.7284 35.3821 79.7095 35.3904 79.6841 35.3993C80.0724 35.4878 79.6831 35.5305 80.8182 35.3335C80.6632 36.2063 80.6761 36.4869 79.8012 36.8039C79.8012 36.8039 80.1611 36.8688 80.1682 36.8747C81.5764 36.161 81.8201 37.0231 81.5478 37.3366C80.9474 37.5758 80.8978 37.2527 80.4716 37.1087C80.8826 37.6539 79.5207 37.5245 80.1896 37.6722C79.2044 38.0715 79.4763 37.8235 79.0501 38.669C79.2367 38.632 79.4469 38.5667 79.6906 38.4392C80.2224 38.1672 80.7935 38.1077 81.4703 37.986C81.4609 38.0262 82.2488 38.2546 81.8238 38.7592C81.5711 38.8613 81.414 38.8627 81.2851 38.8157C81.2058 39.0197 81.0754 39.1694 80.8193 39.3045C81.1577 39.5615 80.6515 39.6149 81.7464 39.4086C81.6757 39.8476 81.6431 40.1324 81.5194 40.3536C82.3656 40.1507 82.5026 40.7802 82.278 41.0434C81.438 41.3834 81.5405 40.581 80.7813 40.8741C80.9587 40.9494 81.3818 41.6966 80.7559 41.8725C80.802 41.8748 80.8552 41.883 80.9349 41.8953C80.6942 42.0552 80.8035 42.032 80.5051 41.9941C80.6418 41.8438 80.4679 42.0172 79.8538 41.8251C79.6014 42.0713 79.0645 42.1473 78.572 42.2061C79.0632 42.4161 77.7783 43.0463 78.5809 42.9392C78.4708 42.8118 78.8542 42.4944 78.9215 42.4423C78.7049 42.2265 78.9965 42.1208 79.5785 42.1783C80.5794 41.9479 79.8242 42.4963 80.4304 42.178C80.9615 41.8994 81.5321 41.8334 82.2018 41.7058C82.0048 42.9036 82.1107 42.9855 79.8622 43.6133C80.0672 43.6336 80.3066 43.6704 80.5743 43.7308C81.2668 43.4962 81.7489 43.1828 81.7912 44.4174C81.1939 44.689 80.9173 44.6033 80.6271 44.5122C80.4494 45.2823 80.4919 45.2456 80.3591 45.2972C81.3099 45.1632 82.0268 44.3432 82.095 45.785L82.1357 45.8009C81.7165 46.5803 81.9758 46.5497 80.7648 46.5636C80.1801 46.6178 79.9198 46.4257 80.2733 46.9171C81.1 46.716 81.8634 46.4683 81.5426 47.1075C81.4266 47.341 80.6817 47.3642 80.9219 47.5517L80.8801 47.5948C81.8362 47.4472 82.5454 46.6148 82.6136 48.1288C81.7087 48.5469 81.7967 48.1521 80.4716 48.1373C80.9076 49.165 81.9914 48.062 82.8853 48.4444C81.9933 50.1325 80.421 49.5705 81.0714 50.5784C81.1088 49.9917 82.6364 50.0008 81.6317 49.7663C83.251 49.1378 83.7171 49.4288 83.1259 49.8374C83.1531 49.848 83.1797 49.8522 83.2068 49.8627C82.6281 50.9714 83.3121 50.5738 81.1389 50.6704C81.8695 51.6249 83.0355 50.8419 81.876 51.9061C81.616 51.5763 81.876 51.9061 81.0375 52.1214C81.3952 52.3045 81.0387 52.4883 80.5008 52.6233C80.8821 52.778 81.0849 52.8444 81.2033 52.9907C81.3355 52.9326 81.4766 52.8999 81.6137 52.8937C81.601 52.7573 81.775 52.5839 82.0364 52.4351C81.6028 52.4229 81.8163 52.2523 82.1485 52.3723C82.4053 52.2436 82.7229 52.1356 83.0264 52.0878C82.3085 51.9774 83.6073 51.4966 83.1434 52.0769C85.4823 51.8601 82.5885 53.3014 82.4228 53.1398C82.3744 53.1836 82.7101 53.2705 82.8941 53.7711C84.6664 53.0957 84.9314 53.6215 83.8045 54.1191C83.8069 54.1451 83.8034 54.1782 83.7752 54.2267C84.861 53.5691 85.5773 55.7831 84.4943 56.3291C85.7256 56.1101 84.4089 56.8219 84.0971 57.2046C83.609 57.8069 84.9811 58.6824 83.2754 58.2376C83.1397 58.3288 82.9827 58.4023 82.8044 58.4581C82.9557 58.5358 82.963 58.6138 82.8627 58.7345C83.1593 58.7529 83.3656 58.7862 83.5068 58.8255C83.756 58.7565 84.0814 58.7329 84.3792 58.7643C84.8581 58.6282 84.5675 58.3209 85.1621 58.1609C85.104 58.0287 84.9803 57.8961 84.6883 57.7855C83.2488 57.244 85.9253 55.4363 85.8045 58.3046C86.0619 58.5363 86.2187 59.0263 86.1635 59.9161C85.4563 60.2044 85.5848 60.0352 85.5731 59.7676C85.4861 60.0312 84.8232 59.9485 84.7061 60.1691C84.8644 60.1806 85.0115 60.2129 85.1469 60.2593C86.5952 59.8367 87.635 62.2173 85.9474 62.6031C86.0378 62.6603 86.1041 62.7393 86.1321 62.8284C86.6151 62.7378 87.3025 62.9428 86.6395 63.4957C86.9808 63.7131 86.9593 63.9772 85.6481 64.1118C85.3412 64.2648 85.5024 64.2368 85.2334 64.4452C85.5111 64.4719 85.7044 64.5064 85.8404 64.5593C86.7654 63.8641 88.3871 64.2512 86.2595 65.4051C87.9906 65.5592 87.2455 66.4277 87.4836 66.4515C89.6946 66.6922 83.8809 68.9413 85.9797 68.5371C86.4085 68.1435 90.1322 67.949 87.3824 69.6717C88.2445 69.5001 89.3173 69.8332 88.511 70.537C88.5783 70.4849 89.7752 70.5312 88.3033 71.336C88.4459 71.4604 88.1367 71.3056 86.9476 72.0515C87.4883 71.8048 87.5842 71.9204 87.4941 72.0795C90.2373 71.2747 89.6366 72.9948 88.3937 73.3722C87.2519 74.0612 87.3384 73.2275 86.1794 73.8723C86.7333 73.7685 86.9195 73.8692 87.3046 74.135C87.7057 74.1502 87.8423 73.8558 88.6678 73.3599C89.5058 72.8563 91.1732 73.0294 88.6546 74.2065C90.8708 74.0797 90.8404 74.6001 89.8413 75.2039C90.2273 75.3385 90.1907 75.6498 89.4728 75.8933C89.6067 76.1365 89.5208 76.341 89.2944 76.5848C90.2392 76.3858 90.4382 76.695 90.5032 76.689C90.88 76.6541 91.1022 76.6466 91.5648 77.0428C91.481 77.0571 91.4036 77.0708 91.3268 77.091C91.6098 77.1041 91.4119 77.0897 90.4845 78.1127C91.3161 78.0357 91.4991 77.9597 92.0452 78.4071C91.7233 78.4697 91.7546 78.4537 91.9519 78.4616C90.9353 79.5126 90.8132 79.609 90.8641 79.6633C91.0618 79.8874 91.0799 80.0824 90.9674 80.2829C91.6707 80.447 91.9953 79.9189 92.8176 80.5897C92.7337 80.604 92.657 80.6243 92.5796 80.638C92.862 80.6446 92.1387 81.1834 91.6919 81.7359C92.7032 81.4063 93.1809 81.6111 91.6824 82.7657C93.089 82.4584 91.9477 83.0818 91.7517 83.159C92.2694 83.301 91.8575 83.5226 91.3387 83.7935C91.5709 83.8244 91.688 83.8857 91.7147 83.9618C92.1142 83.7479 92.4746 83.7472 92.7 84.2702C93.7019 83.9087 93.9054 84.1257 93.6007 84.5144C93.9114 84.4725 93.8916 85.3196 92.9778 85.7123C93.0464 85.7453 95.3557 84.7842 93.6624 86.3107C94.5652 86.0829 94.5385 86.3606 94.2975 87.012C93.4026 87.3964 93.5472 87.3306 92.675 87.8177C92.8126 88.4537 92.4535 88.5394 93.3371 88.1036C93.5895 87.5036 93.7483 87.0957 94.8374 86.9685C94.8986 87.2053 94.8718 87.4109 94.7906 87.5954C95.6955 87.5311 94.2764 88.7636 93.835 89.0208C94.4934 88.9139 94.0396 88.471 95.3803 88.3009C95.5653 89.0242 95.7095 88.7422 95.4491 89.4675C94.3163 89.9722 92.6846 90.6084 94.2763 90.3887C95.0573 89.7659 95.8959 89.6226 95.25 90.1477C96.5956 89.7478 95.8597 90.5041 96.2483 90.455C96.6174 91.751 93.786 92.7342 95.1508 92.5422C95.3515 92.4449 95.6477 92.2472 95.8559 92.372C96.9263 92.0435 97.251 91.9413 96.9225 92.9219C95.4847 93.5991 96.2254 93.1765 94.8003 94.4161C94.8586 94.6204 96.3012 93.2874 96.7721 93.7025C97.2431 93.4819 97.4843 93.5382 96.9286 93.9763C97.0212 94.2692 94.2581 96.1307 96.7344 94.7807C97.2973 94.7023 97.7494 95.4795 97.7464 95.8009C99.0084 95.2056 97.1628 96.5037 97.6844 96.8289C97.7956 96.8972 97.7858 97.0029 97.7127 97.1342C98.1088 96.9533 98.3995 96.9788 98.5303 97.4713C98.4502 97.5966 98.1411 97.8678 97.8568 98.1235C97.9974 98.0842 98.1261 98.0592 98.2372 98.0555C99.4615 96.9132 99.1335 98.8177 98.4648 99.5218C98.5493 99.514 98.6273 99.5068 98.6999 99.5132C100.18 98.0195 100.125 100.816 97.8964 100.813C97.7148 101.328 100.143 99.8119 99.2386 100.8C100.253 100.713 98.0062 102.068 97.9578 102.111C97.9728 102.202 98.0296 102.249 98.1099 102.268C98.3324 102.123 98.5231 102.059 98.4814 102.246C98.7247 102.184 99.3969 100.812 99.774 101.556C100.3 101.01 100.747 100.673 100.696 101.681C100.646 102.76 98.9007 102.81 99.9406 102.93C100.127 102.887 100.312 102.837 100.439 102.864C100.558 103.443 99.4515 103.592 100.845 103.357C100.596 103.564 99.8649 104.235 100.327 104.061C100.492 103.856 100.926 103.52 101.083 103.801C101.365 103.735 101.301 103.754 101.153 103.925C101.699 104.936 100.682 105.201 101.098 105.241C101.887 104.414 102.217 105.576 101.707 106.502C103.153 106.623 101.957 106.439 101.885 107.717C101.855 107.746 101.847 107.734 101.877 107.77C102.115 107.44 102.179 107.139 102.801 106.924C103.257 107.741 103.263 107.734 102.845 108.526C104.307 108.607 103.094 108.457 103.061 109.725C102.983 109.804 102.861 109.901 102.707 110.007C102.8 110.804 102.236 110.581 103.024 110.744C104.051 110.013 104.132 109.907 103.568 110.883C104.422 111.191 102.335 112.426 103.123 112.451C104.907 111.198 105.003 110.882 104.07 112.56C104.186 112.609 104.239 112.682 104.204 112.797C104.615 112.851 104.825 113.139 104.623 113.715C104.868 113.744 105.025 113.815 105.019 113.96C106.415 112.9 106.061 113.038 104.789 115.646C105.86 115.677 107.362 115.414 105.201 117.056C102.978 118.736 103.759 116.907 103.409 117.019C102.132 117.386 102.808 116.688 102.483 116.574C102.07 116.428 102.161 116.138 102.48 115.761C102.067 115.688 102.32 114.951 102.09 115.018C101.284 115.23 101.247 115.043 101.255 114.853C99.6146 115.319 100.585 114.332 101.003 113.821C100.383 113.924 100.694 113.679 100.313 113.878C99.6009 114.252 99.4987 113.928 99.647 113.619C99.6688 113.571 99.9383 113.297 100.121 113.011C100.114 112.934 100.151 112.838 100.208 112.741C98.8941 113.132 98.9656 112.771 99.2862 112.342C97.2376 112.722 98.2005 112.436 98.1152 111.939C98.0118 111.248 96.531 112.381 97.4461 110.376C96.2473 110.592 96.9513 110.199 96.9046 109.837C96.8208 109.215 95.4755 110.113 96.1644 108.496C95.9827 107.95 94.8585 108.617 95.3519 107.366C94.7919 107.405 94.6382 107.301 95.3031 106.84C94.8696 106.9 94.9075 106.955 94.9927 106.672C94.1239 106.772 94.7388 106.407 94.7087 106.082C94.6864 105.842 93.1412 105.644 93.9362 104.889C94.4116 103.797 94.5653 104.182 93.877 103.826C93.1253 103.988 92.7056 103.843 93.622 103.267C93.0866 103.146 93.8152 102.947 92.8307 103.072C92.9708 102.462 93.0777 102.767 92.6692 102.602C92.1714 102.392 92.3766 102.131 92.8316 101.879C92.7157 101.831 92.7156 101.759 92.7496 101.631C92.5213 101.501 92.782 101.556 92.8458 101.255C92.2171 101.471 91.0935 101.509 92.2029 100.823C92.1085 100.865 92.2241 100.769 92.302 100.761C92.7871 100.481 92.7389 100.596 92.2647 100.359C91.6024 100.636 90.6227 100.177 92.1675 99.5224C90.8847 99.3268 91.9595 99.4696 90.9899 99.0483C90.3822 98.7836 90.8176 98.4614 91.4988 98.1755C91.4094 98.0593 91.4374 98.2205 89.8227 97.0595C90.6141 96.6192 89.9951 97.0108 90.0262 96.5689C89.683 96.6138 89.2324 96.3476 89.5261 96.0517C89.0465 95.7554 88.8673 95.6606 89.2303 95.1224C88.7777 94.7646 88.6811 94.9243 89.6313 94.4299C88.3689 94.1014 88.3802 94.1527 88.8035 93.9824C87.9774 93.4823 87.9435 93.4003 88.3136 92.868C88.1994 92.7671 88.1709 92.6715 88.2144 92.5757C87.4071 92.0674 87.3804 91.9912 87.7746 91.4369C87.6428 91.3574 87.4629 91.1841 87.0748 90.8859C87.1439 90.8533 87.2065 90.8213 87.2755 90.7886C87.1846 90.7971 87.2954 90.6492 87.3496 90.5983C86.7639 90.4298 87.2212 90.4856 87.8349 90.1077C86.8589 90.3947 87.0578 89.5703 85.762 89.448C86.166 88.7159 86.4063 88.3398 86.5241 88.1257C85.5542 87.8421 85.8911 87.9419 86.505 87.636C86.4368 87.5375 86.457 87.6142 86.9929 87.3155C87.4796 86.91 87.5128 86.6318 87.6314 86.5683C87.2987 86.514 86.9589 86.8076 86.3814 86.9398C86.5136 87.1634 85.1679 87.2095 84.9032 87.1816C85.1111 86.8084 85.8671 85.703 85.7297 85.493C85.5886 85.5978 85.4146 85.6992 85.1766 85.7474C84.4248 86.1906 83.9419 86.0715 83.9708 85.3939C85.0403 84.8426 84.8249 84.9936 84.9787 84.7435C83.7653 84.7314 84.2382 84.6024 85.2298 84.1304C85.068 83.7981 84.9012 84.0495 85.6319 83.6607C85.0225 83.8024 84.9283 83.6341 85.2073 83.392C84.9043 83.4463 84.6432 83.4575 84.4311 83.4312C83.1606 84.2174 82.9126 83.2378 83.3694 83.0054C83.6769 82.5051 83.8759 82.1787 84.0014 81.977C83.1541 82.5208 82.6069 82.4142 82.6576 81.6887C83.9862 81.0348 83.5916 81.3728 84.0167 81.294C83.969 81.3443 84.0056 81.3148 83.8945 81.3185C84.1309 81.3949 84.0867 81.4121 84.0167 81.294C83.9572 81.3585 84.3415 81.1919 84.414 81.1262C83.4266 81.2898 82.6592 80.9284 83.6223 80.7147C83.3423 80.7341 83.0186 80.7051 82.6214 80.5912C83.0865 80.3777 83.4884 80.1897 83.8532 80.0249C83.7055 79.9861 83.7395 79.8585 83.9159 79.7111C82.8434 79.876 82.8985 79.6218 82.8805 79.499C82.8107 79.0992 84.0299 79.3859 85.1773 78.8274C85.3765 78.5731 84.3473 79.1337 83.558 78.7482C85.4449 77.4724 84.7164 78.3787 83.675 77.7479C82.2968 78.0787 83.8235 77.5834 83.2425 77.3948C82.6886 77.4986 82.6138 77.3286 82.8875 77.1C82.2473 77.1921 81.7699 77.1315 81.6305 76.8299C80.678 76.6626 81.2306 76.4739 82.1148 76.0446C84.1482 75.0763 79.1626 76.5737 82.3536 74.8035C82.2531 74.7801 82.1585 74.7496 82.0758 74.7048C82.3047 74.5591 82.1395 74.6858 82.0393 74.4526C81.3791 74.6121 80.7719 74.6356 80.4021 74.3226C80.5929 73.9772 82.6842 73.3509 81.5885 73.4066C80.7072 73.7963 80.1686 73.571 80.4933 73.115C79.4953 72.9519 80.0213 72.759 80.9515 72.332C81.3558 72.098 77.952 72.4921 80.5194 71.4874C81.2487 71.0136 81.2124 71.1873 81.1151 70.9866C80.2673 71.596 78.9754 71.3029 80.1501 70.4732C79.5731 70.5398 78.396 70.3541 79.4485 69.9026C78.1244 69.7567 79.2482 69.5083 79.3713 69.3527C79.034 69.3185 78.974 69.1667 79.9206 68.6334C79.7569 68.5634 79.517 68.5201 79.2782 68.4898C79.1174 68.7341 78.7102 68.6539 78.9468 68.4485C78.5426 68.4008 78.2436 68.3564 78.4506 68.1865C77.846 68.0263 77.8439 67.7906 78.9075 67.6002C78.8263 67.5029 79.0316 67.3135 79.2687 67.1146C78.5301 67.3469 78.1215 67.1096 78.4309 66.7008C77.1965 66.8152 78.4674 65.9635 78.5277 65.9775C78.8263 65.8057 75.7561 66.051 78.6625 65.028C78.1078 65.0532 78.0489 65.1242 78.7855 64.4465C77.7675 64.7047 76.1539 64.1924 77.5292 63.9011C77.7734 63.7081 77.9493 63.6263 78.1305 63.5308C77.3586 63.6155 77.9465 63.3841 77.2143 63.5437C77.3747 62.7294 77.9961 62.9994 78.2763 62.7703C76.1523 63.3276 75.9877 62.3992 80.7201 61.0694C80.7523 61.204 80.8139 61.3031 80.8802 61.3822C82.0824 61.4149 81.5281 61.6563 82.1143 61.4054C81.6294 61.4765 81.4616 61.4331 81.7469 61.1183C81.1467 61.0757 81.6742 60.7581 82.0967 60.7911C82.2783 60.6301 82.5167 60.4441 82.8157 60.2067C82.5581 60.1847 82.626 60.1391 82.3253 60.5012C82.0571 60.5064 81.35 60.5129 81.1618 60.6025C81.4879 60.6574 79.8001 61.6068 79.1589 61.1223C78.964 61.1404 78.7768 61.1709 78.6019 61.1936C78.3696 62.434 74.6783 61.5639 76.7222 61.204C77.4894 61.0674 77.7627 60.9765 76.5793 61.2173C76.655 60.8564 77.0943 60.5995 77.897 60.4464C77.897 60.4464 77.8988 60.4659 77.9065 60.4782C78.5713 60.2266 79.0981 59.8305 79.7437 59.7969C80.4204 59.6031 80.3217 59.5992 80.3739 59.7385C80.9362 59.6536 80.6645 59.6918 81.4305 59.2604C79.4341 59.7797 80.6118 58.9104 79.868 59.2283C79.8012 59.5687 78.0135 60.1473 77.6937 60.0196C75.1329 60.7419 76.299 59.7492 76.2093 59.7706C76.285 59.4097 76.7247 59.1571 77.5283 59.0127C77.6007 59.2288 77.9716 58.8471 79.3124 58.7491C79.4498 58.6053 79.7644 58.4647 80.079 58.3241C78.0208 58.6001 78.2702 59.3109 76.3283 58.58C76.5591 58.4538 76.8806 57.8932 77.6296 57.5617C77.4476 57.5065 77.5977 57.4991 77.2441 57.6433C74.9744 57.6178 75.4296 57.51 76.4181 57.2874C75.5138 57.0042 75.9473 57.2262 78.2339 56.1624C77.7697 56.2447 76.7575 56.4237 76.5852 56.1906C74.4909 56.1488 75.2203 56.0288 76.3245 55.7823C76.1371 55.3868 76.7328 55.8035 75.8697 54.835C75.8188 54.7808 75.7998 54.717 75.7944 54.6585C75.6059 54.6039 75.4031 54.5375 75.1584 54.4422C76.4822 53.7363 76.2618 54.3989 75.7865 53.5125C74.1571 53.4669 74.2415 53.387 74.8769 53.2429C73.8692 52.9759 75.6129 51.923 74.6815 51.3475C74.7782 51.2599 74.8951 51.177 75.0131 51.1071C74.8142 50.87 75.0297 50.791 74.659 50.963C73.1004 50.8323 75.0504 49.1771 74.3274 49.5062C72.6819 49.3573 74.8006 48.178 73.8318 47.5536C74.2011 47.2245 74.7536 47.0356 75.2961 46.8084C73.8256 46.7088 74.8875 46.2172 73.5853 46.8031C71.9257 46.6424 74.0993 45.4908 73.1022 44.8428C73.2897 44.6747 72.9063 44.6381 73.697 44.473C74.9843 43.8688 74.568 44.2547 73.5771 44.1696C72.9775 44.1335 72.6521 43.8753 73.0483 43.4126C73.7653 43.3724 74.2927 43.2646 74.7066 43.1345C73.5556 43.3722 73.2806 43.1618 73.4922 42.8997C73.2801 42.8735 73.108 42.7846 73.0387 42.673C72.6179 42.5875 72.3942 42.3658 72.7485 41.9463C74.5218 41.8475 74.5809 41.5669 74.936 41.226C73.5179 41.4098 72.3812 41.6593 72.538 41.1599C72.6916 41.1194 72.7435 41.1146 72.5244 41.1546C72.5781 41.0972 72.6388 41.0457 72.7002 41.0007C72.1731 40.8988 72.2553 40.6553 73.8119 40.6224C73.5599 40.4491 74.3556 40.4082 73.9365 40.6239C74.7577 40.6461 75.4636 40.9805 75.5098 40.3471C74.3258 40.5813 74.585 40.1969 73.462 40.5238C72.9064 40.6801 72.2607 40.3599 72.6594 39.9953C72.0462 39.9538 71.6193 39.7313 72.0638 39.2248C72.1872 39.2134 73.0219 39.1688 73.0341 39.089C72.2516 39.2009 71.4734 38.4408 73.7831 38.0498C74.8989 38.9883 74.6938 38.2603 75.9015 38.3515C75.8774 38.4454 76.5193 38.3007 76.6663 38.2609C76.3626 38.2366 77.2268 37.8748 76.9774 38.1534C77.2862 38.02 77.3693 37.927 77.5357 37.8133C76.7705 38.0415 76.4425 37.9671 77.176 37.5387C75.8711 37.8824 73.7808 38.3777 73.0923 37.8779C72.6401 37.7364 72.8766 37.8848 74.3405 37.2052C74.5666 37.099 74.9186 37.0795 75.1778 36.9769C74.8587 36.9278 74.7605 36.8583 74.8111 36.7684C73.7126 36.9357 73.7244 36.9215 73.7138 36.9487C73.5574 37.3826 72.042 37.5756 71.846 37.0171C71.882 36.981 71.6607 36.7852 72.3754 36.3651C71.6773 36.4691 70.9803 35.8785 72.4311 35.4819C72.1077 35.3153 72.4419 34.8911 73.1424 34.8131C73.4347 34.786 74.1936 34.6304 74.4094 34.4138C74.3355 34.3944 74.2669 34.3615 74.2302 34.3191C72.7114 34.6171 73.4834 34.2507 72.7074 34.3619C72.1528 34.4592 71.7873 34.1916 72.1625 33.9275C72.4888 33.7007 72.5073 33.83 71.944 33.6201C73.8602 32.8724 72.3503 33.5496 72.0867 32.827C71.4611 32.7933 71.3732 32.1986 72.887 32.0583C72.5426 32.0181 72.6211 32.0174 72.9598 31.7829C72.2397 31.7906 71.908 31.6052 71.826 31.3572C73.0963 30.7808 73.3688 30.8931 74.1071 30.5166C73.8891 30.4975 73.7355 30.4659 73.6344 30.436C71.987 31.185 70.8136 32.0997 71.0987 30.6513C70.501 30.7067 69.9758 30.6964 70.1578 30.3978C70.4659 29.904 71.4239 30.1298 71.9734 30.1902C72.3023 29.4258 72.6653 29.9492 72.9943 29.6107C73.0954 29.6406 73.112 29.6784 73.2399 29.5027C73.3094 29.4045 73.8109 29.3712 74.0494 29.2573C73.4046 28.7339 77.0119 27.9211 77.2626 28.717C76.7847 29.0038 76.5001 29.4692 75.4061 29.4723L75.4155 29.4321ZM84.5264 62.4727C84.1714 62.178 84.4993 62.5342 82.4222 62.8185C82.6608 63.1306 83.8961 63.1668 84.1357 62.7121C84.1858 62.6157 84.3357 62.5362 84.527 62.4792L84.5264 62.4727ZM81.5917 68.5637C82.3435 68.4023 81.6461 68.9387 83.5562 68.054C83.9316 67.8619 84.6402 67.7307 84.7907 67.6578C83.8178 67.3417 84.2453 67.5707 81.5852 68.5643L81.5917 68.5637ZM84.334 69.9413C84.2526 69.9816 84.2708 69.9668 84.3925 69.9358L84.334 69.9413ZM83.9356 72.1472C84.4361 71.8911 84.4303 71.9703 84.4928 71.8662C83.9467 72.0544 83.9957 72.0892 83.9356 72.1472ZM84.3993 71.4227C84.8486 71.322 85.2678 71.1784 85.6462 71.0188C84.9638 71.01 85.1223 71.0935 84.3993 71.4227ZM82.5916 63.7267C82.2152 63.6961 82.525 63.5036 81.9803 63.849C82.1641 63.8516 82.3767 63.8122 82.5916 63.7267ZM79.4469 63.9461C79.431 63.9869 79.4168 63.9752 79.631 63.8832C79.5673 63.9022 79.5106 63.9271 79.4469 63.9461ZM82.0549 64.5825C83.426 63.8919 83.4029 64.2085 83.8241 63.8746C82.5716 63.7941 82.7188 64.1802 81.5078 64.5481C81.6845 64.5448 81.8428 64.5563 82.0484 64.5831L82.0549 64.5825ZM82.4104 59.5104C82.5133 59.5598 82.4638 59.5906 82.6667 59.4473C82.5705 59.4693 82.4872 59.4901 82.4104 59.5104ZM80.8791 66.4608C80.8257 66.3085 80.8513 66.4437 82.4961 65.5246C82.6217 65.395 82.0557 65.7226 81.3193 65.8368C80.8864 65.9031 81.3027 65.799 80.4479 66.1207C80.0684 66.6932 79.7471 66.6902 80.8791 66.4608ZM81.9413 70.1434C81.8895 69.9385 85.4096 68.5375 81.9409 69.9271C81.8001 70.1761 81.7411 70.175 81.9413 70.1434ZM83.3875 72.8795C83.1682 72.7753 83.2558 72.5902 83.5137 72.4025C83.2179 72.5347 82.8731 72.6323 82.6052 72.7816C83.5905 73.09 84.7965 72.88 83.3875 72.8795ZM95.1029 100.862C95.8151 100.698 95.7247 100.713 95.8775 100.594C95.8987 100.54 95.3415 99.831 95.1029 100.862ZM85.0746 82.5263C85.1566 82.4924 85.2316 82.4527 85.3136 82.4189C85.2245 82.4468 85.1489 82.48 85.0746 82.5263ZM91.8122 93.0024L91.9001 92.9615C91.7991 92.9315 91.8433 92.9143 91.8122 93.0024ZM93.7692 91.6349C93.6112 91.7675 93.3698 91.9209 93.0511 92.0881C93.1415 92.0731 93.2265 92.0718 93.2478 92.0895C93.3401 92.1661 93.3065 92.1562 94.4514 91.4996C94.1172 91.642 93.9377 91.6848 93.7692 91.6349ZM93.1945 91.3016C92.7332 90.9905 92.9512 91.0095 92.5627 91.4846C92.8042 91.4032 93.015 91.3444 93.1945 91.3016ZM92.3842 89.7712C92.2175 89.6687 92.1063 89.6004 91.9697 89.541C91.245 89.9227 91.2294 89.8258 91.4168 89.8674C92.4836 89.4998 92.2029 89.7945 92.3848 89.7777L92.3842 89.7712ZM90.2225 87.6584C90.3023 87.6707 90.4075 87.674 90.5197 87.6833C91.7725 87.2723 91.1986 87.7252 91.6283 87.5543C91.523 87.4788 91.5848 87.3683 90.2225 87.6584ZM92.2368 85.5648C91.9285 85.6327 91.8241 85.354 91.3013 85.3697C90.5026 86.0138 89.7641 85.9644 90.0307 86.0838C90.5011 85.8567 90.6424 85.896 90.8937 86.0628C90.9929 86.0012 90.932 85.9806 91.6172 85.9499C92.2871 85.6126 92.1991 85.6535 92.2433 85.5642L92.2368 85.5648ZM84.1933 80.5831C84.5683 80.5287 84.9375 80.4813 85.3176 80.3412C85.0037 80.2065 84.6839 80.4328 84.1933 80.5831ZM95.416 105.866C95.416 105.866 95.5015 105.799 95.5192 105.778C95.3982 105.815 95.4301 105.806 95.416 105.866ZM96.4668 107.446C96.745 107.125 96.7615 107.091 96.2321 107.389C96.3261 107.413 96.4 107.433 96.4668 107.446ZM97.5982 109.189C97.7587 109.082 97.7345 109.104 97.5738 109.139C97.5757 109.158 97.5899 109.17 97.5982 109.189ZM97.7387 109.504C97.5929 109.557 97.6301 109.533 97.6166 109.6C97.7624 109.547 97.7253 109.57 97.7387 109.504ZM98.6738 110.826C98.4408 110.644 98.7571 110.451 98.1357 110.817C98.6031 110.911 98.5194 110.998 98.6738 110.826ZM100.602 107.023C100.61 107.114 100.577 107.104 100.731 107.071C100.718 106.934 100.751 106.938 100.602 107.023ZM96.156 103.104C96.1497 103.177 96.119 103.199 96.8186 102.971C96.7265 102.966 96.5133 102.999 96.156 103.104ZM94.4605 95.6992C93.9029 96.0458 94.002 95.9841 94.1606 96.1398C94.6362 95.8271 94.7295 95.7726 94.4605 95.6992ZM92.8092 88.9127C92.7763 88.9812 93.1928 89.0213 93.259 89.0282C93.1496 88.9794 93.0131 88.92 92.8092 88.9127ZM89.9016 81.8626L89.8485 81.9265C89.9372 81.9641 89.9189 81.979 89.9016 81.8626ZM86.5336 72.1095C86.3689 72.1707 86.3618 72.1647 86.568 72.198C86.5467 72.1803 86.5378 72.155 86.5336 72.1095ZM83.9714 67.0195C84.0252 67.0342 84.2681 67.1099 84.7022 67.0566C84.522 67.0208 84.2774 66.9977 83.9714 67.0195ZM84.1402 64.8807C83.3689 65.044 83.6872 64.9424 83.4979 65.163C83.2421 65.1605 83.2403 65.141 83.2388 65.2657C83.7714 65.1442 84.3522 64.8349 84.1467 64.8801L84.1402 64.8807ZM85.314 61.2137C84.6698 62.0401 85.1933 61.4673 86.2033 62.0421C86.2054 61.8519 86.1624 61.6003 85.6747 61.4292C85.3153 61.2987 85.37 61.1822 85.314 61.2137ZM85.1681 59.2155C85.2005 59.4942 85.4336 59.394 85.567 59.6306C85.5342 59.4895 85.4353 59.3414 85.1681 59.2155ZM74.2345 34.0828C74.2345 34.0828 74.2392 34.0627 74.2139 34.0716L74.2345 34.0828ZM76.7951 38.9435C76.867 39.1531 76.9493 39.2635 77.0456 39.3135C77.0071 39.2516 77.1216 39.1427 77.2774 39.0562C78.2063 38.5441 77.3104 38.7057 78.0369 38.2714C77.7133 38.3866 77.4113 38.5915 76.8022 38.9494L76.7951 38.9435ZM74.3135 39.6716C74.3555 39.7005 74.3573 39.72 74.7965 39.5089C75.1607 39.3375 75.8466 39.3853 75.9646 38.9616C75.4608 39.041 74.9824 39.1116 74.5047 39.1886C74.2604 39.3816 74.641 39.4577 74.3194 39.6645L74.3135 39.6716ZM76.5867 41.0074C76.5333 41.209 76.4559 41.2227 76.492 41.2587C77.4665 41.0963 77.265 41.3967 77.2157 40.936C77.0741 40.6805 77.5079 40.483 77.9432 40.4426C78.4305 40.3975 77.9629 40.2311 78.9966 40.1418C78.5056 40.0759 79.074 39.8463 77.4893 40.2815C76.3088 41.1904 75.7424 40.9481 76.5861 41.0009L76.5867 41.0074ZM76.7349 41.9701C76.55 41.9545 76.5681 41.8675 76.5151 41.9314C76.716 41.9783 76.5932 41.9963 76.7349 41.9701ZM77.6784 48.6846C78.2429 48.9074 78.1159 48.8798 78.3644 48.8044C78.6508 48.7123 77.7161 48.6679 77.6784 48.6846ZM81.6855 56.4256C82.1413 56.6062 82.0345 56.7275 82.2768 56.4429C82.0608 56.2336 82.0092 56.1008 81.6855 56.4256ZM79.6062 57.1819C79.7395 57.4186 79.8714 57.4981 80.5219 57.2346C80.1751 57.1685 79.8726 57.1572 79.6062 57.1819ZM79.965 55.3269C80.5623 54.9832 80.5541 55.0364 80.4088 55.0237C79.2264 55.2053 79.1724 55.0465 79.965 55.3269ZM74.6145 45.5347C74.6311 45.5725 74.607 45.5945 75.048 45.475C74.8927 45.4959 74.7504 45.5156 74.6145 45.5347ZM76.4607 46.9298C77.4077 45.977 79.4291 46.2222 77.5396 46.0566C77.1076 46.6274 76.6239 46.3576 76.4607 46.9298ZM78.3567 50.771C78.2945 51.0192 78.2286 51.1564 78.2919 51.2029C78.5265 50.906 79.5649 50.8687 78.3567 50.771ZM77.4782 43.4149C77.097 43.614 77.052 43.5526 77.7573 43.5266C77.6745 43.4818 77.5793 43.4448 77.4782 43.4149ZM75.9719 50.1402C76.1396 50.1115 76.5128 50.0376 76.6433 49.96C76.8693 49.5 76.9411 49.7096 75.7238 49.7962C75.8828 50.1681 75.5845 50.2023 75.9719 50.1402ZM75.6315 53.0419C75.7661 53.0098 75.7543 53.0239 75.7312 52.9868C75.6999 53.0028 75.6628 53.0259 75.6315 53.0419ZM78.1111 55.1908C78.1984 55.1434 78.4515 54.9757 78.229 55.0488C78.1877 55.0985 78.1464 55.1482 78.1111 55.1908ZM80.7834 58.7831C80.8856 58.754 80.8744 58.7746 80.8259 58.7464C80.7108 58.7767 80.7101 58.7702 80.7834 58.7831ZM84.2415 56.359C84.2013 56.3496 84.2007 56.3431 84.222 56.3608L84.2415 56.359ZM82.9428 53.8714C83.0588 54.3455 82.9399 54.2648 82.6563 54.2452C82.5278 54.4144 82.3072 54.579 82.0156 54.6847C83.5548 54.8893 83.3519 55.0326 83.106 55.2782C83.1487 55.3857 83.1081 55.514 83.0215 55.64C83.2001 55.7282 83.3693 55.8567 83.4954 56.0153C84.2415 55.7234 84.7066 55.7917 84.2267 55.3513C82.6364 56.3637 83.3025 55.2076 83.3053 55.0959C84.0144 54.8992 83.0799 54.9268 83.6094 54.347C83.1573 54.2775 83.3101 54.1584 83.5965 54.0663C83.2803 53.9777 83.071 53.9119 82.9428 53.8714ZM80.74 53.9314C80.988 53.8494 81.2111 53.7829 81.4095 53.7317C81.2213 53.5395 81.1556 53.4669 80.74 53.9314ZM79.6781 44.3839C79.8983 44.6388 79.7162 44.5115 80.3363 44.4147C80.1294 44.3749 80.1111 44.3897 79.6781 44.3839ZM75.2013 35.2513C74.9146 35.481 73.855 35.5727 73.4337 35.5528C73.8496 35.8681 73.5118 35.9714 74.0649 35.717C74.4043 35.5611 75.03 35.5948 75.2013 35.2513ZM76.7508 33.2335C76.4003 33.4822 76.5557 33.4613 75.9865 33.3306C75.4787 33.4366 75.0158 33.6041 74.5358 33.7272C74.5833 33.8866 74.3754 33.9058 74.6045 33.8322C75.444 33.5578 75.5939 33.4784 75.9496 33.4978C76.1735 33.5098 76.3397 33.6058 76.2904 33.7808C76.3553 33.7748 78.2173 33.4318 78.2817 33.4193C77.8344 33.3297 77.3976 33.2129 76.7443 33.2341L76.7508 33.2335ZM75.3877 29.415C75.4276 29.2802 75.4973 29.2541 75.2777 29.3597C75.299 29.3774 75.3398 29.3932 75.3877 29.415Z" fill="black"/>
<path d="M76.0848 13.8921C76.372 13.9507 76.6375 14.0571 76.8032 14.2187C75.4791 14.4266 75.6013 14.4022 75.5046 14.4898C76.0225 14.7039 75.6129 14.5977 74.5262 15.1047C75.8023 15.1568 73.9744 15.3721 73.2642 15.9819C73.0878 16.1293 72.7448 16.2462 72.3953 16.3638C72.2886 16.4851 72.1736 16.5875 72.0509 16.6775C73.7546 16.6769 73.1212 16.9846 74.1397 16.6609C74.3115 16.6056 74.4641 16.6963 73.4296 16.2811C73.4945 16.275 75.857 16.0299 75.9125 15.992C73.8636 15.8739 74.8286 15.6796 74.9317 15.2375C75.0049 15.1783 74.8917 15.3002 75.3448 15.3107C77.6469 14.9793 76.8638 16.0741 76.6022 16.1508C77.3056 16.7409 77.4489 17.5795 76.0001 17.432C74.8737 17.8641 75.2462 17.7115 74.2635 18.2089C73.3886 18.1721 73.057 18.0587 72.4922 18.3993C72.1629 18.5937 71.9071 18.5912 71.7638 18.3882C70.1345 19.3321 71.0422 18.8745 70.4235 19.4102C69.7474 19.2566 69.1022 19.8603 68.6111 19.0867C67.6029 18.8853 70.0298 18.2738 69.5667 18.297C70.0254 18.1562 70.0087 18.4002 70.6862 18.0032C69.7054 17.8844 70.1058 17.4672 70.8185 17.3094C70.3382 17.2884 70.3194 17.0149 70.8466 16.835C70.9133 16.7764 70.8654 16.7546 70.458 16.5303C69.1108 16.3471 70.5148 15.588 71.6051 15.8277C71.7588 15.8593 71.9035 15.8655 72.04 15.8529C72.1231 15.4061 71.4025 16.1871 71.1739 15.4875C70.357 15.5829 71.2709 15.5441 68.8605 16.4752C67.389 16.1529 67.3397 16.3278 68.9121 15.6185C68.9044 15.6061 68.8968 15.5938 68.8956 15.5808C68.4976 15.6701 68.3261 15.5877 68.8925 15.5483C68.9129 15.3433 69.3531 15.427 69.7986 15.1432C70.2183 15.2878 69.885 15.2269 71.243 15.1731C71.4676 14.9099 70.9722 15.0082 71.4812 14.9152C71.5355 14.8643 71.4622 14.8514 71.4992 14.7562C71.5963 14.531 72.6159 14.1481 73.0735 14.3482C73.5174 14.5429 74.6924 13.8574 75.4373 13.8342C75.7635 13.2536 77.3219 13.594 76.0777 13.8862L76.0848 13.8921ZM72.5892 15.1336C72.973 15.0325 72.8337 15.0846 72.7142 14.9974C72.6901 15.0193 72.5438 15.1378 72.5892 15.1336ZM72.8194 15.6365C73.2863 15.4425 73.3855 15.4529 72.8798 15.4408C72.8664 15.5076 72.8399 15.5756 72.8194 15.6365ZM74.7573 16.8198C72.9985 17.4285 74.0328 17.3457 72.5137 17.8535C72.5191 17.9119 72.4785 17.9681 72.4059 18.0338C73.8373 17.7111 74.6506 17.295 75.2612 17.1663C75.1967 17.1067 75.1511 17.0389 75.1238 16.9562C74.9678 16.8986 74.8525 16.8569 74.7573 16.8198ZM72.1784 16.9934C71.8691 17.1203 71.5951 17.2046 71.3643 17.2588C71.9343 17.2584 72.0529 17.4768 72.8244 17.1759C72.672 17.1573 72.4829 17.0962 72.1784 16.9934Z" fill="black"/>
<path d="M91.0018 99.6765C91.1792 99.7518 91.0848 99.7934 91.3857 99.5754C91.1882 99.4954 91.2838 99.4669 91.0018 99.6765Z" fill="black"/>
<path d="M80.8252 43.413C81.1235 43.4508 81.0143 43.4741 81.255 43.3142C80.8781 43.277 80.9737 43.2485 80.8252 43.413Z" fill="black"/>
<path d="M101.695 115.487C101.671 115.581 101.977 115.343 102.184 115.173C102.038 115.233 101.755 115.213 101.695 115.487Z" fill="black"/>
<path d="M78.5052 24.5658C78.3183 24.4586 78.4288 24.4484 78.0663 24.5672C78.2679 24.6927 78.1569 24.6964 78.5052 24.5658Z" fill="black"/>
<path d="M94.418 106.254C94.4253 106.332 94.3985 106.328 94.5156 106.238L94.4174 106.247L94.418 106.254Z" fill="black"/>
<path d="M79.6266 34.5797C79.7772 34.5658 79.7391 34.5825 79.6741 34.5224L79.6266 34.5797Z" fill="black"/>
<path d="M70.1452 30.0262L70.1993 29.9684C70.0487 29.9823 70.0802 29.9662 70.1452 30.0262Z" fill="black"/>
<path d="M69.7746 14.3398L69.6435 14.3388C69.7411 14.4019 69.7299 14.4226 69.7746 14.3398Z" fill="black"/>
<path d="M71.4846 11.3174C71.4029 11.2135 71.4431 11.2229 71.3037 11.2751C71.3546 11.3294 71.2956 11.3283 71.4846 11.3174Z" fill="black"/>
<path d="M72.467 11.2721L72.4695 11.2983C72.5153 11.2941 72.5206 11.2803 72.467 11.2721Z" fill="black"/>
<path d="M72.289 10.6795C72.2634 10.8981 71.9413 11.1704 72.5222 11.287C72.2007 11.2119 73.366 11.4119 74.4523 11.0425C74.9099 10.8887 75.4633 10.4966 74.8448 10.5408C74.9293 10.533 75.0203 10.5246 75.1118 10.5227C75.1135 10.4701 75.1518 10.3879 75.1051 10.3791C73.5746 10.1278 74.2797 10.3114 73.199 10.5296C72.9032 10.5898 72.5486 10.5113 72.2825 10.6801L72.289 10.6795Z" fill="black"/>
<path d="M77.3947 28.279C79.6456 29.0205 79.9805 28.321 79.7522 28.1915C79.3637 27.9588 79.0039 27.9659 78.7072 27.8755C78.807 27.8204 78.8594 27.75 78.8534 27.6851C78.8293 27.4252 78.0037 27.5672 77.3859 27.6179C77.8615 28.0129 78.0512 27.7266 77.3947 28.279Z" fill="black"/>
<path d="M79.4519 30.3555C79.4278 30.0956 78.6028 30.2442 77.9791 30.302C78.7369 30.9133 79.473 30.5829 79.4519 30.3555Z" fill="black"/>
<path d="M75.2042 12.5913C75.7888 12.4651 76.5843 12.352 76.3583 12.1764C76.0975 11.9778 75.2133 12.0531 75.2042 12.5913Z" fill="black"/>
<path d="M78.1652 64.5174C78.1241 64.5014 78.1312 64.5073 78.1652 64.5174V64.5174Z" fill="black"/>
<path d="M78.2645 64.6132C78.2798 64.5659 78.2112 64.533 78.1633 64.5112C77.374 64.8334 78.1276 65.0452 78.2645 64.6132Z" fill="black"/>
<path d="M79.3376 35.0449C79.4535 35.0931 79.6255 35.11 79.8459 35.1551C80.2939 34.6155 79.1124 34.9478 79.3376 35.0449Z" fill="black"/>
<path d="M90.357 98.3079C90.5344 98.3832 90.4399 98.4248 90.7414 98.2133C90.5434 98.1268 90.6397 98.1048 90.357 98.3079Z" fill="black"/>
<path d="M80.3707 32.5248C80.6326 32.3105 80.155 32.4597 80.0079 32.4995C80.0594 32.5603 80.1519 32.709 80.3707 32.5248Z" fill="black"/>
<path d="M72.09 9.87881C71.7034 9.73772 71.8541 9.73685 71.4911 9.92121C71.9007 10.0274 71.7707 10.0395 72.09 9.87881Z" fill="black"/>
<path d="M82.6917 47.6431C83.0312 47.5593 82.6417 47.4577 82.6549 47.5286C82.6585 47.5676 82.6816 47.6048 82.6917 47.6431Z" fill="black"/>
<path d="M93.7305 104.902C93.7372 104.974 93.7038 104.971 93.8281 104.886L93.7299 104.896L93.7305 104.902Z" fill="black"/>
<path d="M71.5702 35.5161C71.6778 35.5455 71.5969 35.5923 71.9239 35.4441C71.55 35.4394 71.6486 35.4433 71.5702 35.5161Z" fill="black"/>
<path d="M69.5629 18.2977C68.7153 18.3435 69.028 18.4652 69.5629 18.2977V18.2977Z" fill="black"/>
<path d="M85.0515 83.8983C85.1058 83.8474 85.0887 83.8752 84.895 83.9063C84.934 83.9026 84.9859 83.8978 85.0515 83.8983Z" fill="black"/>
<path d="M72.0283 8.56717C71.5493 8.63122 67.1001 8.42108 68.1309 9.07912C68.6253 9.3937 71.5989 8.24652 71.0793 9.42833C70.586 9.40852 71.0585 9.34506 69.1108 9.68286C70.0186 10.2147 70.0008 10.1639 69.8597 10.2687C68.9536 10.9556 71.8352 10.5837 72.0277 8.56066L72.0283 8.56717Z" fill="black"/>
<path d="M72.0295 8.54102L72.032 8.56724C72.0778 8.56299 72.0837 8.55581 72.0295 8.54102Z" fill="black"/>
<path d="M77.1253 40.6372C77.1711 40.6329 77.2104 40.6294 77.2426 40.6198C77.2502 40.5596 77.2359 40.5477 77.1253 40.6372Z" fill="black"/>
<path d="M72.7832 7.80945C72.4867 7.86314 72.1315 7.77816 71.8583 7.94109C71.8327 8.15971 71.5035 8.4261 72.085 8.54913C71.7635 8.47408 72.9229 8.68112 74.0175 8.33065C74.4757 8.18333 75.0433 7.80311 74.4178 7.84144C74.5023 7.83361 74.5938 7.83168 74.6854 7.82975C74.6936 7.77657 74.7253 7.69493 74.6786 7.68615C73.1541 7.42774 73.8585 7.60492 72.776 7.80355L72.7832 7.80945Z" fill="black"/>
<path d="M74.7561 11.7483C75.4332 11.8428 75.292 11.8035 75.281 11.9683C75.1836 11.9774 75.0991 11.9852 75.014 11.9865C75.6319 11.9358 75.079 12.3343 74.6215 12.4881C74.1645 12.6484 75.2621 12.6122 75.9814 12.5259C77.6583 13.3665 74.1912 13.7141 74.4361 12.5381C73.6124 12.7717 71.9277 13.4718 72.5306 13.6846C72.3494 13.78 72.3134 13.816 72.2408 13.8096C71.4446 14.9057 69.7872 15.0528 70.4957 14.4957C70.6361 14.3844 70.6539 14.4351 69.7415 13.9234C71.2935 13.6288 68.846 13.9474 69.5048 13.349C69.1623 13.4004 68.8758 13.4204 68.751 13.3468C68.1123 12.9604 69.5915 12.9412 69.4591 12.8552C70.6489 12.8956 70.1123 12.7619 69.7178 12.5364C69.7214 12.5754 69.6158 12.6376 69.4153 12.8069C68.7043 12.6303 68.7588 12.7235 69.3099 12.3776C69.7024 12.5116 69.3314 12.4674 71.5542 12.0582C71.8159 11.0641 69.0531 12.1523 68.5735 11.856C68.0803 11.5545 68.9644 11.407 69.9875 11.3449C70.4955 11.311 71.0383 11.3 71.4572 11.2939C71.876 11.2879 72.1714 11.2932 72.1855 11.305C72.859 11.2885 72.0741 12.4359 71.6411 12.7841C72.7593 12.759 72.5916 12.7877 72.7687 12.7188C72.0858 12.7035 72.4366 12.3171 72.4587 12.1316C72.7249 11.9628 73.0794 12.0413 73.3747 11.9746C74.4418 11.7512 73.9644 11.6906 73.9647 11.553C73.9661 10.6485 78.4429 11.4393 74.7554 11.7418L74.7561 11.7483Z" fill="black"/>
<path d="M70.3462 17.0846C70.3462 17.0846 70.3611 17.103 70.3682 17.1089C70.4182 17.0779 70.4045 17.0726 70.3462 17.0846Z" fill="black"/>
<path d="M70.172 16.9763C70.5006 16.7034 70.4688 16.785 69.9818 16.6204C69.2088 17.118 68.9329 16.4752 67.2702 17.2715C67.9459 17.2089 68.4597 17.0957 68.6305 17.1716C69.1283 17.3811 70.6296 17.1763 70.1726 16.9828L70.172 16.9763Z" fill="black"/>
<path d="M83.3414 72.8774C83.3414 72.8774 83.3825 72.8933 83.4027 72.898C83.4081 72.8843 83.4003 72.8719 83.3414 72.8774Z" fill="black"/>
<path d="M76.7159 56.3034C75.9119 56.4434 75.4699 56.6941 75.3898 57.0553C76.3724 56.8638 76.8145 56.6131 76.7159 56.3034Z" fill="black"/>
<path d="M81.5426 49.7818C81.5807 49.7651 81.6063 49.756 81.645 49.7459C81.5979 49.737 81.586 49.7513 81.5426 49.7818Z" fill="black"/>
<path d="M74.7535 9.88759C75.3387 9.76782 76.1348 9.66121 75.9154 9.48497C75.661 9.28575 74.7691 9.34881 74.7535 9.88759Z" fill="black"/>
<path d="M71.9356 37.9791C71.3032 38.1556 72.105 38.2517 72.4052 38.309C72.5378 38.1133 72.9766 37.686 71.9356 37.9791Z" fill="black"/>
<path d="M77.2865 61.8404C77.252 61.8238 77.2323 61.8256 77.2865 61.8404V61.8404Z" fill="black"/>
<path d="M77.3856 61.9422C77.4015 61.9014 77.3323 61.862 77.2844 61.8402C76.494 62.1494 77.2481 62.3678 77.3856 61.9422Z" fill="black"/>
<path d="M81.563 49.7598C81.4582 49.7695 81.4825 49.7474 81.532 49.7825L81.563 49.7598Z" fill="black"/>
<path d="M81.9654 45.0047C82.305 44.9208 81.9155 44.8193 81.928 44.8836C81.9316 44.9226 81.9482 44.9604 81.9654 45.0047Z" fill="black"/>
<path d="M93.3386 87.8683C93.2077 88.0115 93.1935 87.9997 93.3665 87.9575C93.4567 87.8705 93.4715 87.8887 93.3386 87.8683Z" fill="black"/>
<path d="M92.3197 102.431C92.327 102.51 92.293 102.5 92.418 102.422L92.3197 102.431Z" fill="black"/>
<path d="M70.9298 32.7839C71.038 32.8197 70.9565 32.8601 71.2835 32.7118C70.909 32.7007 71.0083 32.7111 70.9298 32.7839Z" fill="black"/>
<path d="M69.3054 25.8051L69.3595 25.7473C69.2088 25.7613 69.2404 25.7451 69.3054 25.8051Z" fill="black"/>
<path d="M71.4791 10.191C71.3481 10.2622 71.3457 10.2361 71.4687 10.2902C71.6357 10.183 71.6375 10.2026 71.4791 10.191Z" fill="black"/>
<path d="M69.1307 10.0941L68.999 10.0868C69.0971 10.1563 69.086 10.1769 69.1307 10.0941Z" fill="black"/>
</svg>
