<svg width="520" height="420" viewBox="0 0 520 420" fill="none" xmlns="http://www.w3.org/2000/svg">
<rect width="520" height="42.1002" fill="black"/>
<path d="M222.424 15.7895C222.947 15.7895 223.389 15.8055 223.752 15.8375C224.125 15.8588 224.467 15.8962 224.776 15.9495C225.085 16.0028 225.405 16.0775 225.736 16.1735L225.544 17.9655C225.192 17.9442 224.867 17.9282 224.568 17.9175C224.28 17.9068 223.965 17.9015 223.624 17.9015C223.293 17.8908 222.893 17.8855 222.424 17.8855C221.88 17.8855 221.453 17.9922 221.144 18.2055C220.845 18.4188 220.632 18.7922 220.504 19.3255C220.376 19.8482 220.312 20.5735 220.312 21.5015C220.312 22.4295 220.376 23.1602 220.504 23.6935C220.632 24.2162 220.845 24.5842 221.144 24.7975C221.453 25.0108 221.88 25.1175 222.424 25.1175C223.16 25.1175 223.779 25.1068 224.28 25.0855C224.781 25.0642 225.277 25.0268 225.768 24.9735L225.976 26.7655C225.464 26.9255 224.941 27.0375 224.408 27.1015C223.875 27.1762 223.213 27.2135 222.424 27.2135C221.283 27.2135 220.365 27.0322 219.672 26.6695C218.989 26.2962 218.493 25.6935 218.184 24.8615C217.885 24.0295 217.736 22.9095 217.736 21.5015C217.736 20.0935 217.885 18.9735 218.184 18.1415C218.493 17.3095 218.989 16.7122 219.672 16.3495C220.365 15.9762 221.283 15.7895 222.424 15.7895ZM229.974 15.9815V27.0215H227.526V15.9815L229.974 15.9815ZM234.07 20.2215V22.0615H229.846V20.2215H234.07ZM236.342 15.9815V27.0215H233.894V15.9815H236.342ZM240.845 15.9335C241.442 15.9335 242.045 15.9388 242.653 15.9495C243.261 15.9495 243.858 15.9602 244.445 15.9815C245.031 16.0028 245.581 16.0402 246.093 16.0935L245.981 17.8695H241.741C241.474 17.8695 241.271 17.9388 241.133 18.0775C241.005 18.2162 240.941 18.4188 240.941 18.6855V24.3175C240.941 24.5842 241.005 24.7868 241.133 24.9255C241.271 25.0642 241.474 25.1335 241.741 25.1335H245.981L246.093 26.9095C245.581 26.9522 245.031 26.9895 244.445 27.0215C243.858 27.0428 243.261 27.0535 242.653 27.0535C242.045 27.0642 241.442 27.0695 240.845 27.0695C240.141 27.0695 239.57 26.8668 239.133 26.4615C238.706 26.0455 238.493 25.5068 238.493 24.8455V18.1575C238.493 17.4855 238.706 16.9468 239.133 16.5415C239.57 16.1362 240.141 15.9335 240.845 15.9335ZM238.781 20.4135L245.389 20.4135V22.1415L238.781 22.1415V20.4135ZM252.033 15.7895C252.556 15.7895 252.999 15.8055 253.361 15.8375C253.735 15.8588 254.076 15.8962 254.385 15.9495C254.695 16.0028 255.015 16.0775 255.345 16.1735L255.153 17.9655C254.801 17.9442 254.476 17.9282 254.177 17.9175C253.889 17.9068 253.575 17.9015 253.233 17.9015C252.903 17.8908 252.503 17.8855 252.033 17.8855C251.489 17.8855 251.063 17.9922 250.753 18.2055C250.455 18.4188 250.241 18.7922 250.113 19.3255C249.985 19.8482 249.921 20.5735 249.921 21.5015C249.921 22.4295 249.985 23.1602 250.113 23.6935C250.241 24.2162 250.455 24.5842 250.753 24.7975C251.063 25.0108 251.489 25.1175 252.033 25.1175C252.769 25.1175 253.388 25.1068 253.889 25.0855C254.391 25.0642 254.887 25.0268 255.377 24.9735L255.585 26.7655C255.073 26.9255 254.551 27.0375 254.017 27.1015C253.484 27.1762 252.823 27.2135 252.033 27.2135C250.892 27.2135 249.975 27.0322 249.281 26.6695C248.599 26.2962 248.103 25.6935 247.793 24.8615C247.495 24.0295 247.345 22.9095 247.345 21.5015C247.345 20.0935 247.495 18.9735 247.793 18.1415C248.103 17.3095 248.599 16.7122 249.281 16.3495C249.975 15.9762 250.892 15.7895 252.033 15.7895ZM265.888 15.9815L263.008 20.4295C262.89 20.6215 262.762 20.7868 262.624 20.9255C262.485 21.0642 262.346 21.1815 262.208 21.2775V21.3255C262.357 21.4108 262.517 21.5388 262.688 21.7095C262.858 21.8802 262.997 22.0615 263.104 22.2535L266.08 27.0215L263.344 27.0215L259.936 21.2455L263.248 15.9815H265.888ZM259.568 15.9815V19.1015C259.568 19.4642 259.541 19.8268 259.488 20.1895C259.434 20.5415 259.349 20.8882 259.232 21.2295C259.317 21.5602 259.392 21.9015 259.456 22.2535C259.53 22.5948 259.568 22.9148 259.568 23.2135V27.0215H257.136V15.9815H259.568ZM260.816 20.4295V22.1255H258.832V20.4295H260.816ZM269.676 15.9815V24.2375C269.676 24.5042 269.751 24.7068 269.9 24.8455C270.05 24.9842 270.263 25.0535 270.54 25.0535H274.396L274.508 26.8935C273.751 26.9788 272.956 27.0268 272.124 27.0375C271.303 27.0588 270.482 27.0695 269.66 27.0695C268.86 27.0695 268.252 26.8562 267.836 26.4295C267.431 25.9922 267.228 25.4375 267.228 24.7655V15.9815L269.676 15.9815ZM278.286 15.9815V27.0215H275.854V15.9815H278.286ZM284.158 15.7735C284.702 15.7735 285.294 15.8055 285.934 15.8695C286.574 15.9228 287.198 16.0402 287.806 16.2215L287.646 17.8375C287.177 17.8268 286.628 17.8162 285.998 17.8055C285.369 17.7948 284.75 17.7895 284.142 17.7895C283.844 17.7895 283.588 17.8002 283.374 17.8215C283.172 17.8322 283.006 17.8748 282.878 17.9495C282.75 18.0135 282.66 18.1148 282.606 18.2535C282.553 18.3922 282.526 18.5842 282.526 18.8295C282.526 19.2028 282.612 19.4748 282.782 19.6455C282.964 19.8162 283.268 19.9708 283.694 20.1095L285.822 20.7975C286.708 21.0962 287.321 21.5015 287.662 22.0135C288.004 22.5255 288.174 23.1975 288.174 24.0295C288.174 24.6588 288.1 25.1815 287.95 25.5975C287.801 26.0135 287.566 26.3388 287.246 26.5735C286.926 26.8082 286.505 26.9735 285.982 27.0695C285.46 27.1762 284.82 27.2295 284.062 27.2295C283.7 27.2295 283.182 27.2028 282.51 27.1495C281.838 27.1068 281.07 26.9895 280.206 26.7975L280.366 25.0695C280.996 25.0802 281.54 25.0962 281.998 25.1175C282.468 25.1282 282.868 25.1388 283.198 25.1495C283.529 25.1495 283.817 25.1495 284.062 25.1495C284.489 25.1495 284.82 25.1228 285.054 25.0695C285.3 25.0162 285.47 24.9095 285.566 24.7495C285.662 24.5895 285.71 24.3602 285.71 24.0615C285.71 23.8055 285.673 23.6028 285.598 23.4535C285.534 23.2935 285.422 23.1708 285.262 23.0855C285.113 22.9895 284.905 22.9042 284.638 22.8295L282.398 22.0615C281.556 21.7522 280.958 21.3468 280.606 20.8455C280.254 20.3442 280.078 19.6828 280.078 18.8615C280.078 18.2215 280.153 17.7042 280.302 17.3095C280.462 16.9042 280.702 16.5895 281.022 16.3655C281.353 16.1415 281.774 15.9868 282.286 15.9015C282.809 15.8162 283.433 15.7735 284.158 15.7735ZM294.813 15.9815V27.0215L292.365 27.0215V15.9815H294.813ZM298.141 15.9815V17.9015H289.053V15.9815L298.141 15.9815Z" fill="#FFFAF2"/>
<path d="M112.984 80.3998L112.984 89.7012H111.299L111.299 80.3998H112.984ZM115.869 80.3998V81.7748H108.414V80.3998H115.869ZM118.623 82.9206C119.432 82.9206 120.074 83.033 120.55 83.2576C121.036 83.4823 121.382 83.8508 121.588 84.363C121.804 84.8753 121.912 85.5538 121.912 86.3985C121.912 87.2433 121.804 87.9218 121.588 88.434C121.382 88.9373 121.036 89.3058 120.55 89.5394C120.074 89.7641 119.432 89.8764 118.623 89.8764C117.832 89.8764 117.194 89.7641 116.709 89.5394C116.232 89.3058 115.886 88.9373 115.671 88.434C115.455 87.9218 115.347 87.2433 115.347 86.3985C115.347 85.5538 115.455 84.8753 115.671 84.363C115.886 83.8508 116.232 83.4823 116.709 83.2576C117.194 83.033 117.832 82.9206 118.623 82.9206ZM118.623 84.1608C118.227 84.1608 117.913 84.2282 117.679 84.363C117.454 84.4888 117.293 84.7135 117.194 85.037C117.095 85.3606 117.046 85.8144 117.046 86.3985C117.046 86.9827 117.095 87.4365 117.194 87.76C117.293 88.0835 117.454 88.3082 117.679 88.434C117.913 88.5598 118.227 88.6228 118.623 88.6228C119.027 88.6228 119.346 88.5598 119.58 88.434C119.813 88.3082 119.975 88.0835 120.065 87.76C120.164 87.4365 120.213 86.9827 120.213 86.3985C120.213 85.8144 120.164 85.3606 120.065 85.037C119.975 84.7135 119.813 84.4888 119.58 84.363C119.346 84.2282 119.027 84.1608 118.623 84.1608ZM127.561 82.9206C128.379 82.9206 128.968 83.2217 129.327 83.8238C129.687 84.4259 129.866 85.2976 129.866 86.439C129.866 87.3107 129.772 87.9982 129.583 88.5014C129.403 88.9957 129.129 89.3507 128.761 89.5664C128.392 89.7731 127.925 89.8764 127.359 89.8764C126.91 89.8764 126.469 89.8135 126.038 89.6877C125.616 89.5529 125.225 89.3462 124.865 89.0676L124.973 88.2588C125.323 88.3576 125.638 88.443 125.917 88.5149C126.195 88.5868 126.501 88.6228 126.833 88.6228C127.166 88.6228 127.426 88.5688 127.615 88.461C127.813 88.3442 127.957 88.1285 128.046 87.8139C128.136 87.4994 128.181 87.0456 128.181 86.4524C128.181 85.8683 128.141 85.4145 128.06 85.0909C127.979 84.7674 127.844 84.5428 127.656 84.4169C127.476 84.2821 127.238 84.2147 126.941 84.2147C126.618 84.2147 126.312 84.2866 126.024 84.4304C125.737 84.5652 125.404 84.7674 125.027 85.037L124.838 84.1743C125.045 83.9316 125.292 83.716 125.58 83.5272C125.876 83.3385 126.195 83.1902 126.537 83.0824C126.878 82.9746 127.22 82.9206 127.561 82.9206ZM124.771 83.0824L124.933 84.363L125.081 84.5517V88.825L125.013 88.9867C125.04 89.2473 125.058 89.508 125.067 89.7686C125.076 90.0382 125.081 90.3123 125.081 90.5909V92.3298H123.45L123.45 83.0824H124.771ZM133.099 83.0824V89.7012H131.481V83.0824H133.099ZM132.654 80.2111C132.977 80.2111 133.139 80.3729 133.139 80.6964V81.4513C133.139 81.7748 132.977 81.9366 132.654 81.9366H131.926C131.602 81.9366 131.441 81.7748 131.441 81.4513V80.6964C131.441 80.3729 131.602 80.2111 131.926 80.2111H132.654ZM137.947 82.9206C138.172 82.9206 138.419 82.9296 138.689 82.9476C138.958 82.9656 139.232 83.0015 139.511 83.0554C139.79 83.1094 140.041 83.1857 140.266 83.2846L140.077 84.3091C139.745 84.2911 139.412 84.2776 139.08 84.2687C138.756 84.2597 138.473 84.2552 138.23 84.2552C137.772 84.2552 137.408 84.3181 137.138 84.4439C136.878 84.5607 136.689 84.7764 136.572 85.0909C136.455 85.3965 136.397 85.8279 136.397 86.385C136.397 86.9422 136.455 87.3781 136.572 87.6926C136.689 87.9982 136.878 88.2139 137.138 88.3397C137.408 88.4655 137.772 88.5284 138.23 88.5284C138.365 88.5284 138.54 88.5239 138.756 88.5149C138.981 88.5059 139.219 88.4924 139.47 88.4745C139.731 88.4565 139.983 88.434 140.225 88.4071L140.387 89.4585C140.037 89.6023 139.646 89.7057 139.214 89.7686C138.783 89.8315 138.356 89.8629 137.934 89.8629C137.143 89.8629 136.509 89.7506 136.033 89.5259C135.557 89.3013 135.211 88.9373 134.995 88.434C134.788 87.9218 134.685 87.2388 134.685 86.385C134.685 85.5313 134.793 84.8528 135.009 84.3495C135.224 83.8373 135.57 83.4733 136.047 83.2576C136.523 83.033 137.156 82.9206 137.947 82.9206Z" fill="black"/>
<path d="M290.943 78.5725C291.366 78.5725 291.725 78.586 292.022 78.613C292.318 78.631 292.592 78.6624 292.844 78.7074C293.096 78.7433 293.356 78.7972 293.626 78.8691L293.478 80.1228C293.199 80.1048 292.938 80.0913 292.696 80.0823C292.453 80.0644 292.193 80.0509 291.914 80.0419C291.644 80.0329 291.321 80.0284 290.943 80.0284C290.422 80.0284 290.013 80.1318 289.717 80.3385C289.42 80.5452 289.209 80.8911 289.083 81.3764C288.966 81.8617 288.908 82.5312 288.908 83.385C288.908 84.2387 288.966 84.9082 289.083 85.3935C289.209 85.8788 289.42 86.2248 289.717 86.4315C290.013 86.6382 290.422 86.7415 290.943 86.7415C291.546 86.7415 292.049 86.7326 292.453 86.7146C292.867 86.6876 293.271 86.6517 293.666 86.6067L293.815 87.8469C293.41 87.9727 292.992 88.0626 292.561 88.1165C292.13 88.1704 291.59 88.1974 290.943 88.1974C290.009 88.1974 289.263 88.0446 288.706 87.7391C288.149 87.4245 287.744 86.9168 287.492 86.2158C287.25 85.5148 287.129 84.5712 287.129 83.385C287.129 82.1987 287.25 81.2551 287.492 80.5541C287.744 79.8532 288.149 79.3499 288.706 79.0444C289.263 78.7298 290.009 78.5725 290.943 78.5725ZM296.741 81.4169V85.8923C296.732 86.2248 296.795 86.463 296.93 86.6067C297.073 86.7505 297.303 86.8224 297.617 86.8224C297.932 86.8224 298.246 86.755 298.561 86.6202C298.875 86.4854 299.257 86.2832 299.707 86.0136L299.868 86.9842C299.365 87.3886 298.88 87.6941 298.412 87.9008C297.945 88.1075 297.46 88.2109 296.957 88.2109C295.725 88.2109 295.11 87.6043 295.11 86.3911L295.11 81.4169H296.741ZM301.176 81.4169V88.0356H299.882L299.707 86.755L299.545 86.5663V81.4169H301.176ZM304.276 81.4169L304.492 82.711L304.64 82.8997V88.0356H303.009V81.4169H304.276ZM307.512 81.2551L307.35 82.7649H306.878C306.528 82.7649 306.173 82.8233 305.813 82.9401C305.454 83.057 305.004 83.2322 304.465 83.4659L304.357 82.5088C304.825 82.1133 305.301 81.8078 305.786 81.5921C306.272 81.3674 306.739 81.2551 307.188 81.2551H307.512ZM309.884 81.4169L310.1 82.711L310.248 82.8997V88.0356H308.617V81.4169H309.884ZM313.12 81.2551L312.958 82.7649H312.486C312.136 82.7649 311.781 82.8233 311.421 82.9401C311.062 83.057 310.612 83.2322 310.073 83.4659L309.965 82.5088C310.433 82.1133 310.909 81.8078 311.394 81.5921C311.88 81.3674 312.347 81.2551 312.796 81.2551H313.12ZM317.046 81.2551C318.115 81.2551 318.884 81.4438 319.351 81.8213C319.818 82.1897 320.056 82.7379 320.065 83.4659C320.074 84.068 319.931 84.5263 319.634 84.8408C319.346 85.1464 318.866 85.2992 318.192 85.2992H314.417V84.2882H317.747C318.052 84.2882 318.246 84.2073 318.326 84.0455C318.416 83.8837 318.461 83.686 318.461 83.4524C318.452 83.0839 318.344 82.8278 318.138 82.684C317.94 82.5402 317.598 82.4683 317.113 82.4683C316.691 82.4683 316.363 82.5267 316.129 82.6436C315.895 82.7604 315.729 82.9716 315.63 83.2771C315.541 83.5827 315.496 84.023 315.496 84.5982C315.496 85.2093 315.554 85.6811 315.671 86.0136C315.788 86.3461 315.981 86.5753 316.25 86.7011C316.52 86.8179 316.88 86.8763 317.329 86.8763C317.661 86.8763 318.043 86.8629 318.475 86.8359C318.915 86.8089 319.337 86.773 319.742 86.7281L319.904 87.766C319.661 87.8649 319.382 87.9458 319.068 88.0087C318.753 88.0716 318.425 88.1165 318.084 88.1435C317.751 88.1794 317.437 88.1974 317.14 88.1974C316.331 88.1974 315.68 88.0806 315.186 87.8469C314.7 87.6043 314.345 87.2268 314.121 86.7146C313.905 86.2023 313.797 85.5418 313.797 84.733C313.797 83.8613 313.905 83.1738 314.121 82.6705C314.345 82.1583 314.696 81.7943 315.172 81.5786C315.657 81.3629 316.282 81.2551 317.046 81.2551ZM325.886 81.2551C327.117 81.2551 327.732 81.8617 327.732 83.0749V88.0356H326.101V83.5737C326.101 83.2142 326.038 82.9671 325.912 82.8323C325.787 82.6975 325.575 82.6301 325.279 82.6301C324.946 82.6301 324.605 82.7065 324.254 82.8593C323.904 83.003 323.482 83.2142 322.987 83.4928L322.92 82.5088C323.405 82.1044 323.899 81.7943 324.403 81.5786C324.906 81.3629 325.4 81.2551 325.886 81.2551ZM322.866 81.4169L323.028 82.711L323.163 82.8997V88.0356H321.531V81.4169H322.866ZM331.706 79.5296V86.0406C331.706 86.3192 331.764 86.5169 331.881 86.6337C332.007 86.7505 332.218 86.8089 332.515 86.8089H333.431L333.607 87.9548C333.454 87.9997 333.27 88.0401 333.054 88.0761C332.838 88.112 332.627 88.1345 332.42 88.1435C332.214 88.1615 332.038 88.1704 331.895 88.1704C331.319 88.1704 330.87 88.0177 330.547 87.7121C330.232 87.3976 330.075 86.9482 330.075 86.3641V79.5296H331.706ZM333.674 81.4169V82.5492H328.902V81.4843L330.196 81.4169H333.674Z" fill="black"/>
<path d="M374.552 78.613C375.325 78.613 375.949 78.6939 376.426 78.8556C376.911 79.0174 377.261 79.296 377.477 79.6914C377.702 80.0778 377.814 80.626 377.814 81.336C377.814 81.8033 377.756 82.2032 377.639 82.5357C377.531 82.8593 377.347 83.1199 377.086 83.3176C376.834 83.5063 376.493 83.6276 376.062 83.6815V83.7489C376.214 83.7849 376.372 83.8568 376.533 83.9646C376.704 84.0635 376.857 84.2073 376.992 84.396C377.135 84.5847 377.243 84.8274 377.315 85.1239L378.164 88.0356H376.385L375.617 85.1644C375.518 84.8408 375.383 84.6162 375.212 84.4904C375.042 84.3556 374.808 84.2882 374.511 84.2882C373.927 84.2882 373.428 84.2882 373.015 84.2882C372.602 84.2792 372.256 84.2702 371.977 84.2612C371.707 84.2522 371.469 84.2477 371.263 84.2477L371.303 82.9671H374.511C374.916 82.9581 375.235 82.9132 375.468 82.8323C375.702 82.7424 375.868 82.5896 375.967 82.374C376.066 82.1493 376.115 81.8348 376.115 81.4304C376.115 81.0349 376.066 80.7294 375.967 80.5137C375.868 80.298 375.702 80.1497 375.468 80.0689C375.235 79.979 374.916 79.934 374.511 79.934C373.721 79.934 373.042 79.9385 372.476 79.9475C371.91 79.9565 371.523 79.9655 371.317 79.9745L371.128 78.7343C371.487 78.6984 371.824 78.6714 372.139 78.6534C372.462 78.6355 372.813 78.6265 373.19 78.6265C373.568 78.6175 374.022 78.613 374.552 78.613ZM372.786 78.7343V88.0356H371.128V78.7343H372.786ZM382.45 81.2551C383.519 81.2551 384.287 81.4438 384.755 81.8213C385.222 82.1897 385.46 82.7379 385.469 83.4659C385.478 84.068 385.334 84.5263 385.038 84.8408C384.75 85.1464 384.269 85.2992 383.595 85.2992H379.821V84.2882H383.151C383.456 84.2882 383.649 84.2073 383.73 84.0455C383.82 83.8837 383.865 83.686 383.865 83.4524C383.856 83.0839 383.748 82.8278 383.541 82.684C383.344 82.5402 383.002 82.4683 382.517 82.4683C382.095 82.4683 381.767 82.5267 381.533 82.6436C381.299 82.7604 381.133 82.9716 381.034 83.2771C380.944 83.5827 380.899 84.023 380.899 84.5982C380.899 85.2093 380.958 85.6811 381.075 86.0136C381.191 86.3461 381.385 86.5753 381.654 86.7011C381.924 86.8179 382.283 86.8763 382.733 86.8763C383.065 86.8763 383.447 86.8629 383.879 86.8359C384.319 86.8089 384.741 86.773 385.146 86.7281L385.307 87.766C385.065 87.8649 384.786 87.9458 384.472 88.0087C384.157 88.0716 383.829 88.1165 383.488 88.1435C383.155 88.1794 382.841 88.1974 382.544 88.1974C381.735 88.1974 381.084 88.0806 380.589 87.8469C380.104 87.6043 379.749 87.2268 379.524 86.7146C379.309 86.2023 379.201 85.5418 379.201 84.733C379.201 83.8613 379.309 83.1738 379.524 82.6705C379.749 82.1583 380.1 81.7943 380.576 81.5786C381.061 81.3629 381.686 81.2551 382.45 81.2551ZM393.218 81.4169L390.94 87.6447C390.895 87.7615 390.823 87.8559 390.724 87.9278C390.635 87.9997 390.522 88.0356 390.387 88.0356H388.959C388.833 88.0356 388.72 87.9997 388.622 87.9278C388.523 87.8559 388.451 87.7615 388.406 87.6447L386.128 81.4169H387.867L389.255 85.7575C389.318 85.9552 389.376 86.1574 389.43 86.3641C389.484 86.5618 389.534 86.755 389.579 86.9437H389.754C389.817 86.746 389.875 86.5483 389.929 86.3506C389.992 86.1529 390.05 85.9552 390.104 85.7575L391.493 81.4169H393.218ZM395.979 81.4169V88.0356H394.361V81.4169H395.979ZM395.534 78.5456C395.857 78.5456 396.019 78.7074 396.019 79.0309V79.7858C396.019 80.1093 395.857 80.2711 395.534 80.2711H394.806C394.482 80.2711 394.321 80.1093 394.321 79.7858V79.0309C394.321 78.7074 394.482 78.5456 394.806 78.5456H395.534ZM400.248 81.2551C400.553 81.2551 400.881 81.2641 401.232 81.2821C401.591 81.3 401.942 81.327 402.283 81.3629C402.625 81.3899 402.93 81.4304 403.2 81.4843L403.092 82.5492C402.661 82.5402 402.229 82.5312 401.798 82.5222C401.375 82.5043 400.958 82.4953 400.544 82.4953C400.176 82.4953 399.884 82.5043 399.668 82.5222C399.461 82.5402 399.313 82.5941 399.223 82.684C399.142 82.7739 399.102 82.9267 399.102 83.1423C399.102 83.403 399.174 83.5782 399.317 83.6681C399.461 83.7489 399.695 83.8298 400.018 83.9107L401.825 84.3286C402.364 84.4634 402.764 84.6701 403.024 84.9487C403.285 85.2183 403.415 85.6362 403.415 86.2023C403.415 86.7505 403.312 87.1684 403.105 87.456C402.908 87.7346 402.589 87.9278 402.148 88.0356C401.717 88.1345 401.164 88.1839 400.49 88.1839C400.23 88.1839 399.843 88.1704 399.331 88.1435C398.819 88.1255 398.257 88.0671 397.646 87.9682L397.754 86.9033C397.933 86.9033 398.145 86.9078 398.387 86.9168C398.639 86.9258 398.904 86.9303 399.183 86.9303C399.47 86.9303 399.762 86.9303 400.059 86.9303C400.535 86.9303 400.899 86.9168 401.151 86.8898C401.411 86.8539 401.591 86.7865 401.69 86.6876C401.789 86.5798 401.838 86.427 401.838 86.2293C401.838 85.9777 401.753 85.8114 401.582 85.7305C401.42 85.6407 401.178 85.5553 400.854 85.4744L399.088 85.043C398.684 84.9352 398.369 84.8004 398.145 84.6386C397.92 84.4679 397.758 84.2612 397.659 84.0185C397.561 83.7669 397.511 83.4614 397.511 83.1019C397.511 82.6166 397.601 82.2392 397.781 81.9696C397.969 81.7 398.261 81.5112 398.657 81.4034C399.061 81.2955 399.592 81.2461 400.248 81.2551ZM407.843 81.2551C408.913 81.2551 409.681 81.4438 410.149 81.8213C410.616 82.1897 410.854 82.7379 410.863 83.4659C410.872 84.068 410.728 84.5263 410.432 84.8408C410.144 85.1464 409.663 85.2992 408.989 85.2992H405.215V84.2882H408.544C408.85 84.2882 409.043 84.2073 409.124 84.0455C409.214 83.8837 409.259 83.686 409.259 83.4524C409.25 83.0839 409.142 82.8278 408.935 82.684C408.738 82.5402 408.396 82.4683 407.911 82.4683C407.488 82.4683 407.16 82.5267 406.927 82.6436C406.693 82.7604 406.527 82.9716 406.428 83.2771C406.338 83.5827 406.293 84.023 406.293 84.5982C406.293 85.2093 406.352 85.6811 406.468 86.0136C406.585 86.3461 406.779 86.5753 407.048 86.7011C407.318 86.8179 407.677 86.8763 408.127 86.8763C408.459 86.8763 408.841 86.8629 409.272 86.8359C409.713 86.8089 410.135 86.773 410.539 86.7281L410.701 87.766C410.459 87.8649 410.18 87.9458 409.865 88.0087C409.551 88.0716 409.223 88.1165 408.881 88.1435C408.549 88.1794 408.234 88.1974 407.938 88.1974C407.129 88.1974 406.477 88.0806 405.983 87.8469C405.498 87.6043 405.143 87.2268 404.918 86.7146C404.703 86.2023 404.595 85.5418 404.595 84.733C404.595 83.8613 404.703 83.1738 404.918 82.6705C405.143 82.1583 405.493 81.7943 405.97 81.5786C406.455 81.3629 407.08 81.2551 407.843 81.2551ZM414.567 81.2551C415.016 81.2551 415.456 81.318 415.888 81.4438C416.319 81.5607 416.71 81.7584 417.061 82.037L416.953 82.8593C416.602 82.7604 416.288 82.675 416.009 82.6031C415.731 82.5312 415.421 82.4953 415.079 82.4953C414.756 82.4953 414.495 82.5537 414.297 82.6705C414.108 82.7784 413.965 82.9896 413.866 83.3041C413.776 83.6186 413.731 84.077 413.731 84.6791C413.731 85.2542 413.776 85.6991 413.866 86.0136C413.956 86.3192 414.095 86.5348 414.284 86.6607C414.472 86.7775 414.72 86.8359 415.025 86.8359C415.268 86.8359 415.483 86.8089 415.672 86.755C415.861 86.6921 416.054 86.6023 416.252 86.4854C416.45 86.3596 416.679 86.2023 416.939 86.0136L417.074 86.9303C416.769 87.2808 416.391 87.5818 415.942 87.8334C415.501 88.0761 414.989 88.1974 414.405 88.1974C413.56 88.1974 412.958 87.9008 412.599 87.3077C412.239 86.7056 412.059 85.8339 412.059 84.6926C412.059 83.8208 412.149 83.1378 412.329 82.6436C412.518 82.1403 412.796 81.7853 413.165 81.5786C413.542 81.3629 414.01 81.2551 414.567 81.2551ZM418.395 78.5995V88.0356H417.115L416.939 86.8494L416.764 86.7146V82.2931L416.845 82.1044C416.809 81.8437 416.787 81.5831 416.778 81.3225C416.769 81.0529 416.764 80.7788 416.764 80.5002V78.5995H418.395Z" fill="black"/>
<path d="M462.148 78.7074C462.606 78.7074 463.069 78.7118 463.536 78.7208C464.013 78.7208 464.48 78.7298 464.938 78.7478C465.406 78.7568 465.837 78.7837 466.232 78.8287L466.151 80.0689H462.728C462.458 80.0689 462.256 80.1318 462.121 80.2576C461.986 80.3834 461.919 80.5811 461.919 80.8507V88.0356H460.234V80.5137C460.234 79.9475 460.409 79.5072 460.759 79.1926C461.11 78.8691 461.573 78.7074 462.148 78.7074ZM460.463 82.6975H465.639V83.9377H460.463V82.6975ZM469.209 81.4169V88.0356H467.592V81.4169H469.209ZM468.764 78.5456C469.088 78.5456 469.25 78.7074 469.25 79.0309V79.7858C469.25 80.1093 469.088 80.2711 468.764 80.2711H468.036C467.713 80.2711 467.551 80.1093 467.551 79.7858V79.0309C467.551 78.7074 467.713 78.5456 468.036 78.5456H468.764ZM475.446 81.2551C476.677 81.2551 477.293 81.8617 477.293 83.0749V88.0356H475.662V83.5737C475.662 83.2142 475.599 82.9671 475.473 82.8323C475.347 82.6975 475.136 82.6301 474.839 82.6301C474.507 82.6301 474.165 82.7065 473.815 82.8593C473.464 83.003 473.042 83.2142 472.548 83.4928L472.48 82.5088C472.966 82.1044 473.46 81.7943 473.963 81.5786C474.467 81.3629 474.961 81.2551 475.446 81.2551ZM472.427 81.4169L472.588 82.711L472.723 82.8997V88.0356H471.092V81.4169H472.427ZM482.412 81.2551C482.942 81.2551 483.387 81.327 483.747 81.4708C484.115 81.6056 484.394 81.8392 484.583 82.1718C484.771 82.5043 484.866 82.9626 484.866 83.5467V88.0356H483.572L483.342 86.6067L483.221 86.418V83.5333C483.221 83.1828 483.14 82.9311 482.978 82.7784C482.817 82.6166 482.507 82.5357 482.048 82.5357C481.707 82.5357 481.275 82.5492 480.754 82.5762C480.242 82.6031 479.725 82.6391 479.204 82.684L479.056 81.5652C479.37 81.5022 479.725 81.4483 480.121 81.4034C480.516 81.3585 480.916 81.3225 481.32 81.2955C481.725 81.2686 482.089 81.2551 482.412 81.2551ZM484.165 83.9646L484.151 84.9756H481.118C480.849 84.9846 480.655 85.0565 480.539 85.1913C480.422 85.3261 480.363 85.5104 480.363 85.744V86.108C480.363 86.3776 480.435 86.5843 480.579 86.7281C480.723 86.8629 480.947 86.9303 481.253 86.9303C481.496 86.9303 481.765 86.8808 482.062 86.782C482.358 86.6831 482.65 86.5393 482.938 86.3506C483.235 86.1619 483.5 85.9372 483.733 85.6766V86.5259C483.643 86.6607 483.513 86.8224 483.342 87.0111C483.172 87.1909 482.96 87.3706 482.709 87.5504C482.466 87.7301 482.183 87.8784 481.86 87.9952C481.545 88.112 481.195 88.1704 480.808 88.1704C480.413 88.1704 480.058 88.103 479.743 87.9682C479.429 87.8245 479.182 87.6178 479.002 87.3482C478.822 87.0696 478.732 86.7281 478.732 86.3237V85.6227C478.732 85.1015 478.903 84.6971 479.244 84.4095C479.595 84.1129 480.071 83.9646 480.673 83.9646H484.165ZM488.284 78.5995L488.27 86.0406C488.27 86.2922 488.342 86.4854 488.486 86.6202C488.63 86.746 488.836 86.8089 489.106 86.8089H489.685L489.874 87.9548C489.775 87.9997 489.636 88.0401 489.456 88.0761C489.286 88.112 489.106 88.1345 488.917 88.1435C488.737 88.1615 488.58 88.1704 488.445 88.1704C487.897 88.1704 487.461 88.0222 487.138 87.7256C486.814 87.429 486.652 87.0022 486.652 86.445V78.5995H488.284Z" fill="black"/>
<rect x="0.922518" y="54.5163" width="518.225" height="365.096" stroke="black" stroke-width="0.774724"/>
<line x1="0.820312" y1="107.116" x2="519.249" y2="107.116" stroke="black" stroke-width="0.774724"/>
<rect x="277.805" y="363.866" width="18.8642" height="19.9204" fill="#FFE3C5"/>
<rect x="360.918" y="363.866" width="18.8642" height="19.9204" fill="#FFE3C5"/>
<rect x="441.844" y="363.866" width="18.8642" height="19.9204" fill="#FFE3C5"/>
<rect x="301.953" y="363.866" width="18.8642" height="19.9204" fill="#FDCA94" fill-opacity="0.58"/>
<rect x="385.27" y="363.866" width="18.8642" height="19.9204" fill="#FDCA94" fill-opacity="0.58"/>
<rect x="466.242" y="363.866" width="18.8642" height="19.9204" fill="#FDCA94" fill-opacity="0.58"/>
<rect x="326.352" y="363.866" width="18.8642" height="19.9204" fill="black"/>
<rect x="409.645" y="363.866" width="18.8642" height="19.9204" fill="black"/>
<rect x="490.582" y="363.866" width="18.8642" height="19.9204" fill="black"/>
<line x1="0.535156" y1="373.503" x2="263.848" y2="373.503" stroke="black" stroke-width="0.774724"/>
<rect x="277.805" y="138.329" width="18.8642" height="19.9204" fill="#FFE3C5"/>
<rect x="360.918" y="138.329" width="18.8642" height="19.9204" fill="#FFE3C5"/>
<rect x="441.844" y="138.329" width="18.8642" height="19.9204" fill="#FFE3C5"/>
<rect x="301.953" y="138.329" width="18.8642" height="19.9204" fill="#FDCA94" fill-opacity="0.58"/>
<rect x="385.27" y="138.329" width="18.8642" height="19.9204" fill="#FDCA94" fill-opacity="0.58"/>
<rect x="466.242" y="138.329" width="18.8642" height="19.9204" fill="#FDCA94" fill-opacity="0.58"/>
<rect x="326.352" y="138.329" width="18.8642" height="19.9204" fill="black"/>
<rect x="409.645" y="138.329" width="18.8642" height="19.9204" fill="black"/>
<rect x="490.582" y="138.329" width="18.8642" height="19.9204" fill="black"/>
<line x1="0.535156" y1="147.966" x2="263.848" y2="147.966" stroke="black" stroke-width="0.774724"/>
<rect x="277.805" y="183.437" width="18.8642" height="19.9204" fill="#FFE3C5"/>
<rect x="360.918" y="183.437" width="18.8642" height="19.9204" fill="#FFE3C5"/>
<rect x="441.844" y="183.437" width="18.8642" height="19.9204" fill="#FFE3C5"/>
<rect x="301.953" y="183.437" width="18.8642" height="19.9204" fill="#FDCA94" fill-opacity="0.58"/>
<rect x="385.27" y="183.437" width="18.8642" height="19.9204" fill="#FDCA94" fill-opacity="0.58"/>
<rect x="466.242" y="183.437" width="18.8642" height="19.9204" fill="#FDCA94" fill-opacity="0.58"/>
<rect x="326.352" y="183.437" width="18.8642" height="19.9204" fill="black"/>
<rect x="409.645" y="183.437" width="18.8642" height="19.9204" fill="black"/>
<rect x="490.582" y="183.437" width="18.8642" height="19.9204" fill="black"/>
<line x1="0.535156" y1="193.073" x2="263.848" y2="193.073" stroke="black" stroke-width="0.774724"/>
<rect x="277.805" y="228.544" width="18.8642" height="19.9204" fill="#FFE3C5"/>
<rect x="360.918" y="228.544" width="18.8642" height="19.9204" fill="#FFE3C5"/>
<rect x="441.844" y="228.544" width="18.8642" height="19.9204" fill="#FFE3C5"/>
<rect x="301.953" y="228.544" width="18.8642" height="19.9204" fill="#FDCA94" fill-opacity="0.58"/>
<rect x="385.27" y="228.544" width="18.8642" height="19.9204" fill="#FDCA94" fill-opacity="0.58"/>
<rect x="466.242" y="228.544" width="18.8642" height="19.9204" fill="#FDCA94" fill-opacity="0.58"/>
<rect x="326.352" y="228.544" width="18.8642" height="19.9204" fill="black"/>
<rect x="409.645" y="228.544" width="18.8642" height="19.9204" fill="black"/>
<rect x="490.582" y="228.544" width="18.8642" height="19.9204" fill="black"/>
<line x1="0.535156" y1="238.181" x2="263.848" y2="238.181" stroke="black" stroke-width="0.774724"/>
<rect x="277.805" y="273.652" width="18.8642" height="19.9204" fill="#FFE3C5"/>
<rect x="360.918" y="273.652" width="18.8642" height="19.9204" fill="#FFE3C5"/>
<rect x="441.844" y="273.652" width="18.8642" height="19.9204" fill="#FFE3C5"/>
<rect x="301.953" y="273.652" width="18.8642" height="19.9204" fill="#FDCA94" fill-opacity="0.58"/>
<rect x="385.27" y="273.652" width="18.8642" height="19.9204" fill="#FDCA94" fill-opacity="0.58"/>
<rect x="466.242" y="273.652" width="18.8642" height="19.9204" fill="#FDCA94" fill-opacity="0.58"/>
<rect x="326.352" y="273.652" width="18.8642" height="19.9204" fill="black"/>
<rect x="409.645" y="273.652" width="18.8642" height="19.9204" fill="black"/>
<rect x="490.582" y="273.652" width="18.8642" height="19.9204" fill="black"/>
<line x1="0.535156" y1="283.288" x2="263.848" y2="283.288" stroke="black" stroke-width="0.774724"/>
<rect x="277.805" y="318.759" width="18.8642" height="19.9204" fill="#FFE3C5"/>
<rect x="360.918" y="318.759" width="18.8642" height="19.9204" fill="#FFE3C5"/>
<rect x="441.844" y="318.759" width="18.8642" height="19.9204" fill="#FFE3C5"/>
<rect x="301.953" y="318.759" width="18.8642" height="19.9204" fill="#FDCA94" fill-opacity="0.58"/>
<rect x="385.27" y="318.759" width="18.8642" height="19.9204" fill="#FDCA94" fill-opacity="0.58"/>
<rect x="466.242" y="318.759" width="18.8642" height="19.9204" fill="#FDCA94" fill-opacity="0.58"/>
<rect x="326.352" y="318.759" width="18.8642" height="19.9204" fill="black"/>
<rect x="409.645" y="318.759" width="18.8642" height="19.9204" fill="black"/>
<rect x="490.582" y="318.759" width="18.8642" height="19.9204" fill="black"/>
<line x1="0.535156" y1="328.396" x2="263.848" y2="328.396" stroke="black" stroke-width="0.774724"/>
</svg>
