<svg width="69" height="103" viewBox="0 0 69 103" fill="none" xmlns="http://www.w3.org/2000/svg">
<g clip-path="url(#clip0_288_1432)">
<path d="M47.9522 71C36.2185 70.8793 27.1267 61.9773 26.6495 50.7184C26.1323 38.5072 35.9266 28.807 47.4582 28.6326C59.2447 28.4544 68.8753 37.7598 68.9991 49.7377C69.1169 61.1624 59.9145 70.8153 47.9522 71.0004V71ZM59.2112 47.8044C59.1987 46.6679 58.7134 46.085 57.7422 45.8994C56.1807 45.6009 54.6111 45.3406 53.0389 45.1052C52.3579 45.0034 51.882 44.7809 51.5776 44.0842C50.9182 42.5757 50.1452 41.117 49.4423 39.627C49.1117 38.926 48.6254 38.4694 47.8249 38.4677C47.0236 38.4664 46.5408 38.9178 46.2097 39.6244C45.5103 41.1157 44.736 42.5731 44.0709 44.0791C43.7829 44.7307 43.3762 45.0034 42.6986 45.0971C41.1819 45.3062 39.6742 45.5794 38.1626 45.826C37.3939 45.9514 36.7512 46.2413 36.4851 47.0562C36.2241 47.8551 36.6347 48.4109 37.1424 48.9397C38.3058 50.1501 39.4902 51.3416 40.6101 52.5915C40.8577 52.8682 41.0142 53.3686 40.9717 53.7384C40.7705 55.4917 40.5134 57.2399 40.2184 58.98C40.0886 59.7463 40.1677 60.4022 40.819 60.8682C41.4656 61.3304 42.1328 61.2307 42.8113 60.8592C44.2313 60.0822 45.6809 59.358 47.0936 58.5681C47.6194 58.2743 48.0429 58.282 48.5657 58.5745C50.0295 59.394 51.5192 60.1685 53.0045 60.9494C53.6258 61.2758 54.3463 61.3579 54.8076 60.83C55.1687 60.4163 55.4559 59.7351 55.409 59.2046C55.2517 57.4203 54.8996 55.6537 54.6962 53.872C54.6507 53.4734 54.7878 52.9356 55.0458 52.6409C56.1511 51.379 57.3523 50.2012 58.4765 48.9551C58.8329 48.5604 59.0595 48.0488 59.2112 47.8053V47.8044Z" fill="black"/>
<path d="M18.2972 9.23366C18.2972 11.6755 18.3015 14.117 18.2955 16.5589C18.2925 17.8041 17.8312 18.2805 16.5978 18.2818C11.6348 18.2886 6.67188 18.2826 1.70895 18.2865C0.991423 18.2869 0.388683 18.0863 0.104079 17.3699C-0.172786 16.6727 0.169426 16.141 0.643192 15.6676C5.68222 10.6331 10.7247 5.60153 15.7594 0.562682C16.2379 0.0837533 16.7585 -0.138315 17.4069 0.141311C18.0401 0.414493 18.3006 0.926067 18.2989 1.60301C18.2938 4.14627 18.2968 6.68996 18.2968 9.23323L18.2972 9.23366Z" fill="black"/>
<path d="M43.8678 56.615C44.026 55.5123 44.1184 54.612 44.2912 53.7276C44.5161 52.5761 44.351 51.6088 43.4022 50.7896C42.6988 50.1823 42.1142 49.4379 41.3438 48.6123C42.5346 48.3997 43.5544 48.1764 44.5862 48.0458C45.5058 47.9294 46.0711 47.4629 46.4348 46.6322C46.8295 45.731 47.2912 44.8591 47.8247 43.7681C48.3978 44.9411 48.8952 45.893 49.3298 46.8723C49.6218 47.5303 50.0749 47.8817 50.7817 47.9908C51.881 48.1605 52.9734 48.3748 54.2588 48.6046C53.4084 49.5242 52.6913 50.3545 51.9136 51.1229C51.3105 51.7187 51.1106 52.3819 51.2503 53.2006C51.4321 54.2637 51.5774 55.3328 51.7705 56.6119C50.7494 56.0858 49.8823 55.688 49.0654 55.2048C48.2181 54.7035 47.4365 54.6748 46.5818 55.1855C45.78 55.6648 44.9284 56.0613 43.8673 56.615H43.8678Z" fill="black"/>
<path d="M20.879 50.2324C20.879 35.4054 32.9093 23.3858 47.7495 23.3858C49.7331 23.3858 51.6669 23.6005 53.528 24.0081V17.1575C53.528 17.0343 53.528 16.911 53.528 16.7877V15.0563H53.5293C53.5314 12.4795 53.5318 9.90273 53.5241 7.32597C53.5116 3.06415 50.4752 0.0144675 46.2121 0.00716544C38.067 -0.00700913 29.9214 0.00244058 21.7762 0.00501778C21.5131 0.00501778 21.2504 0.0376622 21.1352 0.0453938V3.88241C21.1352 8.02868 21.1361 12.175 21.1352 16.3212C21.1343 19.3688 19.4018 21.1174 16.3743 21.1191C11.5636 21.1221 6.75283 21.1247 1.94166 21.114C1.32043 21.1127 0.699207 21.0319 0.042727 20.9855C0.0268202 21.272 0.00360478 21.4967 0.00360478 21.7209C0.00274495 35.5334 -0.00714308 49.3458 0.0100535 63.1583C0.0152125 67.372 3.02203 70.3504 7.2554 70.359C10.9419 70.3663 14.6289 70.368 18.3154 70.368V70.3667H23.7486C24.0096 70.3667 24.271 70.3667 24.532 70.3667H29.9755C24.397 65.4473 20.8781 58.25 20.8781 50.2315L20.879 50.2324ZM48.9244 13.4949C48.6209 13.851 47.9627 14.0572 47.4559 14.0632C43.6425 14.1083 39.8279 14.0877 36.0141 14.0881C34.9208 14.0881 33.8271 14.0954 32.7339 14.0855C31.6505 14.0756 31.0022 13.5508 30.982 12.69C30.9613 11.8189 31.6483 11.2523 32.767 11.2489C35.208 11.2416 37.6491 11.2467 40.0901 11.2467C42.6073 11.2476 45.1249 11.2429 47.642 11.251C48.2551 11.2528 48.8961 11.3958 49.0685 12.0371C49.1914 12.4945 49.1906 13.1831 48.9244 13.4953V13.4949ZM26.9807 6.3999C27.2236 6.02148 27.8049 5.76333 28.2787 5.65466C28.835 5.52709 29.4424 5.62073 30.028 5.62073C35.7291 5.62073 41.4297 5.61987 47.1308 5.62201C47.4352 5.62201 47.7461 5.61213 48.0436 5.66454C48.8213 5.80156 49.283 6.35651 49.2671 7.08543C49.2516 7.79201 48.7383 8.34568 47.9606 8.43116C47.5328 8.4784 47.0965 8.45134 46.664 8.45177C43.7878 8.45306 40.9121 8.4522 38.0364 8.4522C34.8297 8.4522 31.623 8.46122 28.4162 8.44705C27.1157 8.44146 26.3488 7.38353 26.9812 6.39861L26.9807 6.3999ZM15.2699 49.2393C13.6925 49.2522 12.1152 49.2428 10.5374 49.2428C8.98538 49.2428 7.43339 49.2505 5.8814 49.2402C4.84874 49.2333 4.2258 48.6994 4.22322 47.8519C4.22064 47.01 4.84874 46.4658 5.88183 46.4628C9.01118 46.4542 12.1405 46.4529 15.2703 46.4637C16.3055 46.4671 16.8962 47.0135 16.8808 47.8923C16.8661 48.7239 16.2797 49.2307 15.2703 49.2389L15.2699 49.2393ZM4.48546 40.077C4.73438 39.7445 5.28124 39.4619 5.69696 39.4554C8.92734 39.4047 12.159 39.4155 15.3902 39.4344C16.321 39.44 16.8735 40.0001 16.8799 40.8265C16.8859 41.6168 16.2922 42.1937 15.3778 42.2061C13.7497 42.2285 12.1212 42.2126 10.4927 42.2126C8.9153 42.213 7.33752 42.2336 5.76016 42.2066C4.50309 42.1847 3.7847 41.012 4.48546 40.0774V40.077ZM16.7858 35.1747C14.9294 35.1953 13.0726 35.1807 11.2158 35.1807C9.38477 35.1807 7.55291 35.2035 5.72233 35.1726C4.5147 35.1519 3.80663 33.9948 4.46268 33.0752C4.70472 32.7358 5.24598 32.4244 5.65526 32.4193C9.39337 32.3694 13.1319 32.375 16.8704 32.4012C17.7569 32.4072 18.2733 32.9845 18.2784 33.7895C18.2836 34.5983 17.7075 35.1644 16.7858 35.1747ZM13.3434 28.1518C10.8512 28.1518 8.35899 28.1527 5.86635 28.151C5.24684 28.151 4.62175 28.0123 4.42872 27.38C4.29716 26.9479 4.27352 26.2602 4.52631 25.9879C4.86938 25.618 5.52027 25.368 6.04433 25.3586C9.22226 25.3032 12.4019 25.3302 15.5807 25.3307C17.361 25.3307 19.1413 25.3238 20.9211 25.3376C21.5324 25.3423 22.1653 25.4909 22.3334 26.1455C22.446 26.5849 22.4473 27.2301 22.1967 27.5385C21.9142 27.886 21.2968 28.1145 20.8192 28.1252C18.3283 28.1811 15.8352 28.1514 13.343 28.1514L13.3434 28.1518Z" fill="black"/>
</g>
<path d="M1.19581 102V90.0419H3.50201V102H1.19581ZM13.7243 102L5.9003 90.6569V90.0419H8.2065L16.0476 101.385V102H13.7243ZM5.9003 102V90.0419H8.2065V102H5.9003ZM13.7243 102V90.0419H16.0476V102H13.7243ZM22.648 102.273C21.7939 102.273 21.0251 102.125 20.3418 101.829C19.6699 101.533 19.1061 101.117 18.6506 100.582C18.2064 100.035 17.9103 99.4034 17.7623 98.6859L19.8635 98.1392L20.0514 98.1734C20.2108 98.572 20.4215 98.9194 20.6835 99.2155C20.9454 99.5116 21.2529 99.7394 21.606 99.8988C21.959 100.058 22.3405 100.138 22.7505 100.138C23.1491 100.138 23.4965 100.075 23.7926 99.95C24.1001 99.8248 24.3392 99.6539 24.5101 99.4376C24.6923 99.2098 24.7834 98.9535 24.7834 98.6688C24.7834 98.3386 24.6695 98.0652 24.4417 97.8488C24.2253 97.6325 23.8723 97.4616 23.3826 97.3363L21.3326 96.8068C20.2735 96.5334 19.4649 96.0836 18.9068 95.4572C18.3488 94.8308 18.0698 94.102 18.0698 93.2706C18.0698 92.5759 18.2463 91.9666 18.5994 91.4427C18.9524 90.9188 19.4421 90.5089 20.0685 90.2127C20.7063 89.9166 21.4408 89.7686 22.2722 89.7686C23.0694 89.7686 23.7812 89.9053 24.4076 90.1786C25.0453 90.4519 25.5692 90.8448 25.9792 91.3573C26.4006 91.8584 26.6796 92.462 26.8163 93.1681L24.8688 93.5952L24.6809 93.561C24.5442 93.0257 24.2652 92.6158 23.8438 92.331C23.4224 92.0463 22.8929 91.904 22.2551 91.904C21.7085 91.904 21.27 92.0349 20.9397 92.2969C20.6208 92.5588 20.4614 92.8777 20.4614 93.2535C20.4614 93.5952 20.581 93.8856 20.8201 94.1248C21.0707 94.3525 21.4408 94.529 21.9305 94.6543L23.9805 95.1839C25.0396 95.4572 25.8368 95.8843 26.3721 96.4651C26.9074 97.0345 27.175 97.7406 27.175 98.5834C27.175 99.3237 26.9871 99.9728 26.6113 100.531C26.2354 101.089 25.7059 101.522 25.0225 101.829C24.3506 102.125 23.5591 102.273 22.648 102.273ZM29.0557 102V90.0419H31.3619V102H29.0557ZM38.8339 102.273C37.7406 102.273 36.7725 102.017 35.9298 101.505C35.087 100.981 34.4265 100.252 33.9481 99.318C33.4812 98.3727 33.2477 97.2737 33.2477 96.021C33.2477 94.7682 33.4869 93.6749 33.9652 92.741C34.4549 91.7958 35.1269 91.0669 35.981 90.5544C36.8465 90.0305 37.843 89.7686 38.9705 89.7686C40.1322 89.7686 41.1515 90.0647 42.0284 90.6569C42.9053 91.2491 43.5545 92.0634 43.9758 93.0998L41.943 93.6977L41.755 93.6635C41.4703 93.1169 41.0831 92.6955 40.5934 92.3994C40.1151 92.1033 39.5741 91.9552 38.9705 91.9552C38.31 91.9552 37.7178 92.1203 37.1939 92.4506C36.6814 92.7809 36.2771 93.2478 35.981 93.8514C35.6963 94.455 35.5539 95.1782 35.5539 96.021C35.5539 96.8523 35.7077 97.5755 36.0152 98.1905C36.3227 98.7941 36.744 99.261 37.2793 99.5913C37.8146 99.9216 38.4296 100.087 39.1243 100.087C39.5684 100.087 40.024 99.9842 40.4909 99.7792C40.9578 99.5628 41.3451 99.2383 41.6526 98.8055C41.9714 98.3727 42.1309 97.8318 42.1309 97.1826V97.0459L42.7629 97.3534H39.1243V95.1668H44.1125L44.3517 95.406V102H42.2505V99.6084H43.0192C42.7117 100.235 42.3302 100.747 41.8746 101.146C41.4305 101.533 40.9465 101.818 40.4226 102C39.8987 102.182 39.3691 102.273 38.8339 102.273ZM54.2427 102V90.0419H56.5489V102H54.2427ZM46.5724 102V90.0419H48.8786V102H46.5724ZM47.7512 96.9434V94.7568H55.5239V96.9434H47.7512ZM61.565 102V90.0419H63.8712V102H61.565ZM58.0801 92.2285V90.0419H67.3561V92.2285H58.0801Z" fill="black"/>
<defs>
<clipPath id="clip0_288_1432">
<rect width="69" height="71" fill="white"/>
</clipPath>
</defs>
</svg>
