<svg width="114" height="108" viewBox="0 0 114 108" fill="none" xmlns="http://www.w3.org/2000/svg">
<g clip-path="url(#clip0_288_1443)">
<path d="M30 37.3463C30.0794 31.9878 31.3369 26.9177 33.2518 21.9965C33.4018 21.6104 33.543 21.2197 33.7151 20.8475C34.5269 19.0939 34.3902 17.3496 33.4768 15.7263C32.74 14.4145 31.8531 13.1912 30.9795 11.9679C29.7794 10.2887 29.7529 10.098 30.9928 8.4839C32.9209 5.9721 34.8535 3.46495 36.7904 0.957801C37.6155 -0.112039 38.0744 -0.195766 39.2524 0.367063C41.6439 1.51133 44.1853 2.14858 46.7709 2.61373C50.4286 3.27424 53.9187 2.72071 57.2323 0.976407C57.7706 0.692667 58.2691 0.678712 58.8163 0.962453C62.2975 2.79049 65.9464 3.3068 69.7807 2.5207C72.353 1.99508 74.8856 1.34853 77.2638 0.157747C77.9521 -0.186463 78.5654 0.0275052 79.161 0.795C80.5774 2.61373 81.9805 4.44641 83.388 6.26979C84.0321 7.10706 84.6719 7.94433 85.3205 8.77694C86.2162 9.92586 86.203 10.4701 85.3293 11.6609C84.4778 12.8284 83.6086 13.9866 82.8541 15.2192C81.7113 17.0798 81.5613 19.0102 82.4526 21.0941C84.1425 25.0385 85.2808 29.169 85.7706 33.4577C86.6265 40.9373 85.2279 47.8075 80.4274 53.6916C78.2565 56.3523 75.6092 58.4222 72.7148 60.1712C70.1425 61.7248 67.3539 62.7481 64.5786 63.8226C62.9814 64.4412 61.4239 65.1482 60.1355 66.353C59.7825 66.6832 59.4781 67.0693 59.1472 67.4228C58.4633 68.1578 57.5808 68.1996 56.9455 67.4228C55.4188 65.5436 53.3848 64.5342 51.2316 63.7249C47.6136 62.3713 44.0574 60.9014 40.8761 58.5897C35.2506 54.5103 31.5752 49.1053 30.428 42.0118C30.1809 40.4768 30.1368 38.9046 30 37.3463ZM33.1106 37.3696C33.1106 37.8627 33.0886 38.3604 33.1106 38.8534C33.3445 43.5979 34.7343 47.9005 37.717 51.5706C40.8938 55.4825 44.9707 58.0315 49.5506 59.7479C52.3744 60.8038 55.26 61.6875 57.6205 63.7388C57.925 64.004 58.2162 63.9389 58.4986 63.697C60.3164 62.1155 62.4475 61.1433 64.6845 60.4177C67.601 59.4688 70.3454 58.1478 72.9133 56.4407C77.4359 53.4312 80.7142 49.4169 82.1746 43.9794C83.3438 39.6256 83.1629 35.2439 82.3026 30.8622C81.6716 27.648 80.6347 24.5734 79.4081 21.5546C78.7595 19.9591 78.7419 18.3171 79.1213 16.6612C79.6243 14.475 80.7406 12.6144 82.0952 10.898C82.457 10.4375 82.479 10.0608 82.1084 9.5863C80.6744 7.75827 79.2581 5.91163 77.8462 4.06499C77.555 3.68357 77.255 3.6231 76.7961 3.77195C75.0356 4.35338 73.2751 4.97203 71.4794 5.41857C67.0495 6.51167 62.7167 6.11629 58.503 4.30222C58.1986 4.17197 57.7485 4.22314 57.4308 4.35803C54.3864 5.65115 51.2272 6.20002 47.9534 5.94884C44.9795 5.72092 42.116 4.95808 39.3495 3.81381C38.9127 3.6324 38.573 3.59984 38.242 4.03708C36.8213 5.90698 35.3917 7.76292 33.9489 9.60956C33.596 10.0608 33.6048 10.4329 33.9489 10.8701C34.3593 11.3911 34.7476 11.9353 35.1049 12.4935C36.208 14.2331 37.0066 16.0891 37.161 18.2101C37.2802 19.8568 36.7728 21.322 36.1771 22.7965C34.2975 27.4619 33.1503 32.2995 33.1062 37.3742L33.1106 37.3696Z" fill="black"/>
<path d="M40.4085 6.51208C40.5982 6.58651 40.7306 6.64233 40.8629 6.69349C43.7088 7.83776 46.643 8.57734 49.6962 8.63781C52.3347 8.68898 54.9026 8.20988 57.3647 7.16794C57.6515 7.04701 58.0442 6.92142 58.2956 7.03305C62.6461 8.94016 67.0892 9.07505 71.6029 7.84241C72.8163 7.51215 73.9988 7.07491 75.1857 6.65628C75.5033 6.54465 75.6798 6.57721 75.8916 6.8656C76.9814 8.33547 78.0845 9.79138 79.2008 11.238C79.4126 11.5124 79.3949 11.6799 79.1964 11.9497C78.0757 13.4567 77.1712 15.0941 76.6726 16.9547C76.1166 19.0153 76.1916 21.0387 76.9991 23.0202C78.0757 25.6622 78.9228 28.3833 79.4743 31.2068C80.2244 35.0489 80.3965 38.8957 79.4832 42.7378C78.4022 47.287 75.9049 50.7895 72.3089 53.4688C69.8822 55.2736 67.2745 56.6969 64.4375 57.6551C62.2402 58.3947 60.1356 59.3576 58.2692 60.8274C58.15 60.9205 57.85 60.9391 57.7353 60.846C55.6527 59.1901 53.2436 58.297 50.8169 57.3993C46.7753 55.9015 43.1441 53.6781 40.2452 50.2825C37.8891 47.5242 36.5875 44.2495 36.111 40.5935C35.458 35.5931 36.3272 30.7928 37.867 26.0902C38.1538 25.211 38.445 24.3273 38.8157 23.4853C40.1393 20.4898 39.8614 17.5733 38.4583 14.7266C37.9862 13.773 37.3817 12.8893 36.8037 12.0008C36.6184 11.7124 36.5654 11.5357 36.7949 11.238C37.9023 9.80998 38.9833 8.35407 40.0776 6.91211C40.1835 6.77257 40.3026 6.64698 40.4085 6.52604V6.51208ZM66.8818 44.4868C66.8686 44.417 66.8465 44.324 66.8333 44.2356C66.3568 41.2773 65.8847 38.3189 65.3861 35.3652C65.3243 35.0024 65.3949 34.7838 65.6376 34.5373C67.6716 32.4627 69.7013 30.3788 71.7132 28.281C71.8853 28.0996 72.0397 27.7461 71.9912 27.5275C71.9515 27.3554 71.5941 27.1972 71.3558 27.16C68.6997 26.7321 66.0435 26.3041 63.3785 25.932C62.7211 25.839 62.2887 25.6018 62.1122 24.918C62.0946 24.8482 62.0505 24.7831 62.0196 24.718C60.8724 22.262 59.734 19.7967 58.5648 17.35C58.4589 17.1221 58.1809 16.8756 57.9647 16.857C57.7927 16.843 57.5897 17.1593 57.4132 17.3407C57.3647 17.3872 57.3514 17.471 57.3205 17.5407C56.1248 20.0991 54.9203 22.6527 53.7422 25.2203C53.5481 25.639 53.3098 25.825 52.873 25.8855C51.2626 26.1088 49.6521 26.3693 48.046 26.6204C46.8724 26.8018 45.6987 26.9693 44.5339 27.1786C44.3221 27.2158 44.053 27.3972 43.9736 27.5833C43.9118 27.7321 44.0706 28.0205 44.1898 28.2019C44.3177 28.3973 44.5074 28.5508 44.6751 28.7183C46.5768 30.6719 48.4784 32.6208 50.3669 34.5884C50.5125 34.7419 50.636 35.0443 50.6051 35.2489C50.3757 36.8118 50.1021 38.3701 49.8462 39.933C49.608 41.4028 49.3653 42.8727 49.1403 44.3426C49.052 44.924 49.3829 45.1985 49.8904 44.9705C50.1154 44.8682 50.3316 44.738 50.5522 44.617C52.8686 43.3379 55.1939 42.0634 57.5015 40.7702C57.8544 40.5749 58.1236 40.5609 58.481 40.7609C60.2547 41.7657 62.046 42.7425 63.833 43.7286C64.5831 44.1426 65.3332 44.5705 66.0921 44.9659C66.5156 45.1845 66.873 44.9659 66.8863 44.5054L66.8818 44.4868Z" fill="black"/>
</g>
<path d="M6.59403 107L6.61111 106.641L11.5652 95.0419H13.803V95.4007L8.84898 107H6.59403ZM1.19581 107V95.0419H3.50201V107H1.19581ZM6.61111 107L1.63997 95.4007V95.0419H3.89492L8.84898 106.641V107H6.61111ZM11.941 107V95.0419H14.2472V107H11.941ZM16.6439 107V95.0419H18.9501V107H16.6439ZM17.8226 107V104.813H24.7412V107H17.8226ZM17.8226 102.029V99.8422H24.2287V102.029H17.8226ZM17.8226 97.2285V95.0419H24.7412V97.2285H17.8226ZM32.0183 107L32.0354 106.641L36.9894 95.0419H39.2273V95.4007L34.2732 107H32.0183ZM26.6201 107V95.0419H28.9263V107H26.6201ZM32.0354 107L27.0642 95.4007V95.0419H29.3192L34.2732 106.641V107H32.0354ZM37.3653 107V95.0419H39.6715V107H37.3653ZM43.1956 107V104.967H46.7489C47.3411 104.967 47.7966 104.819 48.1155 104.523C48.4344 104.227 48.5938 103.817 48.5938 103.293C48.5938 102.781 48.423 102.382 48.0814 102.097C47.7511 101.801 47.3069 101.653 46.7489 101.653H43.1956V99.6885H46.5268C46.8457 99.6885 47.119 99.6372 47.3468 99.5347C47.5859 99.4209 47.7739 99.2671 47.9105 99.0735C48.0472 98.8685 48.1155 98.635 48.1155 98.3731C48.1155 97.9745 47.9675 97.6613 47.6714 97.4335C47.3866 97.1944 47.0051 97.0748 46.5268 97.0748H43.1956V95.0419H46.5268C47.6884 95.0419 48.5995 95.338 49.2601 95.9302C49.9206 96.5224 50.2509 97.2798 50.2509 98.2023C50.2509 98.6464 50.1484 99.0564 49.9434 99.4322C49.7384 99.7967 49.4594 100.098 49.1063 100.338C48.7533 100.577 48.3604 100.719 47.9276 100.765V100.355C48.4629 100.366 48.9469 100.514 49.3797 100.799C49.8238 101.072 50.1712 101.442 50.4217 101.909C50.6837 102.365 50.8146 102.883 50.8146 103.464C50.8146 104.534 50.473 105.394 49.7897 106.043C49.1063 106.681 48.1668 107 46.971 107H43.1956ZM42.0681 107V95.0419H44.2889V107H42.0681ZM52.5281 107V95.0419H54.8343V107H52.5281ZM53.7069 107V104.813H60.6255V107H53.7069ZM53.7069 102.029V99.8422H60.113V102.029H53.7069ZM53.7069 97.2285V95.0419H60.6255V97.2285H53.7069ZM62.5043 107V95.0419H64.7251V107H62.5043ZM63.6318 102.456V100.389H67.3559C67.9481 100.389 68.4036 100.247 68.7225 99.9618C69.0414 99.6657 69.2008 99.2614 69.2008 98.7489H71.507C71.507 99.8764 71.154 100.776 70.4479 101.448C69.7532 102.12 68.7965 102.456 67.578 102.456H63.6318ZM69.2008 98.7489C69.2008 98.2364 69.0414 97.8378 68.7225 97.5531C68.4036 97.257 67.9481 97.109 67.3559 97.109H63.6318V95.0419H67.578C68.7965 95.0419 69.7532 95.3779 70.4479 96.0498C71.154 96.7217 71.507 97.6214 71.507 98.7489H69.2008ZM69.03 107L66.3992 101.807L68.6371 101.26L71.507 106.863V107H69.03ZM77.4169 107.273C76.5628 107.273 75.7941 107.125 75.1107 106.829C74.4388 106.533 73.8751 106.117 73.4195 105.582C72.9754 105.035 72.6793 104.403 72.5312 103.686L74.6324 103.139L74.8203 103.173C74.9798 103.572 75.1905 103.919 75.4524 104.215C75.7143 104.512 76.0218 104.739 76.3749 104.899C76.7279 105.058 77.1095 105.138 77.5194 105.138C77.918 105.138 78.2654 105.075 78.5615 104.95C78.869 104.825 79.1082 104.654 79.279 104.438C79.4612 104.21 79.5523 103.954 79.5523 103.669C79.5523 103.339 79.4384 103.065 79.2107 102.849C78.9943 102.632 78.6412 102.462 78.1515 102.336L76.1016 101.807C75.0424 101.533 74.2338 101.084 73.6758 100.457C73.1177 99.8308 72.8387 99.102 72.8387 98.2706C72.8387 97.5759 73.0152 96.9666 73.3683 96.4427C73.7213 95.9188 74.211 95.5089 74.8374 95.2127C75.4752 94.9166 76.2098 94.7686 77.0411 94.7686C77.8383 94.7686 78.5501 94.9053 79.1765 95.1786C79.8143 95.4519 80.3381 95.8448 80.7481 96.3573C81.1695 96.8584 81.4485 97.462 81.5852 98.1681L79.6377 98.5952L79.4498 98.561C79.3132 98.0257 79.0341 97.6158 78.6128 97.331C78.1914 97.0463 77.6618 96.904 77.024 96.904C76.4774 96.904 76.0389 97.0349 75.7087 97.2969C75.3898 97.5588 75.2303 97.8777 75.2303 98.2535C75.2303 98.5952 75.3499 98.8856 75.5891 99.1248C75.8396 99.3525 76.2098 99.529 76.6995 99.6543L78.7494 100.184C79.8086 100.457 80.6058 100.884 81.141 101.465C81.6763 102.035 81.9439 102.741 81.9439 103.583C81.9439 104.324 81.756 104.973 81.3802 105.531C81.0044 106.089 80.4748 106.522 79.7915 106.829C79.1196 107.125 78.328 107.273 77.4169 107.273ZM91.4949 107V95.0419H93.8011V107H91.4949ZM83.8247 107V95.0419H86.1309V107H83.8247ZM85.0034 101.943V99.7568H92.7761V101.943H85.0034ZM96.1865 107V95.0419H98.4927V107H96.1865ZM107.417 98.7489C107.417 98.225 107.257 97.8151 106.938 97.519C106.619 97.2228 106.164 97.0748 105.572 97.0748H102.018V95.0419H105.794C106.99 95.0419 107.929 95.3779 108.612 96.0498C109.296 96.7217 109.637 97.6214 109.637 98.7489H107.417ZM100.891 107V95.0419H103.112V107H100.891ZM102.018 102.456V100.423H105.572C106.164 100.423 106.619 100.275 106.938 99.9789C107.257 99.6828 107.417 99.2728 107.417 98.7489H109.637C109.637 99.8764 109.296 100.776 108.612 101.448C107.929 102.12 106.99 102.456 105.794 102.456H102.018Z" fill="black"/>
<defs>
<clipPath id="clip0_288_1443">
<rect width="56" height="68" fill="white" transform="translate(30)"/>
</clipPath>
</defs>
</svg>
