<svg width="105" height="110" viewBox="0 0 105 110" fill="none" xmlns="http://www.w3.org/2000/svg">
<g clip-path="url(#clip0_288_1442)">
<path d="M52.4745 39.3766C48.4989 39.4978 44.5223 39.4588 40.5478 39.6027C40.0219 39.6211 39.9488 39.4329 39.9918 38.9806C40.1714 37.1176 40.4295 35.2546 40.4671 33.3872C40.5295 30.3514 40.1596 27.3405 39.438 24.3902C38.0228 18.6032 35.4323 13.4166 31.5083 8.92347C30.7889 8.10015 30.7835 8.24188 31.5814 7.56786C33.7537 5.73297 36.1388 4.23454 38.7132 3.02607C41.1252 1.89333 43.6448 1.08515 46.2428 0.588564C49.3151 1.38774e-05 52.4294 -0.151451 55.5554 0.153643C57.6266 0.355957 59.6665 0.709736 61.6635 1.30478C64.9046 2.27091 67.9586 3.64167 70.7362 5.59448C71.717 6.28365 72.6439 7.04747 73.615 7.75178C74.0365 8.05687 74.0645 8.29381 73.7042 8.68978C71.5546 11.0516 69.7921 13.6881 68.3748 16.5508C67.2413 18.839 66.352 21.2192 65.7047 23.7C64.8207 27.0885 64.3798 30.5224 64.5153 34.0191C64.5734 35.5099 64.7809 36.9943 64.9229 38.4819C64.9455 38.7145 64.9734 38.9471 65.0035 39.1797C65.0465 39.5172 64.8906 39.6244 64.568 39.6146C61.7559 39.5302 58.9439 39.4458 56.1307 39.382C54.9134 39.355 53.6951 39.3777 52.4767 39.3777C52.4735 39.3777 52.5025 39.3766 52.4745 39.3777V39.3766Z" fill="black"/>
<path d="M91.2408 52.4556C91.2408 54.403 91.2312 56.3504 91.2484 58.2967C91.2527 58.736 91.1559 58.8972 90.672 58.842C86.8835 58.4103 83.0929 57.9992 79.3011 57.5913C70.4735 56.6414 61.6137 56.2303 52.742 56.2736C46.9394 56.3017 41.1367 56.5592 35.3384 56.8286C31.7446 56.9952 28.155 57.3306 24.5719 57.6736C21.1695 58.0003 17.7757 58.4287 14.3808 58.8312C13.9248 58.8853 13.742 58.8139 13.7442 58.2967C13.7624 54.3846 13.7614 50.4725 13.7442 46.5604C13.742 46.0356 13.9635 45.8809 14.4367 45.8268C17.8682 45.433 21.2964 44.9992 24.7289 44.6227C26.7226 44.4041 28.7239 44.2462 30.724 44.098C40.2194 43.3947 49.7288 43.0896 59.2447 43.3709C64.829 43.5354 70.4079 43.9389 75.9869 44.2732C78.1494 44.4031 80.3098 44.5989 82.4638 44.8336C84.8296 45.0911 87.1857 45.4287 89.5461 45.7295C89.8655 45.7706 90.187 45.7987 90.5085 45.8301C91.1774 45.8939 91.2387 45.9556 91.2398 46.6155C91.2408 48.5629 91.2398 50.5093 91.2398 52.4567L91.2408 52.4556Z" fill="black"/>
<path d="M28.1752 11.0224C28.7656 11.7602 29.3688 12.4872 29.9452 13.237C32.1508 16.1083 33.8015 19.2837 34.9091 22.7295C36.4167 27.4185 36.9168 32.221 36.307 37.1252C36.2135 37.875 36.0651 38.6182 35.9801 39.368C35.935 39.765 35.6919 39.8126 35.3876 39.8353C33.5487 39.9749 31.7077 40.1026 29.8699 40.2638C27.445 40.4769 25.0222 40.7192 22.5984 40.9454C22.0639 40.9951 21.5273 41.0298 20.9918 41.0741C20.7036 41.0979 20.5434 41.0157 20.4681 40.689C19.5981 36.9164 19.3132 33.1006 19.7809 29.2588C20.5068 23.3008 22.622 17.8891 26.3019 13.1299C26.7514 12.5489 27.2332 11.9917 27.6881 11.414C27.7988 11.2744 27.8623 11.097 27.9483 10.9369C28.0246 10.965 28.0999 10.9931 28.1763 11.0224H28.1752Z" fill="black"/>
<path d="M76.844 10.9088C77.3516 11.4919 77.7699 11.9322 78.142 12.4083C79.9378 14.7062 81.4885 17.1556 82.6327 19.8528C83.6102 22.1572 84.3489 24.532 84.7984 27.0019C85.3662 30.1232 85.5555 33.2628 85.2254 36.4166C85.0727 37.8804 84.7554 39.3268 84.4737 40.7744C84.449 40.9032 84.1296 41.0709 83.9597 41.059C82.5671 40.9573 81.1766 40.8199 79.7862 40.6868C78.485 40.5634 77.186 40.4163 75.8837 40.3092C73.7954 40.1372 71.706 39.9803 69.6155 39.8375C69.2004 39.8094 69.0617 39.6568 68.981 39.2327C68.5412 36.9023 68.3917 34.5524 68.4229 32.1863C68.4638 29.0672 69.0176 26.0401 69.9488 23.066C71.307 18.7308 73.504 14.8869 76.4612 11.467C76.5892 11.3188 76.6849 11.1435 76.8451 10.9098L76.844 10.9088Z" fill="black"/>
<path d="M34.8037 60.8782C46.6133 60.0613 58.3938 60.057 70.198 60.8684C65.5181 64.046 60.3424 65.7694 54.7387 66.1373C47.5273 66.61 40.8676 64.8585 34.8037 60.8782Z" fill="black"/>
<path d="M16.8295 68.3443C12.8798 69.0638 3.98655 71.2935 0.104512 72C0.405611 70.9755 0.665848 70.0699 0.938988 69.1687C1.30353 67.9667 1.69281 66.7712 2.04661 65.5649C2.26598 64.8173 2.02832 64.1076 1.78529 63.4055C1.1917 61.6928 0.616381 59.9737 0.00342796 58.2697C-0.153574 57.8348 5.13288 56.2011 5.50388 56.1221C6.74484 55.8592 7.98258 55.578 9.21816 55.2858C9.84509 55.1376 9.87628 55.1463 9.87843 55.8225C9.88166 57.4085 9.91499 58.9957 9.86768 60.5796C9.83757 61.5835 10.1946 62.3355 10.9366 62.9835C12.7314 64.5533 14.5003 66.1556 16.2757 67.7482C16.4392 67.8953 16.5779 68.0706 16.8306 68.3443H16.8295Z" fill="black"/>
<path d="M88.17 68.3443C92.1198 69.0637 101.013 71.2935 104.895 72C104.594 70.9754 104.334 70.0699 104.061 69.1687C103.696 67.9667 103.307 66.7712 102.953 65.5649C102.734 64.8173 102.971 64.1076 103.214 63.4054C103.808 61.6928 104.383 59.9737 104.996 58.2697C105.153 57.8348 99.8667 56.2011 99.4957 56.1221C98.2547 55.8592 97.017 55.5779 95.7814 55.2858C94.9975 55.1008 95.1448 55.1603 95.1168 56.4618C95.0878 57.838 95.0942 59.2153 95.1319 60.5914C95.1588 61.59 94.8017 62.3376 94.063 62.9846C92.2682 64.5544 90.4992 66.1567 88.7238 67.7492C88.5604 67.8964 88.4217 68.0716 88.1689 68.3453L88.17 68.3443Z" fill="black"/>
<path d="M88.5049 62.6817C87.6489 63.4531 86.7918 64.2245 85.9358 64.9969C85.8724 64.9764 85.8089 64.9558 85.7455 64.9363C85.7455 64.5036 85.739 64.0719 85.7476 63.6391C85.7562 63.1934 85.7799 62.7477 85.7971 62.3008C86.2283 62.3203 86.6595 62.3311 87.0897 62.3614C87.5306 62.3928 87.9704 62.4426 88.4113 62.4848C88.4425 62.5508 88.4737 62.6157 88.5059 62.6817H88.5049Z" fill="black"/>
<path d="M16.5776 62.5085C17.3702 62.4068 18.1616 62.2986 18.9563 62.2132C19.0381 62.2045 19.2123 62.3354 19.2144 62.4036C19.2327 63.2388 19.2262 64.074 19.2262 64.9093C19.1725 64.9385 19.1176 64.9688 19.0639 64.998C18.2014 64.2212 17.339 63.4444 16.4766 62.6676C16.511 62.6146 16.5443 62.5616 16.5787 62.5075L16.5776 62.5085Z" fill="black"/>
</g>
<path d="M22.594 109L22.6111 108.641L27.5652 97.0419H29.803V97.4007L24.849 109H22.594ZM17.1958 109V97.0419H19.502V109H17.1958ZM22.6111 109L17.64 97.4007V97.0419H19.8949L24.849 108.641V109H22.6111ZM27.941 109V97.0419H30.2472V109H27.941ZM32.6439 109V97.0419H34.9501V109H32.6439ZM33.8226 109V106.813H40.7412V109H33.8226ZM33.8226 104.029V101.842H40.2287V104.029H33.8226ZM33.8226 99.2285V97.0419H40.7412V99.2285H33.8226ZM50.4441 109L42.6201 97.6569V97.0419H44.9263L52.7674 108.385V109H50.4441ZM42.6201 109V97.0419H44.9263V109H42.6201ZM50.4441 109V97.0419H52.7674V109H50.4441ZM57.7962 109V97.0419H60.1024V109H57.7962ZM54.3112 99.2285V97.0419H63.5873V99.2285H54.3112ZM69.9034 109.273C68.7646 109.273 67.7567 109.017 66.8798 108.505C66.0028 107.981 65.3195 107.252 64.8298 106.318C64.3401 105.373 64.0952 104.274 64.0952 103.021C64.0952 101.768 64.3401 100.675 64.8298 99.741C65.3195 98.7958 66.0028 98.0669 66.8798 97.5544C67.7567 97.0305 68.7646 96.7686 69.9034 96.7686C71.0537 96.7686 72.0616 97.0305 72.9271 97.5544C73.8041 98.0669 74.4874 98.7958 74.9771 99.741C75.4668 100.675 75.7117 101.768 75.7117 103.021C75.7117 104.274 75.4668 105.373 74.9771 106.318C74.4874 107.252 73.8041 107.981 72.9271 108.505C72.0616 109.017 71.0537 109.273 69.9034 109.273ZM69.9034 107.087C70.5868 107.087 71.1904 106.922 71.7142 106.591C72.2495 106.261 72.6652 105.794 72.9613 105.19C73.2574 104.576 73.4055 103.852 73.4055 103.021C73.4055 102.178 73.2574 101.455 72.9613 100.851C72.6652 100.248 72.2495 99.7809 71.7142 99.4506C71.1904 99.1203 70.5868 98.9552 69.9034 98.9552C69.2201 98.9552 68.6108 99.1203 68.0756 99.4506C67.5517 99.7809 67.1417 100.248 66.8456 100.851C66.5495 101.455 66.4014 102.178 66.4014 103.021C66.4014 103.852 66.5495 104.576 66.8456 105.19C67.1417 105.794 67.5517 106.261 68.0756 106.591C68.6108 106.922 69.2201 107.087 69.9034 107.087ZM77.5868 109V97.0419H79.8076V109H77.5868ZM78.7143 104.456V102.389H82.4383C83.0305 102.389 83.4861 102.247 83.805 101.962C84.1239 101.666 84.2833 101.261 84.2833 100.749H86.5895C86.5895 101.876 86.2365 102.776 85.5304 103.448C84.8357 104.12 83.879 104.456 82.6604 104.456H78.7143ZM84.2833 100.749C84.2833 100.236 84.1239 99.8378 83.805 99.5531C83.4861 99.257 83.0305 99.109 82.4383 99.109H78.7143V97.0419H82.6604C83.879 97.0419 84.8357 97.3779 85.5304 98.0498C86.2365 98.7217 86.5895 99.6214 86.5895 100.749H84.2833ZM84.1125 109L81.4817 103.807L83.7196 103.26L86.5895 108.863V109H84.1125Z" fill="black"/>
<defs>
<clipPath id="clip0_288_1442">
<rect width="105" height="72" fill="white"/>
</clipPath>
</defs>
</svg>
