<svg width="139" height="107" viewBox="0 0 139 107" fill="none" xmlns="http://www.w3.org/2000/svg">
<path d="M47.8616 46.01C48.2626 49.0865 49.5197 51.2735 52.393 52.0338C53.6024 52.3535 54.971 52.215 56.2521 52.1098C56.9563 52.0523 57.4579 52.026 57.8393 52.6981C59.4692 55.5672 61.8988 56.9456 65.464 56.3659C65.2245 56.8384 65.0775 57.1624 64.9009 57.4707C61.4667 63.4668 58.0224 69.4565 54.5997 75.4591C54.0815 76.3685 53.5134 77.2034 52.3373 77.1785C51.0787 77.1522 50.5923 76.2165 50.1581 75.2203C49.278 73.2031 48.2814 71.2322 47.4708 69.1894C47.1089 68.2764 46.59 68.1293 45.7432 68.2529C43.6978 68.5521 41.6467 68.8185 39.5978 69.0942C39.2214 69.1446 38.8436 69.1958 38.4644 69.2164C36.3778 69.3308 35.3892 67.8692 36.3981 66.0567C38.6243 62.0572 40.9049 58.086 43.1652 54.1043C44.5208 51.7155 45.8778 49.3274 47.2392 46.9415C47.376 46.702 47.5446 46.481 47.8609 46.0085L47.8616 46.01Z" fill="black"/>
<path d="M72.6855 56.433C76.0937 56.9979 78.4365 55.6159 80.0497 52.8612C80.4138 52.2395 80.8032 52.0562 81.579 52.2139C84.6485 52.8357 87.3401 52.2317 89.0482 49.4088C89.5924 48.5093 89.8067 47.4172 90.204 46.3265C90.3726 46.5582 90.5709 46.7841 90.7171 47.0392C94.2903 53.2506 97.8541 59.4663 101.43 65.6762C101.929 66.5424 102.307 67.3808 101.645 68.3407C100.989 69.2928 100.04 69.3141 99.0439 69.1834C96.7829 68.8871 94.5197 68.6008 92.266 68.2526C91.3446 68.1105 90.8293 68.3052 90.4588 69.2374C89.6004 71.3981 88.5821 73.497 87.6658 75.6364C87.288 76.5188 86.667 77.267 85.7276 77.1285C85.0046 77.0219 84.0926 76.499 83.7365 75.8943C80.0237 69.5721 76.4056 63.1951 72.7644 56.8316C72.7268 56.7663 72.7319 56.6775 72.6855 56.4323V56.433Z" fill="black"/>
<path fill-rule="evenodd" clip-rule="evenodd" d="M91.5681 16.5938C89.5473 15.6765 88.2482 14.6058 89.0356 12.234L89.0378 12.2369C89.0469 12.0594 89.0567 11.882 89.0665 11.7046C89.0888 11.3015 89.1111 10.8984 89.1247 10.4954C89.1688 9.16955 88.7425 8.69634 87.3826 8.60184C86.2441 8.52226 85.1035 8.44268 83.9628 8.42776C82.988 8.41497 82.3887 7.9851 82.0391 7.11045C81.6078 6.03045 81.1518 4.9604 80.6763 3.89888C80.0944 2.60146 79.4358 2.33501 78.0534 2.81604C77.8195 2.89736 77.5846 2.97701 77.3496 3.05669C76.5459 3.32927 75.7411 3.60221 74.9688 3.94364C73.9946 4.37422 73.2817 4.13974 72.6064 3.40364C71.9276 2.66399 71.2074 1.95986 70.4873 1.25857C69.3734 0.172177 68.6938 0.160809 67.5829 1.21238C66.8222 1.93215 66.063 2.65546 65.3428 3.41359C64.6582 4.13406 63.9431 4.36782 62.9704 3.93938C62.0987 3.55554 61.1938 3.24301 60.2899 2.93082C60.0778 2.85756 59.8657 2.78431 59.6541 2.71017C58.5497 2.32293 57.7586 2.64125 57.3381 3.75464C57.168 4.20397 56.9919 4.651 56.8157 5.09797L56.8157 5.09803L56.8157 5.09809C56.5654 5.73319 56.3152 6.36819 56.0824 7.00955C55.7408 7.94957 55.0836 8.3901 54.0805 8.42278C52.9819 8.45902 51.8832 8.51728 50.7874 8.59757C49.4138 8.69847 48.9339 9.22568 48.9788 10.602C49.0135 11.6805 49.0765 12.7591 49.1677 13.8341C49.2487 14.7891 48.8362 15.4158 47.9829 15.8286C46.9219 16.3416 45.863 16.8588 44.8244 17.413C43.8423 17.9367 43.5912 18.7204 44.1043 19.7144C44.2599 20.0158 44.4127 20.3188 44.5655 20.6218L44.5655 20.6218L44.5655 20.6219C44.9189 21.3226 45.2723 22.0235 45.6604 22.705C46.1873 23.6308 46.0693 24.4238 45.3853 25.2153C44.6753 26.0381 43.9972 26.8886 43.3335 27.7483C42.5497 28.7651 42.638 29.5289 43.6259 30.3233C44.5089 31.0331 45.4092 31.7216 46.3125 32.4058C47.0608 32.9728 47.3612 33.6229 47.0232 34.5722C46.7358 35.3809 46.5214 36.2152 46.3073 37.0487C46.2426 37.3004 46.1779 37.5521 46.1113 37.803C45.7327 39.2268 46.133 39.8976 47.5841 40.277C48.2841 40.4601 48.9863 40.6348 49.6887 40.8095L49.6895 40.8097L49.69 40.8098L49.6905 40.81C50.0507 40.8996 50.4109 40.9892 50.7708 41.0799C51.6386 41.2987 52.143 41.8146 52.2646 42.7155C52.4144 43.8239 52.599 44.9295 52.8111 46.0287C53.0702 47.3702 53.5377 47.7212 54.9063 47.5648C56.0795 47.4306 57.2477 47.2451 58.41 47.0376C59.3212 46.8749 59.9567 47.1726 60.4372 47.9393C61.0568 48.9283 61.7103 49.8975 62.3711 50.861C63.016 51.8003 63.8215 52.0689 64.8521 51.3981C65.2471 51.1412 65.6499 50.8956 66.0527 50.65L66.0528 50.6499L66.0531 50.6497C66.6194 50.3045 67.1856 49.9593 67.7298 49.5827C68.6048 48.9774 69.398 48.939 70.2738 49.5799C70.8326 49.9891 71.4226 50.3575 72.0123 50.7258L72.0124 50.7258L72.0125 50.726L72.0127 50.7261L72.0129 50.7262C72.2432 50.87 72.4735 51.0139 72.702 51.1601C74.2805 52.169 74.8949 52.0539 75.9147 50.549L76.0576 50.3382C76.5718 49.5794 77.0862 48.8204 77.5757 48.0466C78.0845 47.2423 78.7793 46.9517 79.7274 47.1186C80.8485 47.3162 81.9769 47.4775 83.1052 47.6309C84.4622 47.8157 84.9508 47.4789 85.2077 46.1402C85.4263 45.0006 85.6311 43.8552 85.7643 42.7034C85.8663 41.821 86.3657 41.3755 87.177 41.1687C87.5959 41.0618 88.0155 40.9578 88.435 40.854L88.4361 40.8537C89.1617 40.674 89.8872 40.4944 90.6084 40.299C91.8416 39.9651 92.2484 39.2887 91.9712 38.0722C91.937 37.9225 91.9065 37.7705 91.8759 37.6183L91.8759 37.6182L91.8759 37.6182C91.7828 37.1549 91.6892 36.6889 91.4899 36.2739C90.4687 34.1502 91.2257 32.7952 93.0988 31.4985C96.0618 29.4472 96.1147 29.1466 93.7104 26.5021C92.1138 24.7464 91.9133 23.3033 93.1451 21.2506C94.9407 18.2593 94.8416 18.0795 91.5681 16.5938ZM59.9326 35.8061C58.8587 34.7322 58.8587 32.991 59.9326 31.9171L65.5352 26.3144L59.9327 20.7119C58.8588 19.638 58.8588 17.8968 59.9327 16.8228C61.0067 15.7489 62.7479 15.7489 63.8218 16.8228L69.4243 22.4253L75.0268 16.8228C76.1008 15.7489 77.842 15.7489 78.9159 16.8228C79.9899 17.8968 79.9899 19.638 78.9159 20.7119L73.3134 26.3144L78.916 31.917C79.99 32.991 79.99 34.7322 78.916 35.8061C77.8421 36.8801 76.1009 36.8801 75.0269 35.8061L69.4243 30.2035L63.8217 35.8061C62.7478 36.8801 61.0066 36.8801 59.9326 35.8061Z" fill="black"/>
<path d="M9.01981 106L1.19581 94.6569V94.0419H3.50201L11.3431 105.385V106H9.01981ZM1.19581 106V94.0419H3.50201V106H1.19581ZM9.01981 106V94.0419H11.3431V106H9.01981ZM19.0368 106.273C17.898 106.273 16.8901 106.017 16.0131 105.505C15.1362 104.981 14.4529 104.252 13.9632 103.318C13.4735 102.373 13.2286 101.274 13.2286 100.021C13.2286 98.7682 13.4735 97.6749 13.9632 96.741C14.4529 95.7958 15.1362 95.0669 16.0131 94.5544C16.8901 94.0305 17.898 93.7686 19.0368 93.7686C20.1871 93.7686 21.195 94.0305 22.0605 94.5544C22.9374 95.0669 23.6208 95.7958 24.1105 96.741C24.6002 97.6749 24.845 98.7682 24.845 100.021C24.845 101.274 24.6002 102.373 24.1105 103.318C23.6208 104.252 22.9374 104.981 22.0605 105.505C21.195 106.017 20.1871 106.273 19.0368 106.273ZM19.0368 104.087C19.7202 104.087 20.3238 103.922 20.8476 103.591C21.3829 103.261 21.7986 102.794 22.0947 102.19C22.3908 101.576 22.5388 100.852 22.5388 100.021C22.5388 99.1782 22.3908 98.455 22.0947 97.8514C21.7986 97.2478 21.3829 96.7809 20.8476 96.4506C20.3238 96.1203 19.7202 95.9552 19.0368 95.9552C18.3535 95.9552 17.7442 96.1203 17.209 96.4506C16.6851 96.7809 16.2751 97.2478 15.979 97.8514C15.6829 98.455 15.5348 99.1782 15.5348 100.021C15.5348 100.852 15.6829 101.576 15.979 102.19C16.2751 102.794 16.6851 103.261 17.209 103.591C17.7442 103.922 18.3535 104.087 19.0368 104.087ZM38.7637 106L34.4417 94.4007L34.3392 94.0419H36.6454L41.1894 105.863V106H38.7637ZM29.7951 106V105.863L34.3392 94.0419H36.6454L36.4916 94.4007L32.1696 106H29.7951ZM31.9817 103.318L32.4942 101.131H38.6612L39.1737 103.318H31.9817ZM47.0953 106.273C45.9451 106.273 44.9372 106.011 44.0717 105.488C43.2061 104.964 42.5342 104.235 42.0559 103.301C41.5889 102.356 41.3555 101.262 41.3555 100.021C41.3555 98.7682 41.5889 97.6749 42.0559 96.741C42.5342 95.8072 43.2061 95.0783 44.0717 94.5544C44.9372 94.0305 45.9451 93.7686 47.0953 93.7686C48.2798 93.7686 49.3218 94.0761 50.2215 94.6911C51.1212 95.3061 51.7533 96.1488 52.1177 97.2194L50.0849 97.8173L49.897 97.7831C49.6806 97.2137 49.3161 96.7695 48.8036 96.4506C48.3025 96.1203 47.7331 95.9552 47.0953 95.9552C46.3893 95.9552 45.78 96.126 45.2675 96.4677C44.755 96.798 44.3564 97.2706 44.0717 97.8856C43.7983 98.4892 43.6617 99.201 43.6617 100.021C43.6617 100.841 43.7983 101.558 44.0717 102.173C44.3564 102.777 44.755 103.25 45.2675 103.591C45.78 103.922 46.3893 104.087 47.0953 104.087C47.7331 104.087 48.3025 103.927 48.8036 103.608C49.3161 103.278 49.6806 102.828 49.897 102.259L50.0849 102.225L52.1177 102.823C51.7533 103.893 51.1212 104.736 50.2215 105.351C49.3218 105.966 48.2798 106.273 47.0953 106.273ZM56.4601 106V94.0419H58.7664V106H56.4601ZM52.9752 96.2285V94.0419H62.2513V96.2285H52.9752ZM63.7889 106V94.0419H66.0951V106H63.7889ZM72.0125 106L72.1491 105.641L76.5565 94.0419H78.9481V94.1786L74.3187 106H72.0125ZM72.0125 106L67.383 94.1786V94.0419H69.8088L74.2162 105.641L74.3187 106H72.0125ZM80.2212 106V94.0419H82.5274V106H80.2212ZM81.4 106V103.813H88.3186V106H81.4ZM81.4 101.029V98.8422H87.8061V101.029H81.4ZM81.4 96.2285V94.0419H88.3186V96.2285H81.4ZM100.994 97.7489C100.994 97.225 100.834 96.8151 100.516 96.519C100.197 96.2228 99.7411 96.0748 99.1489 96.0748H95.5956V94.0419H99.371C100.567 94.0419 101.506 94.3779 102.19 95.0498C102.873 95.7217 103.215 96.6214 103.215 97.7489H100.994ZM94.4682 106V94.0419H96.6889V106H94.4682ZM95.5956 101.456V99.4231H99.1489C99.7411 99.4231 100.197 99.275 100.516 98.9789C100.834 98.6828 100.994 98.2728 100.994 97.7489H103.215C103.215 98.8764 102.873 99.7761 102.19 100.448C101.506 101.12 100.567 101.456 99.371 101.456H95.5956ZM105.095 106V94.0419H107.401V106H105.095ZM106.274 106V103.813H113.021V106H106.274ZM122.243 106L117.921 94.4007L117.819 94.0419H120.125L124.669 105.863V106H122.243ZM113.275 106V105.863L117.819 94.0419H120.125L119.971 94.4007L115.649 106H113.275ZM115.461 103.318L115.974 101.131H122.141L122.653 103.318H115.461ZM133.689 106L125.865 94.6569V94.0419H128.171L136.012 105.385V106H133.689ZM125.865 106V94.0419H128.171V106H125.865ZM133.689 106V94.0419H136.012V106H133.689Z" fill="black"/>
</svg>
